<?xml version="1.0" standalone="no"?>
<!DOCTYPE svg PUBLIC "-//W3C//DTD SVG 1.1//EN" "http://www.w3.org/Graphics/SVG/1.1/DTD/svg11.dtd" >
<svg xmlns="http://www.w3.org/2000/svg">
<metadata>
Created by FontPrep 20130207 at Wed Dec 11 14:45:36 2013
 By Philip DiBello
Copyright (c) 2011 Linotype Corp., www.linotype.com. All rights reserved. This font software may not be reproduced, modified, disclosed or transferred without the express written approval of Linotype Corp. Neue Haas Grotesk is a trademark of Linotype Corp. registered in the U.S. Patent and Trademark Office and may be registered in certain other jurisdictions in the name of Linotype Corp. or its licensee Linotype GmbH. This typeface is original artwork of Christian Schwartz. The design may be protected in certain jurisdictions.
</metadata>
<defs>
<font id="a6edbb850aba76ea59dba404ea3681c2" horiz-adv-x='1024' >
  <font-face 
    font-family="NHaasGroteskDSStd-25Th"
    font-weight="300"
    font-stretch="normal"
    units-per-em="2048"
    panose-1="2 11 2 4 2 2 2 2 2 4"
    ascent="1581"
    descent="-467"
    x-height="1059"
    cap-height="1464"
    bbox="-373 -418 2087 1864"
    underline-thickness="102"
    underline-position="255"
    unicode-range="U+0020-FB04"
  />
<missing-glyph horiz-adv-x="1024" 
 />
    <glyph glyph-name=".notdef" horiz-adv-x="1024" 
 />
    <glyph glyph-name=".null" horiz-adv-x="0" 
 />
    <glyph glyph-name="nonmarkingreturn" horiz-adv-x="681" 
 />
    <glyph glyph-name="space" unicode=" " horiz-adv-x="335" 
 />
    <glyph glyph-name="exclam" unicode="!" horiz-adv-x="356" 
d="M143 1464h68v-526l-12 -580h-45l-11 580v526zM215 135v-135h-74v135h74z" />
    <glyph glyph-name="quotedbl" unicode="&#x22;" horiz-adv-x="473" 
d="M150 1464v-411h-62v411h62zM385 1464v-411h-61v411h61z" />
    <glyph glyph-name="numbersign" unicode="#" horiz-adv-x="1095" 
d="M131 907l10 54h215l66 440h59l-67 -440h336l67 440h57l-65 -440h221l-10 -54h-219l-58 -385h218l-9 -55h-217l-69 -467h-60l70 467h-334l-70 -467h-59l70 467h-217l10 55h213l59 385h-217zM408 907l-60 -385h336l57 385h-333z" />
    <glyph glyph-name="dollar" unicode="$" horiz-adv-x="1118" 
d="M588 1552v-116q381 -20 424 -365h-62q-39 289 -362 307v-604q244 -43 356 -122t112 -256t-131.5 -283t-336.5 -111v-172h-53v172q-231 12 -358 134q-126 122 -136 319h61q10 -173 121 -279t312 -119v668q-229 43 -332 119t-103 234t121 256t314 102v116h53zM991 390
q0 150 -89 217t-314 108v-658q174 3 288 93t115 240zM164 1081q0 -131 84 -194t287 -101v594q-167 -4 -269 -86t-102 -213z" />
    <glyph glyph-name="percent" unicode="%" horiz-adv-x="1460" 
d="M283 0l847 1403h62l-848 -1403h-61zM633 1036q0 -176 -79 -278t-207 -101t-209 103t-81 275t82 275t208 102t206 -100t80 -276zM574 1034q0 156 -62 241t-164 85t-166 -86t-63 -240t63 -240t165 -86t165 86q62 84 62 240zM1115 -20q-128 0 -208 102t-80 275t81 275
t208 102t206 -100t79 -276t-79 -277t-207 -101zM1116 682q-102 0 -166 -85t-64 -240t64 -241t167 -86t163 86q60 84 61 240t-61 241t-164 85z" />
    <glyph glyph-name="ampersand" unicode="&#x26;" horiz-adv-x="1144" 
d="M242 1180q0 102 79 180t201 78t202 -75t79.5 -200t-71.5 -204t-222 -168l391 -486q76 152 82 348h64q-6 -227 -105 -399l205 -254h-76l-162 201q-156 -221 -413 -221q-178 0 -301 100t-123 270t105 273q55 55 107 92t138 88l-27 35q-81 100 -117 170t-36 172zM498 37
q236 0 372 213l-413 510q-135 -82 -203 -146q-67 -66 -92 -128t-25 -138q1 -137 103 -224t258 -87zM739 1160q1 100 -57 160t-156 60t-158 -60t-60 -146t32.5 -147.5t97.5 -145.5l37 -47q141 84 203 155q61 71 61 171z" />
    <glyph glyph-name="quotesingle" unicode="'" horiz-adv-x="237" 
d="M150 1464v-411h-62v411h62z" />
    <glyph glyph-name="parenleft" unicode="(" horiz-adv-x="512" 
d="M217 686q0 -504 252 -928h-59q-262 430 -263 928q1 452 263 858h59q-252 -406 -252 -858z" />
    <glyph glyph-name="parenright" unicode=")" horiz-adv-x="512" 
d="M295 654q0 474 -252 890h59q262 -418 262 -893t-262 -893h-59q252 422 252 896z" />
    <glyph glyph-name="asterisk" unicode="*" horiz-adv-x="704" 
d="M324 1454h55v-250l223 76l16 -45l-221 -78l144 -201l-41 -28l-148 207l-145 -207l-41 28l141 201l-221 78l16 45l222 -76v250z" />
    <glyph glyph-name="plus" unicode="+" horiz-adv-x="1073" 
d="M111 639v59h395v412h61v-412h396v-59h-396v-416h-61v416h-395z" />
    <glyph glyph-name="comma" unicode="," horiz-adv-x="249" 
d="M115 -6v6h-29v135h76v-137q0 -168 -113 -219v45q66 45 66 170z" />
    <glyph glyph-name="hyphen" unicode="-" horiz-adv-x="624" 
d="M74 541v57h477v-57h-477z" />
    <glyph glyph-name="period" unicode="." horiz-adv-x="251" 
d="M164 135v-135h-76v135h76z" />
    <glyph glyph-name="slash" unicode="/" horiz-adv-x="729" 
d="M696 1464l-598 -1464h-65l598 1464h65z" />
    <glyph glyph-name="zero" unicode="0" horiz-adv-x="1177" 
d="M590 -20q-238 0 -373 194t-135 527t138 529t368 196t369 -193t139 -529t-134 -530t-372 -194zM147.5 704q-0.5 -308 117.5 -488q117 -180 325 -179q208 0 324 179.5t116 485.5t-119 486t-321 180t-322 -178t-120.5 -486z" />
    <glyph glyph-name="one" unicode="1" horiz-adv-x="616" 
d="M444 1409v-1409h-63v1192q-63 -109 -311 -115v58q162 6 234 62t89 212h51z" />
    <glyph glyph-name="two" unicode="2" horiz-adv-x="1042" 
d="M965 59v-59h-902q4 241 154 387q77 75 141 119t216 126t208 134q121 104 121 264t-96 253t-269 93t-274 -109q-100 -110 -102 -286h-64q0 199 123 326t321 127t312 -114t115 -288q0 -77 -42 -187q-13 -34 -57 -76t-66 -67q-22 -26 -217 -130q-194 -104 -318 -214
t-136 -299h832z" />
    <glyph glyph-name="three" unicode="3" horiz-adv-x="1077" 
d="M444 715v57h123q150 0 237 79t86.5 213t-98.5 219t-268 85t-266 -103t-102 -259h-64q6 182 121 301t311 119t314 -102t116 -269q0 -113 -62 -194t-173 -111v-5q135 -33 214 -125t79 -231q0 -185 -129 -297t-343 -112t-350 122q-135 123 -145 320h66q14 -176 129 -278
t302 -102t296 93q108 94 108 251t-104 243t-273 86h-125z" />
    <glyph glyph-name="four" unicode="4" horiz-adv-x="1093" 
d="M823 0h-63v385h-711v61l715 971h59v-975h221v-57h-221v-385zM121 442h639v865h-2l-637 -861v-4z" />
    <glyph glyph-name="five" unicode="5" horiz-adv-x="1032" 
d="M893 1403v-57h-612l-111 -584q133 141 341 141t331 -125.5t123 -333.5t-128 -336t-331 -128t-323 112t-132 277h64q49 -328 393 -328q172 1 282 111t110 290t-104 291t-282 111q-250 0 -358 -174h-62l137 733h662z" />
    <glyph glyph-name="six" unicode="6" horiz-adv-x="1101" 
d="M594 889.5q184 0.5 310 -123.5t126 -326t-128 -331t-318 -129t-318 114q-184 166 -184 600q0 350 131 540t373 191q172 0 278 -93t123 -251h-65q-14 133 -104 210t-232 77q-211 0 -325 -170t-116 -493q0 -98 11 -170q33 158 143 256q111 98 295 98.5zM186 425
q0 -171 112 -280t278 -109t276 113t111 291q0 178 -108 284q-109 106 -281 107t-280 -117t-108 -289z" />
    <glyph glyph-name="seven" unicode="7" horiz-adv-x="1001" 
d="M897 1346h-850v57h922v-60q-561 -571 -600 -1343h-70q37 760 598 1343v3z" />
    <glyph glyph-name="eight" unicode="8" horiz-adv-x="1114" 
d="M559 -20q-215 0 -353 112t-138 297q0 145 87 243t236 134v4q-117 35 -183 118t-65 195q0 150 116 246t299 96t298 -96t115 -246q0 -113 -68 -195t-184 -116v-4q147 -33 237 -134t91 -245q-1 -185 -137 -297t-351 -112zM558 37q194 0 308 98t114 255t-114 252t-310 95
t-310 -95t-114 -253t116 -255t310 -97zM905 1080q0 126 -95 208t-253 82t-254 -82t-96 -207t95 -207t253 -81t254 81t96 206z" />
    <glyph glyph-name="nine" unicode="9" horiz-adv-x="1097" 
d="M510 516q-182 0 -310 124q-126 124 -126 326t129 330t311 128.5t311 -99.5q197 -156 197 -645q0 -356 -137 -535q-123 -166 -361 -165q-174 0 -291 93t-133 251h66q16 -133 114 -210t242 -77q209 0 309 143q123 162 127 508q0 117 -10 182q-32 -158 -144 -256t-294 -98z
M918 976q0 168 -106 280t-279 112t-283 -111t-110 -289t108 -286t282 -108.5t281 117t107 285.5z" />
    <glyph glyph-name="colon" unicode=":" horiz-adv-x="268" 
d="M172 788v-135h-76v135h76zM172 135v-135h-76v135h76z" />
    <glyph glyph-name="semicolon" unicode=";" horiz-adv-x="264" 
d="M123 -6v6h-29v135h76v-137q0 -168 -113 -219v45q66 45 66 170zM170 788v-135h-76v135h76z" />
    <glyph glyph-name="less" unicode="&#x3c;" horiz-adv-x="1011" 
d="M901 322v-64l-799 348v66l799 348v-64l-737 -317v-2z" />
    <glyph glyph-name="equal" unicode="=" 
d="M111 754v59h847v-59h-847zM111 463v59h847v-59h-847z" />
    <glyph glyph-name="greater" unicode="&#x3e;" horiz-adv-x="1011" 
d="M111 258v64l737 317l-737 317v64l798 -348v-66z" />
    <glyph glyph-name="question" unicode="?" horiz-adv-x="980" 
d="M479 360h-59q0 160 42 242t198 213q26 21 35 29t76 66t67 222q0 123 -96 209t-260 86t-262 -105t-105 -271h-64q4 184 119 309q116 124 312 124t309 -104t113 -250t-67 -227q-39 -47 -61 -67t-60 -52t-46 -39q-113 -94 -152 -169t-39 -216zM487 135v-135h-75v135h75z" />
    <glyph glyph-name="at" unicode="@" horiz-adv-x="1765" 
d="M815 172q-154 0 -240 106t-86 271q0 227 112 369t288 143q109 0 183 -57t106 -154h2l26 192h56l-74 -579q-14 -104 24 -163q39 -58 129 -58q133 0 212 129t79 340q0 323 -205 503t-505 181q-207 1 -384 -93t-290 -280t-113 -430q0 -334 203 -536t547 -201q209 0 397 86
l21 -50q-193 -92 -420 -92q-365 0 -586 217t-221 574q0 262 124 462t314 298t400 98t382 -81t284 -252t112 -402t-96 -377t-255 -146q-104 0 -157 58t-49 149q-45 -100 -130 -163q-86 -62 -190 -62zM824 225q140 0 235 136q94 136 94 339q0 142 -70 226t-194 84
q-156 0 -246 -130t-90 -331q0 -139 65 -232q66 -92 206 -92z" />
    <glyph glyph-name="A" unicode="A" horiz-adv-x="1236" 
d="M1153 0l-192 500h-685l-192 -500h-68l566 1464h73l566 -1464h-68zM618 1386l-321 -831h641l-317 831h-3z" />
    <glyph glyph-name="B" unicode="B" horiz-adv-x="1245" 
d="M1126 1098q0 -244 -241 -324q143 -37 224 -132t81 -236q0 -184 -122 -295t-335 -111h-600v1464h569q188 0 304 -90q120 -98 120 -276zM197 739v-680h530q183 -1 289 93t106 250t-100 244t-266 93h-559zM197 1405v-608h551q139 1 225 85t86 224t-97 220t-260 79h-505z" />
    <glyph glyph-name="C" unicode="C" horiz-adv-x="1382" 
d="M739 1430q-281 0 -439 -196t-158 -505t157.5 -501t433.5 -191q227 0 365 138q137 138 162 349h59q-18 -221 -156 -370q-161 -176 -445 -176t-463 206t-179 544.5t180 548.5t483 210q229 -1 375 -121t182 -313h-65q-29 161 -158 269t-334 108z" />
    <glyph glyph-name="D" unicode="D" horiz-adv-x="1337" 
d="M133 0v1464h524q205 0 344 -101q259 -188 261 -638q0 -325 -157 -525t-462 -200h-510zM197 57h444q265 1 409 177t144 492t-139 498t-400 181h-458v-1348z" />
    <glyph glyph-name="E" unicode="E" horiz-adv-x="1191" 
d="M197 1407v-621h827v-57h-827v-670h919v-59h-983v1464h963v-57h-899z" />
    <glyph glyph-name="F" unicode="F" horiz-adv-x="1128" 
d="M197 1407v-614h755v-58h-755v-735h-64v1464h942v-57h-878z" />
    <glyph glyph-name="G" unicode="G" horiz-adv-x="1464" 
d="M1286 668h-510v57h574v-725h-54l-6 346h-4q-41 -152 -179 -260t-351 -109q-322 0 -501 211t-179 540t181 544t501 215q229 0 380 -118t189 -322h-63q-35 176 -169 279t-337 104q-295 0 -455 -201t-160 -502t159 -496t454 -194q246 0 388 156t142 401v74z" />
    <glyph glyph-name="H" unicode="H" horiz-adv-x="1333" 
d="M133 0v1464h64v-657h940v657h63v-1464h-63v752h-940v-752h-64z" />
    <glyph glyph-name="I" unicode="I" horiz-adv-x="342" 
d="M203 1464v-1464h-64v1464h64z" />
    <glyph glyph-name="J" unicode="J" horiz-adv-x="929" 
d="M45 432h64v-51q-1 -172 85 -259t242 -87q312 0 309 334v1095h64v-1099q-1 -181 -93 -285t-278 -104t-290 103t-103 300v53z" />
    <glyph glyph-name="K" unicode="K" horiz-adv-x="1243" 
d="M197 0h-64v1464h64v-856l893 856h86l-629 -602l692 -862h-78l-661 817l-303 -289v-528z" />
    <glyph glyph-name="L" unicode="L" horiz-adv-x="1085" 
d="M197 1464v-1405h841v-59h-905v1464h64z" />
    <glyph glyph-name="M" unicode="M" horiz-adv-x="1624" 
d="M195 1366v-1366h-62v1464h92l588 -1380h2l580 1380h96v-1464h-64v1366h-2l-579 -1366h-66l-583 1366h-2z" />
    <glyph glyph-name="N" unicode="N" horiz-adv-x="1351" 
d="M1219 1464v-1464h-68l-954 1358h-2v-1358h-62v1464h72l950 -1358h2v1358h62z" />
    <glyph glyph-name="O" unicode="O" horiz-adv-x="1499" 
d="M748 -20q-297 0 -485 211q-187 212 -187 540t187 542t485 214t486 -214q188 -213 189 -541q0 -328 -189 -540t-486 -212zM1356 732q0 296 -167 496t-441 200t-440 -199t-166 -497t166 -496t440 -198t441 200q167 198 167 494z" />
    <glyph glyph-name="P" unicode="P" horiz-adv-x="1161" 
d="M653 670h-456v-670h-64v1464h535q188 0 299 -86q147 -100 147 -309q0 -399 -461 -399zM197 1405v-678h452q399 0 400 342q1 160 -101 248t-284 88h-467z" />
    <glyph glyph-name="Q" unicode="Q" horiz-adv-x="1499" 
d="M748 -23q-297 0 -485 213q-187 213 -187 541t187 542t485 214t486 -214t189 -542q1 -184 -65 -340t-182 -258l210 -170l-36 -49l-224 182q-167 -119 -378 -119zM142.5 732q0.5 -298 165.5 -496t440 -199q182 0 329 98l-170 139l37 48l182 -148q109 94 169 240t61 317
q0 297 -167 497t-441 200t-440 -199t-165.5 -497z" />
    <glyph glyph-name="R" unicode="R" horiz-adv-x="1239" 
d="M665 733q395 1 395 337q0 159 -101.5 248t-283.5 89h-484v-674h474zM1125 1068q0 -338 -344 -384l391 -684h-70l-386 674h-525v-674h-63v1464h551q211 0 328 -105q118 -106 118 -291z" />
    <glyph glyph-name="S" unicode="S" horiz-adv-x="1198" 
d="M104 1122q0 166 130 266t346 100t344 -112q128 -111 153 -301h-65q-20 168 -135 259.5t-301 91.5t-296 -82t-110 -220t100 -208t334 -113q131 -25 217 -51t161 -73q146 -90 145 -282t-136 -305.5t-387 -113.5t-398 134t-161 353h68q11 -199 143 -313t350 -114t336 93.5
t119 255.5q0 163 -109 237q-108 74 -364 120t-370 129t-114 249z" />
    <glyph glyph-name="T" unicode="T" horiz-adv-x="1191" 
d="M629 0h-66v1405h-522v59h1110v-59h-522v-1405z" />
    <glyph glyph-name="U" unicode="U" horiz-adv-x="1277" 
d="M113 1464h65v-987q0 -440 461 -440q211 0 336 106t125 334v987h65v-991q0 -249 -144 -371t-385 -122t-382 122t-141 371v991z" />
    <glyph glyph-name="V" unicode="V" horiz-adv-x="1210" 
d="M86 1464l516 -1374h2l522 1374h66l-553 -1464h-70l-551 1464h68z" />
    <glyph glyph-name="W" unicode="W" horiz-adv-x="1777" 
d="M856 1464h70l374 -1360h3l385 1360h63l-416 -1464h-69l-375 1360h-2l-371 -1360h-72l-419 1464h65l389 -1358h2z" />
    <glyph glyph-name="X" unicode="X" horiz-adv-x="1179" 
d="M27 0l526 752l-494 712h74l461 -665h2l461 665h73l-497 -714l520 -750h-74l-487 700h-2l-490 -700h-73z" />
    <glyph glyph-name="Y" unicode="Y" horiz-adv-x="1179" 
d="M621 0h-64v657l-541 807h72l500 -747h2l502 747h71l-542 -809v-655z" />
    <glyph glyph-name="Z" unicode="Z" horiz-adv-x="1204" 
d="M109 1407v57h987v-59l-965 -1344v-4h1006v-57h-1082v63l963 1342v2h-909z" />
    <glyph glyph-name="bracketleft" unicode="[" horiz-adv-x="518" 
d="M225 -184h228v-58h-291v1786h291v-57h-228v-1671z" />
    <glyph glyph-name="backslash" unicode="\" horiz-adv-x="729" 
d="M631 0l-598 1464h65l598 -1464h-65z" />
    <glyph glyph-name="bracketright" unicode="]" horiz-adv-x="518" 
d="M66 -184h227v1671h-227v57h290v-1786h-290v58z" />
    <glyph glyph-name="asciicircum" unicode="^" horiz-adv-x="778" 
d="M688 918l-299 495h-2l-297 -495h-67l329 546h72l330 -546h-66z" />
    <glyph glyph-name="underscore" unicode="_" horiz-adv-x="768" 
d="M-4 -340v53h776v-53h-776z" />
    <glyph glyph-name="grave" unicode="`" horiz-adv-x="958" 
d="M383 1477l147 -254h-59l-170 254h82z" />
    <glyph glyph-name="a" unicode="a" horiz-adv-x="1003" 
d="M920 -12q-127 0 -127 145v72h-5q-41 -97 -146 -161t-257 -64t-244 76t-92 210q0 168 124 234q98 52 286 78q203 22 269 52t65 111v17q0 264 -295 264q-317 0 -338 -268h-64q12 150 110 236t282 87q366 0 366 -321v-617q0 -100 78 -100q23 0 55 14h6v-49q-28 -16 -73 -16z
M391 33q176 0 289 98t113 248v237q-76 -58 -292 -86t-303.5 -80t-87.5 -178t82 -182t199 -57z" />
    <glyph glyph-name="b" unicode="b" horiz-adv-x="1071" 
d="M109 0v1464h61v-678h2q49 139 158 215t248 76q190 -1 316 -145t126 -396t-125 -404t-324 -152q-145 0 -247 72t-152 202h-2v-254h-61zM166 522q0 -224 110 -356t288 -133q178 0 286 137q106 138 106 366t-108 357q-109 129 -285.5 129t-286.5 -138t-110 -362z" />
    <glyph glyph-name="c" unicode="c" horiz-adv-x="1005" 
d="M514 -20q-207 0 -334 156t-127 394t127 393t348 154q174 0 288 -87t142 -245h-61q-31 139 -129 208t-240 69q-186 0 -300 -135t-114 -357t114 -358t287 -138q173 0 273 86t119 236h60q-20 -170 -133 -273t-320 -103z" />
    <glyph glyph-name="d" unicode="d" horiz-adv-x="1073" 
d="M509 33.5q179 -0.5 289 131.5t110 358.5t-109 362.5t-286 136t-288 -130t-111 -358t108 -364t287 -136.5zM903 0v256h-2q-47 -131 -151 -204t-246 -72q-203 0 -327 152t-124 404t129 396t320 145q139 0 246 -72q106 -73 153 -212h2v671h62v-1464h-62z" />
    <glyph glyph-name="e" unicode="e" horiz-adv-x="1021" 
d="M535 35q287 0 364 276h62q-33 -147 -143 -239t-283 -92q-229 0 -356 154q-126 156 -126 398t128 394t345 151q162 0 273 -94q168 -142 174 -451h-858q3 -223 111 -360t309 -137zM522 1022q-170 0 -282 -120t-123 -318h792q-12 210 -114 324q-103 114 -273 114z" />
    <glyph glyph-name="f" unicode="f" horiz-adv-x="520" 
d="M475 1475v-56h-74q-81 0 -117 -38t-36 -124v-198h227v-53h-227v-1006h-62v1006h-149v53h149v201q0 215 213 215h76z" />
    <glyph glyph-name="g" unicode="g" horiz-adv-x="1067" 
d="M897 795v264h61v-1020q0 -189 -116 -295t-311 -106t-304 70t-125 188h64q41 -205 354 -205q188 0 283 95q94 95 94 253v242h-4q-104 -270 -389 -271q-203 0 -327 146t-124 394t130 387.5t321 139.5q146 0 246 -78t143 -204h4zM902 538q0 218 -105 351t-283 133t-289 -127
t-111 -347t108 -352t286 -132t286 128t108 346z" />
    <glyph glyph-name="h" unicode="h" horiz-adv-x="991" 
d="M536 1020q-144 0 -253 -93t-109 -216v-711h-61v1464h61v-596h4q119 207 381 207q156 0 244 -87t88 -230v-758h-64v752q1 268 -291 268z" />
    <glyph glyph-name="i" unicode="i" horiz-adv-x="282" 
d="M172 1059v-1059h-61v1059h61zM172 1454v-137h-61v137h61z" />
    <glyph glyph-name="j" unicode="j" horiz-adv-x="309" 
d="M135 1059h62v-1186q0 -100 -43 -146t-140 -46q-31 0 -59 8v55q25 -8 75 -8q107 0 105 137v1186zM197 1454v-137h-62v137h62z" />
    <glyph glyph-name="k" unicode="k" horiz-adv-x="921" 
d="M170 0h-61v1464h61v-997l606 592h80l-422 -410l486 -649h-72l-457 608l-221 -215v-393z" />
    <glyph glyph-name="l" unicode="l" horiz-adv-x="290" 
d="M176 1464v-1464h-61v1464h61z" />
    <glyph glyph-name="m" unicode="m" horiz-adv-x="1576" 
d="M1413 752q0 268 -269 268q-134 0 -228 -89t-93 -220v-711h-61v752q0 268 -268 268q-132 0 -228 -93t-96 -216v-711h-61v1059h61v-185h4q117 201 342 201q117 0 192 -56t97 -159h6q45 96 136 156t228 60t219 -86.5t81 -231.5v-758h-62v752z" />
    <glyph glyph-name="n" unicode="n" horiz-adv-x="987" 
d="M530 1020q-146 0 -253 -93t-107 -216v-711h-61v1059h61v-191h4q119 207 381 207q154 0 242 -87t88 -230v-758h-62v752q-1 268 -293 268z" />
    <glyph glyph-name="o" unicode="o" 
d="M536 -20q-220 0 -352 157q-131 157 -131 391t131 392q132 158 352 158t350 -156t130 -392t-130 -393t-350 -157zM534.5 33.5q184.5 -0.5 301.5 137.5t116 359q0 221 -116 358q-118 136 -302 136t-302 -137t-118 -357t118 -358t302.5 -138.5z" />
    <glyph glyph-name="p" unicode="p" horiz-adv-x="1071" 
d="M109 -340v1399h61v-273h2q49 141 157 216t249 75q190 1 316 -143t126 -396t-125 -404t-324 -152q-143 0 -247 74t-152 198h-2v-594h-61zM166 524q0 -222 110 -356t288 -133t286 137q106 136 106 364t-108 357q-109 129 -285.5 129t-286.5 -138t-110 -360z" />
    <glyph glyph-name="q" unicode="q" horiz-adv-x="1077" 
d="M512 34.5q180 0.5 290 131.5t110 357.5t-109 362.5t-286 136t-288 -130t-111 -358t107 -364t287 -135.5zM907 -340v596h-4q-47 -131 -150 -203t-245 -71q-203 0 -328 152t-125 403t131 395t322 145q139 0 243 -71q103 -72 152 -209h4v262h62v-1399h-62z" />
    <glyph glyph-name="r" unicode="r" horiz-adv-x="602" 
d="M170 664v-664h-61v1059h61v-215h4q84 176 256 203q63 22 137 14v-60q-66 6 -116 -4q-121 -18 -201 -118t-80 -215z" />
    <glyph glyph-name="s" unicode="s" horiz-adv-x="909" 
d="M801 274q0 110 -73 165q-74 55 -270 89t-286 98t-90 184t94 194t262 73q336 0 383 -305h-61q-37 250 -322 250q-147 0 -221 -58t-74 -152t76 -145q77 -50 271 -84t283 -102t89 -204.5t-106 -216.5t-297 -80t-299 95t-119 251h61q12 -141 106 -217.5t256 -76.5t249.5 66
t87.5 176z" />
    <glyph glyph-name="t" unicode="t" horiz-adv-x="542" 
d="M252 168q0 -125 121 -125q61 0 104 16h4v-53q-45 -16 -110 -16q-180 0 -181 174v842h-153v53h153v327h62v-327h231v-53h-231v-838z" />
    <glyph glyph-name="u" unicode="u" horiz-adv-x="974" 
d="M164 307q0 -275 292 -273q144 0 246 96t103 224v705h61v-1059h-61v182h-4q-117 -201 -365 -200q-158 0 -247 87t-89 232v758h64v-752z" />
    <glyph glyph-name="v" unicode="v" horiz-adv-x="888" 
d="M76 1059l364 -985h2l373 985h64l-400 -1059h-73l-396 1059h66z" />
    <glyph glyph-name="w" unicode="w" horiz-adv-x="1421" 
d="M82 1059l303 -977h2l287 977h69l279 -979l319 979h64l-348 -1059h-72l-276 965h-2l-283 -965h-76l-332 1059h66z" />
    <glyph glyph-name="x" unicode="x" horiz-adv-x="950" 
d="M14 0l422 563l-373 496h76l334 -451l332 451h74l-367 -496l424 -563h-76l-385 518h-2l-385 -518h-74z" />
    <glyph glyph-name="y" unicode="y" horiz-adv-x="901" 
d="M176 -346q-53 0 -92 14v58h2q34 -14 100 -14t109 38t90 160l41 104l-416 1045h66l381 -965h2l366 965h66l-449 -1168q-55 -141 -111 -189t-155 -48z" />
    <glyph glyph-name="z" unicode="z" horiz-adv-x="903" 
d="M135 55h717v-55h-791v57l689 944v3h-652v55h731v-53l-694 -949v-2z" />
    <glyph glyph-name="braceleft" unicode="{" horiz-adv-x="536" 
d="M186 1272q0 144 62 208t192 64h17v-57h-15q-102 0 -147 -48t-45 -167v-443q0 -135 -98 -170q98 -33 98 -170v-456q0 -119 45 -168t147 -49h15v-58h-17q-131 0 -192 65t-62 210v452q0 72 -28 108q-29 36 -101 38h-8v57h8q129 2 129 146v438z" />
    <glyph glyph-name="bar" unicode="|" horiz-adv-x="374" 
d="M158 -242v1786h59v-1786h-59z" />
    <glyph glyph-name="braceright" unicode="}" horiz-adv-x="536" 
d="M80 1487v57h16q130 0 192 -63t62 -209v-438q0 -143 129 -146h8v-57h-8q-73 -2 -101 -38t-28 -108v-452q0 -145 -61 -210t-193 -65h-16v58h14q102 0 148 49q45 49 45 168v456q0 137 98 170q-98 35 -98 170v443q0 119 -45 167t-148 48h-14z" />
    <glyph glyph-name="asciitilde" unicode="~" horiz-adv-x="782" 
d="M236 723q-92 0 -103 -127h-57q6 86 49 135t111 49t114 -34q142 -98 191 -98t77 32.5t29 91.5h60q-5 -86 -49 -134q-96 -105 -279 19q-96 66 -143 66z" />
    <glyph glyph-name="uni00A0" unicode="&#xa0;" horiz-adv-x="335" 
 />
    <glyph glyph-name="exclamdown" unicode="&#xa1;" horiz-adv-x="356" 
d="M211 -260h-68v526l13 580h45l10 -580v-526zM141 1061v143h74v-143h-74z" />
    <glyph glyph-name="cent" unicode="&#xa2;" horiz-adv-x="1011" 
d="M559 -174h-51v154q-211 8 -333 164t-122 386t122 383.5t333 161.5v135h51v-135q160 -8 266 -94t136 -236h-62q-29 131 -119 200t-221 77v-987q147 8 239 93q91 85 109 228h60q-21 -164 -125 -266t-283 -110v-154zM224 879q-108 -134 -108 -348t108 -350t284 -146v987
q-176 -10 -284 -143z" />
    <glyph glyph-name="sterling" unicode="&#xa3;" horiz-adv-x="1073" 
d="M70 657v56h155q-86 209 -86 325q0 168 115 278t307 110t311 -112t123 -321h-61q-6 189 -110 283t-266 94t-257.5 -91t-95.5 -243q0 -92 41 -202q12 -35 45 -121h350v-56h-330q37 -115 37 -198q0 -207 -139 -346l2 -2q63 35 141 35t196 -52t206 -53q131 0 241 115l37 -45
q-127 -127 -280 -127q-100 0 -215 53q-9 4 -14 6l-73 30q-52 19 -108 19q-113 0 -233 -98l-39 51q219 176 219 408q0 90 -43 204h-176z" />
    <glyph glyph-name="currency" unicode="&#xa4;" horiz-adv-x="942" 
d="M94 715q0 160 84 266l-143 154l39 39l141 -150q102 98 255 98t255 -98l143 150l39 -39l-145 -152q86 -111 86 -269t-86 -268l145 -151l-39 -39l-143 150q-104 -98 -255 -98t-253 98l-143 -150l-39 39l143 151q-84 109 -84 269zM156 716.5q0 -150.5 86 -252.5t228 -102
t228 102t86 252t-86 252.5t-228 102.5t-228 -102t-86 -252.5z" />
    <glyph glyph-name="yen" unicode="&#xa5;" horiz-adv-x="1083" 
d="M967 442v-55h-396v-387h-63v387h-393v55h393v191h-393v53h372l-464 717h73l443 -690h2l448 690h72l-469 -717h375v-53h-396v-191h396z" />
    <glyph glyph-name="brokenbar" unicode="&#xa6;" horiz-adv-x="374" 
d="M158 733v811h59v-811h-59zM158 -242v844h59v-844h-59z" />
    <glyph glyph-name="section" unicode="&#xa7;" horiz-adv-x="1116" 
d="M1059 381q0 -203 -234 -277q90 -82 90 -202t-91.5 -191t-259.5 -71t-280 98t-122 260h65q13 -145 107 -223t230 -78.5t211 55.5t75 152t-64 152t-234 154t-213 124q-167 102 -210 159q-72 91 -72 185q0 205 242 274q-94 84 -94 202t92 192t254 74t260 -90t111 -243h-66
q-12 131 -93 203t-214 72t-206 -56t-73 -148t60 -150t126 -95q66 -38 121.5 -70t86.5 -50q219 -123 307 -206t88 -206zM123 680q0 -102 79 -172t295 -193t283 -174q215 63 215 238q0 100 -77 171q-78 70 -310 206t-262 155q-223 -53 -223 -231z" />
    <glyph glyph-name="dieresis" unicode="&#xa8;" horiz-adv-x="950" 
d="M354 1452v-133h-61v133h61zM657 1452v-133h-61v133h61z" />
    <glyph glyph-name="copyright" unicode="&#xa9;" horiz-adv-x="1648" 
d="M825 -29q-313 0 -527 217t-214 539t214 540t527 218t527 -218t214 -540t-214 -539t-527 -217zM824 1440q-294 0 -490 -204t-196 -508t196 -508t490 -204t492 204t197 507q0 303 -197 508q-198 205 -492 205zM822 311q148 0 228 75q79 75 91 198h61q-10 -139 -98 -226
q-98 -102 -275 -102t-295 131t-118 342t114 344q115 133 308 133q150 0 243 -78t113 -204h-64q-18 98 -94 162t-198 65q-168 0 -262 -117t-94 -304t96 -303t244 -116z" />
    <glyph glyph-name="ordfeminine" unicode="&#xaa;" horiz-adv-x="942" 
d="M850 475q-119 0 -119 137v50h-2q-41 -88 -129 -142t-220 -54t-216 70q-84 68 -84 198t94 186t267 76t232 44q58 23 58 82v25q0 233 -260 233t-281 -233h-61q10 131 96 209t254 78q313 0 314 -293v-523q0 -90 69 -90q27 0 56 13h4v-49q-29 -17 -72 -17zM389 520
q152 0 247 86t95 215v197q-55 -42 -247 -66t-266 -69t-74.5 -155t71.5 -159t174 -49z" />
    <glyph glyph-name="guillemotleft" unicode="&#xab;" horiz-adv-x="774" 
d="M664 268l-275 248v80l275 246v-78l-232 -207v-2l232 -209v-78zM385 268l-274 248v80l274 246v-78l-231 -207v-2l231 -209v-78z" />
    <glyph glyph-name="logicalnot" unicode="&#xac;" horiz-adv-x="1075" 
d="M911 301h-63v424h-725v59h788v-483z" />
    <glyph glyph-name="uni00AD" unicode="&#xad;" horiz-adv-x="624" 
d="M74 541v57h477v-57h-477z" />
    <glyph glyph-name="registered" unicode="&#xae;" 
d="M535 506q-203 0 -342 140t-140 349q1 209 141 349t341 140t341 -138q140 -140 140 -350t-139 -350t-342 -140zM967 994q0 192 -123.5 320t-307.5 128t-308 -128t-124 -320t124 -318t308 -126t307.5 126t123.5 318zM403 971v-234h-53v531h223q76 0 121 -39t45 -107
q0 -102 -100 -129v-2q78 -20 86 -130t20 -118v-6h-51q-14 12 -18 99t-36 111t-93 24h-144zM403 1223v-209h158q125 0 125 104q0 49 -33 77t-90 28h-160z" />
    <glyph glyph-name="macron" unicode="&#xaf;" horiz-adv-x="978" 
d="M256 1313v61h467v-61h-467z" />
    <glyph glyph-name="degree" unicode="&#xb0;" horiz-adv-x="632" 
d="M317 946q-102 0 -172 70t-69 170q0 100 70 170q71 70 172 70t169 -70t68 -171t-68 -170t-170 -69zM498 1185q0 81 -50 135t-130 54t-131.5 -53t-51.5 -135t51 -136t131 -54q81 0 131 54t50 135z" />
    <glyph glyph-name="plusminus" unicode="&#xb1;" horiz-adv-x="1073" 
d="M111 672v59h395v381h61v-381h396v-59h-396v-387h-61v387h-395zM111 0v57h852v-57h-852z" />
    <glyph glyph-name="twosuperior" unicode="&#xb2;" horiz-adv-x="669" 
d="M608 635h-553q4 139 81 213q76 74 136 108t93 54t43 27t36 25t36 28q9 10 26 27q38 41 38 123t-54 133.5t-155 51.5t-157 -63t-55 -164h-57q0 123 71 201q72 78 200 78t199 -70t68 -174q0 -123 -97 -193.5t-149 -93.5q-59 -37 -85 -53q-138 -85 -148 -207h483v-51z" />
    <glyph glyph-name="threesuperior" unicode="&#xb3;" horiz-adv-x="704" 
d="M295 1100h74q84 0 133 44t48.5 118t-56.5 120t-150 45.5t-147 -55.5t-60 -147h-57q4 109 75 181t191 72t192 -60t72 -158q0 -137 -133 -181v-2q168 -45 168 -209q0 -112 -81 -180t-212 -68t-214 76t-87 199h60q6 -102 70 -163q65 -60 171 -60t169 53t63 142t-58 135
t-155 47h-76v51z" />
    <glyph glyph-name="acute" unicode="&#xb4;" horiz-adv-x="958" 
d="M430 1223l141 254h82l-166 -254h-57z" />
    <glyph glyph-name="mu" unicode="&#xb5;" horiz-adv-x="980" 
d="M811 0v182h-4q-113 -201 -363 -200q-193 0 -274 143h-2v-465h-59v1399h61v-752q0 -133 75 -202t219 -69t246 96t101 222v705h61v-1059h-61z" />
    <glyph glyph-name="paragraph" unicode="&#xb6;" horiz-adv-x="929" 
d="M512 786h-63q-189 0 -289 90t-100 248t96 249q98 91 276 91h365v-1464h-64v1403h-155v-1403h-66v786z" />
    <glyph glyph-name="periodcentered" unicode="&#xb7;" horiz-adv-x="249" 
d="M166 707v-136h-76v136h76z" />
    <glyph glyph-name="cedilla" unicode="&#xb8;" horiz-adv-x="1011" 
d="M651 -234q0 -62 -54 -100t-150 -37.5t-183 54.5l21 34q76 -41 164 -41q141 0 141 95q0 76 -111 75q-51 0 -96 -22l-21 31l150 145h66l-123 -113q6 4 34 4q76 1 119 -31t43 -94z" />
    <glyph glyph-name="onesuperior" unicode="&#xb9;" horiz-adv-x="466" 
d="M315 633h-59v690q-45 -66 -201 -66v50q100 2 149 36q48 35 60 125h51v-835z" />
    <glyph glyph-name="ordmasculine" unicode="&#xba;" horiz-adv-x="993" 
d="M930 948q0 -210 -118 -348.5t-316 -138.5t-315.5 139t-117.5 348.5t118 347.5q117 138 315 138t316 -138t118 -348zM498 514q172 0 271 125t99 309t-99 309t-271 125t-272 -125t-100 -309t100 -309t272 -125z" />
    <glyph glyph-name="guillemotright" unicode="&#xbb;" horiz-adv-x="774" 
d="M389 268v78l232 211l-232 207v78l275 -246v-80zM111 268v78l231 211l-231 207v78l274 -246v-80z" />
    <glyph glyph-name="onequarter" unicode="&#xbc;" horiz-adv-x="1468" 
d="M1280 0h-57v219h-435v55l439 566h53v-570h131v-51h-131v-219zM1161 1464h68l-1020 -1464h-70zM1223 270v475h-2l-371 -475h373zM322 633h-60v690q-45 -66 -201 -66v50q100 2 149 36q48 35 60 125h52v-835z" />
    <glyph glyph-name="onehalf" unicode="&#xbd;" horiz-adv-x="1527" 
d="M1456 0h-553q4 138 75 208t202.5 149t144 93t29.5 32q38 40 38 122t-54 134t-155 52t-157 -63t-55 -164h-58q0 123 72.5 201t200.5 78t198 -70t69 -174t-71 -167q-52 -48 -107 -80t-95 -55q-146 -87 -184 -160q-19 -38 -23 -85h483v-51zM322 633h-60v690
q-45 -66 -201 -66v50q100 2 149 36q48 35 60 125h52v-835zM1139 1464h67l-1020 -1464h-69z" />
    <glyph glyph-name="threequarters" unicode="&#xbe;" horiz-adv-x="1636" 
d="M1448 0h-57v219h-435v55l439 566h53v-570h131v-51h-131v-219zM301 1100h74q84 0 133 44t48.5 118t-56.5 120t-150 45.5t-147 -55.5t-60 -147h-57q4 109 75 181t191 72t192 -60t72 -158q0 -137 -133 -181v-2q168 -45 168 -209q0 -112 -81 -180t-212 -68t-214 76t-87 199
h60q6 -102 70 -163q65 -60 171 -60t169 53t63 142t-58 135t-155 47h-76v51zM1348 1464h67l-1020 -1464h-69zM1391 270v475h-2l-371 -475h373z" />
    <glyph glyph-name="questiondown" unicode="&#xbf;" horiz-adv-x="980" 
d="M500 844h61q0 -160 -42 -242t-198 -213q-26 -21 -35 -29t-76.5 -66t-67.5 -222q0 -123 96 -209t260 -86t263 105t105 272h64q-4 -184 -119 -310t-313 -126t-309 104t-111 266t121 277q23 20 124 104t139 158t38 217zM492 1061v143h75v-143h-75z" />
    <glyph glyph-name="Agrave" unicode="&#xc0;" horiz-adv-x="1236" 
d="M1153 0l-192 500h-685l-192 -500h-68l566 1464h73l566 -1464h-68zM618 1386l-321 -831h641l-317 831h-3zM504 1776l145 -230h-59l-168 230h82z" />
    <glyph glyph-name="Aacute" unicode="&#xc1;" horiz-adv-x="1236" 
d="M1153 0l-192 500h-685l-192 -500h-68l566 1464h73l566 -1464h-68zM618 1386l-321 -831h641l-317 831h-3zM584 1546l137 230h84l-164 -230h-57z" />
    <glyph glyph-name="Acircumflex" unicode="&#xc2;" horiz-adv-x="1236" 
d="M1153 0l-192 500h-685l-192 -500h-68l566 1464h73l566 -1464h-68zM618 1386l-321 -831h641l-317 831h-3zM655 1757l193 -211h-74l-156 170h-2l-157 -170h-72l193 211h75z" />
    <glyph glyph-name="Atilde" unicode="&#xc3;" horiz-adv-x="1236" 
d="M1153 0l-192 500h-685l-192 -500h-68l566 1464h73l566 -1464h-68zM618 1386l-321 -831h641l-317 831h-3zM750 1624q76 0 84 107h53q-4 -80 -41.5 -121t-93.5 -41t-140 53t-129 53q-74 0 -82 -106h-53q4 78 41 120.5t96 42.5t139 -54t126 -54z" />
    <glyph glyph-name="Adieresis" unicode="&#xc4;" horiz-adv-x="1236" 
d="M1153 0l-192 500h-685l-192 -500h-68l566 1464h73l566 -1464h-68zM618 1386l-321 -831h641l-317 831h-3zM498 1712v-135h-62v135h62zM801 1712v-135h-62v135h62z" />
    <glyph glyph-name="Aring" unicode="&#xc5;" horiz-adv-x="1236" 
d="M1153 0l-192 500h-685l-192 -500h-68l566 1464h73l566 -1464h-68zM618 1386l-321 -831h641l-317 831h-3zM616 1534q-72 0 -118 47t-47 118q1 71 47 118t118 47t119 -46t47 -118t-47 -119t-119 -47zM616 1579q50 0 83.5 34t33.5 87t-33.5 86t-83.5 33t-82 -33t-32 -86
t32 -87t82 -34z" />
    <glyph glyph-name="AE" unicode="&#xc6;" horiz-adv-x="1871" 
d="M977 1407v-621h729v-57h-729v-670h819v-59h-885v500h-620l-201 -500h-65l583 1464h1168v-57h-799zM911 555v852h-260l-340 -852h600z" />
    <glyph glyph-name="Ccedilla" unicode="&#xc7;" horiz-adv-x="1382" 
d="M739 1430q-281 0 -439 -196t-158 -505t157.5 -501t433.5 -191q227 0 365 138q137 138 162 349h59q-18 -221 -156 -370q-135 -152 -366 -174l-101 -93q8 4 35 4q76 1 119 -31t43 -94t-54 -100q-55 -37 -151 -37t-182 54l20 34q76 -41 164 -41q141 0 141 95q0 76 -110 75
q-51 0 -96 -22l-21 31l125 122q-299 2 -476 208t-177 544t180 548t483 210q229 -1 375 -121t182 -313h-65q-29 161 -158 269t-334 108z" />
    <glyph glyph-name="Egrave" unicode="&#xc8;" horiz-adv-x="1191" 
d="M522 1776l146 -230h-60l-168 230h82zM197 1407v-621h827v-57h-827v-670h919v-59h-983v1464h963v-57h-899z" />
    <glyph glyph-name="Eacute" unicode="&#xc9;" horiz-adv-x="1191" 
d="M586 1546l137 230h84l-164 -230h-57zM197 1407v-621h827v-57h-827v-670h919v-59h-983v1464h963v-57h-899z" />
    <glyph glyph-name="Ecircumflex" unicode="&#xca;" horiz-adv-x="1191" 
d="M197 1407v-621h827v-57h-827v-670h919v-59h-983v1464h963v-57h-899zM664 1757l192 -211h-74l-155 170h-2l-158 -170h-72l193 211h76z" />
    <glyph glyph-name="Edieresis" unicode="&#xcb;" horiz-adv-x="1191" 
d="M506 1712v-135h-62v135h62zM809 1712v-135h-61v135h61zM197 1407v-621h827v-57h-827v-670h919v-59h-983v1464h963v-57h-899z" />
    <glyph glyph-name="Igrave" unicode="&#xcc;" horiz-adv-x="342" 
d="M203 1464v-1464h-64v1464h64zM53 1776l146 -230h-60l-168 230h82z" />
    <glyph glyph-name="Iacute" unicode="&#xcd;" horiz-adv-x="342" 
d="M203 1464v-1464h-64v1464h64zM145 1546l138 230h84l-164 -230h-58z" />
    <glyph glyph-name="Icircumflex" unicode="&#xce;" horiz-adv-x="342" 
d="M203 1464v-1464h-64v1464h64zM209 1757l192 -211h-73l-156 170h-2l-158 -170h-71l192 211h76z" />
    <glyph glyph-name="Idieresis" unicode="&#xcf;" horiz-adv-x="342" 
d="M66 1712v-135h-62v135h62zM338 1712v-135h-62v135h62zM203 1464v-1464h-64v1464h64z" />
    <glyph glyph-name="Eth" unicode="&#xd0;" horiz-adv-x="1366" 
d="M156 0v709h-150v57h150v698h524q205 0 344 -101q260 -189 260 -638q0 -325 -157 -525t-461 -200h-510zM219 57h447q264 1 407 177t143 492t-138 498t-398 181h-461v-639h529v-57h-529v-652z" />
    <glyph glyph-name="Ntilde" unicode="&#xd1;" horiz-adv-x="1351" 
d="M834 1624q76 0 84 107h53q-4 -80 -41.5 -121t-93.5 -41t-140 53t-129 53q-74 0 -82 -106h-53q4 78 41 120.5t96 42.5t139 -54t126 -54zM1219 1464v-1464h-68l-954 1358h-2v-1358h-62v1464h72l950 -1358h2v1358h62z" />
    <glyph glyph-name="Ograve" unicode="&#xd2;" horiz-adv-x="1499" 
d="M645 1776l146 -230h-60l-168 230h82zM748 -20q-297 0 -485 211q-187 212 -187 540t187 542t485 214t486 -214q188 -213 189 -541q0 -328 -189 -540t-486 -212zM1356 732q0 296 -167 496t-441 200t-440 -199t-166 -497t166 -496t440 -198t441 200q167 198 167 494z" />
    <glyph glyph-name="Oacute" unicode="&#xd3;" horiz-adv-x="1499" 
d="M692 1546l137 230h84l-163 -230h-58zM748 -20q-297 0 -485 211q-187 212 -187 540t187 542t485 214t486 -214q188 -213 189 -541q0 -328 -189 -540t-486 -212zM1356 732q0 296 -167 496t-441 200t-440 -199t-166 -497t166 -496t440 -198t441 200q167 198 167 494z" />
    <glyph glyph-name="Ocircumflex" unicode="&#xd4;" horiz-adv-x="1499" 
d="M748 -20q-297 0 -485 211q-187 212 -187 540t187 542t485 214t486 -214q188 -213 189 -541q0 -328 -189 -540t-486 -212zM1356 732q0 296 -167 496t-441 200t-440 -199t-166 -497t166 -496t440 -198t441 200q167 198 167 494zM784 1757l193 -211h-74l-155 170h-3
l-157 -170h-72l193 211h75z" />
    <glyph glyph-name="Otilde" unicode="&#xd5;" horiz-adv-x="1499" 
d="M887 1624q76 0 84 107h53q-4 -80 -41 -121t-94 -41t-140 53t-128 53q-74 0 -82 -106h-54q4 78 41 120q83 92 199.5 13.5t161.5 -78.5zM748 -20q-297 0 -485 211q-187 212 -187 540t187 542t485 214t486 -214q188 -213 189 -541q0 -328 -189 -540t-486 -212zM1356 732
q0 296 -167 496t-441 200t-440 -199t-166 -497t166 -496t440 -198t441 200q167 198 167 494z" />
    <glyph glyph-name="Odieresis" unicode="&#xd6;" horiz-adv-x="1499" 
d="M629 1712v-135h-62v135h62zM932 1712v-135h-62v135h62zM748 -20q-297 0 -485 211q-187 212 -187 540t187 542t485 214t486 -214q188 -213 189 -541q0 -328 -189 -540t-486 -212zM1356 732q0 296 -167 496t-441 200t-440 -199t-166 -497t166 -496t440 -198t441 200
q167 198 167 494z" />
    <glyph glyph-name="multiply" unicode="&#xd7;" horiz-adv-x="1040" 
d="M846 1038l39 -41l-326 -331l326 -332l-41 -41l-324 330l-323 -330l-41 41l323 332l-325 331l41 41l325 -333z" />
    <glyph glyph-name="Oslash" unicode="&#xd8;" horiz-adv-x="1499" 
d="M76 744q0 318 187 530t474 212.5t477 -194.5l175 195l38 -37l-178 -197q174 -213 174 -529t-189 -530t-479 -214t-474 194l-177 -197l-36 37l178 199q-170 213 -170 531zM755 39q267 0 434 199t167 484t-150 480l-882 -983q164 -180 431 -180zM143 741q0 -291 146 -481
l885 985q-170 182 -435 182t-431 -197q-165 -198 -165 -489z" />
    <glyph glyph-name="Ugrave" unicode="&#xd9;" horiz-adv-x="1277" 
d="M547 1776l145 -230h-59l-168 230h82zM113 1464h65v-987q0 -440 461 -440q211 0 336 106t125 334v987h65v-991q0 -249 -144 -371t-385 -122t-382 122t-141 371v991z" />
    <glyph glyph-name="Uacute" unicode="&#xda;" horiz-adv-x="1277" 
d="M582 1546l137 230h84l-164 -230h-57zM113 1464h65v-987q0 -440 461 -440q211 0 336 106t125 334v987h65v-991q0 -249 -144 -371t-385 -122t-382 122t-141 371v991z" />
    <glyph glyph-name="Ucircumflex" unicode="&#xdb;" horiz-adv-x="1277" 
d="M113 1464h65v-987q0 -440 461 -440q211 0 336 106t125 334v987h65v-991q0 -249 -144 -371t-385 -122t-382 122t-141 371v991zM682 1757l192 -211h-73l-156 170h-2l-158 -170h-71l192 211h76z" />
    <glyph glyph-name="Udieresis" unicode="&#xdc;" horiz-adv-x="1277" 
d="M520 1712v-135h-61v135h61zM823 1712v-135h-61v135h61zM113 1464h65v-987q0 -440 461 -440q211 0 336 106t125 334v987h65v-991q0 -249 -144 -371t-385 -122t-382 122t-141 371v991z" />
    <glyph glyph-name="Yacute" unicode="&#xdd;" horiz-adv-x="1179" 
d="M621 0h-64v657l-541 807h72l500 -747h2l502 747h71l-542 -809v-655zM545 1546l137 230h84l-164 -230h-57z" />
    <glyph glyph-name="Thorn" unicode="&#xde;" horiz-adv-x="1142" 
d="M641 1174q455 0 455 -397q0 -200 -119 -297t-359 -97h-421v-383h-64v1464h64v-290h444zM637 1114h-440v-674h419q213 0 314 83q100 83 100 257q0 334 -393 334z" />
    <glyph glyph-name="germandbls" unicode="&#xdf;" horiz-adv-x="966" 
d="M387 803v53h88q129 0 207 81t78 207t-79 205t-220 79t-216 -86t-75 -240v-1102h-61v1106q0 174 90 274t259 100t267 -96t98 -243q0 -111 -58 -191t-163 -112v-2q141 -31 227 -140t86 -266q1 -207 -115 -324t-315 -116q-63 0 -114 12v53h2q43 -10 106 -10q176 0 275 102
q98 103 98 275t-99 276t-261 105h-105z" />
    <glyph glyph-name="agrave" unicode="&#xe0;" horiz-adv-x="1003" 
d="M920 -12q-127 0 -127 145v72h-5q-41 -97 -146 -161t-257 -64t-244 76t-92 210q0 168 124 234q98 52 286 78q203 22 269 52t65 111v17q0 264 -295 264q-317 0 -338 -268h-64q12 150 110 236t282 87q366 0 366 -321v-617q0 -100 78 -100q23 0 55 14h6v-49q-28 -16 -73 -16z
M391 33q176 0 289 98t113 248v237q-76 -58 -292 -86t-303.5 -80t-87.5 -178t82 -182t199 -57zM389 1477l148 -254h-60l-170 254h82z" />
    <glyph glyph-name="aacute" unicode="&#xe1;" horiz-adv-x="1003" 
d="M920 -12q-127 0 -127 145v72h-5q-41 -97 -146 -161t-257 -64t-244 76t-92 210q0 168 124 234q98 52 286 78q203 22 269 52t65 111v17q0 264 -295 264q-317 0 -338 -268h-64q12 150 110 236t282 87q366 0 366 -321v-617q0 -100 78 -100q23 0 55 14h6v-49q-28 -16 -73 -16z
M391 33q176 0 289 98t113 248v237q-76 -58 -292 -86t-303.5 -80t-87.5 -178t82 -182t199 -57zM444 1223l142 254h82l-166 -254h-58z" />
    <glyph glyph-name="acircumflex" unicode="&#xe2;" horiz-adv-x="1003" 
d="M920 -12q-127 0 -127 145v72h-5q-41 -97 -146 -161t-257 -64t-244 76t-92 210q0 168 124 234q98 52 286 78q203 22 269 52t65 111v17q0 264 -295 264q-317 0 -338 -268h-64q12 150 110 236t282 87q366 0 366 -321v-617q0 -100 78 -100q23 0 55 14h6v-49q-28 -16 -73 -16z
M391 33q176 0 289 98t113 248v237q-76 -58 -292 -86t-303.5 -80t-87.5 -178t82 -182t199 -57zM518 1442l180 -215h-71l-146 172h-2l-147 -172h-68l178 215h76z" />
    <glyph glyph-name="atilde" unicode="&#xe3;" horiz-adv-x="1003" 
d="M920 -12q-127 0 -127 145v72h-5q-41 -97 -146 -161t-257 -64t-244 76t-92 210q0 168 124 234q98 52 286 78q203 22 269 52t65 111v17q0 264 -295 264q-317 0 -338 -268h-64q12 150 110 236t282 87q366 0 366 -321v-617q0 -100 78 -100q23 0 55 14h6v-49q-28 -16 -73 -16z
M391 33q176 0 289 98t113 248v237q-76 -58 -292 -86t-303.5 -80t-87.5 -178t82 -182t199 -57zM356 1405q60 0 140 -53t125 -54q76 0 84 107h53q-4 -80 -41 -121t-94 -41t-141 53t-128 54q-74 0 -82 -107h-53q4 78 40.5 120t96.5 42z" />
    <glyph glyph-name="adieresis" unicode="&#xe4;" horiz-adv-x="1003" 
d="M920 -12q-127 0 -127 145v72h-5q-41 -97 -146 -161t-257 -64t-244 76t-92 210q0 168 124 234q98 52 286 78q203 22 269 52t65 111v17q0 264 -295 264q-317 0 -338 -268h-64q12 150 110 236t282 87q366 0 366 -321v-617q0 -100 78 -100q23 0 55 14h6v-49q-28 -16 -73 -16z
M391 33q176 0 289 98t113 248v237q-76 -58 -292 -86t-303.5 -80t-87.5 -178t82 -182t199 -57zM373 1452v-133h-62v133h62zM676 1452v-133h-62v133h62z" />
    <glyph glyph-name="aring" unicode="&#xe5;" horiz-adv-x="1003" 
d="M920 -12q-127 0 -127 145v72h-5q-41 -97 -146 -161t-257 -64t-244 76t-92 210q0 168 124 234q98 52 286 78q203 22 269 52t65 111v17q0 264 -295 264q-317 0 -338 -268h-64q12 150 110 236t282 87q366 0 366 -321v-617q0 -100 78 -100q23 0 55 14h6v-49q-28 -16 -73 -16z
M391 33q176 0 289 98t113 248v237q-76 -58 -292 -86t-303.5 -80t-87.5 -178t82 -182t199 -57zM326 1334q0 70 47 118t119 47.5t118 -47.5t46 -118t-46 -118.5t-118 -47.5t-119 48t-47 118zM492 1214q50 0 82 34t32 86t-32 86t-82 34t-82 -34t-32.5 -86t32 -86t82.5 -34z" />
    <glyph glyph-name="ae" unicode="&#xe6;" horiz-adv-x="1728" 
d="M1257 33q270 0 349 276h59q-33 -151 -134 -241t-274 -91q-319 0 -426 310q-37 -158 -155 -234t-276 -76q-158 -1 -255 77q-96 78 -96 224q-1 146 105 210t307 88t267 54t65 111v13q0 268 -300 268t-327 -268h-62q12 150 110 236t286 87q317 0 346 -282q49 131 151 207
t255 76t261 -93q158 -136 164 -455h-823q2 -225 103 -361t300 -136zM793 397v221q-74 -64 -291 -90t-304 -78t-87 -178t85 -182t205 -57q176 0 284 99t108 265zM1244 1022q-168 0 -272.5 -119t-115.5 -319h758q-10 210 -106 324t-264 114z" />
    <glyph glyph-name="ccedilla" unicode="&#xe7;" horiz-adv-x="1005" 
d="M678 -234q0 -62 -54 -100t-150 -37.5t-183 54.5l20 34q76 -41 164 -41q141 0 141 95q0 76 -110 75q-51 0 -96 -22l-21 31l129 125q-217 4 -341 160t-124 392t127 391t348 154q174 0 288 -87t142 -245h-61q-31 139 -129 208t-240 69q-186 0 -300 -135t-114 -357t114 -358
t287 -138q173 0 273 86t119 236h60q-17 -158 -117 -259t-266 -115l-103 -95q8 4 35 4q76 1 119 -31t43 -94z" />
    <glyph glyph-name="egrave" unicode="&#xe8;" horiz-adv-x="1021" 
d="M535 35q287 0 364 276h62q-33 -147 -143 -239t-283 -92q-229 0 -356 154q-126 156 -126 398t128 394t345 151q162 0 273 -94q168 -142 174 -451h-858q3 -223 111 -360t309 -137zM522 1022q-170 0 -282 -120t-123 -318h792q-12 210 -114 324q-103 114 -273 114zM416 1477
l147 -254h-59l-170 254h82z" />
    <glyph glyph-name="eacute" unicode="&#xe9;" horiz-adv-x="1021" 
d="M465 1223l141 254h82l-166 -254h-57zM535 35q287 0 364 276h62q-33 -147 -143 -239t-283 -92q-229 0 -356 154q-126 156 -126 398t128 394t345 151q162 0 273 -94q168 -142 174 -451h-858q3 -223 111 -360t309 -137zM522 1022q-170 0 -282 -120t-123 -318h792
q-12 210 -114 324q-103 114 -273 114z" />
    <glyph glyph-name="ecircumflex" unicode="&#xea;" horiz-adv-x="1021" 
d="M561 1442l180 -215h-71l-146 172h-2l-147 -172h-68l178 215h76zM535 35q287 0 364 276h62q-33 -147 -143 -239t-283 -92q-229 0 -356 154q-126 156 -126 398t128 394t345 151q162 0 273 -94q168 -142 174 -451h-858q3 -223 111 -360t309 -137zM522 1022q-170 0 -282 -120
t-123 -318h792q-12 210 -114 324q-103 114 -273 114z" />
    <glyph glyph-name="edieresis" unicode="&#xeb;" horiz-adv-x="1021" 
d="M401 1452v-133h-61v133h61zM705 1452v-133h-62v133h62zM535 35q287 0 364 276h62q-33 -147 -143 -239t-283 -92q-229 0 -356 154q-126 156 -126 398t128 394t345 151q162 0 273 -94q168 -142 174 -451h-858q3 -223 111 -360t309 -137zM522 1022q-170 0 -282 -120
t-123 -318h792q-12 210 -114 324q-103 114 -273 114z" />
    <glyph glyph-name="igrave" unicode="&#xec;" horiz-adv-x="282" 
d="M172 1059v-1059h-61v1059h61zM35 1477l135 -254h-57l-156 254h78z" />
    <glyph glyph-name="iacute" unicode="&#xed;" horiz-adv-x="282" 
d="M172 1059v-1059h-61v1059h61zM119 1223l137 254h80l-160 -254h-57z" />
    <glyph glyph-name="icircumflex" unicode="&#xee;" horiz-adv-x="282" 
d="M172 1059v-1059h-61v1059h61zM178 1442l152 -215h-68l-123 172h-2l-123 -172h-63l151 215h76z" />
    <glyph glyph-name="idieresis" unicode="&#xef;" horiz-adv-x="284" 
d="M68 1452v-133h-64v133h64zM281 1452v-133h-64v133h64zM174 1059v-1059h-63v1059h63z" />
    <glyph glyph-name="eth" unicode="&#xf0;" horiz-adv-x="1067" 
d="M1016 553q0 -253 -127 -413t-348 -160t-355 157q-133 159 -133 393t129 390t342 155q122 0 226 -58t161 -161q-70 231 -258 422l-307 -111l-16 43l286 105q-82 76 -186 149h88q113 -82 160 -127l203 74l16 -43l-182 -68q301 -301 301 -747zM952 537q0 215 -116 350
t-308 135t-303 -141t-111 -351t116 -354t310 -142q194 0 303 144t109 359z" />
    <glyph glyph-name="ntilde" unicode="&#xf1;" horiz-adv-x="987" 
d="M530 1020q-146 0 -253 -93t-107 -216v-711h-61v1059h61v-191h4q119 207 381 207q154 0 242 -87t88 -230v-758h-62v752q-1 268 -293 268zM367 1405q59 0 139 -53t125 -54q76 0 84 107h53q-4 -80 -41 -121t-94 -41t-140 53t-128 54q-74 0 -82 -107h-54q4 78 41 120
q38 42 97 42z" />
    <glyph glyph-name="ograve" unicode="&#xf2;" 
d="M536 -20q-220 0 -352 157q-131 157 -131 391t131 392q132 158 352 158t350 -156t130 -392t-130 -393t-350 -157zM534.5 33.5q184.5 -0.5 301.5 137.5t116 359q0 221 -116 358q-118 136 -302 136t-302 -137t-118 -357t118 -358t302.5 -138.5zM422 1477l147 -254h-59
l-170 254h82z" />
    <glyph glyph-name="oacute" unicode="&#xf3;" 
d="M473 1223l141 254h82l-166 -254h-57zM536 -20q-220 0 -352 157q-131 157 -131 391t131 392q132 158 352 158t350 -156t130 -392t-130 -393t-350 -157zM534.5 33.5q184.5 -0.5 301.5 137.5t116 359q0 221 -116 358q-118 136 -302 136t-302 -137t-118 -357t118 -358
t302.5 -138.5z" />
    <glyph glyph-name="ocircumflex" unicode="&#xf4;" 
d="M573 1442l181 -215h-72l-145 172h-2l-148 -172h-68l179 215h75zM536 -20q-220 0 -352 157q-131 157 -131 391t131 392q132 158 352 158t350 -156t130 -392t-130 -393t-350 -157zM534.5 33.5q184.5 -0.5 301.5 137.5t116 359q0 221 -116 358q-118 136 -302 136t-302 -137
t-118 -357t118 -358t302.5 -138.5z" />
    <glyph glyph-name="otilde" unicode="&#xf5;" 
d="M536 -20q-220 0 -352 157q-131 157 -131 391t131 392q132 158 352 158t350 -156t130 -392t-130 -393t-350 -157zM534.5 33.5q184.5 -0.5 301.5 137.5t116 359q0 221 -116 358q-118 136 -302 136t-302 -137t-118 -357t118 -358t302.5 -138.5zM406 1405q59 0 139 -53
t125 -54q76 0 84 107h53q-4 -80 -41.5 -121t-93.5 -41t-140 53t-129 54q-74 0 -81 -107h-54q4 78 41 120q38 42 97 42z" />
    <glyph glyph-name="odieresis" unicode="&#xf6;" 
d="M412 1452v-133h-62v133h62zM715 1452v-133h-62v133h62zM536 -20q-220 0 -352 157q-131 157 -131 391t131 392q132 158 352 158t350 -156t130 -392t-130 -393t-350 -157zM534.5 33.5q184.5 -0.5 301.5 137.5t116 359q0 221 -116 358q-118 136 -302 136t-302 -137
t-118 -357t118 -358t302.5 -138.5z" />
    <glyph glyph-name="divide" unicode="&#xf7;" horiz-adv-x="1073" 
d="M111 639v59h852v-59h-852zM575 1057v-127h-75v127h75zM575 408v-129h-75v129h75z" />
    <glyph glyph-name="oslash" unicode="&#xf8;" 
d="M544 -20q-212 0 -341 135l-119 -138l-35 33l125 142q-121 150 -121 380t132 388q133 158 343 158t340 -138l119 137l35 -33l-123 -141q117 -145 117 -377t-130 -389t-342 -157zM117 539q0 -210 96 -340l616 698q-117 127 -297 127t-298 -137q-117 -138 -117 -348zM540 33
q181 0 296 138q114 138 114 350t-92 337l-616 -698q117 -127 298 -127z" />
    <glyph glyph-name="ugrave" unicode="&#xf9;" horiz-adv-x="974" 
d="M164 307q0 -275 292 -273q144 0 246 96t103 224v705h61v-1059h-61v182h-4q-117 -201 -365 -200q-158 0 -247 87t-89 232v758h64v-752zM383 1477l147 -254h-59l-170 254h82z" />
    <glyph glyph-name="uacute" unicode="&#xfa;" horiz-adv-x="974" 
d="M430 1223l141 254h82l-166 -254h-57zM164 307q0 -275 292 -273q144 0 246 96t103 224v705h61v-1059h-61v182h-4q-117 -201 -365 -200q-158 0 -247 87t-89 232v758h64v-752z" />
    <glyph glyph-name="ucircumflex" unicode="&#xfb;" horiz-adv-x="974" 
d="M524 1442l181 -215h-72l-146 172h-2l-147 -172h-68l179 215h75zM164 307q0 -275 292 -273q144 0 246 96t103 224v705h61v-1059h-61v182h-4q-117 -201 -365 -200q-158 0 -247 87t-89 232v758h64v-752z" />
    <glyph glyph-name="udieresis" unicode="&#xfc;" horiz-adv-x="974" 
d="M360 1452v-133h-61v133h61zM664 1452v-133h-62v133h62zM164 307q0 -275 292 -273q144 0 246 96t103 224v705h61v-1059h-61v182h-4q-117 -201 -365 -200q-158 0 -247 87t-89 232v758h64v-752z" />
    <glyph glyph-name="yacute" unicode="&#xfd;" horiz-adv-x="901" 
d="M176 -346q-53 0 -92 14v58h2q34 -14 100 -14t109 38t90 160l41 104l-416 1045h66l381 -965h2l366 965h66l-449 -1168q-55 -141 -111 -189t-155 -48zM399 1223l142 254h82l-166 -254h-58z" />
    <glyph glyph-name="thorn" unicode="&#xfe;" horiz-adv-x="1071" 
d="M109 -340v1804h61v-665h4q56 135 160 207t244 71q190 1 316 -143t126 -396t-125 -404t-324 -152q-141 0 -244 72t-153 192h-4v-586h-61zM166 524q0 -222 110 -356t288 -133t286 137q106 136 106 364t-108 357q-109 129 -285.5 129t-286.5 -138t-110 -360z" />
    <glyph glyph-name="ydieresis" unicode="&#xff;" horiz-adv-x="901" 
d="M176 -346q-53 0 -92 14v58h2q34 -14 100 -14t109 38t90 160l41 104l-416 1045h66l381 -965h2l366 965h66l-449 -1168q-55 -141 -111 -189t-155 -48zM336 1452v-133h-62v133h62zM639 1452v-133h-61v133h61z" />
    <glyph glyph-name="dotlessi" unicode="&#x131;" horiz-adv-x="282" 
d="M172 1059v-1059h-61v1059h61z" />
    <glyph glyph-name="IJ" unicode="&#x132;" horiz-adv-x="1212" 
d="M328 432h63v-51q0 -172 85 -259t242 -87q310 0 310 334v1095h64v-1099q0 -181 -92 -285t-278 -104t-290 103t-104 300v53zM203 1464v-1464h-64v1464h64z" />
    <glyph glyph-name="ij" unicode="&#x133;" horiz-adv-x="591" 
d="M418 1059h61v-1186q0 -100 -43 -146t-139 -46q-31 0 -59 8v55q25 -8 75 -8q105 0 105 137v1186zM172 1059v-1059h-61v1059h61zM479 1454v-137h-61v137h61zM172 1454v-137h-61v137h61z" />
    <glyph glyph-name="Lslash" unicode="&#x141;" horiz-adv-x="1103" 
d="M215 59h842v-59h-905v535l-162 -91v62l162 88v870h63v-833l592 330v-62l-592 -330v-510z" />
    <glyph glyph-name="lslash" unicode="&#x142;" horiz-adv-x="356" 
d="M213 0h-61v717l-142 -119v70l142 118v678h61v-624l152 129v-72l-152 -127v-770z" />
    <glyph glyph-name="napostrophe" unicode="&#x149;" horiz-adv-x="960" 
d="M45 1348v4h-22v112h69v-112q0 -82 -20 -127t-76 -68v45q49 37 49 146zM504 1020q-144 0 -252 -93t-109 -216v-711h-61v1059h61v-191h4q119 207 381 207q156 0 244 -87t88 -230v-758h-63v752q-1 268 -293 268z" />
    <glyph glyph-name="OE" unicode="&#x152;" horiz-adv-x="2162" 
d="M1249 1407v-621h756v-57h-756v-670h838v-59h-903v211q-53 -102 -166 -167t-281 -64q-289 0 -475 213t-186 541t186 540t475 213q168 0 283 -70t164 -168v215h882v-57h-817zM1184 401v660q-4 158 -131 262t-316 104q-268 -1 -431 -199t-163 -495t163 -495t431 -199
q199 0 323 106t124 256z" />
    <glyph glyph-name="oe" unicode="&#x153;" horiz-adv-x="1835" 
d="M53 528q0 240 118 395t335 154q168 0 276 -93t148 -253q43 158 152 252q110 94 290 94t289 -137q121 -139 125 -410h-823q2 -227 103 -362t298 -135q272 0 348 276h60q-32 -151 -134 -241t-274 -90t-282 93t-150 257q-42 -162 -150 -256t-276 -95q-217 -1 -335 155
t-118 396zM506 30.5q180 0.5 287 137.5q106 136 106 360t-106 360q-107 136 -287 136t-286 -135t-106 -361t106 -362t286 -135.5zM1352 1022q-168 0 -274 -119t-115 -319h759q-12 210 -107 324t-263 114z" />
    <glyph glyph-name="Scaron" unicode="&#x160;" horiz-adv-x="1198" 
d="M104 1122q0 166 130 266t346 100t344 -112q128 -111 153 -301h-65q-20 168 -135 259.5t-301 91.5t-296 -82t-110 -220t100 -208t334 -113q131 -25 217 -51t161 -73q146 -90 145 -282t-136 -305.5t-387 -113.5t-398 134t-161 353h68q11 -199 143 -313t350 -114t336 93.5
t119 255.5q0 163 -109 237q-108 74 -364 120t-370 129t-114 249zM811 1757l-193 -211h-75l-193 211h74l158 -170h2l157 170h70z" />
    <glyph glyph-name="scaron" unicode="&#x161;" horiz-adv-x="909" 
d="M668 1438l-181 -213h-75l-179 213h72l146 -172h2l145 172h70zM801 274q0 110 -73 165q-74 55 -270 89t-286 98t-90 184t94 194t262 73q336 0 383 -305h-61q-37 250 -322 250q-147 0 -221 -58t-74 -152t76 -145q77 -50 271 -84t283 -102t89 -204.5t-106 -216.5t-297 -80
t-299 95t-119 251h61q12 -141 106 -217.5t256 -76.5t249.5 66t87.5 176z" />
    <glyph glyph-name="Ydieresis" unicode="&#x178;" horiz-adv-x="1179" 
d="M621 0h-64v657l-541 807h72l500 -747h2l502 747h71l-542 -809v-655zM467 1712v-135h-61v135h61zM770 1712v-135h-61v135h61z" />
    <glyph glyph-name="Zcaron" unicode="&#x17d;" horiz-adv-x="1204" 
d="M836 1757l-193 -211h-76l-192 211h74l157 -170h2l158 170h70zM109 1407v57h987v-59l-965 -1344v-4h1006v-57h-1082v63l963 1342v2h-909z" />
    <glyph glyph-name="zcaron" unicode="&#x17e;" horiz-adv-x="903" 
d="M688 1438l-180 -213h-76l-178 213h72l145 -172h2l145 172h70zM135 55h717v-55h-791v57l689 944v3h-652v55h731v-53l-694 -949v-2z" />
    <glyph glyph-name="florin" unicode="&#x192;" horiz-adv-x="679" 
d="M555 795v-54h-211l-117 -815q-16 -127 -65 -180t-148 -53q-41 0 -57 2v55q15 -2 71 -2t90 41t50 141l115 811h-170v54h176l55 383q18 125 68 179t132 54t107 -4v-55q-25 4 -95 4t-104 -42t-46 -143l-54 -376h203z" />
    <glyph glyph-name="circumflex" unicode="&#x2c6;" horiz-adv-x="944" 
d="M510 1442l180 -215h-72l-145 172h-2l-147 -172h-68l178 215h76z" />
    <glyph glyph-name="caron" unicode="&#x2c7;" horiz-adv-x="944" 
d="M690 1438l-180 -213h-76l-178 213h72l145 -172h2l146 172h69z" />
    <glyph glyph-name="uni02C9" unicode="&#x2c9;" horiz-adv-x="978" 
d="M256 1313v61h467v-61h-467z" />
    <glyph glyph-name="breve" unicode="&#x2d8;" horiz-adv-x="999" 
d="M516 1296q158 0 182 140h58q-6 -88 -71 -144t-169 -56t-168 56q-63 55 -69 144h57q12 -64 57 -102t123 -38z" />
    <glyph glyph-name="dotaccent" unicode="&#x2d9;" horiz-adv-x="970" 
d="M516 1442v-135h-63v135h63z" />
    <glyph glyph-name="ring" unicode="&#x2da;" horiz-adv-x="1017" 
d="M342 1334q0 70 47 118t119 47.5t119 -47.5t47 -118t-47 -118.5t-119 -47.5t-119 48t-47 118zM508 1214q51 0 83 34t32 86t-32 86t-83 34t-83 -34t-32 -86t32 -86t83 -34z" />
    <glyph glyph-name="ogonek" unicode="&#x2db;" horiz-adv-x="1011" 
d="M340 -199q0 -47 32 -75t92 -28t103 19h6v-49q-45 -22 -123 -22t-126 42q-47 42 -48 111q0 117 162 201h78q-176 -98 -176 -199z" />
    <glyph glyph-name="tilde" unicode="&#x2dc;" horiz-adv-x="1007" 
d="M371 1405q59 0 139 -53t125 -54q76 0 84 107h53q-4 -80 -41 -121t-94 -41t-140 53t-128 54q-74 0 -82 -107h-54q4 78 41 120q38 42 97 42z" />
    <glyph glyph-name="hungarumlaut" unicode="&#x2dd;" horiz-adv-x="968" 
d="M297 1223l98 254h74l-117 -254h-55zM553 1223l100 254h72l-117 -254h-55z" />
    <glyph glyph-name="uni0394" unicode="&#x394;" horiz-adv-x="1325" 
d="M1284 0h-1243v53l592 1411h69l582 -1411v-53zM111 55h1103l-546 1338h-2q-88 -217 -105 -258z" />
    <glyph glyph-name="uni03A9" unicode="&#x3a9;" horiz-adv-x="1456" 
d="M952 57h410v-57h-531v59q217 66 350 247q132 181 132 465t-158 470t-428 185.5t-427 -186.5t-157 -468t132 -462t350 -251v-59h-531v57h410v2q-196 83 -312 261t-116 444q0 317 178 520t472 203t474 -203t180 -520q0 -264 -116 -442t-312 -263v-2z" />
    <glyph glyph-name="uni03BC" unicode="&#x3bc;" horiz-adv-x="980" 
d="M811 0v182h-4q-113 -201 -363 -200q-193 0 -274 143h-2v-465h-59v1399h61v-752q0 -133 75 -202t219 -69t246 96t101 222v705h61v-1059h-61z" />
    <glyph glyph-name="pi" unicode="&#x3c0;" horiz-adv-x="1177" 
d="M1114 1059v-53h-196v-846q0 -113 104 -113q49 0 94 23h4v-56q-45 -20 -108 -20q-156 0 -156 162v850h-569v-1006h-62v1006h-184v53h1073z" />
    <glyph glyph-name="uni2009" unicode="&#x2009;" horiz-adv-x="112" 
 />
    <glyph glyph-name="endash" unicode="&#x2013;" horiz-adv-x="1024" 
d="M0 494v57h1024v-57h-1024z" />
    <glyph glyph-name="emdash" unicode="&#x2014;" horiz-adv-x="2048" 
d="M205 494v57h1638v-57h-1638z" />
    <glyph glyph-name="quoteleft" unicode="&#x2018;" horiz-adv-x="258" 
d="M131 1253h29v-137h-74v144q0 154 109 206v-45q-63 -41 -64 -155v-13z" />
    <glyph glyph-name="quoteright" unicode="&#x2019;" horiz-adv-x="258" 
d="M127 1327h-29v137h74v-143q0 -154 -109 -207v45q63 41 64 156v12z" />
    <glyph glyph-name="quotesinglbase" unicode="&#x201a;" horiz-adv-x="278" 
d="M147 -8v12h-28v137h74v-143q0 -154 -109 -207v45q63 41 63 156z" />
    <glyph glyph-name="quotedblleft" unicode="&#x201c;" horiz-adv-x="460" 
d="M131 1253h29v-137h-74v144q0 154 109 206v-45q-63 -41 -64 -155v-13zM332 1266v-13h28v-137h-73v144q0 154 108 206v-45q-63 -41 -63 -155z" />
    <glyph glyph-name="quotedblright" unicode="&#x201d;" horiz-adv-x="458" 
d="M127 1327h-29v137h74v-143q0 -154 -109 -207v45q63 41 64 156v12zM328 1327h-29v137h74v-143q0 -154 -109 -207v45q63 41 64 156v12z" />
    <glyph glyph-name="quotedblbase" unicode="&#x201e;" horiz-adv-x="481" 
d="M147 -8v12h-28v137h74v-143q0 -154 -109 -207v45q63 41 63 156zM350 -8v12h-28v137h73v-143q1 -154 -108 -207v45q63 41 63 156z" />
    <glyph glyph-name="dagger" unicode="&#x2020;" horiz-adv-x="1044" 
d="M74 981v55h418v428h63v-428h416v-55h-416v-1194h-63v1194h-418z" />
    <glyph glyph-name="daggerdbl" unicode="&#x2021;" horiz-adv-x="1044" 
d="M74 981v55h418v428h63v-428h416v-55h-416v-711h416v-55h-416v-428h-63v428h-418v55h418v711h-418z" />
    <glyph glyph-name="bullet" unicode="&#x2022;" horiz-adv-x="483" 
d="M74 667q0 71 49 119t120 49t119 -49t48 -120t-48 -119t-119 -49t-120 49t-49 120z" />
    <glyph glyph-name="ellipsis" unicode="&#x2026;" horiz-adv-x="864" 
d="M162 135v-135h-74v135h74zM469 135v-135h-74v135h74zM776 135v-135h-74v135h74z" />
    <glyph glyph-name="perthousand" unicode="&#x2030;" horiz-adv-x="2119" 
d="M272 0l848 1403h62l-848 -1403h-62zM633 1036q0 -176 -79 -278t-207 -101t-209 103t-81 275t82 275t208 102t206 -100t80 -276zM574 1034q0 156 -62 241t-164 85t-166 -86t-63 -240t63 -240t165 -86t165 86q62 84 62 240zM1098 -20q-128 0 -208.5 102t-80.5 275t81 275
t208 102q128 0 206 -100t78 -276t-78 -277t-206 -101zM1098 682q-102 0 -166 -85t-64 -240t64 -241t167 -86t163 86q60 84 61 240t-61 241t-164 85zM1487 357q0 173 81.5 275t207.5 102t206 -100t80 -276t-78 -277t-206 -101t-209.5 102t-81.5 275zM1777 682
q-101 0 -165 -85t-64 -240t63 -241t166 -86t165 86q62 84 61 240t-63 241t-163 85z" />
    <glyph glyph-name="uni2032" unicode="&#x2032;" horiz-adv-x="280" 
d="M63 1026l93 438h63l-94 -438h-62z" />
    <glyph glyph-name="uni2033" unicode="&#x2033;" horiz-adv-x="507" 
d="M289 1026l94 438h61l-94 -438h-61zM63 1026l93 438h63l-94 -438h-62z" />
    <glyph glyph-name="guilsinglleft" unicode="&#x2039;" horiz-adv-x="505" 
d="M393 346v-78l-282 248v80l282 246v-78l-239 -207v-2z" />
    <glyph glyph-name="guilsinglright" unicode="&#x203a;" horiz-adv-x="505" 
d="M111 268v78l241 211l-241 207v78l282 -246v-80z" />
    <glyph glyph-name="fraction" unicode="&#x2044;" horiz-adv-x="344" 
d="M649 1464h68l-1020 -1464h-70z" />
    <glyph glyph-name="zero.superior" unicode="&#x2070;" horiz-adv-x="772" 
d="M387 620q-154 0 -239 116t-85 313q-1 197 89 313t236 116t234 -116q88 -114 88 -312t-84.5 -314t-238.5 -116zM388 674q126 0 193 98t67 274t-70 278t-191 101.5t-191 -100t-70 -275.5t68 -276t194 -100z" />
    <glyph glyph-name="four.superior" unicode="&#x2074;" horiz-adv-x="720" 
d="M543 633h-58v221h-434v53l438 566h54v-570h131v-49h-131v-221zM485 903v475h-2l-370 -473v-2h372z" />
    <glyph glyph-name="five.superior" unicode="&#x2075;" horiz-adv-x="684" 
d="M582 1411h-375l-64 -315h2q76 80 204 80t202 -77t74 -200t-80 -201t-205 -78t-202 69t-87 171h60q11 -82 69 -134t158 -52t164 62q63 62 63 162t-58 163t-161 63q-152 0 -215 -104h-55l88 444h418v-53z" />
    <glyph glyph-name="six.superior" unicode="&#x2076;" horiz-adv-x="720" 
d="M662 899q0 -123 -82 -201t-207 -78t-207 89q-102 109 -102 328t84 329q86 110 214 110t194 -58t83 -154h-59q-33 162 -199 161q-123 0 -189 -95t-69 -271q0 -21 3 -37t3 -23q25 79 93 129t174 50t186 -78t80 -201zM374 1126q-101 0 -166 -68t-65 -162t68 -158t165 -64
t163 60q65 60 65 164t-64 166q-65 62 -166 62z" />
    <glyph glyph-name="seven.superior" unicode="&#x2077;" horiz-adv-x="663" 
d="M49 1411v53h559v-49q-332 -338 -350 -780h-61q12 426 342 776h-490z" />
    <glyph glyph-name="eight.superior" unicode="&#x2078;" horiz-adv-x="733" 
d="M368 623q-132 0 -220 65q-87 66 -87 178q0 168 181 224v2q-135 53 -136 180q0 92 74 149t187 57t185 -57t73 -149q0 -131 -136 -178v-2q87 -23 135 -81t48 -143q0 -115 -86 -180t-218 -65zM368 672q112 0 178 53t66 143t-66 143q-68 52 -180 52.5t-179 -51.5t-67 -144
t68 -144t180 -52zM366 1110q90 0 145.5 44t55.5 116t-55.5 116t-145.5 44t-146 -44t-56 -116t56 -116t146 -44z" />
    <glyph glyph-name="nine.superior" unicode="&#x2079;" horiz-adv-x="722" 
d="M356 674q237 0 244 360q0 20 -3 36t-3 24q-24 -78 -90 -126t-174 -48t-188 78t-82 200q-1 122 81 200.5t207 78.5t207 -82q102 -103 102 -341t-85.5 -336t-209.5 -98t-196 58.5t-88 161.5h59q35 -166 219 -166zM578 1200q0 94 -68 160t-164 66t-162 -62t-66 -166t65 -164
t167 -60t165 66t63 160z" />
    <glyph glyph-name="zero.inferior" unicode="&#x2080;" horiz-adv-x="772" 
d="M388 537.5q146 -0.5 234 -116.5t88 -314t-84.5 -311.5t-238.5 -113.5t-239 114t-85 310q-1 196 89 314t236 117.5zM387 483.5q-121 0.5 -191 -99.5t-70 -276t68 -276t194 -100t193 99t66 275q0 176 -69 277q-70 100 -191 100.5z" />
    <glyph glyph-name="one.inferior" unicode="&#x2081;" horiz-adv-x="483" 
d="M315 -307h-59v690q-45 -66 -201 -66v50q100 2 149 36q48 35 60 125h51v-835z" />
    <glyph glyph-name="two.inferior" unicode="&#x2082;" horiz-adv-x="669" 
d="M608 -307h-553q4 138 80 212t152 116t103.5 61.5t58.5 41t64 57.5q33 35 32 117t-55 133.5t-155 51.5t-157 -63t-55 -164h-57q0 123 71 201q72 78 199.5 78t199.5 -70t70 -174t-64 -161t-208 -141t-186 -160q-19 -38 -23 -85h483v-51z" />
    <glyph glyph-name="three.inferior" unicode="&#x2083;" horiz-adv-x="704" 
d="M295 158h74q84 0 133 45t48.5 119t-56.5 120t-150 45.5t-147 -56.5t-60 -148h-57q4 111 75 183t191 72t192 -60t72 -159q0 -135 -133 -182v-2q168 -41 168 -209q0 -114 -81 -180t-212 -66t-214 76t-87 199h60q6 -102 70 -163q65 -60 171 -60t169 53t63 142t-58 135
t-155 47h-76v49z" />
    <glyph glyph-name="four.inferior" unicode="&#x2084;" horiz-adv-x="720" 
d="M543 -307h-58v219h-434v55l438 565h54v-569h131v-51h-131v-219zM485 -37v475h-2l-370 -475h372z" />
    <glyph glyph-name="five.inferior" unicode="&#x2085;" horiz-adv-x="684" 
d="M582 469h-375l-64 -315h2q76 80 204 80t202 -77t74 -199t-81 -200t-205 -78t-201 69t-87 169h60q11 -82 69 -134t158 -52t164 62q63 62 63 164t-58 163t-161 61q-152 0 -215 -104h-55l88 444h418v-53z" />
    <glyph glyph-name="six.inferior" unicode="&#x2086;" horiz-adv-x="720" 
d="M662 -43q0 -123 -82 -200t-208 -77t-206 87q-102 109 -102 328t84 329q86 110 214 110t194 -58t83 -152h-59q-33 160 -199 159q-123 0 -189 -95t-69 -271q0 -21 3 -37t3 -23q25 77 93 129t174 52t186 -79t80 -202zM374 184q-101 0 -166 -68t-65 -162t68 -158t165 -64
t163 60q65 60 65 164t-64 167q-65 61 -166 61z" />
    <glyph glyph-name="seven.inferior" unicode="&#x2087;" horiz-adv-x="663" 
d="M49 469v53h559v-49q-332 -336 -350 -780h-61q8 217 98 417t244 359h-490z" />
    <glyph glyph-name="eight.inferior" unicode="&#x2088;" horiz-adv-x="733" 
d="M672 -88q0 -99 -86 -164t-218 -65t-220 65q-87 66 -87 178q0 168 181 224v2q-135 53 -136 180q0 92 74 148t187 56t185 -56t73 -148q0 -129 -136 -180v-2q183 -49 183 -238zM368 -268q112 0 178 53t66 142t-66 142q-68 52 -180 51.5t-179 -52.5t-67 -142t68 -142t180 -52
zM366 170q90 0 145.5 44t55.5 116t-55.5 116t-145.5 44t-146 -44t-56 -116t56 -116t146 -44z" />
    <glyph glyph-name="nine.inferior" unicode="&#x2089;" horiz-adv-x="722" 
d="M356 -268q237 0 244 360q0 20 -3 36t-3 24q-24 -78 -90 -126t-174 -48t-188 78t-81.5 200.5t80.5 200.5t207 78t207 -82q102 -102 102 -341t-94 -345q-73 -86 -199 -86t-198 57t-88 160h59q35 -166 219 -166zM578 258q0 94 -68 161t-164 67t-162 -62t-66 -166t65 -166
t167 -60q102 0 165 66t63 160z" />
    <glyph glyph-name="Euro" unicode="&#x20ac;" horiz-adv-x="1214" 
d="M45 549v53h129q-4 66 -4 114t4 79h-129v53h133q33 268 171 424q139 156 331 156t310 -113t147 -289h-62q-29 152 -126 248t-269 96t-290 -139t-146 -383h483v-53h-487q-4 -31 -4 -79t4 -114h487v-53h-481q26 -240 146 -377t300 -137t286 127q105 127 118 313h61
q-12 -213 -137 -355t-330 -142t-342 152t-170 419h-133z" />
    <glyph glyph-name="afii61289" unicode="&#x2113;" horiz-adv-x="618" 
d="M158 1223q0 254 198 254q198 -1 198 -281t-79.5 -452t-255.5 -273v-217q0 -113 36 -161t116 -48t137 39h4v-55q-59 -39 -155 -39q-199 0 -199 260v188q-55 -27 -125 -45v53q68 20 125 48v729zM219 1219v-687q39 25 70 52q207 180 207 608q-2 127 -35 180t-103 53
q-139 1 -139 -206z" />
    <glyph glyph-name="trademark" unicode="&#x2122;" horiz-adv-x="1269" 
d="M1182 1464v-585h-49v503h-3q-31 -84 -53 -141l-145 -362h-53l-148 362q-43 96 -53 139v-501h-51v585h71l207 -520h2l203 520h72zM326 879h-54v536h-204v49h460v-49h-202v-536z" />
    <glyph glyph-name="Omega" unicode="&#x2126;" horiz-adv-x="1456" 
d="M952 57h410v-57h-531v59q217 66 350 247q132 181 132 465t-158 470t-428 185.5t-427 -186.5t-157 -468t132 -462t350 -251v-59h-531v57h410v2q-196 83 -312 261t-116 444q0 317 178 520t472 203t474 -203t180 -520q0 -264 -116 -442t-312 -263v-2z" />
    <glyph glyph-name="estimated" unicode="&#x212e;" horiz-adv-x="1271" 
d="M328 616v-426q119 -123 342 -122q334 0 436 313h96q-41 -182 -178 -293t-354 -111q-287 1 -449 181t-162 471t168 473t432 182q211 0 355 -121q200 -170 196 -547h-882zM646 1200q-200 0 -318 -125v-377h620v404q-102 98 -302 98z" />
    <glyph glyph-name="onethird" unicode="&#x2153;" horiz-adv-x="1585" 
d="M322 633h-60v690q-45 -66 -201 -66v50q100 2 149 36q48 35 60 125h52v-835zM1159 1464h68l-1020 -1464h-70zM1167 465h74q84 0 133 45t49 119t-55.5 119.5t-149.5 45.5t-148 -56t-60 -148h-58q4 110 75 182t191 72t192 -60t73 -157q0 -135 -133 -183v-2q168 -41 168 -209
q0 -113 -81 -179t-212 -66t-214 76t-87 198h59q6 -102 71 -162t171 -60q107 0 169 52t62 142t-57 136t-156 46h-76v49z" />
    <glyph glyph-name="twothirds" unicode="&#x2154;" horiz-adv-x="1755" 
d="M614 635h-553q4 139 81 213q76 74 136 108t93 54t43 27t37 25t35 28t26 27q39 41 39 123q1 82 -53 133q-54 52 -156 52t-158 -63t-55 -164h-57q0 123 71 201q72 78 200 78t199 -70t68 -174q0 -164 -245 -287q-59 -37 -85 -53q-136 -84 -149 -207h483v-51zM1360 1464h67
l-1019 -1464h-70zM1337 465h74q84 0 133 45t49 119t-55.5 119.5t-149.5 45.5t-148 -56t-60 -148h-58q4 110 75 182t191 72t192 -60t73 -157q0 -135 -133 -183v-2q168 -41 168 -209q0 -113 -81 -179t-212 -66t-214 76t-87 198h59q6 -102 71 -162t171 -60q107 0 169 52t62 142
t-57 136t-156 46h-76v49z" />
    <glyph glyph-name="oneeighth" unicode="&#x215b;" horiz-adv-x="1576" 
d="M322 633h-60v690q-45 -66 -201 -66v50q100 2 149 36q48 35 60 125h52v-835zM1145 1464h67l-1019 -1464h-70zM1507 219q0 -99 -86 -164t-218 -65t-219 66t-87 177q0 168 180 224v2q-135 53 -135 180q0 93 74 149t186 56t186 -56t72 -149q0 -129 -135 -180v-2
q182 -49 182 -238zM956 234q0 -90 68 -142t180 -53q112 0 178 52.5t66 142.5t-67 142t-179 52t-179 -52t-67 -142zM1202 477q90 0 146 44q55 44 55.5 116t-55.5 116t-146 44t-146 -44t-56 -116t56 -116t146 -44z" />
    <glyph glyph-name="threeeighths" unicode="&#x215c;" horiz-adv-x="1742" 
d="M301 1100h74q84 0 133 44t48.5 118t-56.5 120t-150 45.5t-147 -55.5t-60 -147h-57q4 109 75 181t191 72t192 -60t72 -158q0 -137 -133 -181v-2q168 -45 168 -209q0 -112 -81 -180t-212 -68t-214 76t-87 199h60q6 -102 70 -163q65 -60 171 -60t169 53t63 142t-58 135
t-155 47h-76v51zM1333 1464h68l-1020 -1464h-70zM1673 219q0 -99 -86 -164t-218 -65t-219 66t-87 177q0 168 180 224v2q-135 53 -135 180q0 93 74 149t186 56t185 -56t73 -149q0 -129 -135 -180v-2q182 -49 182 -238zM1122 234q0 -90 68 -142t180 -53q112 0 178 52.5
t66 142.5t-67 142t-179 52t-179 -52t-67 -142zM1368 477q90 0 145 44t56 116q-1 72 -57 116t-145 44t-145 -44t-56 -116t56 -116t146 -44z" />
    <glyph glyph-name="fiveeighths" unicode="&#x215d;" horiz-adv-x="1718" 
d="M588 1411h-375l-63 -315h2q76 80 204 80t202 -77t73.5 -200t-80.5 -201t-205 -78t-202 69t-87 171h60q11 -82 69 -134t158 -52t164 62q63 62 63 162t-58 163t-161 63q-152 0 -215 -104h-55l88 444h418v-53zM1327 1464h68l-1020 -1464h-70zM1649 219q0 -99 -86 -164
t-218 -65t-220 65q-87 66 -87 178q0 168 181 224v2q-135 53 -136 180q1 93 75 149t186 56t185 -56t73 -149q0 -129 -136 -180v-2q183 -49 183 -238zM1343 428q-113 0 -179 -52t-66 -142t68 -142t180 -53q112 0 178 53t66 142.5t-67 141.5t-180 52zM1343 477q90 0 146 44
q55 44 55 116t-56 116t-146 44t-146 -44t-55.5 -116t56.5 -116t146 -44z" />
    <glyph glyph-name="seveneighths" unicode="&#x215e;" horiz-adv-x="1603" 
d="M1534 219q0 -99 -86 -164t-218 -65t-219 66t-87 177q0 168 180 224v2q-135 53 -135 180q-1 93 73 149t187 56t185 -56t73 -149q0 -129 -135 -180v-2q182 -49 182 -238zM1230 39.5q112 -0.5 178 52t66 142.5t-66 142q-68 52 -180 52t-178 -52t-67 -142t67 -142t180 -52.5z
M1228 477q90 0 145.5 44t56.5 116q0 72 -56 116t-146 44t-146 -44t-56 -116t56 -116t146 -44zM1167 1464h68l-1020 -1464h-70zM55 1411v53h559v-49q-332 -338 -350 -780h-61q12 426 342 776h-490z" />
    <glyph glyph-name="partialdiff" unicode="&#x2202;" horiz-adv-x="1032" 
d="M481 -20q-182 0 -293 124q-110 124 -110 335t128 363t326 152q129 0 223 -68q93 -69 134 -184q-36 609 -604 715v56q670 -115 669 -869q0 -270 -124 -447t-349 -177zM883 516q0 160 -93 272q-94 112 -264 112t-276 -135.5t-107 -342.5q1 -162 91 -274t234 -112t241 81
q174 149 174 399z" />
    <glyph glyph-name="Delta" unicode="&#x2206;" horiz-adv-x="1325" 
d="M1284 0h-1243v53l592 1411h69l582 -1411v-53zM111 55h1103l-546 1338h-2q-88 -217 -105 -258z" />
    <glyph glyph-name="product" unicode="&#x220f;" horiz-adv-x="1343" 
d="M1202 -205h-63v1610h-932v-1610h-66v1669h1061v-1669z" />
    <glyph glyph-name="summation" unicode="&#x2211;" horiz-adv-x="1193" 
d="M1108 1407h-942v-2l620 -719v-39l-622 -792v-2h954v-58h-1034v53l639 816v2l-639 735v63h1024v-57z" />
    <glyph glyph-name="minus" unicode="&#x2212;" horiz-adv-x="1073" 
d="M111 639v59h852v-59h-852z" />
    <glyph glyph-name="uni2215" unicode="&#x2215;" horiz-adv-x="344" 
d="M649 1464h68l-1020 -1464h-70z" />
    <glyph glyph-name="uni2219" unicode="&#x2219;" horiz-adv-x="249" 
d="M166 707v-136h-76v136h76z" />
    <glyph glyph-name="radical" unicode="&#x221a;" horiz-adv-x="1130" 
d="M27 555v55h213l284 -739h2q68 219 84 270l434 1323h64l-549 -1669h-67l-304 760h-161z" />
    <glyph glyph-name="infinity" unicode="&#x221e;" horiz-adv-x="1447" 
d="M74 624q0 140 76 240t207 100t215 -76t161 -208q78 141 154 213t186 72q145 1 222 -97t77 -244t-76 -244t-219 -99q-109 -1 -191 75t-155 209q-82 -145 -162 -215t-194 -69q-147 -1 -224 101t-77 242zM366 334q110 0 180 70t154 217q-76 139 -152 215q-78 76 -186 76
t-166 -84t-59 -204t59 -205t170 -85zM1089 334q105 0 163 85t58 207t-58 204t-166 82t-174 -70t-148 -219q80 -141 150 -215t175 -74z" />
    <glyph glyph-name="integral" unicode="&#x222b;" horiz-adv-x="702" 
d="M25 -279h4q51 -23 129 -23t114 46t37 145v1379q0 246 215 245q72 0 127 -20v-55h-4q-47 20 -124 20t-115 -44t-39 -146v-1379q0 -246 -213 -245q-74 -1 -131 22v55z" />
    <glyph glyph-name="approxequal" unicode="&#x2248;" horiz-adv-x="1073" 
d="M764 399q-86 0 -250 67t-229 66q-127 0 -140 -135h-57q16 195 197 195q79 0 239 -68t240 -67q133 0 145 137h58q-17 -195 -203 -195zM764 682q-86 0 -250 67t-229 66q-127 0 -140 -135h-57q16 195 197 194q79 0 239 -68t240 -67q133 0 145 135h58q-17 -192 -203 -192z
" />
    <glyph glyph-name="notequal" unicode="&#x2260;" 
d="M111 754v59h477l117 236h61l-117 -236h309v-59h-337l-115 -232h452v-59h-479l-125 -256h-61l125 256h-307v59h333l115 232h-448z" />
    <glyph glyph-name="lessequal" unicode="&#x2264;" horiz-adv-x="1011" 
d="M102 0v57h799v-57h-799zM901 328v-62l-799 346v66l799 348v-61l-737 -320v-2z" />
    <glyph glyph-name="greaterequal" unicode="&#x2265;" horiz-adv-x="1011" 
d="M909 57v-57h-798v57h798zM111 266v62l739 317v2l-739 318v61l798 -348v-66z" />
    <glyph glyph-name="uni24C5" unicode="&#x24c5;" horiz-adv-x="1648" 
d="M825 -29q-313 0 -527 217t-214 539t214 540t527 218t527 -218t214 -540t-214 -539t-527 -217zM824 1440q-294 0 -490 -204t-196 -508t196 -508t490 -204t492 204t197 507q0 303 -197 508q-198 205 -492 205zM633 295h-60v860h332q135 1 203 -67t68 -180t-70 -175
t-207 -63h-266v-375zM633 723h262q219 0 219 190q0 87 -56 137t-157 50h-268v-377z" />
    <glyph glyph-name="lozenge" unicode="&#x25ca;" horiz-adv-x="1024" 
d="M510 1399l-377 -664l381 -669h2l377 667l-381 666h-2zM61 735l420 729h62l420 -731l-418 -733h-60z" />
    <glyph glyph-name="uniF8FF" unicode="&#xf8ff;" horiz-adv-x="1732" 
d="M133 0v1466h1466v-1466h-1466zM375 883v-295h344v-346h295v346h344v295h-344v334h-295v-334h-344z" />
    <glyph glyph-name="f_f" unicode="&#xfb00;" horiz-adv-x="915" 
d="M386 1409q-138 0 -138 -162v-188h334v201q0 215 215 215h73v-56h-71q-80 0 -118 -38t-38 -124v-198h229v-53h-229v-1006h-61v1006h-334v-1006h-62v1006h-149v53h149v190q0 215 213 215q53 0 76 -2v-55q-23 2 -89 2z" />
    <glyph glyph-name="fi" unicode="&#xfb01;" horiz-adv-x="786" 
d="M475 1475v-56h-74q-81 0 -117 -38t-36 -124v-198h227v-53h-227v-1006h-62v1006h-149v53h149v201q0 215 213 215h76zM676 1059v-1059h-62v1059h62zM676 1454v-137h-62v137h62z" />
    <glyph glyph-name="fl" unicode="&#xfb02;" horiz-adv-x="790" 
d="M475 1475v-56h-74q-81 0 -117 -38t-36 -124v-198h227v-53h-227v-1006h-62v1006h-149v53h149v201q0 215 213 215h76zM676 1464v-1464h-62v1464h62z" />
    <glyph glyph-name="f_f_i" unicode="&#xfb03;" horiz-adv-x="1181" 
d="M386 1409q-138 0 -138 -162v-188h334v201q0 215 215 215h73v-56h-71q-80 0 -118 -38t-38 -124v-198h229v-53h-229v-1006h-61v1006h-334v-1006h-62v1006h-149v53h149v190q0 215 213 215q53 0 76 -2v-55q-23 2 -89 2zM1071 1059v-1059h-61v1059h61zM1071 1454v-137h-61v137
h61z" />
    <glyph glyph-name="f_f_l" unicode="&#xfb04;" horiz-adv-x="1185" 
d="M872 1059v-53h-229v-1006h-61v1006h-334v-1006h-62v1006h-149v53h149v190q0 215 213 215q53 0 76 -2v-55q-23 2 -89 2q-138 0 -138 -162v-188h334v201q0 215 215 215h73v-56h-71q-80 0 -118 -38t-38 -124v-198h229zM1071 1464v-1464h-61v1464h61z" />
    <glyph glyph-name="NULL" horiz-adv-x="0" 
 />
    <glyph glyph-name="commaaccent" horiz-adv-x="1011" 
d="M496 -213h-27v109h74v-109q0 -156 -111 -205v45q63 39 64 158v2z" />
    <glyph glyph-name="f_i" horiz-adv-x="786" 
d="M475 1475v-56h-74q-81 0 -117 -38t-36 -124v-198h227v-53h-227v-1006h-62v1006h-149v53h149v201q0 215 213 215h76zM676 1059v-1059h-62v1059h62zM676 1454v-137h-62v137h62z" />
    <glyph glyph-name="f_l" horiz-adv-x="790" 
d="M475 1475v-56h-74q-81 0 -117 -38t-36 -124v-198h227v-53h-227v-1006h-62v1006h-149v53h149v201q0 215 213 215h76zM676 1464v-1464h-62v1464h62z" />
    <glyph glyph-name="zero.denominator" horiz-adv-x="772" 
d="M387 -12q-154 0 -239 114t-85 312q-1 198 89 314t236 116t234 -116t88 -314t-84.5 -312t-238.5 -114zM648 414q0 176 -70 276t-191 100t-191 -100t-70 -275t68 -275t194 -100t193 98q67 100 67 276z" />
    <glyph glyph-name="one.denominator" horiz-adv-x="483" 
d="M315 0h-59v690q-45 -66 -201 -65v49q100 2 149 37q48 35 60 125h51v-836z" />
    <glyph glyph-name="two.denominator" horiz-adv-x="669" 
d="M608 0h-553q4 138 80 212t187 138q10 6 43 26t64 38.5t73 63.5q42 44 42 126t-54 134t-155 52t-157 -63t-55 -164h-57q0 123 71 201q72 78 199.5 78t199.5 -70t70 -174t-66 -163t-150 -108t-116 -67q-139 -86 -149 -209h483v-51z" />
    <glyph glyph-name="three.denominator" horiz-adv-x="704" 
d="M295 465h74q84 0 133 45t49 119t-56 120q-57 45 -151 45t-147 -56t-60 -148h-57q4 110 75 182t191 72t192 -60t72 -157q0 -135 -133 -183v-2q168 -41 168 -209q0 -113 -81 -179t-212 -66t-214 76t-87 198h60q6 -102 70 -163q65 -60 171 -59.5t169 52.5t63 142t-58 136
t-155 46h-76v49z" />
    <glyph glyph-name="four.denominator" horiz-adv-x="720" 
d="M543 0h-58v219h-434v55l438 566h54v-570h131v-51h-131v-219zM485 270v475h-2l-370 -475h372z" />
    <glyph glyph-name="five.denominator" horiz-adv-x="684" 
d="M582 776h-375l-64 -315h2q76 80 204 80t202 -76.5t74 -198.5t-81 -200t-205 -78t-201 68t-87 169h60q11 -82 69 -134t158 -52.5t164 61.5t63.5 164t-58.5 164t-161 61q-152 0 -215 -104h-55l88 444h418v-53z" />
    <glyph glyph-name="six.denominator" horiz-adv-x="720" 
d="M396 545q106 0 186 -78.5t80 -202.5t-82 -200t-208 -76t-206 86q-102 108 -102 328t84 330q85 110 231 110q111 0 177 -58t83 -153h-59q-33 160 -199 160q-123 1 -189 -95t-69 -272q0 -20 3 -36t3 -23q25 78 92 129q69 51 175 51zM143 262q0 -94 68 -159t165 -65t163 61
q65 61 65 165t-64 166q-65 62 -166 62t-166 -68t-65 -162z" />
    <glyph glyph-name="seven.denominator" horiz-adv-x="663" 
d="M49 776v53h559v-49q-332 -336 -350 -780h-61q8 217 98 417t244 359h-490z" />
    <glyph glyph-name="eight.denominator" horiz-adv-x="733" 
d="M672 219q0 -99 -86 -164t-218 -65t-220 65q-87 66 -87 178q0 168 181 224v2q-135 53 -136 180q0 93 74 149t187 56t185 -56t73 -149q0 -129 -136 -180v-2q183 -49 183 -238zM368 39.5q112 -0.5 178 52.5t66 142t-66 142q-68 52 -180 52t-179 -52t-67 -142t68 -142
t180 -52.5zM366 477q90 0 145.5 44t55.5 116t-55.5 116t-145.5 44t-146 -44t-56 -116t56 -116t146 -44z" />
    <glyph glyph-name="nine.denominator" horiz-adv-x="722" 
d="M356 39q237 0 244 360q0 21 -3 37t-3 23q-24 -78 -90 -126.5t-174 -48.5t-188 78t-81.5 201t80.5 201t207 78t207 -82q102 -102 102 -340t-94 -346q-73 -86 -199 -86t-198 57t-88 160h59q35 -166 219 -166zM578 564q0 94 -68 161t-164 67t-162 -62t-66 -166t65 -165
t167 -61t165 66t63 160z" />
    <glyph glyph-name="zero.numerator" horiz-adv-x="772" 
d="M387 620q-154 0 -239 116t-85 313q-1 197 89 313t236 116t234 -116q88 -114 88 -312t-84.5 -314t-238.5 -116zM388 674q126 0 193 98t67 274t-70 278t-191 101.5t-191 -100t-70 -275.5t68 -276t194 -100z" />
    <glyph glyph-name="one.numerator" horiz-adv-x="466" 
d="M315 633h-59v690q-45 -66 -201 -66v50q100 2 149 36q48 35 60 125h51v-835z" />
    <glyph glyph-name="two.numerator" horiz-adv-x="669" 
d="M608 635h-553q4 139 81 213q76 74 136 108t93 54t43 27t36 25t36 28q9 10 26 27q38 41 38 123t-54 133.5t-155 51.5t-157 -63t-55 -164h-57q0 123 71 201q72 78 200 78t199 -70t68 -174q0 -123 -97 -193.5t-149 -93.5q-59 -37 -85 -53q-138 -85 -148 -207h483v-51z" />
    <glyph glyph-name="three.numerator" horiz-adv-x="704" 
d="M295 1100h74q84 0 133 44t48.5 118t-56.5 120t-150 45.5t-147 -55.5t-60 -147h-57q4 109 75 181t191 72t192 -60t72 -158q0 -137 -133 -181v-2q168 -45 168 -209q0 -112 -81 -180t-212 -68t-214 76t-87 199h60q6 -102 70 -163q65 -60 171 -60t169 53t63 142t-58 135
t-155 47h-76v51z" />
    <glyph glyph-name="four.numerator" horiz-adv-x="720" 
d="M543 633h-58v221h-434v53l438 566h54v-570h131v-49h-131v-221zM485 903v475h-2l-370 -473v-2h372z" />
    <glyph glyph-name="five.numerator" horiz-adv-x="684" 
d="M582 1411h-375l-64 -315h2q76 80 204 80t202 -77t74 -200t-80 -201t-205 -78t-202 69t-87 171h60q11 -82 69 -134t158 -52t164 62q63 62 63 162t-58 163t-161 63q-152 0 -215 -104h-55l88 444h418v-53z" />
    <glyph glyph-name="six.numerator" horiz-adv-x="720" 
d="M662 899q0 -123 -82 -201t-207 -78t-207 89q-102 109 -102 328t84 329q86 110 214 110t194 -58t83 -154h-59q-33 162 -199 161q-123 0 -189 -95t-69 -271q0 -21 3 -37t3 -23q25 79 93 129t174 50t186 -78t80 -201zM374 1126q-101 0 -166 -68t-65 -162t68 -158t165 -64
t163 60q65 60 65 164t-64 166q-65 62 -166 62z" />
    <glyph glyph-name="seven.numerator" horiz-adv-x="663" 
d="M49 1411v53h559v-49q-332 -338 -350 -780h-61q12 426 342 776h-490z" />
    <glyph glyph-name="eight.numerator" horiz-adv-x="733" 
d="M368 623q-132 0 -220 65q-87 66 -87 178q0 168 181 224v2q-135 53 -136 180q0 92 74 149t187 57t185 -57t73 -149q0 -131 -136 -178v-2q87 -23 135 -81t48 -143q0 -115 -86 -180t-218 -65zM368 672q112 0 178 53t66 143t-66 143q-68 52 -180 52.5t-179 -51.5t-67 -144
t68 -144t180 -52zM366 1110q90 0 145.5 44t55.5 116t-55.5 116t-145.5 44t-146 -44t-56 -116t56 -116t146 -44z" />
    <glyph glyph-name="nine.numerator" horiz-adv-x="722" 
d="M356 674q237 0 244 360q0 20 -3 36t-3 24q-24 -78 -90 -126t-174 -48t-188 78t-82 200q-1 122 81 200.5t207 78.5t207 -82q102 -103 102 -341t-85.5 -336t-209.5 -98t-196 58.5t-88 161.5h59q35 -166 219 -166zM578 1200q0 94 -68 160t-164 66t-162 -62t-66 -166t65 -164
t167 -60t165 66t63 160z" />
    <glyph glyph-name="acute.cap" horiz-adv-x="954" 
d="M430 1546l137 230h84l-164 -230h-57z" />
    <glyph glyph-name="breve.cap" horiz-adv-x="999" 
d="M516 1563q-104 0 -168 54q-63 54 -69 140h57q26 -137 182 -137t180 137h58q-6 -86 -71 -140t-169 -54z" />
    <glyph glyph-name="caron.alt" horiz-adv-x="980" 
d="M498 1348v4h-25v112h72v-112q0 -156 -78 -195v45q31 37 31 146z" />
    <glyph glyph-name="caron.cap" horiz-adv-x="944" 
d="M702 1757l-192 -211h-76l-192 211h73l158 -170h2l158 170h69z" />
    <glyph glyph-name="circumflex.cap" horiz-adv-x="944" 
d="M510 1757l192 -211h-73l-156 170h-2l-158 -170h-71l192 211h76z" />
    <glyph glyph-name="commaaccent.alt" horiz-adv-x="1011" 
d="M496 -213h-27v109h74v-109q0 -156 -111 -205v45q63 39 64 158v2z" />
    <glyph glyph-name="dieresis.cap" horiz-adv-x="950" 
d="M354 1712v-135h-61v135h61zM657 1712v-135h-61v135h61z" />
    <glyph glyph-name="dotaccent.cap" horiz-adv-x="972" 
d="M518 1710v-133h-63v133h63z" />
    <glyph glyph-name="grave.cap" horiz-adv-x="954" 
d="M371 1776l145 -230h-59l-168 230h82z" />
    <glyph glyph-name="hungarumlaut.cap" horiz-adv-x="968" 
d="M297 1546l98 238h74l-117 -238h-55zM553 1546l100 238h72l-117 -238h-55z" />
    <glyph glyph-name="macron.cap" horiz-adv-x="978" 
d="M256 1589v60h467v-60h-467z" />
    <glyph glyph-name="ring.cap" horiz-adv-x="1017" 
d="M508 1534q-72 0 -119 47t-47 118t47 118t119 47t119 -46t47 -118t-47 -119t-119 -47zM508 1579q51 0 84 34t33 87t-33 86t-84 33t-83 -33t-32 -86t32 -87t83 -34z" />
    <glyph glyph-name="tilde.cap" horiz-adv-x="1007" 
d="M635 1624q76 0 84 107h53q-4 -80 -41 -121t-94 -41t-140 53t-128 53q-74 0 -82 -106h-54q4 78 41 120q83 92 199.5 13.5t161.5 -78.5z" />
    <glyph glyph-name="R.alt" horiz-adv-x="1218" 
d="M197 674v-674h-64v1464h551q210 0 328 -105t118 -281q-1 -348 -344 -394l392 -684h-70l-387 674h-524zM197 1407v-674h473q395 0 395 336q0 160 -101 249t-284 89h-483z" />
    <glyph glyph-name="space_uni0326" horiz-adv-x="980" 
d="M498 -213h-27v109h74v-109q0 -156 -111 -205v45q63 39 64 158v2z" />
    <glyph glyph-name="space_uni0326.alt" horiz-adv-x="983" 
d="M483 1348h27v-109h-74v109q0 155 111 204v-45q-63 -39 -64 -157v-2z" />
    <glyph glyph-name="a.alt" horiz-adv-x="919" 
d="M793 754q0 268 -300 268t-327 -268h-62q12 150 110 236t279 86t271 -84.5t90 -239.5v-590q0 -121 37 -158v-4h-66q-33 39 -32 156v47h-5q-41 -96 -144 -161t-255 -65.5t-246 77.5t-94 224q-1 146 105 210t307 88t267 54t65 111v13zM793 379v239q-74 -60 -291 -88
t-304 -80t-87 -178t83 -182t201 -57q176 0 287 98t111 248z" />
    <glyph glyph-name="agrave.alt" horiz-adv-x="919" 
d="M793 754q0 268 -300 268t-327 -268h-62q12 150 110 236t279 86t271 -84.5t90 -239.5v-590q0 -121 37 -158v-4h-66q-33 39 -32 156v47h-5q-41 -96 -144 -161t-255 -65.5t-246 77.5t-94 224q-1 146 105 210t307 88t267 54t65 111v13zM793 379v239q-74 -60 -291 -88
t-304 -80t-87 -178t83 -182t201 -57q176 0 287 98t111 248zM381 1477l147 -254h-59l-170 254h82z" />
    <glyph glyph-name="aacute.alt" horiz-adv-x="919" 
d="M440 1223l142 254h82l-166 -254h-58zM793 754q0 268 -300 268t-327 -268h-62q12 150 110 236t279 86t271 -84.5t90 -239.5v-590q0 -121 37 -158v-4h-66q-33 39 -32 156v47h-5q-41 -96 -144 -161t-255 -65.5t-246 77.5t-94 224q-1 146 105 210t307 88t267 54t65 111v13z
M793 379v239q-74 -60 -291 -88t-304 -80t-87 -178t83 -182t201 -57q176 0 287 98t111 248z" />
    <glyph glyph-name="acircumflex.alt" horiz-adv-x="919" 
d="M528 1442l181 -215h-72l-145 172h-3l-147 -172h-68l179 215h75zM793 754q0 268 -300 268t-327 -268h-62q12 150 110 236t279 86t271 -84.5t90 -239.5v-590q0 -121 37 -158v-4h-66q-33 39 -32 156v47h-5q-41 -96 -144 -161t-255 -65.5t-246 77.5t-94 224q-1 146 105 210
t307 88t267 54t65 111v13zM793 379v239q-74 -60 -291 -88t-304 -80t-87 -178t83 -182t201 -57q176 0 287 98t111 248z" />
    <glyph glyph-name="atilde.alt" horiz-adv-x="919" 
d="M793 754q0 268 -300 268t-327 -268h-62q12 150 110 236t279 86t271 -84.5t90 -239.5v-590q0 -121 37 -158v-4h-66q-33 39 -32 156v47h-5q-41 -96 -144 -161t-255 -65.5t-246 77.5t-94 224q-1 146 105 210t307 88t267 54t65 111v13zM793 379v239q-74 -60 -291 -88
t-304 -80t-87 -178t83 -182t201 -57q176 0 287 98t111 248zM356 1405q60 0 140 -53t125 -54q76 0 84 107h53q-4 -80 -41 -121t-94 -41t-141 53t-128 54q-74 0 -82 -107h-53q4 78 40.5 120t96.5 42z" />
    <glyph glyph-name="adieresis.alt" horiz-adv-x="919" 
d="M367 1452v-133h-62v133h62zM670 1452v-133h-62v133h62zM793 754q0 268 -300 268t-327 -268h-62q12 150 110 236t279 86t271 -84.5t90 -239.5v-590q0 -121 37 -158v-4h-66q-33 39 -32 156v47h-5q-41 -96 -144 -161t-255 -65.5t-246 77.5t-94 224q-1 146 105 210t307 88
t267 54t65 111v13zM793 379v239q-74 -60 -291 -88t-304 -80t-87 -178t83 -182t201 -57q176 0 287 98t111 248z" />
    <glyph glyph-name="amacron.alt" horiz-adv-x="919" 
d="M793 754q0 268 -300 268t-327 -268h-62q12 150 110 236t279 86t271 -84.5t90 -239.5v-590q0 -121 37 -158v-4h-66q-33 39 -32 156v47h-5q-41 -96 -144 -161t-255 -65.5t-246 77.5t-94 224q-1 146 105 210t307 88t267 54t65 111v13zM793 379v239q-74 -60 -291 -88
t-304 -80t-87 -178t83 -182t201 -57q176 0 287 98t111 248zM256 1313v61h467v-61h-467z" />
    <glyph glyph-name="abreve.alt" horiz-adv-x="919" 
d="M793 754q0 268 -300 268t-327 -268h-62q12 150 110 236t279 86t271 -84.5t90 -239.5v-590q0 -121 37 -158v-4h-66q-33 39 -32 156v47h-5q-41 -96 -144 -161t-255 -65.5t-246 77.5t-94 224q-1 146 105 210t307 88t267 54t65 111v13zM793 379v239q-74 -60 -291 -88
t-304 -80t-87 -178t83 -182t201 -57q176 0 287 98t111 248zM489 1296q158 0 183 140h57q-6 -88 -71 -144t-169 -56t-167 55.5t-70 144.5h57q11 -64 57 -102t123 -38z" />
    <glyph glyph-name="aring.alt" horiz-adv-x="919" 
d="M324 1334q0 70 47 118t119 47.5t118 -47.5t46.5 -118t-47 -118.5t-119.5 -47.5t-118 48t-46 118zM489 1214q51 0 83 34t32 86t-32 86t-83 34t-83 -34t-32 -86t32 -86t83 -34zM793 754q0 268 -300 268t-327 -268h-62q12 150 110 236t279 86t271 -84.5t90 -239.5v-590
q0 -121 37 -158v-4h-66q-33 39 -32 156v47h-5q-41 -96 -144 -161t-255 -65.5t-246 77.5t-94 224q-1 146 105 210t307 88t267 54t65 111v13zM793 379v239q-74 -60 -291 -88t-304 -80t-87 -178t83 -182t201 -57q176 0 287 98t111 248z" />
    <glyph glyph-name="aogonek.alt" horiz-adv-x="919" 
d="M799 754q0 268 -300 268t-327 -268h-61q13 150 109 236t278 86t272 -84.5t90 -239.5v-594q0 -115 29 -154v-4q-176 -106 -176 -206t121 -99q49 0 98 22h4v-47q-41 -24 -119 -24t-123 39t-45 106q0 115 172 217q-23 41 -22 146v49h-4q-41 -96 -145 -161t-255 -65.5
t-245 77.5t-94 224t104 210q106 64 308 90t266 54t65 109v13zM799 379v239q-74 -60 -291 -88t-304 -80t-87 -178t84 -182t200 -57q176 0 287 98t111 248z" />
    <glyph glyph-name="Ccedilla.alt" horiz-adv-x="1382" 
d="M739 1430q-281 0 -439 -196t-158 -505t157.5 -501t433.5 -191q227 0 365 138q137 138 162 349h59q-18 -221 -156 -370q-161 -176 -445 -176t-463 206t-179 544.5t180 548.5t483 210q229 -1 375 -121t182 -313h-65q-29 161 -158 269t-334 108zM723 -164h-29v107h76v-101
q0 -139 -108 -182v43q61 41 61 133z" />
    <glyph glyph-name="Scedilla.alt" horiz-adv-x="1198" 
d="M608 -164h-28v107h75v-101q0 -139 -108 -182v43q61 41 61 133zM104 1122q0 166 130 266t346 100t344 -112q128 -111 153 -301h-65q-20 168 -135 259.5t-301 91.5t-296 -82t-110 -220t100 -208t334 -113q131 -25 217 -51t161 -73q146 -90 145 -282t-136 -305.5
t-387 -113.5t-398 134t-161 353h68q11 -199 143 -313t350 -114t336 93.5t119 255.5q0 163 -109 237q-108 74 -364 120t-370 129t-114 249z" />
    <glyph glyph-name="ccedilla.alt" horiz-adv-x="1005" 
d="M514 -20q-207 0 -334 156t-127 394t127 393t348 154q174 0 288 -87t142 -245h-61q-31 139 -129 208t-240 69q-186 0 -300 -135t-114 -357t114 -358t287 -138q173 0 273 86t119 236h60q-20 -170 -133 -273t-320 -103zM520 -164h-28v107h75v-101q0 -139 -108 -182v43
q61 41 61 133z" />
    <glyph glyph-name="scedilla.alt" horiz-adv-x="909" 
d="M801 274q0 110 -73 165q-74 55 -270 89t-286 98t-90 184t94 194t262 73q336 0 383 -305h-61q-37 250 -322 250q-147 0 -221 -58t-74 -152t76 -145q77 -50 271 -84t283 -102t89 -204.5t-106 -216.5t-297 -80t-299 95t-119 251h61q12 -141 106 -217.5t256 -76.5t249.5 66
t87.5 176zM467 -164h-29v107h76v-101q0 -139 -108 -182v43q61 41 61 133z" />
    <glyph glyph-name="hyphen.cap" horiz-adv-x="636" 
d="M74 643v59h491v-59h-491z" />
    <glyph glyph-name="endash.cap" horiz-adv-x="1024" 
d="M0 643v55h1024v-55h-1024z" />
    <glyph glyph-name="emdash.cap" horiz-adv-x="2048" 
d="M205 643v55h1638v-55h-1638z" />
    <glyph glyph-name="questiondown.cap" horiz-adv-x="980" 
d="M500 1104h61q0 -160 -43 -243t-166 -185q-107 -80 -156 -155q-50 -76 -53 -175q-1 -139 95 -224t260 -85t263 105t105 272h64q-4 -184 -119 -310t-313 -126t-310 104t-110 262q0 76 13 110t19 52q5 18 26 44q22 26 27 36t35 37t34 31t40 34t39 31q113 92 151 167t38 218z
M492 1329v133h75v-133h-75z" />
    <glyph glyph-name="exclamdown.cap" horiz-adv-x="356" 
d="M211 0h-68v526l13 580h45l10 -580v-526zM141 1329v135h74v-135h-74z" />
    <glyph glyph-name="parenleft.cap" horiz-adv-x="512" 
d="M217 748q0 -504 252 -928h-59q-262 430 -263 928q1 452 263 858h59q-252 -406 -252 -858z" />
    <glyph glyph-name="parenright.cap" horiz-adv-x="512" 
d="M295 716q0 474 -252 890h59q262 -418 262 -893t-262 -893h-59q252 422 252 896z" />
    <glyph glyph-name="bracketleft.cap" horiz-adv-x="512" 
d="M225 -123h221v-57h-284v1786h284v-58h-221v-1671z" />
    <glyph glyph-name="bracketright.cap" horiz-adv-x="512" 
d="M66 -123h221v1671h-221v58h284v-1786h-284v57z" />
    <glyph glyph-name="braceleft.cap" horiz-adv-x="550" 
d="M444 1548q-104 0 -152 -48t-48 -167v-442q0 -135 -97 -170q96 -35 97 -170v-457q0 -119 48 -168t152 -49h27v-57h-31q-131 0 -194 64t-64 210v453q0 71 -30 107t-101 38h-2v58h2q131 2 131 145v438q0 145 64 209t194 64h31v-58h-27z" />
    <glyph glyph-name="braceright.cap" horiz-adv-x="550" 
d="M80 1548v58h31q131 0 194 -64t64 -209v-438q0 -143 131 -145h2v-58h-2q-72 -2 -102 -38t-29 -107v-453q1 -145 -63 -210t-195 -64h-31v57h26q104 0 152 49q47 49 47 168v457q0 135 98 170q-98 35 -98 170v442q0 119 -47 167t-152 48h-26z" />
    <glyph glyph-name="guillemotleft.cap" horiz-adv-x="774" 
d="M385 438v-78l-274 248v80l274 246v-78l-231 -207v-2zM664 438v-78l-275 248v80l275 246v-78l-232 -207v-2z" />
    <glyph glyph-name="guillemotright.cap" horiz-adv-x="774" 
d="M389 360v78l232 211l-232 207v78l275 -246v-80zM111 360v78l231 211l-231 207v78l274 -246v-80z" />
    <glyph glyph-name="guilsinglleft.cap" horiz-adv-x="505" 
d="M393 438v-78l-282 248v80l282 246v-78l-239 -207v-2z" />
    <glyph glyph-name="guilsinglright.cap" horiz-adv-x="505" 
d="M111 360v78l241 211l-241 207v78l282 -246v-80z" />
    <glyph glyph-name="registered.alt" horiz-adv-x="1648" 
d="M825 -29q-313 0 -527 217t-214 539t214 540t527 218t527 -218t214 -540t-214 -539t-527 -217zM824 1440q-294 0 -490 -204t-196 -508t196 -508t490 -204t492 204t197 507q0 303 -197 508q-198 205 -492 205zM606 688v-387h-59v854h348q121 0 189 -61t69 -170
q0 -164 -154 -209v-2q123 -33 131 -209t39 -197v-6h-63q-31 20 -35 199q-4 96 -46 141t-138 47h-281zM606 1100v-361h271q213 0 213 181q0 86 -52 133t-151 47h-281z" />
    <glyph glyph-name="dollar.cap" horiz-adv-x="1128" 
d="M594 1581v-125q385 -20 428 -366h-64q-35 293 -364 311v-610q194 -37 274 -75t117 -77q80 -83 80 -245t-132 -266t-339 -108v-182h-53v182q-233 12 -361 136t-139 319h63q10 -173 123 -281t314 -118v663q-233 45 -337 124t-104 237t122 256t319 102v123h53zM884 166
q114 86 114 236t-88.5 217.5t-315.5 109.5v-653q176 4 290 90zM164 1104q0 -131 86 -199t291 -104v600q-173 -2 -275 -84t-102 -213z" />
    <glyph glyph-name="Euro.cap" horiz-adv-x="1255" 
d="M47 575v56h131q-4 33 -4 84t4 112h-131v54h135q31 283 175 445t346 162t322 -114.5t151 -294.5h-64q-28 154 -128 251t-280 97t-304 -144t-152 -402h506v-54h-510q-4 -31 -4 -81t4 -115h510v-56h-506q30 -254 154 -396t314 -142t298 128t119 320h63q-12 -219 -140 -363
t-341 -144t-357 158q-143 159 -176 439h-135z" />
    <glyph glyph-name="sterling.cap" horiz-adv-x="1099" 
d="M207 1088q0 -142 90 -345h352v-55h-332q37 -115 37 -215q0 -217 -149 -362l2 -2q71 39 149 39t207 -54t207 -55q131 0 250 119l39 -45q-135 -131 -291 -131q-94 0 -220 56t-200 56q-119 0 -244 -100l-38 51q227 182 227 422q0 109 -43 221h-180v55h161q-78 190 -88 281
q-2 27 -2 51q0 178 113.5 295t315.5 117t326 -119t128 -334h-61q-8 196 -116 296t-279 100t-266 -100t-95 -242z" />
    <glyph glyph-name="yen.cap" horiz-adv-x="1085" 
d="M973 455v-56h-400v-399h-65v399h-399v56h399v194h-399v53h378l-454 762h76l432 -733h2l434 733h74l-457 -762h379v-53h-400v-194h400z" />
    <glyph glyph-name="zero.cap" horiz-adv-x="1230" 
d="M617 -20q-253 0 -395 204t-142 550t147 549.5t389 203.5t388 -202t146 -551t-139 -552q-141 -202 -394 -202zM618 39q223 0 345 182q121 182 121 510t-126 512t-341.5 184t-343.5 -184t-128 -510t125 -510t348 -184z" />
    <glyph glyph-name="one.cap" horiz-adv-x="622" 
d="M446 1473v-1473h-65v1266q-31 -57 -119 -89t-199 -32v57q162 6 238 64t92 207h53z" />
    <glyph glyph-name="two.cap" horiz-adv-x="1067" 
d="M991 59v-59h-932q4 188 102 333q40 58 112 119q73 60 125 93t198 114t203 129q133 113 133 280t-102 263t-284 96t-285 -114q-103 -115 -107 -303h-62q0 209 125 343t333 134t327 -117t119 -302t-123 -292q-100 -88 -244 -167t-211 -124q-188 -127 -246 -251
q-37 -79 -43 -175h862z" />
    <glyph glyph-name="three.cap" horiz-adv-x="1103" 
d="M451 748v57h127q154 -1 248 79t94 224t-100 232t-276 89t-278 -108t-108 -266h-64q6 182 126 306.5t322 124.5t322 -106t119 -278q0 -121 -68 -205t-184 -117v-2q139 -35 222 -132t83 -240q0 -194 -128 -310t-349 -116t-361 126t-151 328h66q15 -182 135 -288t314 -106
t302 102q108 100 107 264q0 164 -110 252t-283 90h-127z" />
    <glyph glyph-name="four.cap" horiz-adv-x="1130" 
d="M854 0h-63v401h-742v62l746 1007h59v-1011h227v-58h-227v-401zM119 459h672v901h-3l-669 -899v-2z" />
    <glyph glyph-name="five.cap" horiz-adv-x="1071" 
d="M934 1464v-57h-643l-119 -619q134 148 356 148t349 -132t127 -343t-136 -346t-344 -135t-333.5 114t-137.5 283h64q19 -152 121 -245t283 -93t299 119t118 303t-108 301t-295 117q-139 -1 -235 -53t-142 -128h-60l144 766h692z" />
    <glyph glyph-name="six.cap" horiz-adv-x="1132" 
d="M1059.5 459q-0.5 -209 -130.5 -344t-325 -135q-254 0 -385 184q-139 168 -139 579q0 340 135 541t387 201q178 1 288 -101t128 -266h-66q-16 141 -108 225t-240 84q-221 0 -339 -181t-120 -503q0 -102 9 -184q38 165 154 265t302 100t318 -128t131.5 -337zM186 446
q0 -176 115 -292.5t291 -116.5t289 119t113 302.5t-113 295.5t-292 112t-291 -122t-112 -298z" />
    <glyph glyph-name="seven.cap" horiz-adv-x="1040" 
d="M934 1407h-885v57h959v-59q-584 -594 -629 -1405h-68q18 393 185 757q166 364 438 648v2z" />
    <glyph glyph-name="eight.cap" horiz-adv-x="1146" 
d="M574 -20q-226 0 -366 116t-140 307q0 152 90 256t248 144v2q-123 37 -194 121t-71 202q0 158 120 257q121 99 313 99t309 -100t116 -256q1 -116 -71 -200t-193 -121v-2q156 -35 249 -143t93 -259q-1 -195 -139 -309t-364 -114zM1012 406q0 162 -118 264t-323 102
t-321 -102t-117 -264t119 -266t322 -103.5t320 104t118 265.5zM569 828.5q164 0.5 265 84.5q100 85 100 215t-97 216t-265 86t-266 -85t-98.5 -217t98.5 -216t263 -83.5z" />
    <glyph glyph-name="nine.cap" horiz-adv-x="1132" 
d="M991 739q0 98 -8 172q-31 -164 -149 -267t-304 -103.5t-320 127.5t-134 336t134 344t322 136t316 -104q109 -86 159 -240t50 -409q0 -422 -156 -602q-123 -150 -364 -149q-180 0 -293 101t-129 265h67q16 -139 110 -223t245 -84q205 0 313 123q141 165 141 577zM950 1019
q0 177 -114 293q-115 116 -288 116t-289 -120t-116 -304t114 -295t293 -111t290 122q110 122 110 299z" />
    <glyph glyph-name="percent.cap" horiz-adv-x="1454" 
d="M254 0l893 1464h61l-891 -1464h-63zM633 1105q0 -175 -79 -277t-207 -102t-209 102t-81 276t82 275t208 101t206 -100t80 -275zM348 778q102 0 164 86q61 86 61.5 241t-61.5 240t-164 85t-166 -85t-64 -239t64 -241t166 -87zM1111 -20q-128 0 -209 102t-81 275t82 275
t208 102t206 -102q80 -100 80 -274t-79 -276t-207 -102zM1112 682q-102 0 -166 -85t-63 -240t63 -241t165 -86t163 86q60 84 60 240t-60 241t-162 85z" />
    <glyph glyph-name="perthousand.cap" horiz-adv-x="2115" 
d="M246 0l893 1464h61l-893 -1464h-61zM633 1105q0 -175 -79 -277t-207 -102t-209 102t-81 276t82 275t208 101t206 -100t80 -275zM348 778q102 0 164 86q61 86 61.5 241t-61.5 240t-164 85t-166 -85t-64 -239t64 -241t166 -87zM803 357q0 173 81.5 275t207.5 102t206 -102
q80 -100 80 -274t-78 -276t-206 -102t-209.5 102t-81.5 275zM1093 682q-101 0 -165 -85t-64 -240t63 -241t166 -86t163 86q60 84 60 240t-60 241q-62 85 -163 85zM1483 357q0 173 80.5 275t206.5 102t206 -100t80 -276t-78 -277t-206 -101t-208.5 102t-80.5 275zM1996 356
q0 156 -62 241t-163 85t-165 -85t-64 -240t63 -241t167 -86t164 86q60 84 60 240z" />
    </font>
</defs>
</svg>
