<?xml version="1.0" standalone="no"?>
<!DOCTYPE svg PUBLIC "-//W3C//DTD SVG 1.1//EN" "http://www.w3.org/Graphics/SVG/1.1/DTD/svg11.dtd" >
<svg xmlns="http://www.w3.org/2000/svg">
<metadata>
Created by FontPrep 20130207 at Mon Oct 28 14:47:05 2013
 By Phil DiBello
Copyright (c) 2011 Linotype Corp., www.linotype.com. All rights reserved. This font software may not be reproduced, modified, disclosed or transferred without the express written approval of Linotype Corp. Neue Haas Grotesk is a trademark of Linotype Corp. registered in the U.S. Patent and Trademark Office and may be registered in certain other jurisdictions in the name of Linotype Corp. or its licensee Linotype GmbH. This typeface is original artwork of Christian Schwartz. The design may be protected in certain jurisdictions.
</metadata>
<defs>
<font id="802f1ab975b8b67acbe6aefa4e47fe12" horiz-adv-x='1024' >
  <font-face 
    font-family="NHaasGroteskDSStd-55Rg"
    font-weight="450"
    font-stretch="normal"
    units-per-em="2048"
    panose-1="2 11 5 4 2 2 2 2 2 4"
    ascent="1587"
    descent="-461"
    x-height="1059"
    cap-height="1464"
    bbox="-365 -467 2312 1876"
    underline-thickness="102"
    underline-position="255"
    unicode-range="U+0020-FB04"
  />
<missing-glyph 
 />
    <glyph glyph-name="f_f" unicode="ff" horiz-adv-x="1105" 
d="M45 924v135h145v158q0 131 72 189t209 58q35 0 80 -4v-141q-25 2 -78 2t-85 -25t-32 -88v-149h338v170q0 131 72 189t209 59q39 0 84 -4v-142q-29 2 -81 2q-118 0 -118 -112v-162h197v-135h-197v-924h-166v924h-338v-924h-166v924h-145z" />
    <glyph glyph-name="fi" unicode="fi" horiz-adv-x="972" 
d="M694 1260v204h166v-204h-166zM694 0v1059h166v-1059h-166zM45 924v135h145v170q0 131 72 189t209 59q39 0 84 -4v-142q-29 2 -81 2q-118 0 -118 -112v-162h197v-135h-197v-924h-166v924h-145z" />
    <glyph glyph-name="fl" unicode="fl" horiz-adv-x="985" 
d="M45 924v135h145v170q0 131 72 189t209 59q39 0 84 -4v-142q-29 2 -81 2q-118 0 -118 -112v-162h197v-135h-197v-924h-166v924h-145zM700 0v1464h166v-1464h-166z" />
    <glyph glyph-name="f_f_i" unicode="ffi" horiz-adv-x="1476" 
d="M45 924v135h145v158q0 131 72 189t209 58q35 0 80 -4v-141q-25 2 -78 2t-85 -25t-32 -88v-149h338v170q0 131 72 189t209 59q39 0 84 -4v-142q-29 2 -81 2q-118 0 -118 -112v-162h197v-135h-197v-924h-166v924h-338v-924h-166v924h-145zM1198 1260v204h166v-204h-166z
M1198 0v1059h166v-1059h-166z" />
    <glyph glyph-name="f_f_l" unicode="ffl" horiz-adv-x="1488" 
d="M45 924v135h145v158q0 131 72 189t209 58q35 0 80 -4v-141q-25 2 -78 2t-85 -25t-32 -88v-149h338v170q0 131 72 189t209 59q39 0 84 -4v-142q-29 2 -81 2q-118 0 -118 -112v-162h197v-135h-197v-924h-166v924h-338v-924h-166v924h-145zM1204 0v1464h166v-1464h-166z" />
    <glyph glyph-name=".notdef" 
 />
    <glyph glyph-name=".null" horiz-adv-x="0" 
 />
    <glyph glyph-name="nonmarkingreturn" horiz-adv-x="681" 
 />
    <glyph glyph-name="space" unicode=" " horiz-adv-x="325" 
 />
    <glyph glyph-name="exclam" unicode="!" horiz-adv-x="481" 
d="M141 0v203h199v-203h-199zM150 1464h182v-469l-45 -641h-92l-45 641v469z" />
    <glyph glyph-name="quotedbl" unicode="&#x22;" horiz-adv-x="608" 
d="M86 1026v438h152v-438h-152zM371 1026v438h151v-438h-151z" />
    <glyph glyph-name="numbersign" unicode="#" horiz-adv-x="1185" 
d="M477 868l-45 -315h279l45 315h-279zM129 868l23 148h206l54 389h139l-53 -389h278l53 389h140l-54 -389h207l-22 -148h-205l-45 -315h205l-23 -147h-203l-55 -406h-139l55 406h-278l-56 -406h-139l55 406h-209l23 147h207l45 315h-209z" />
    <glyph glyph-name="dollar" unicode="$" horiz-adv-x="1185" 
d="M260 1067q0 -101 66 -153t213 -85v474q-127 -10 -203 -73t-76 -163zM956 398q0 110 -69 159q-70 49 -234 86v-506q129 11 216 81t87 180zM539 -174v174q-248 16 -372 148t-134 325h172q14 -151 93 -235t241 -99v531q-109 24 -178 48q-181 62 -232 176q-31 67 -31 161
q0 170 121 271t320 112v112h114v-112q389 -29 439 -375h-166q-29 209 -273 237v-493q115 -23 189 -47q192 -64 249 -181q34 -71 33 -171q0 -180 -132 -290t-339 -120v-172h-114z" />
    <glyph glyph-name="percent" unicode="%" horiz-adv-x="1665" 
d="M1288 92q84 0 130 78t46 203t-47 205t-130 80t-129 -78t-46 -204t46 -205t130 -79zM381 748q84 0 130 78t46 202q0 125 -47 205t-130 80t-129 -78t-46 -204q0 -127 46 -205t130 -78zM360 0l805 1403h140l-805 -1403h-140zM1288 -31q-147 0 -239 111t-93 295q0 184 94 295
q94 110 238 110q143 0 236 -109q92 -110 92 -295t-90 -296t-238 -111zM381 625q-147 0 -240 110q-92 111 -92 295t94 295q93 111 237 111t236 -110t92 -295t-90 -295t-237 -111z" />
    <glyph glyph-name="ampersand" unicode="&#x26;" horiz-adv-x="1202" 
d="M399 1155q0 -106 90 -223l39 -51q98 63 144 125t45 140q0 79 -43 123t-115 44t-116 -44t-44 -114zM510 117q180 0 305 147l-336 432q-117 -78 -175 -150t-58 -182q0 -108 76 -178t188 -69zM500 -29q-168 0 -294 110q-126 111 -126 271t79 256t238 195l-41 53
q-112 146 -112 286t91 224t223 84t225 -80t93 -213t-69 -214q-70 -81 -199 -165l291 -370q49 127 49 270h144q0 -217 -95 -395l222 -283h-199l-115 147q-161 -176 -405 -176z" />
    <glyph glyph-name="quotesingle" unicode="'" horiz-adv-x="323" 
d="M86 1026v438h152v-438h-152z" />
    <glyph glyph-name="parenleft" unicode="(" horiz-adv-x="622" 
d="M145 686q0 440 299 858h136q-240 -408 -240 -876t240 -910h-136q-141 216 -220 438t-79 490z" />
    <glyph glyph-name="parenright" unicode=")" horiz-adv-x="622" 
d="M285 668q0 470 -240 876h135q299 -418 299 -858q0 -268 -79 -489t-220 -439h-135q240 440 240 910z" />
    <glyph glyph-name="asterisk" unicode="*" horiz-adv-x="753" 
d="M322 1464h110v-223l195 64l37 -95l-195 -67l123 -178l-88 -62l-127 189l-127 -189l-88 62l123 178l-195 67l37 95l195 -64v223z" />
    <glyph glyph-name="plus" unicode="+" horiz-adv-x="1146" 
d="M109 602v131h397v410h135v-410h397v-131h-397v-409h-135v409h-397z" />
    <glyph glyph-name="comma" unicode="," horiz-adv-x="378" 
d="M184 0h-94v203h199v-209q1 -110 -53 -174t-144 -82v92q92 33 92 170z" />
    <glyph glyph-name="hyphen" unicode="-" horiz-adv-x="704" 
d="M78 489v152h549v-152h-549z" />
    <glyph glyph-name="period" unicode="." horiz-adv-x="378" 
d="M90 0v203h199v-203h-199z" />
    <glyph glyph-name="slash" unicode="/" horiz-adv-x="819" 
d="M33 0l581 1464h172l-581 -1464h-172z" />
    <glyph glyph-name="zero" unicode="0" horiz-adv-x="1269" 
d="M637 119q182 1 273 153t91 428t-93 432t-273 156t-274 -153q-93 -155 -93 -431t93 -431q94 -154 276 -154zM637 -31q-258 0 -403 198q-144 199 -144 537t148 535t399 197q250 0 396 -196q147 -196 147 -537t-142 -537t-401 -197z" />
    <glyph glyph-name="one" unicode="1" horiz-adv-x="708" 
d="M377 0v1022h-307v115q311 8 346 274h133v-1411h-172z" />
    <glyph glyph-name="two" unicode="2" horiz-adv-x="1138" 
d="M887 1008q0 122 -83 202t-223 80q-139 0 -221 -87t-81 -281h-181q0 248 133 380t355 132t350 -121q129 -121 129 -309q0 -128 -70 -242q-25 -39 -91 -89q-75 -58 -202 -128t-200 -117q-74 -47 -144 -120t-88 -144h766v-164h-973q6 129 45 227q38 99 129 181t143 118
t120 75q68 40 72 42t9 5t9 5q162 94 230 163q68 70 67 192z" />
    <glyph glyph-name="three" unicode="3" horiz-adv-x="1165" 
d="M1100 391q0 -197 -142 -309t-372 -113q-230 0 -388 131t-161 363h170q4 -168 105 -259q102 -91 266 -91q164 1 254 75t90 214t-96 208q-96 70 -273 70h-88v133h86q162 -1 246 63t84 178t-87 180t-228 66q-142 0 -228 -89t-86 -236h-168q2 209 135 335t349 126t348 -104
t133 -281q0 -217 -232 -295v-6q283 -74 283 -359z" />
    <glyph glyph-name="four" unicode="4" horiz-adv-x="1159" 
d="M219 481h496v658h-4l-492 -652v-6zM715 0v344h-662v154l695 919h135v-936h231v-137h-231v-344h-168z" />
    <glyph glyph-name="five" unicode="5" horiz-adv-x="1132" 
d="M564 -31q-220 0 -364 121t-153 316h170q17 -133 107 -209t238 -76t239 93q90 93 90 247t-93 244t-237 90q-213 0 -315 -146h-166l156 754h747v-154h-627l-92 -422h4q125 119 322 119t337 -133t140 -355t-141 -356q-142 -133 -362 -133z" />
    <glyph glyph-name="six" unicode="6" horiz-adv-x="1189" 
d="M628 109q144 0 233 93t89 240q0 148 -92 242t-236 94t-239 -92q-94 -92 -94 -240t98 -243q97 -94 241 -94zM647 920q193 0 327 -138t136 -334t-136 -338t-344 -141q-206 0 -341 125q-109 98 -154 244t-45 373q0 333 140 529t403 196q199 0 311 -112t131 -277h-170
q-10 104 -81 174t-187 69q-197 0 -286 -146t-93 -419h4q141 195 385 195z" />
    <glyph glyph-name="seven" unicode="7" horiz-adv-x="1050" 
d="M848 1249h-801v154h981v-141q-238 -209 -408 -540t-190 -722h-184q22 362 192 706t410 539v4z" />
    <glyph glyph-name="eight" unicode="8" horiz-adv-x="1196" 
d="M598 836q135 0 214 61t79 167t-79 168t-214 62t-214 -61t-79 -167t79 -168t214 -62zM601 113q167 1 261 77t94 213t-95 217t-262 80t-261 -80t-94 -218t95 -214t262 -75zM68 401q0 270 288 365v6q-100 39 -159 116t-60 183q0 164 132 265q132 102 330 102t329 -100
t131 -267q0 -215 -215 -299v-6q125 -37 205 -132t79 -233q0 -221 -152 -327t-366 -105q-213 0 -369 97q-79 49 -126 135t-47 200z" />
    <glyph glyph-name="nine" unicode="9" horiz-adv-x="1189" 
d="M242 963q0 -147 95 -241t243 -95q148 0 242 93q93 94 93 242t-99 241q-98 93 -244 93t-238 -93t-92 -240zM578 -31q-205 0 -339 114t-143 298h174q10 -119 90 -193t227 -74t228 93q113 121 125 457h-4q-143 -178 -387 -179q-193 1 -329 139t-138 334t139 337t341 141
t326 -98t173 -248q47 -152 47 -396q0 -438 -197 -612q-128 -113 -333 -113z" />
    <glyph glyph-name="colon" unicode=":" horiz-adv-x="391" 
d="M96 0v203h199v-203h-199zM96 621v202h199v-202h-199z" />
    <glyph glyph-name="semicolon" unicode=";" horiz-adv-x="391" 
d="M96 621v202h199v-202h-199zM190 0h-94v203h199v-209q1 -110 -53 -174t-144 -82v92q92 33 92 170z" />
    <glyph glyph-name="less" unicode="&#x3c;" horiz-adv-x="1046" 
d="M936 199l-834 354v170l834 354v-149l-703 -285v-4l703 -289v-151z" />
    <glyph glyph-name="equal" unicode="=" horiz-adv-x="1146" 
d="M109 397v131h929v-131h-929zM109 756v131h929v-131h-929z" />
    <glyph glyph-name="greater" unicode="&#x3e;" horiz-adv-x="1046" 
d="M111 199v149l702 285v4l-702 289v151l833 -354v-170z" />
    <glyph glyph-name="question" unicode="?" horiz-adv-x="1032" 
d="M387 0v203h199v-203h-199zM795 1098q0 104 -74 175q-73 71 -215 71t-220 -94q-78 -93 -83 -257h-168q4 223 125 361t347 137q226 0 345 -112t119 -279q0 -115 -50 -193t-162 -171t-152 -163t-42 -219h-155q2 166 48 263t167 204q63 57 88 81t53 79q29 55 29 117z" />
    <glyph glyph-name="at" unicode="@" horiz-adv-x="1802" 
d="M1122 680q0 258 -230 258q-120 0 -184 -108t-65 -252q0 -289 201 -289q137 1 208 109t70 282zM827 162q-162 0 -256 108t-94 281q0 233 119 375t298 141q179 0 255 -145h4l16 125h160l-69 -570q-23 -170 112 -170q90 1 156 103t65 301q0 303 -184 461t-479 159
q-295 0 -506 -205t-211 -544q0 -300 181 -486t503 -186q195 0 381 72l47 -113q-190 -84 -418 -84q-373 0 -606 220t-233 579q0 202 74 372q139 316 476 445q156 59 316 59t300 -48q310 -106 433 -373q68 -144 68 -320q1 -243 -95 -393t-278 -150t-236 148h-4
q-49 -74 -127 -118t-168 -44z" />
    <glyph glyph-name="A" unicode="A" horiz-adv-x="1327" 
d="M594 1087l-174 -491h479l-168 491l-65 207h-4q-39 -123 -68 -207zM20 0l539 1464h207l541 -1464h-201l-156 446h-583l-158 -446h-189z" />
    <glyph glyph-name="B" unicode="B" horiz-adv-x="1318" 
d="M322 838h413q133 0 209 63t76 173t-69 170t-191 61h-438v-467zM322 166h460q152 0 230 74q66 70 65 170q0 132 -84 202t-223 70h-448v-516zM137 0v1464h621q231 0 352 -127q94 -98 94 -250q0 -233 -235 -307v-6q131 -31 213 -122q82 -92 82 -246t-107 -267
q-129 -139 -366 -139h-654z" />
    <glyph glyph-name="C" unicode="C" horiz-adv-x="1452" 
d="M82 731q0 334 187 550t507 216q250 0 404 -129t184 -338h-180q-27 139 -134 223q-108 84 -278 84q-236 0 -369 -169t-133 -437t138 -433t351 -165q211 0 319 115t122 289h182q-2 -109 -50 -223q-144 -343 -578 -343q-295 0 -484 213q-188 213 -188 547z" />
    <glyph glyph-name="D" unicode="D" horiz-adv-x="1400" 
d="M322 162h327q481 0 481 572t-466 571h-342v-1143zM137 0v1464h533q322 0 486 -198t163 -538q0 -340 -170 -534t-494 -194h-518z" />
    <glyph glyph-name="E" unicode="E" horiz-adv-x="1273" 
d="M137 0v1464h1034v-161h-849v-463h772v-156h-772v-514h874v-170h-1059z" />
    <glyph glyph-name="F" unicode="F" horiz-adv-x="1183" 
d="M137 0v1464h993v-161h-808v-457h673v-156h-673v-690h-185z" />
    <glyph glyph-name="G" unicode="G" horiz-adv-x="1519" 
d="M82 727q0 336 185 552t519 216q250 0 405 -126t191 -345h-190q-31 150 -135 230t-275 81q-254 0 -383 -168t-129 -438t142 -435t360 -165q219 0 333 127t114 324v34h-441v160h625v-774h-119l-53 193h-4q-160 -223 -462 -223t-493 210q-190 211 -190 547z" />
    <glyph glyph-name="H" unicode="H" horiz-adv-x="1425" 
d="M137 0v1464h185v-622h782v622h184v-1464h-184v692h-782v-692h-185z" />
    <glyph glyph-name="I" unicode="I" horiz-adv-x="466" 
d="M141 0v1464h185v-1464h-185z" />
    <glyph glyph-name="J" unicode="J" horiz-adv-x="1017" 
d="M475 -29q-430 0 -430 484v20h182v-14q1 -188 61 -263t193 -75q233 0 234 260v1081h184v-1093q1 -182 -109 -291t-315 -109z" />
    <glyph glyph-name="K" unicode="K" horiz-adv-x="1318" 
d="M137 0v1464h185v-727l720 727h232l-592 -585l641 -879h-215l-551 754l-235 -236v-518h-185z" />
    <glyph glyph-name="L" unicode="L" horiz-adv-x="1134" 
d="M137 0v1464h185v-1294h768v-170h-953z" />
    <glyph glyph-name="M" unicode="M" horiz-adv-x="1699" 
d="M137 0v1464h236l475 -1216h4l471 1216h240v-1464h-177v1204h-4q-39 -115 -65 -184l-402 -1020h-141l-401 1020l-66 184h-4v-1204h-166z" />
    <glyph glyph-name="N" unicode="N" horiz-adv-x="1419" 
d="M137 0v1464h195l667 -1018l107 -188h4v1206h172v-1464h-188l-672 1020l-109 182h-4v-1202h-172z" />
    <glyph glyph-name="O" unicode="O" horiz-adv-x="1597" 
d="M799 131q250 0 389 168t139 434t-139 435t-389 169t-389 -169q-140 -169 -140 -435t140 -434t389 -168zM799 -31q-325 0 -521 215t-196 549t196 549t522 215t520 -215q196 -215 196 -549t-196 -549t-521 -215z" />
    <glyph glyph-name="P" unicode="P" horiz-adv-x="1234" 
d="M322 1305v-541h385q153 0 229 72t76 202t-77 198q-77 69 -218 69h-395zM137 0v1464h611q229 0 348 -141q98 -115 98 -279q0 -206 -119 -318t-354 -112h-399v-614h-185z" />
    <glyph glyph-name="Q" unicode="Q" horiz-adv-x="1597" 
d="M799 131q121 0 219 41l-148 119l95 119l186 -150q176 166 176 473q0 266 -139 435t-389 169t-389 -169q-140 -169 -140 -435t140 -434t389 -168zM799 -31q-325 0 -521 215t-196 549t196 549t522 215t520 -215q196 -216 196 -566t-228 -564l195 -156l-94 -119l-228 180
q-158 -88 -362 -88z" />
    <glyph glyph-name="R" unicode="R" horiz-adv-x="1339" 
d="M322 1305v-537h434q152 0 230 71t77 203q0 132 -70 197q-70 66 -227 66h-444zM137 0v1464h684q193 0 313 -110t119 -291q0 -281 -254 -363v-6q109 -39 155 -122t61 -307t63 -257v-8h-199q-23 18 -31 78t-20 234q-12 176 -81 242t-218 64h-407v-618h-185z" />
    <glyph glyph-name="S" unicode="S" horiz-adv-x="1282" 
d="M670 -29q-295 -1 -454 145t-171 380h180q37 -377 453 -377q158 1 253 71t95 192t-77 189q-60 54 -213 93q-54 14 -158 36q-200 43 -324 119q-147 89 -146 278t137 293t361 103q494 0 555 -457h-174q-21 156 -117 235t-254 79t-246 -62t-89 -174q0 -137 154 -196
q86 -33 208 -57q123 -25 189 -43t145 -52q234 -102 231 -367q0 -201 -148 -315t-390 -113z" />
    <glyph glyph-name="T" unicode="T" horiz-adv-x="1249" 
d="M45 1303v161h1159v-161h-487v-1303h-185v1303h-487z" />
    <glyph glyph-name="U" unicode="U" horiz-adv-x="1347" 
d="M1235 473q-1 -252 -155 -374t-408 -122t-407 121t-152 375v991h184v-972q0 -356 377 -356t377 356v972h184v-991z" />
    <glyph glyph-name="V" unicode="V" horiz-adv-x="1267" 
d="M530 0l-510 1464h199l361 -1089l57 -197h4q35 131 57 197l357 1089h192l-514 -1464h-203z" />
    <glyph glyph-name="W" unicode="W" horiz-adv-x="1871" 
d="M408 0l-379 1464h192l232 -952l55 -248h4q35 156 61 252l265 948h198l256 -948l60 -252h4q35 158 57 248l244 952h186l-407 -1464h-176l-269 1032l-53 223h-4q-31 -137 -55 -223l-287 -1032h-184z" />
    <glyph glyph-name="X" unicode="X" horiz-adv-x="1261" 
d="M29 0l508 750l-471 714h213l362 -585h4l371 585h203l-480 -716l494 -748h-221l-377 616h-4l-393 -616h-209z" />
    <glyph glyph-name="Y" unicode="Y" horiz-adv-x="1292" 
d="M551 0v621l-531 843h205l420 -696h4l426 696h197l-537 -848v-616h-184z" />
    <glyph glyph-name="Z" unicode="Z" horiz-adv-x="1273" 
d="M61 0v176l877 1127v6h-825v155h1052v-143l-889 -1149v-6h924v-166h-1139z" />
    <glyph glyph-name="bracketleft" unicode="[" horiz-adv-x="606" 
d="M158 -242v1786h387v-135h-215v-1509h215v-142h-387z" />
    <glyph glyph-name="backslash" unicode="\" horiz-adv-x="819" 
d="M614 0l-581 1464h172l581 -1464h-172z" />
    <glyph glyph-name="bracketright" unicode="]" horiz-adv-x="606" 
d="M61 -242v142h215v1509h-215v135h388v-1786h-388z" />
    <glyph glyph-name="asciicircum" unicode="^" horiz-adv-x="927" 
d="M23 877l344 587h194l344 -587h-174l-264 458h-4l-266 -458h-174z" />
    <glyph glyph-name="underscore" unicode="_" horiz-adv-x="835" 
d="M-4 -340v125h844v-125h-844z" />
    <glyph glyph-name="grave" unicode="`" 
d="M453 1225l-168 260h204l105 -260h-141z" />
    <glyph glyph-name="a" unicode="a" horiz-adv-x="1044" 
d="M444 106q154 0 238 90t84 195v180q-76 -47 -258 -81t-227 -78q-54 -47 -56 -133q0 -173 219 -173zM944 -10q-158 0 -182 157h-2q-131 -168 -352 -167q-158 0 -258 76t-100 215q0 140 76 212q77 72 232 106q59 13 135 24q192 28 223 55q48 44 48 100q0 90 -62 138t-176 48
q-256 0 -264 -233h-160q4 162 112 260t310 98q391 0 391 -336v-503q0 -70 24 -99t89 -14h6v-121q-41 -16 -90 -16z" />
    <glyph glyph-name="b" unicode="b" horiz-adv-x="1126" 
d="M268 522q0 -184 86 -298t242 -115t231 113q76 114 76 301t-76 303q-75 116 -231 116t-242 -118t-86 -302zM620 1083q208 0 330 -148q122 -149 123 -407q0 -258 -122 -408t-334 -151q-212 0 -334 170h-4v-139h-166v1464h166v-557h4q129 176 337 176z" />
    <glyph glyph-name="c" unicode="c" horiz-adv-x="1062" 
d="M549 -29q-215 0 -355 160q-140 159 -140 397t140 398t371 159q186 0 305 -99t148 -269h-168q-18 109 -92 170t-193 61q-164 0 -253 -119t-89 -301t89 -300t253 -117q127 1 203 69t86 193h164q-16 -190 -135 -296t-334 -106z" />
    <glyph glyph-name="d" unicode="d" horiz-adv-x="1132" 
d="M223 524q0 -186 79 -300q80 -114 238 -115q158 1 241 113t83 301t-89 304t-241 115t-232 -116q-79 -116 -79 -302zM515 -31q-210 0 -336 151q-126 152 -126 408t131 406t340 150t326 -175h4v555h166v-1464h-166v129h-4q-125 -160 -335 -160z" />
    <glyph glyph-name="e" unicode="e" horiz-adv-x="1091" 
d="M555 954q-141 0 -224 -94t-104 -246h637q-8 160 -88 250t-221 90zM565 -29q-236 0 -374 159q-138 158 -138 396q1 238 141 399t367 161t354 -164q127 -162 127 -433h-819q9 -168 99 -273t243 -105q238 0 293 217h162q-37 -170 -156 -264t-299 -93z" />
    <glyph glyph-name="f" unicode="f" horiz-adv-x="602" 
d="M45 924v135h145v170q0 131 72 189t209 59q39 0 84 -4v-142q-29 2 -81 2q-118 0 -118 -112v-162h197v-135h-197v-924h-166v924h-145z" />
    <glyph glyph-name="g" unicode="g" horiz-adv-x="1112" 
d="M524 176q322 0 322 384t-324 384q-145 0 -222 -104t-77 -280t78 -280t223 -104zM999 57q1 -203 -123 -306t-334 -103t-326 77t-130 216h154q23 -162 290 -162q303 0 304 272v150h-5q-63 -82 -135 -123t-178 -41q-205 0 -334 147t-129 382t130 376t331 141t315 -159h5v135
h165v-1002z" />
    <glyph glyph-name="h" unicode="h" horiz-adv-x="1081" 
d="M279 1464v-544h4q123 164 335 163q168 0 262 -88t95 -252v-743h-166v729q1 103 -63 159t-184 56t-202 -82t-81 -211v-651h-166v1464h166z" />
    <glyph glyph-name="i" unicode="i" horiz-adv-x="391" 
d="M113 1260v204h166v-204h-166zM113 0v1059h166v-1059h-166z" />
    <glyph glyph-name="j" unicode="j" horiz-adv-x="391" 
d="M113 1260v204h166v-204h-166zM35 -301q-39 0 -92 8v135h4q31 -6 57 -6q109 0 109 103v1120h166v-1129q1 -135 -63 -183t-181 -48z" />
    <glyph glyph-name="k" unicode="k" horiz-adv-x="1001" 
d="M279 0h-166v1464h166v-858l464 453h211l-405 -381l455 -678h-195l-375 571l-155 -147v-424z" />
    <glyph glyph-name="l" unicode="l" horiz-adv-x="403" 
d="M119 0v1464h166v-1464h-166z" />
    <glyph glyph-name="m" unicode="m" horiz-adv-x="1626" 
d="M113 0v1059h166v-152h4q51 80 133 128t178 48q207 0 276 -188h4q50 88 138 138t186 50q146 0 234 -89t88 -251v-743h-166v735q0 97 -56 153t-150 56q-93 0 -171 -82t-78 -203v-659h-166v735q0 97 -50 153t-142 56t-177 -83t-85 -202v-659h-166z" />
    <glyph glyph-name="n" unicode="n" horiz-adv-x="1081" 
d="M279 1059v-139h4q123 164 335 163q168 0 262 -88t95 -252v-743h-166v729q1 103 -63 159t-184 56t-202 -82t-81 -211v-651h-166v1059h166z" />
    <glyph glyph-name="o" unicode="o" horiz-adv-x="1128" 
d="M565 111q164 -1 252 117t88 301t-89 301t-252 118t-252 -119t-89 -301t89 -300t253 -117zM565 -29q-231 0 -371 160q-140 159 -140 397t140 398t371 160t371 -160q139 -160 139 -398q1 -238 -139 -398t-371 -159z" />
    <glyph glyph-name="p" unicode="p" horiz-adv-x="1130" 
d="M268 522q0 -184 82 -298t242 -115q160 1 237 115q78 114 78 300t-78 302q-77 116 -233 116t-242 -118t-86 -302zM113 -340v1399h166v-150h4q129 174 337 174t332 -148q124 -149 125 -407q0 -258 -123 -408t-337 -151q-214 0 -334 156h-4v-465h-166z" />
    <glyph glyph-name="q" unicode="q" horiz-adv-x="1130" 
d="M229 523q0 -187 76 -301q77 -114 237 -113q160 -1 240 111t80 304t-84 306q-84 112 -240 112t-233 -116q-76 -116 -76 -303zM852 -340v469h-4q-125 -160 -334 -160t-332 151q-123 152 -123 408t128 406t336 150t325 -166h4v141h166v-1399h-166z" />
    <glyph glyph-name="r" unicode="r" horiz-adv-x="702" 
d="M279 1059v-176h4q51 84 133 136t182 52q37 0 68 -12v-160h-7q-31 10 -73 10q-127 0 -217 -89t-90 -232v-588h-166v1059h166z" />
    <glyph glyph-name="s" unicode="s" horiz-adv-x="978" 
d="M500 -31q-202 -1 -323 97q-120 98 -132 278h170q29 -236 303 -235q125 0 185 48q61 48 61 129q0 82 -59 118t-171 60t-150 32q-129 33 -174 66q-84 62 -101 117q-17 56 -17 112q0 135 99 213t282 77q377 0 416 -331h-170q-11 104 -71 152t-174 48t-166 -42t-52 -114
t61 -105q61 -32 191 -58q130 -25 187 -43q160 -50 208 -150q29 -59 29 -147q0 -156 -115 -239t-317 -83z" />
    <glyph glyph-name="t" unicode="t" horiz-adv-x="628" 
d="M45 924v135h154v334h166v-334h204v-135h-204v-688q0 -98 106 -99q45 0 88 15h6v-144q-68 -14 -133 -14q-233 0 -233 205v725h-154z" />
    <glyph glyph-name="u" unicode="u" horiz-adv-x="1064" 
d="M952 0h-166v145h-4q-125 -170 -319 -170q-164 -1 -260 93t-97 258v733h166v-729q0 -102 62 -160t182 -57q119 0 195 84t75 211v651h166v-1059z" />
    <glyph glyph-name="v" unicode="v" horiz-adv-x="944" 
d="M375 0l-371 1059h178l289 -895h4q39 131 70 223l223 672h172l-381 -1059h-184z" />
    <glyph glyph-name="w" unicode="w" horiz-adv-x="1503" 
d="M344 0l-336 1059h178l187 -653l57 -228h4q31 139 53 223l179 658h174l172 -658l51 -223h4q33 139 59 228l197 653h172l-346 -1059h-170l-176 641l-51 221h-4q-29 -133 -54 -221l-178 -641h-172z" />
    <glyph glyph-name="x" unicode="x" horiz-adv-x="1030" 
d="M12 0l400 555l-353 504h193l252 -385h4l262 385h182l-348 -486l414 -573h-195l-313 455h-4l-307 -455h-187z" />
    <glyph glyph-name="y" unicode="y" horiz-adv-x="1001" 
d="M253 -350q-99 0 -155 22v148h8q40 -23 104 -23t101 28t66 101l41 105l-414 1028h180l250 -660l72 -206h4q37 119 70 206l241 660h176l-452 -1145q-61 -156 -127 -210t-165 -54z" />
    <glyph glyph-name="z" unicode="z" horiz-adv-x="964" 
d="M70 0v131l589 776v6h-555v146h787v-98l-608 -803v-6h630v-152h-843z" />
    <glyph glyph-name="braceleft" unicode="{" horiz-adv-x="606" 
d="M508 -242q-160 0 -239 77t-79 253v365q0 71 -30 103t-111 34v137q78 2 110 35t31 102v357q0 175 79 249t239 74h37v-135h-33q-82 0 -116 -41t-34 -149v-367q0 -156 -114 -190v-7q115 -35 114 -190v-375q0 -110 34 -150t116 -40h33v-142h-37z" />
    <glyph glyph-name="bar" unicode="|" horiz-adv-x="458" 
d="M158 -242v1786h143v-1786h-143z" />
    <glyph glyph-name="braceright" unicode="}" horiz-adv-x="606" 
d="M61 -242v142h33q84 0 117 38t33 146v375q0 156 114 190v6q-115 35 -114 191v366q0 111 -34 154t-116 43h-33v135h37q160 0 239 -77t79 -253v-356q0 -70 30 -102t111 -35v-137q-78 -2 -110 -35t-31 -103v-364q0 -176 -79 -250t-239 -74h-37z" />
    <glyph glyph-name="asciitilde" unicode="~" horiz-adv-x="804" 
d="M547 557q-51 0 -151 44t-128 44q-57 0 -61 -84h-133q4 109 53 173t124 65q75 0 161 -44t116 -44q66 0 70 84h133q-8 -238 -184 -238z" />
    <glyph glyph-name="uni00A0" unicode="&#xa0;" horiz-adv-x="325" 
 />
    <glyph glyph-name="exclamdown" unicode="&#xa1;" horiz-adv-x="481" 
d="M141 1001v203h199v-203h-199zM150 -260v469l45 641h92l45 -641v-469h-182z" />
    <glyph glyph-name="cent" unicode="&#xa2;" horiz-adv-x="1062" 
d="M223 528q0 -164 72 -276t207 -137v827q-133 -22 -206 -136t-73 -278zM502 -174v149q-205 23 -327 179t-122 374t122 374q122 155 327 179v129h114v-127q164 -14 270 -111t132 -255h-168q-16 96 -76 155t-158 72v-831q215 29 238 260h164q-16 -177 -120 -281t-282 -119
v-147h-114z" />
    <glyph glyph-name="sterling" unicode="&#xa3;" horiz-adv-x="1128" 
d="M80 616v132h125q-66 170 -66 288q0 174 128 286t331 112t333 -117t132 -352h-168q-2 169 -82 247t-213 78t-208 -68t-75 -175q0 -106 54 -252q12 -35 16 -47h293v-132h-256q14 -68 14 -120q0 -180 -164 -314l5 -4q95 33 167 33t180 -42t165 -42q102 0 213 98l98 -121
q-147 -129 -318 -129q-96 1 -220 55t-199 54q-13 0 -29 -3t-44 -7t-58 -28t-50 -36t-22 -14l-99 135q70 51 110 89t72 103q31 65 31 133t-26 160h-170z" />
    <glyph glyph-name="currency" unicode="&#xa4;" horiz-adv-x="991" 
d="M98 714q0 140 74 244l-135 140l88 84l131 -135q104 77 240 77t239 -77l131 135l88 -84l-135 -140q72 -106 72 -243t-74 -244l137 -141l-88 -84l-133 135q-100 -74 -237 -74t-238 74l-133 -135l-88 84l135 139q-74 105 -74 245zM496 434q109 0 171 79t62 202t-62 203
t-171 80t-172 -80q-64 -80 -64 -203t64 -202t172 -79z" />
    <glyph glyph-name="yen" unicode="&#xa5;" horiz-adv-x="1150" 
d="M125 557v111h340l-445 735h193l365 -649h4l364 649h184l-440 -735h344v-111h-368v-141h368v-111h-368v-305h-172v305h-369v111h369v141h-369z" />
    <glyph glyph-name="brokenbar" unicode="&#xa6;" horiz-adv-x="458" 
d="M158 733v811h143v-811h-143zM158 -242v844h143v-844h-143z" />
    <glyph glyph-name="section" unicode="&#xa7;" horiz-adv-x="1191" 
d="M223 664q1 -70 59 -124t252 -166t271 -171q164 47 164 200q1 79 -59 131t-166 110t-195 108q-90 49 -164 104q-78 -20 -120 -70q-42 -52 -42 -122zM991 -80q1 -135 -101 -218t-292 -83t-312 111q-120 111 -124 293h170q16 -256 289 -256q96 0 147 42q51 43 51 111
t-76 129t-291 182q-216 121 -306 208q-89 87 -89 218q0 203 232 279q-82 92 -82 194q0 138 106 222q105 84 287 84t288 -100t116 -277h-170q-16 229 -244 229q-102 0 -156 -42t-55 -109q0 -39 17 -71q31 -58 162 -130q40 -23 136 -75q296 -160 358 -236q83 -101 83 -213
q0 -221 -234 -293q90 -96 90 -199z" />
    <glyph glyph-name="dieresis" unicode="&#xa8;" 
d="M264 1260v194h160v-194h-160zM600 1260v194h160v-194h-160z" />
    <glyph glyph-name="copyright" unicode="&#xa9;" horiz-adv-x="1662" 
d="M829 260q-181 0 -303 132q-120 132 -120 338t117 340q118 134 317 134q158 0 255 -84t115 -215h-155q-15 78 -71 123t-146 45q-131 0 -202 -96t-71 -247t75 -245q76 -94 186 -94t168 55t69 142h151q-4 -140 -104 -234t-281 -94zM831 45q283 0 469 194q186 195 186 489
t-186 489q-188 195 -469 195t-467 -196q-186 -194 -188 -489q0 -295 186 -489t469 -193zM831 -35q-317 0 -533 217t-216 545t216 546t533 218t533 -218t217 -546q-1 -328 -217 -545t-533 -217z" />
    <glyph glyph-name="ordfeminine" unicode="&#xaa;" horiz-adv-x="983" 
d="M82 745q0 138 105 200t309 81q116 12 164 39t49 96q0 156 -197 156q-217 0 -233 -197h-152q8 136 106 226t277 90q344 0 344 -295v-436q0 -104 68 -105q14 0 34 4h7v-115q-43 -14 -84 -14q-145 0 -168 141h-4q-106 -150 -299 -149q-141 0 -234 70q-92 70 -92 208z
M436 588q133 0 204 75t71 166v142q-72 -39 -208 -57q-135 -18 -195 -53q-60 -36 -60 -124q0 -149 188 -149z" />
    <glyph glyph-name="guillemotleft" unicode="&#xab;" horiz-adv-x="868" 
d="M383 231l-281 236v178l281 236v-162l-190 -160v-4l190 -162v-162zM766 231l-281 236v178l281 236v-162l-191 -160v-4l191 -162v-162z" />
    <glyph glyph-name="logicalnot" unicode="&#xac;" horiz-adv-x="1146" 
d="M129 684v131h848v-520h-135v389h-713z" />
    <glyph glyph-name="uni00AD" unicode="&#xad;" horiz-adv-x="704" 
d="M78 489v152h549v-152h-549z" />
    <glyph glyph-name="registered" unicode="&#xae;" horiz-adv-x="1081" 
d="M455 1178v-148h114q86 0 86 74t-86 74h-114zM350 739v525h242q72 0 119 -42t47 -106q0 -100 -99 -125v-2q74 -20 82 -106q2 -18 4 -41q1 -23 3 -37t3 -34t13 -26v-6h-100q-18 8 -23 121q-4 90 -100 90h-86v-211h-105zM541 571q175 0 289 120t114 303t-115 304t-289 121
t-288 -121q-115 -121 -115 -304t114 -303t290 -120zM541 500q-203 0 -345 141t-142 353t142 354t345 143q203 0 345 -142q142 -143 142 -355t-142 -353t-345 -141z" />
    <glyph glyph-name="macron" unicode="&#xaf;" 
d="M248 1274v137h528v-137h-528z" />
    <glyph glyph-name="degree" unicode="&#xb0;" horiz-adv-x="651" 
d="M469 1184q0 68 -39 112t-103 43q-65 0 -105 -44q-40 -43 -40 -111t40 -112t106 -44q64 0 102 44t39 112zM326 932q-106 0 -182 74q-75 74 -74 178q0 104 74 178q76 74 182 74t181 -74t75 -178t-75 -178t-181 -74z" />
    <glyph glyph-name="plusminus" unicode="&#xb1;" horiz-adv-x="1146" 
d="M109 0v131h929v-131h-929zM109 643v131h397v369h135v-369h397v-131h-397v-369h-135v369h-397z" />
    <glyph glyph-name="twosuperior" unicode="&#xb2;" horiz-adv-x="714" 
d="M470 1321q-40 39 -110 39t-111 -48q-42 -48 -42 -141h-139q0 150 80 230q82 80 218 80t216 -76t80 -187t-71 -176q-50 -46 -101 -78q-50 -32 -53 -33t-7 -4t-8 -5q-180 -109 -203 -179h440v-120h-612q6 127 75 210t225 184q34 22 45 30t37 26t48 48q33 46 33 104
q0 57 -40 96z" />
    <glyph glyph-name="threesuperior" unicode="&#xb3;" horiz-adv-x="751" 
d="M698 860q0 -120 -90 -188t-234 -68t-236 81q-91 81 -93 220h139q10 -184 193 -184q80 0 126 39t46 112q0 139 -182 140h-54v112h52q75 0 117 33t42 90t-41 91t-111 34t-114 -45q-43 -45 -47 -123h-139q4 127 86 203t216 76q134 -1 213 -63t79 -169q0 -129 -138 -174v-4
q170 -41 170 -213z" />
    <glyph glyph-name="acute" unicode="&#xb4;" 
d="M430 1225l105 260h204l-168 -260h-141z" />
    <glyph glyph-name="mu" unicode="&#xb5;" horiz-adv-x="1071" 
d="M113 -340v1399h166v-729q0 -102 62 -160t181 -57q119 0 195 84t76 211v651h165v-1059h-165v145h-5q-125 -170 -309 -170q-133 0 -196 72h-4v-387h-166z" />
    <glyph glyph-name="paragraph" unicode="&#xb6;" horiz-adv-x="1124" 
d="M543 723h-70q-203 0 -308 99q-105 98 -105 266t100 272q102 104 299 104h528v-1464h-151v1305h-142v-1305h-151v723z" />
    <glyph glyph-name="periodcentered" unicode="&#xb7;" horiz-adv-x="378" 
d="M96 539v202h199v-202h-199z" />
    <glyph glyph-name="cedilla" unicode="&#xb8;" 
d="M680 -234q0 -74 -58 -116t-172 -41q-114 0 -202 59l33 60q72 -31 147 -31q119 0 119 65q0 57 -78 58q-41 0 -84 -15l-33 50l146 145h114l-120 -100v-4q68 8 128 -24t60 -106z" />
    <glyph glyph-name="onesuperior" unicode="&#xb9;" horiz-adv-x="520" 
d="M250 623v591h-203v101q203 4 225 155h125v-847h-147z" />
    <glyph glyph-name="ordmasculine" unicode="&#xba;" horiz-adv-x="1042" 
d="M522 586q137 0 210 99t73 261t-73 262t-210 100t-211 -100q-73 -102 -73 -262t74 -260t210 -100zM522 457q-204 0 -326 140t-122 349t123 349q123 141 325 141t325 -140q122 -140 122 -350q0 -209 -122 -349t-325 -140z" />
    <glyph glyph-name="guillemotright" unicode="&#xbb;" horiz-adv-x="868" 
d="M102 231v162l191 160v4l-191 162v162l281 -236v-178zM485 231v162l191 160v4l-191 162v162l281 -236v-178z" />
    <glyph glyph-name="onequarter" unicode="&#xbc;" horiz-adv-x="1595" 
d="M973 305h297v359h-4l-293 -355v-4zM1270 0v193h-416v145l418 514h139v-547h133v-112h-133v-193h-141zM215 0l928 1464h147l-928 -1464h-147zM256 623v591h-203v101q203 4 226 155h124v-847h-147z" />
    <glyph glyph-name="onehalf" unicode="&#xbd;" horiz-adv-x="1646" 
d="M1436 592q0 68 -40 106t-110 39q-70 0 -112 -48t-41 -140h-140q0 149 81 229t217 80t216 -76t80 -187t-70 -175q-86 -79 -169 -121q-180 -109 -203 -178h440v-121h-612q6 127 78 214t222 180q101 65 113 82q38 50 44 72q6 21 6 44zM190 0l928 1464h148l-928 -1464h-148z
M256 623v591h-203v101q203 4 226 155h124v-847h-147z" />
    <glyph glyph-name="threequarters" unicode="&#xbe;" horiz-adv-x="1730" 
d="M1108 305h297v359h-4l-293 -355v-4zM1405 0v193h-416v145l418 514h139v-547h133v-112h-133v-193h-141zM373 0l927 1464h148l-928 -1464h-147zM705 860q-1 -120 -91 -188t-234 -68t-236 81q-91 81 -93 220h139q10 -184 193 -184q80 0 126 39t46 112q0 139 -182 140h-54
v112h52q75 0 117 33t42 90t-41 91t-111 34t-114 -45q-43 -45 -47 -123h-139q4 127 86 203t216 76q134 -1 213 -63t79 -169q0 -129 -137 -174v-4q170 -41 170 -213z" />
    <glyph glyph-name="questiondown" unicode="&#xbf;" horiz-adv-x="1032" 
d="M446 1001v203h199v-203h-199zM526 -287q-226 0 -346 112q-119 112 -119 279q0 115 51 193q50 77 162 171t151 164q40 70 42 218h156q-3 -166 -49 -263t-166 -204q-62 -57 -88 -81t-54 -79t-28 -117q0 -104 74 -175t214 -71q142 0 220 94q78 93 83 257h168
q-5 -223 -125 -361t-346 -137z" />
    <glyph glyph-name="Agrave" unicode="&#xc0;" horiz-adv-x="1327" 
d="M614 1542l-168 248h205l105 -248h-142zM594 1087l-174 -491h479l-168 491l-65 207h-4q-39 -123 -68 -207zM20 0l539 1464h207l541 -1464h-201l-156 446h-583l-158 -446h-189z" />
    <glyph glyph-name="Aacute" unicode="&#xc1;" horiz-adv-x="1327" 
d="M592 1542l104 248h205l-168 -248h-141zM594 1087l-174 -491h479l-168 491l-65 207h-4q-39 -123 -68 -207zM20 0l539 1464h207l541 -1464h-201l-156 446h-583l-158 -446h-189z" />
    <glyph glyph-name="Acircumflex" unicode="&#xc2;" horiz-adv-x="1327" 
d="M387 1550l191 217h188l182 -217h-178l-100 129h-4l-105 -129h-174zM594 1087l-174 -491h479l-168 491l-65 207h-4q-39 -123 -68 -207zM20 0l539 1464h207l541 -1464h-201l-156 446h-583l-158 -446h-189z" />
    <glyph glyph-name="Atilde" unicode="&#xc3;" horiz-adv-x="1327" 
d="M799 1556q-55 0 -139 33t-107 33q-43 0 -47 -61h-123q16 188 158 188q59 0 133 -33t106 -33q47 0 56 62h118q-10 -189 -155 -189zM594 1087l-174 -491h479l-168 491l-65 207h-4q-39 -123 -68 -207zM20 0l539 1464h207l541 -1464h-201l-156 446h-583l-158 -446h-189z" />
    <glyph glyph-name="Adieresis" unicode="&#xc4;" horiz-adv-x="1327" 
d="M420 1556v195h160v-195h-160zM756 1556v195h159v-195h-159zM594 1087l-174 -491h479l-168 491l-65 207h-4q-39 -123 -68 -207zM20 0l539 1464h207l541 -1464h-201l-156 446h-583l-158 -446h-189z" />
    <glyph glyph-name="Aring" unicode="&#xc5;" horiz-adv-x="1327" 
d="M668 1599q44 0 70 30t26 73t-27 73q-27 29 -69 29t-70 -30q-27 -30 -27 -72q0 -43 27 -73t70 -30zM668 1528q-74 0 -126 51t-53 123q1 72 53 123t126 51t126 -51t52 -123t-52 -123t-126 -51zM594 1087l-174 -491h479l-168 491l-65 207h-4q-39 -123 -68 -207zM20 0
l539 1464h207l541 -1464h-201l-156 446h-583l-158 -446h-189z" />
    <glyph glyph-name="AE" unicode="&#xc6;" horiz-adv-x="1937" 
d="M891 596v707h-213l-252 -707h465zM1835 1464v-161h-760v-463h682v-156h-682v-514h785v-170h-969v446h-518l-158 -446h-186l532 1464h1274z" />
    <glyph glyph-name="Ccedilla" unicode="&#xc7;" horiz-adv-x="1452" 
d="M694 -391q-112 0 -202 59l32 60q72 -31 148 -31q119 0 119 65q0 57 -78 58q-41 0 -84 -15l-33 50l119 118q-287 19 -460 229t-173 536t187 543q187 216 507 216q250 0 404 -129t184 -338h-180q-27 139 -134 223q-108 84 -278 84q-236 0 -369 -169t-133 -437t138 -433
t351 -165q211 0 319 115t122 289h182q-2 -109 -50 -223q-135 -321 -509 -341l-88 -73v-4q68 8 128 -24q61 -32 61 -106t-58 -116q-60 -42 -172 -41z" />
    <glyph glyph-name="Egrave" unicode="&#xc8;" horiz-adv-x="1273" 
d="M625 1542l-168 248h205l104 -248h-141zM137 0v1464h1034v-161h-849v-463h772v-156h-772v-514h874v-170h-1059z" />
    <glyph glyph-name="Eacute" unicode="&#xc9;" horiz-adv-x="1273" 
d="M602 1542l105 248h204l-168 -248h-141zM137 0v1464h1034v-161h-849v-463h772v-156h-772v-514h874v-170h-1059z" />
    <glyph glyph-name="Ecircumflex" unicode="&#xca;" horiz-adv-x="1273" 
d="M397 1550l191 217h188l182 -217h-178l-100 129h-4l-105 -129h-174zM137 0v1464h1034v-161h-849v-463h772v-156h-772v-514h874v-170h-1059z" />
    <glyph glyph-name="Edieresis" unicode="&#xcb;" horiz-adv-x="1273" 
d="M430 1556v195h160v-195h-160zM766 1556v195h160v-195h-160zM137 0v1464h1034v-161h-849v-463h772v-156h-772v-514h874v-170h-1059z" />
    <glyph glyph-name="Igrave" unicode="&#xcc;" horiz-adv-x="466" 
d="M180 1542l-168 248h205l105 -248h-142zM141 0v1464h185v-1464h-185z" />
    <glyph glyph-name="Iacute" unicode="&#xcd;" horiz-adv-x="466" 
d="M158 1542l104 248h205l-168 -248h-141zM141 0v1464h185v-1464h-185z" />
    <glyph glyph-name="Icircumflex" unicode="&#xce;" horiz-adv-x="466" 
d="M-47 1550l190 217h189l182 -217h-178l-100 129h-5l-104 -129h-174zM141 0v1464h185v-1464h-185z" />
    <glyph glyph-name="Idieresis" unicode="&#xcf;" horiz-adv-x="466" 
d="M-14 1556v195h159v-195h-159zM322 1556v195h159v-195h-159zM141 0v1464h185v-1464h-185z" />
    <glyph glyph-name="Eth" unicode="&#xd0;" horiz-adv-x="1423" 
d="M344 162h328q481 0 481 572t-467 571h-342v-492h424v-156h-424v-495zM10 657v156h150v651h532q322 0 486 -198t164 -538t-171 -534q-170 -194 -493 -194h-518v657h-150z" />
    <glyph glyph-name="Ntilde" unicode="&#xd1;" horiz-adv-x="1419" 
d="M874 1556q-55 0 -139 33t-106 33q-43 0 -47 -61h-123q16 188 157 188q60 0 134 -33t106 -33q47 0 55 62h119q-11 -189 -156 -189zM137 0v1464h195l667 -1018l107 -188h4v1206h172v-1464h-188l-672 1020l-109 182h-4v-1202h-172z" />
    <glyph glyph-name="Ograve" unicode="&#xd2;" horiz-adv-x="1597" 
d="M745 1542l-167 248h204l105 -248h-142zM799 131q250 0 389 168t139 434t-139 435t-389 169t-389 -169q-140 -169 -140 -435t140 -434t389 -168zM799 -31q-325 0 -521 215t-196 549t196 549t522 215t520 -215q196 -215 196 -549t-196 -549t-521 -215z" />
    <glyph glyph-name="Oacute" unicode="&#xd3;" horiz-adv-x="1597" 
d="M723 1542l104 248h205l-168 -248h-141zM799 131q250 0 389 168t139 434t-139 435t-389 169t-389 -169q-140 -169 -140 -435t140 -434t389 -168zM799 -31q-325 0 -521 215t-196 549t196 549t522 215t520 -215q196 -215 196 -549t-196 -549t-521 -215z" />
    <glyph glyph-name="Ocircumflex" unicode="&#xd4;" horiz-adv-x="1597" 
d="M518 1550l191 217h188l182 -217h-178l-100 129h-4l-105 -129h-174zM799 131q250 0 389 168t139 434t-139 435t-389 169t-389 -169q-140 -169 -140 -435t140 -434t389 -168zM799 -31q-325 0 -521 215t-196 549t196 549t522 215t520 -215q196 -215 196 -549t-196 -549
t-521 -215z" />
    <glyph glyph-name="Otilde" unicode="&#xd5;" horiz-adv-x="1597" 
d="M930 1556q-55 0 -139 33t-107 33q-43 0 -47 -61h-123q16 188 158 188q59 0 133 -33t106 -33q47 0 56 62h118q-10 -189 -155 -189zM799 131q250 0 389 168t139 434t-139 435t-389 169t-389 -169q-140 -169 -140 -435t140 -434t389 -168zM799 -31q-325 0 -521 215t-196 549
t196 549t522 215t520 -215q196 -215 196 -549t-196 -549t-521 -215z" />
    <glyph glyph-name="Odieresis" unicode="&#xd6;" horiz-adv-x="1597" 
d="M551 1556v195h160v-195h-160zM887 1556v195h160v-195h-160zM799 131q250 0 389 168t139 434t-139 435t-389 169t-389 -169q-140 -169 -140 -435t140 -434t389 -168zM799 -31q-325 0 -521 215t-196 549t196 549t522 215t520 -215q196 -215 196 -549t-196 -549t-521 -215z
" />
    <glyph glyph-name="multiply" unicode="&#xd7;" horiz-adv-x="1146" 
d="M240 240l-93 88l336 340l-336 340l93 88l333 -338l334 338l92 -88l-335 -340l335 -340l-92 -88l-334 335z" />
    <glyph glyph-name="Oslash" unicode="&#xd8;" horiz-adv-x="1597" 
d="M814 131q236 0 374 168q139 167 139 413t-98 400l-793 -844q142 -137 378 -137zM786 1337q-236 0 -376 -169q-140 -168 -140 -414t101 -404l792 846q-141 141 -377 141zM82 746q0 322 196 536q196 215 521 215q289 0 481 -176l162 172l78 -72l-166 -178
q162 -207 162 -525t-196 -534q-196 -215 -521 -215q-287 0 -480 172l-163 -174l-78 72l168 180q-164 205 -164 527z" />
    <glyph glyph-name="Ugrave" unicode="&#xd9;" horiz-adv-x="1347" 
d="M621 1542l-168 248h204l105 -248h-141zM1235 473q-1 -252 -155 -374t-408 -122t-407 121t-152 375v991h184v-972q0 -356 377 -356t377 356v972h184v-991z" />
    <glyph glyph-name="Uacute" unicode="&#xda;" horiz-adv-x="1347" 
d="M598 1542l104 248h205l-168 -248h-141zM1235 473q-1 -252 -155 -374t-408 -122t-407 121t-152 375v991h184v-972q0 -356 377 -356t377 356v972h184v-991z" />
    <glyph glyph-name="Ucircumflex" unicode="&#xdb;" horiz-adv-x="1347" 
d="M393 1550l191 217h188l182 -217h-178l-100 129h-4l-105 -129h-174zM1235 473q-1 -252 -155 -374t-408 -122t-407 121t-152 375v991h184v-972q0 -356 377 -356t377 356v972h184v-991z" />
    <glyph glyph-name="Udieresis" unicode="&#xdc;" horiz-adv-x="1347" 
d="M426 1556v195h160v-195h-160zM762 1556v195h160v-195h-160zM1235 473q-1 -252 -155 -374t-408 -122t-407 121t-152 375v991h184v-972q0 -356 377 -356t377 356v972h184v-991z" />
    <glyph glyph-name="Yacute" unicode="&#xdd;" horiz-adv-x="1292" 
d="M569 1542l105 248h205l-168 -248h-142zM551 0v621l-531 843h205l420 -696h4l426 696h197l-537 -848v-616h-184z" />
    <glyph glyph-name="Thorn" unicode="&#xde;" horiz-adv-x="1228" 
d="M717 1044h-395v-540h385q153 0 229 72t76 201q0 131 -77 199t-218 68zM137 0v1464h185v-260h426q229 0 348 -141q98 -115 98 -279q0 -206 -119 -318t-354 -112h-399v-354h-185z" />
    <glyph glyph-name="germandbls" unicode="&#xdf;" horiz-adv-x="1030" 
d="M522 -23q-49 0 -104 11v135h4q168 -33 276 51t109 245q0 161 -83 246t-237 85h-55v127h62q114 1 186 69t72 173t-62 167t-175 62q-112 0 -174 -67t-62 -177v-1104h-166v1114q0 166 110 266q111 100 290 100t291 -96q112 -98 111 -254q0 -225 -221 -303v-4
q125 -37 204 -135t79 -252q0 -211 -122 -335t-333 -124z" />
    <glyph glyph-name="agrave" unicode="&#xe0;" horiz-adv-x="1044" 
d="M471 1225l-168 260h205l104 -260h-141zM444 106q154 0 238 90t84 195v180q-76 -47 -258 -81t-227 -78q-54 -47 -56 -133q0 -173 219 -173zM944 -10q-158 0 -182 157h-2q-131 -168 -352 -167q-158 0 -258 76t-100 215q0 140 76 212q77 72 232 106q59 13 135 24
q192 28 223 55q48 44 48 100q0 90 -62 138t-176 48q-256 0 -264 -233h-160q4 162 112 260t310 98q391 0 391 -336v-503q0 -70 24 -99t89 -14h6v-121q-41 -16 -90 -16z" />
    <glyph glyph-name="aacute" unicode="&#xe1;" horiz-adv-x="1044" 
d="M459 1225l104 260h205l-168 -260h-141zM444 106q154 0 238 90t84 195v180q-76 -47 -258 -81t-227 -78q-54 -47 -56 -133q0 -173 219 -173zM944 -10q-158 0 -182 157h-2q-131 -168 -352 -167q-158 0 -258 76t-100 215q0 140 76 212q77 72 232 106q59 13 135 24
q192 28 223 55q48 44 48 100q0 90 -62 138t-176 48q-256 0 -264 -233h-160q4 162 112 260t310 98q391 0 391 -336v-503q0 -70 24 -99t89 -14h6v-121q-41 -16 -90 -16z" />
    <glyph glyph-name="acircumflex" unicode="&#xe2;" horiz-adv-x="1044" 
d="M244 1233l190 217h189l182 -217h-178l-101 129h-4l-104 -129h-174zM444 106q154 0 238 90t84 195v180q-76 -47 -258 -81t-227 -78q-54 -47 -56 -133q0 -173 219 -173zM944 -10q-158 0 -182 157h-2q-131 -168 -352 -167q-158 0 -258 76t-100 215q0 140 76 212
q77 72 232 106q59 13 135 24q192 28 223 55q48 44 48 100q0 90 -62 138t-176 48q-256 0 -264 -233h-160q4 162 112 260t310 98q391 0 391 -336v-503q0 -70 24 -99t89 -14h6v-121q-41 -16 -90 -16z" />
    <glyph glyph-name="atilde" unicode="&#xe3;" horiz-adv-x="1044" 
d="M655 1231q-55 0 -139 33t-106 32q-43 0 -48 -61h-122q16 188 157 188q59 -1 133 -33t107 -32q47 0 55 61h119q-11 -188 -156 -188zM444 106q154 0 238 90t84 195v180q-76 -47 -258 -81t-227 -78q-54 -47 -56 -133q0 -173 219 -173zM944 -10q-158 0 -182 157h-2
q-131 -168 -352 -167q-158 0 -258 76t-100 215q0 140 76 212q77 72 232 106q59 13 135 24q192 28 223 55q48 44 48 100q0 90 -62 138t-176 48q-256 0 -264 -233h-160q4 162 112 260t310 98q391 0 391 -336v-503q0 -70 24 -99t89 -14h6v-121q-41 -16 -90 -16z" />
    <glyph glyph-name="adieresis" unicode="&#xe4;" horiz-adv-x="1044" 
d="M276 1260v194h160v-194h-160zM612 1260v194h160v-194h-160zM444 106q154 0 238 90t84 195v180q-76 -47 -258 -81t-227 -78q-54 -47 -56 -133q0 -173 219 -173zM944 -10q-158 0 -182 157h-2q-131 -168 -352 -167q-158 0 -258 76t-100 215q0 140 76 212q77 72 232 106
q59 13 135 24q192 28 223 55q48 44 48 100q0 90 -62 138t-176 48q-256 0 -264 -233h-160q4 162 112 260t310 98q391 0 391 -336v-503q0 -70 24 -99t89 -14h6v-121q-41 -16 -90 -16z" />
    <glyph glyph-name="aring" unicode="&#xe5;" horiz-adv-x="1044" 
d="M524 1217q43 -1 70 29t27 73t-27 73t-70 30q-44 0 -70 -30t-26 -73t26 -73t70 -29zM524 1145q-74 0 -126 51t-52 123t52 123t126 51t126 -51t52 -123t-52 -123t-126 -51zM444 106q154 0 238 90t84 195v180q-76 -47 -258 -81t-227 -78q-54 -47 -56 -133q0 -173 219 -173z
M944 -10q-158 0 -182 157h-2q-131 -168 -352 -167q-158 0 -258 76t-100 215q0 140 76 212q77 72 232 106q59 13 135 24q192 28 223 55q48 44 48 100q0 90 -62 138t-176 48q-256 0 -264 -233h-160q4 162 112 260t310 98q391 0 391 -336v-503q0 -70 24 -99t89 -14h6v-121
q-41 -16 -90 -16z" />
    <glyph glyph-name="ae" unicode="&#xe6;" horiz-adv-x="1722" 
d="M1213 954q-129 0 -201 -93t-88 -247h571q-2 158 -78 249t-204 91zM446 106q154 0 237 90t83 195v162q-94 -49 -248 -67t-224 -57q-70 -40 -69 -144q0 -179 221 -179zM410 -20q-154 0 -257 78t-104 223q0 204 188 273q105 41 257 55q153 15 212 47q58 32 58 117t-59 133
t-173 48q-254 0 -272 -233h-160q10 158 120 258t310 100q264 0 342 -166q121 172 343 172q222 1 340 -163t118 -433h-753q8 -172 87 -275t230 -103q100 0 165 57t87 160h162q-29 -168 -140 -262t-274 -95q-264 0 -389 215h-4q-88 -126 -184 -166t-250 -40z" />
    <glyph glyph-name="ccedilla" unicode="&#xe7;" horiz-adv-x="1062" 
d="M729 -234q-1 -74 -59 -116t-172 -41q-114 0 -201 59l33 60q72 -31 147 -31q119 0 119 65q0 57 -78 58q-41 0 -84 -15l-33 50l119 118q-213 16 -340 173q-127 156 -127 388q1 232 141 392t371 159q186 0 305 -99t148 -269h-168q-18 109 -92 170t-193 61q-164 0 -253 -119
t-89 -301t89 -300t253 -117q127 1 203 69t86 193h164q-14 -173 -116 -277t-271 -121l-90 -75v-4q68 8 128 -24t60 -106z" />
    <glyph glyph-name="egrave" unicode="&#xe8;" horiz-adv-x="1091" 
d="M502 1225l-168 260h205l104 -260h-141zM555 954q-141 0 -224 -94t-104 -246h637q-8 160 -88 250t-221 90zM565 -29q-236 0 -374 159q-138 158 -138 396q1 238 141 399t367 161t354 -164q127 -162 127 -433h-819q9 -168 99 -273t243 -105q238 0 293 217h162
q-37 -170 -156 -264t-299 -93z" />
    <glyph glyph-name="eacute" unicode="&#xe9;" horiz-adv-x="1091" 
d="M489 1225l105 260h205l-168 -260h-142zM555 954q-141 0 -224 -94t-104 -246h637q-8 160 -88 250t-221 90zM565 -29q-236 0 -374 159q-138 158 -138 396q1 238 141 399t367 161t354 -164q127 -162 127 -433h-819q9 -168 99 -273t243 -105q238 0 293 217h162
q-37 -170 -156 -264t-299 -93z" />
    <glyph glyph-name="ecircumflex" unicode="&#xea;" horiz-adv-x="1091" 
d="M274 1233l191 217h188l183 -217h-179l-100 129h-4l-104 -129h-175zM555 954q-141 0 -224 -94t-104 -246h637q-8 160 -88 250t-221 90zM565 -29q-236 0 -374 159q-138 158 -138 396q1 238 141 399t367 161t354 -164q127 -162 127 -433h-819q9 -168 99 -273t243 -105
q238 0 293 217h162q-37 -170 -156 -264t-299 -93z" />
    <glyph glyph-name="edieresis" unicode="&#xeb;" horiz-adv-x="1091" 
d="M307 1260v194h160v-194h-160zM643 1260v194h160v-194h-160zM555 954q-141 0 -224 -94t-104 -246h637q-8 160 -88 250t-221 90zM565 -29q-236 0 -374 159q-138 158 -138 396q1 238 141 399t367 161t354 -164q127 -162 127 -433h-819q9 -168 99 -273t243 -105
q238 0 293 217h162q-37 -170 -156 -264t-299 -93z" />
    <glyph glyph-name="igrave" unicode="&#xec;" horiz-adv-x="391" 
d="M188 1485l95 -260h-140l-157 260h202zM113 0v1059h166v-1059h-166z" />
    <glyph glyph-name="iacute" unicode="&#xed;" horiz-adv-x="391" 
d="M113 0v1059h166v-1059h-166zM129 1225l94 260h203l-158 -260h-139z" />
    <glyph glyph-name="icircumflex" unicode="&#xee;" horiz-adv-x="391" 
d="M113 0v1059h166v-1059h-166zM-55 1233l159 217h189l151 -217h-168l-79 125h-4l-84 -125h-164z" />
    <glyph glyph-name="idieresis" unicode="&#xef;" horiz-adv-x="391" 
d="M113 0v1059h166v-1059h-166zM-25 1260v194h160v-194h-160zM254 1260v194h160v-194h-160z" />
    <glyph glyph-name="eth" unicode="&#xf0;" horiz-adv-x="1128" 
d="M223 528q0 -182 89 -300t252 -117q163 -1 252 119t89 302t-91 296q-91 112 -254 112t-250 -115t-87 -297zM1075 555q0 -256 -138 -420q-139 -164 -371 -164t-372 160q-140 159 -140 397t132 394q133 156 357 155q184 0 311 -151q-68 162 -211 311l-307 -94l-31 90l260 80
q-61 57 -184 151h207q63 -43 133 -102l197 61l30 -90l-149 -47q276 -303 276 -731z" />
    <glyph glyph-name="ntilde" unicode="&#xf1;" horiz-adv-x="1081" 
d="M674 1231q-55 0 -139 33t-107 32q-43 0 -47 -61h-123q16 188 158 188q59 -1 133 -33t106 -32q47 0 56 61h118q-10 -188 -155 -188zM279 1059v-139h4q123 164 335 163q168 0 262 -88t95 -252v-743h-166v729q1 103 -63 159t-184 56t-202 -82t-81 -211v-651h-166v1059h166z
" />
    <glyph glyph-name="ograve" unicode="&#xf2;" horiz-adv-x="1128" 
d="M510 1225l-168 260h205l104 -260h-141zM565 111q164 -1 252 117t88 301t-89 301t-252 118t-252 -119t-89 -301t89 -300t253 -117zM565 -29q-231 0 -371 160q-140 159 -140 397t140 398t371 160t371 -160q139 -160 139 -398q1 -238 -139 -398t-371 -159z" />
    <glyph glyph-name="oacute" unicode="&#xf3;" horiz-adv-x="1128" 
d="M498 1225l104 260h205l-168 -260h-141zM565 111q164 -1 252 117t88 301t-89 301t-252 118t-252 -119t-89 -301t89 -300t253 -117zM565 -29q-231 0 -371 160q-140 159 -140 397t140 398t371 160t371 -160q139 -160 139 -398q1 -238 -139 -398t-371 -159z" />
    <glyph glyph-name="ocircumflex" unicode="&#xf4;" horiz-adv-x="1128" 
d="M283 1233l190 217h189l182 -217h-178l-101 129h-4l-104 -129h-174zM565 111q164 -1 252 117t88 301t-89 301t-252 118t-252 -119t-89 -301t89 -300t253 -117zM565 -29q-231 0 -371 160q-140 159 -140 397t140 398t371 160t371 -160q139 -160 139 -398q1 -238 -139 -398
t-371 -159z" />
    <glyph glyph-name="otilde" unicode="&#xf5;" horiz-adv-x="1128" 
d="M694 1231q-55 0 -139 33t-106 32q-43 0 -48 -61h-122q16 188 157 188q59 -1 133 -33t107 -32q47 0 55 61h119q-11 -188 -156 -188zM565 111q164 -1 252 117t88 301t-89 301t-252 118t-252 -119t-89 -301t89 -300t253 -117zM565 -29q-231 0 -371 160q-140 159 -140 397
t140 398t371 160t371 -160q139 -160 139 -398q1 -238 -139 -398t-371 -159z" />
    <glyph glyph-name="odieresis" unicode="&#xf6;" horiz-adv-x="1128" 
d="M315 1260v194h160v-194h-160zM651 1260v194h160v-194h-160zM565 111q164 -1 252 117t88 301t-89 301t-252 118t-252 -119t-89 -301t89 -300t253 -117zM565 -29q-231 0 -371 160q-140 159 -140 397t140 398t371 160t371 -160q139 -160 139 -398q1 -238 -139 -398
t-371 -159z" />
    <glyph glyph-name="divide" unicode="&#xf7;" horiz-adv-x="1146" 
d="M475 918v202h199v-202h-199zM475 215v203h199v-203h-199zM109 602v131h929v-131h-929z" />
    <glyph glyph-name="oslash" unicode="&#xf8;" horiz-adv-x="1128" 
d="M223 548q0 -162 56 -267l522 567q-88 100 -244 100t-245 -119t-89 -281zM572 111q157 -1 245 117t88 280t-55 268l-524 -565q89 -100 246 -100zM53 541q1 225 141 385t371 159q197 0 338 -127l117 127l61 -57l-120 -131q115 -155 115 -381t-140 -386t-356 -159
q-216 0 -355 129l-119 -129l-61 58l123 133q-115 154 -115 379z" />
    <glyph glyph-name="ugrave" unicode="&#xf9;" horiz-adv-x="1064" 
d="M483 1225l-168 260h205l105 -260h-142zM952 0h-166v145h-4q-125 -170 -319 -170q-164 -1 -260 93t-97 258v733h166v-729q0 -102 62 -160t182 -57q119 0 195 84t75 211v651h166v-1059z" />
    <glyph glyph-name="uacute" unicode="&#xfa;" horiz-adv-x="1064" 
d="M471 1225l104 260h205l-168 -260h-141zM952 0h-166v145h-4q-125 -170 -319 -170q-164 -1 -260 93t-97 258v733h166v-729q0 -102 62 -160t182 -57q119 0 195 84t75 211v651h166v-1059z" />
    <glyph glyph-name="ucircumflex" unicode="&#xfb;" horiz-adv-x="1064" 
d="M256 1233l190 217h189l182 -217h-178l-100 129h-4l-105 -129h-174zM952 0h-166v145h-4q-125 -170 -319 -170q-164 -1 -260 93t-97 258v733h166v-729q0 -102 62 -160t182 -57q119 0 195 84t75 211v651h166v-1059z" />
    <glyph glyph-name="udieresis" unicode="&#xfc;" horiz-adv-x="1064" 
d="M289 1260v194h160v-194h-160zM625 1260v194h159v-194h-159zM952 0h-166v145h-4q-125 -170 -319 -170q-164 -1 -260 93t-97 258v733h166v-729q0 -102 62 -160t182 -57q119 0 195 84t75 211v651h166v-1059z" />
    <glyph glyph-name="yacute" unicode="&#xfd;" horiz-adv-x="1001" 
d="M444 1225l105 260h205l-168 -260h-142zM253 -350q-99 0 -155 22v148h8q40 -23 104 -23t101 28t66 101l41 105l-414 1028h180l250 -660l72 -206h4q37 119 70 206l241 660h176l-452 -1145q-61 -156 -127 -210t-165 -54z" />
    <glyph glyph-name="thorn" unicode="&#xfe;" horiz-adv-x="1130" 
d="M268 522q0 -184 82 -298t242 -115q160 1 237 115q78 114 78 300t-78 302q-77 116 -233 116t-242 -118t-86 -302zM620 1083q208 0 332 -148q124 -149 125 -407q0 -258 -123 -408t-337 -151q-214 0 -334 156h-4v-465h-166v1804h166v-555h4q129 174 337 174z" />
    <glyph glyph-name="ydieresis" unicode="&#xff;" horiz-adv-x="1001" 
d="M262 1260v194h160v-194h-160zM598 1260v194h160v-194h-160zM253 -350q-99 0 -155 22v148h8q40 -23 104 -23t101 28t66 101l41 105l-414 1028h180l250 -660l72 -206h4q37 119 70 206l241 660h176l-452 -1145q-61 -156 -127 -210t-165 -54z" />
    <glyph glyph-name="dotlessi" unicode="&#x131;" horiz-adv-x="391" 
d="M113 0v1059h166v-1059h-166z" />
    <glyph glyph-name="IJ" unicode="&#x132;" horiz-adv-x="1449" 
d="M907 -29q-430 0 -430 484v20h182v-14q1 -188 61 -263t193 -75q233 0 234 260v1081h184v-1093q-1 -182 -109 -291t-315 -109zM141 0v1464h185v-1464h-185z" />
    <glyph glyph-name="ij" unicode="&#x133;" horiz-adv-x="782" 
d="M504 1260v204h166v-204h-166zM426 -301q-39 0 -92 8v135h4q31 -6 57 -6q109 0 109 103v1120h166v-1129q0 -135 -64 -183t-180 -48zM113 1260v204h166v-204h-166zM113 0v1059h166v-1059h-166z" />
    <glyph glyph-name="Lslash" unicode="&#x141;" horiz-adv-x="1134" 
d="M137 1464h185v-716l507 272v-158l-507 -272v-420h768v-170h-953v489l-147 -77v157l147 78v817z" />
    <glyph glyph-name="lslash" unicode="&#x142;" horiz-adv-x="464" 
d="M150 1464h165v-567l162 131v-158l-162 -131v-739h-165v606l-140 -112v157l140 113v700z" />
    <glyph glyph-name="napostrophe" unicode="&#x149;" horiz-adv-x="1081" 
d="M150 1464v-164q0 -166 -175 -188v78q82 25 82 110h-82v164h175zM279 1059v-139h4q123 164 335 163q168 0 262 -88t95 -252v-743h-166v729q1 103 -63 159t-184 56t-202 -82t-81 -211v-651h-166v1059h166z" />
    <glyph glyph-name="OE" unicode="&#x152;" horiz-adv-x="2195" 
d="M756 131q145 0 257 74t111 194v670q-8 115 -118 192q-111 77 -250 76q-226 0 -356 -170t-130 -435t130 -433t356 -168zM752 -31q-295 0 -483 216q-187 216 -187 547t190 548t480 217q231 0 372 -168v135h969v-161h-784v-463h706v-156h-706v-514h809v-170h-994v115
q-134 -146 -372 -146z" />
    <glyph glyph-name="oe" unicode="&#x153;" horiz-adv-x="1757" 
d="M1248 954q-128 0 -200 -93t-90 -247h572q-2 158 -78 249t-204 91zM514 111q141 1 215 117t74 300t-74 302t-215 118t-216 -118t-75 -302t75 -300t216 -117zM514 -29q-215 0 -338 159q-123 158 -123 398t123 399t338 158q244 0 363 -227q115 227 372 227q223 1 341 -163
t118 -433h-754q8 -172 87 -275t231 -103q100 0 165 57t87 160h162q-29 -168 -140 -262t-274 -95q-276 0 -393 232q-117 -232 -365 -232z" />
    <glyph glyph-name="Scaron" unicode="&#x160;" horiz-adv-x="1282" 
d="M524 1550l-182 217h178l101 -129h4l104 129h174l-190 -217h-189zM670 -29q-295 -1 -454 145t-171 380h180q37 -377 453 -377q158 1 253 71t95 192t-77 189q-60 54 -213 93q-54 14 -158 36q-200 43 -324 119q-147 89 -146 278t137 293t361 103q494 0 555 -457h-174
q-21 156 -117 235t-254 79t-246 -62t-89 -174q0 -137 154 -196q86 -33 208 -57q123 -25 189 -43t145 -52q234 -102 231 -367q0 -201 -148 -315t-390 -113z" />
    <glyph glyph-name="scaron" unicode="&#x161;" horiz-adv-x="978" 
d="M389 1233l-182 217h178l100 -129h4l105 129h174l-190 -217h-189zM500 -31q-202 -1 -323 97q-120 98 -132 278h170q29 -236 303 -235q125 0 185 48q61 48 61 129q0 82 -59 118t-171 60t-150 32q-129 33 -174 66q-84 62 -101 117q-17 56 -17 112q0 135 99 213t282 77
q377 0 416 -331h-170q-11 104 -71 152t-174 48t-166 -42t-52 -114t61 -105q61 -32 191 -58q130 -25 187 -43q160 -50 208 -150q29 -59 29 -147q0 -156 -115 -239t-317 -83z" />
    <glyph glyph-name="Ydieresis" unicode="&#x178;" horiz-adv-x="1292" 
d="M397 1556v195h160v-195h-160zM733 1556v195h160v-195h-160zM551 0v621l-531 843h205l420 -696h4l426 696h197l-537 -848v-616h-184z" />
    <glyph glyph-name="Zcaron" unicode="&#x17d;" horiz-adv-x="1273" 
d="M532 1550l-182 217h178l101 -129h4l104 129h174l-190 -217h-189zM61 0v176l877 1127v6h-825v155h1052v-143l-889 -1149v-6h924v-166h-1139z" />
    <glyph glyph-name="zcaron" unicode="&#x17e;" horiz-adv-x="964" 
d="M399 1233l-182 217h178l101 -129h4l104 129h174l-190 -217h-189zM70 0v131l589 776v6h-555v146h787v-98l-608 -803v-6h630v-152h-843z" />
    <glyph glyph-name="florin" unicode="&#x192;" horiz-adv-x="706" 
d="M66 700v131h186l51 349q19 152 115 211t266 36v-141q-106 10 -156 -17q-49 -28 -61 -112l-47 -326h215v-131h-234l-108 -768q-21 -147 -103 -202t-241 -35v137q80 -6 124 16t54 95l106 757h-167z" />
    <glyph glyph-name="circumflex" unicode="&#x2c6;" 
d="M231 1233l191 217h188l183 -217h-179l-100 129h-4l-104 -129h-175z" />
    <glyph glyph-name="caron" unicode="&#x2c7;" 
d="M414 1233l-183 217h179l100 -129h4l104 129h175l-191 -217h-188z" />
    <glyph glyph-name="uni02C9" unicode="&#x2c9;" 
d="M248 1274v137h528v-137h-528z" />
    <glyph glyph-name="breve" unicode="&#x2d8;" 
d="M516 1237q-110 0 -184 62t-80 165h123q20 -100 139 -100t139 100h119q-4 -96 -76 -162q-70 -66 -180 -65z" />
    <glyph glyph-name="dotaccent" unicode="&#x2d9;" 
d="M428 1260v204h166v-204h-166z" />
    <glyph glyph-name="ring" unicode="&#x2da;" horiz-adv-x="1042" 
d="M520 1217q43 -1 70 29t26 73q0 43 -26 73q-27 30 -70 30q-44 0 -70 -30t-26 -73t26 -73t70 -29zM520 1145q-74 0 -126 51t-52 123t52 123t126 51t126 -51t52 -123t-52 -123t-126 -51z" />
    <glyph glyph-name="ogonek" unicode="&#x2db;" 
d="M446 -352q-76 0 -130 44t-54 118q0 113 148 190h127q-119 -98 -119 -166t82 -67q43 0 75 14h7v-115q-60 -18 -136 -18z" />
    <glyph glyph-name="tilde" unicode="&#x2dc;" 
d="M641 1231q-55 0 -139 33t-107 32q-43 0 -47 -61h-123q16 188 158 188q59 -1 133 -33t107 -32q47 0 55 61h119q-11 -188 -156 -188z" />
    <glyph glyph-name="hungarumlaut" unicode="&#x2dd;" 
d="M281 1225l63 260h168l-106 -260h-125zM547 1225l63 260h168l-106 -260h-125z" />
    <glyph glyph-name="uni0394" unicode="&#x394;" horiz-adv-x="1327" 
d="M590 1096l-371 -946h881l-369 946l-67 207h-5q-36 -125 -69 -207zM39 0v164l520 1300h207l522 -1302v-162h-1249z" />
    <glyph glyph-name="uni03A9" unicode="&#x3a9;" horiz-adv-x="1515" 
d="M1151 154h270v-154h-579v154q203 26 303 194t100 425t-128 411t-359 154t-360 -154q-128 -154 -128 -411t100 -425t304 -194v-154h-580v154h268v4q-281 172 -280 604q0 328 187 532t489 203q302 0 488 -204q187 -204 188 -531q0 -432 -283 -604v-4z" />
    <glyph glyph-name="uni03BC" unicode="&#x3bc;" horiz-adv-x="1071" 
d="M113 -340v1399h166v-729q0 -102 62 -160t181 -57q119 0 195 84t76 211v651h165v-1059h-165v145h-5q-125 -170 -309 -170q-133 0 -196 72h-4v-387h-166z" />
    <glyph glyph-name="pi" unicode="&#x3c0;" horiz-adv-x="1253" 
d="M45 924v135h1149v-135h-190v-688q0 -98 106 -99q31 0 74 15h6v-144q-57 -14 -121 -14q-231 0 -231 205v725h-463v-924h-166v924h-164z" />
    <glyph glyph-name="uni2009" unicode="&#x2009;" horiz-adv-x="112" 
 />
    <glyph glyph-name="endash" unicode="&#x2013;" 
d="M0 451v141h1024v-141h-1024z" />
    <glyph glyph-name="emdash" unicode="&#x2014;" horiz-adv-x="2048" 
d="M205 451v141h1638v-141h-1638z" />
    <glyph glyph-name="quoteleft" unicode="&#x2018;" horiz-adv-x="346" 
d="M86 1038v205q0 199 172 225v-77q-78 -31 -78 -148h80v-205h-174z" />
    <glyph glyph-name="quoteright" unicode="&#x2019;" horiz-adv-x="346" 
d="M260 1464v-204q0 -199 -172 -226v78q78 31 78 148h-80v204h174z" />
    <glyph glyph-name="quotesinglbase" unicode="&#x201a;" horiz-adv-x="346" 
d="M260 205v-205q0 -199 -172 -225v78q78 31 78 147h-80v205h174z" />
    <glyph glyph-name="quotedblleft" unicode="&#x201c;" horiz-adv-x="655" 
d="M395 1038v205q0 199 172 225v-77q-78 -31 -78 -148h80v-205h-174zM86 1038v205q0 199 172 225v-77q-78 -31 -78 -148h80v-205h-174z" />
    <glyph glyph-name="quotedblright" unicode="&#x201d;" horiz-adv-x="655" 
d="M260 1464v-204q0 -199 -172 -226v78q78 31 78 148h-80v204h174zM569 1464v-204q0 -199 -172 -226v78q78 31 78 148h-80v204h174z" />
    <glyph glyph-name="quotedblbase" unicode="&#x201e;" horiz-adv-x="655" 
d="M260 205v-205q0 -199 -172 -225v78q78 31 78 147h-80v205h174zM569 205v-205q0 -199 -172 -225v78q78 31 78 147h-80v205h174z" />
    <glyph glyph-name="dagger" unicode="&#x2020;" horiz-adv-x="1118" 
d="M70 934v149h405v381h168v-381h406v-149h-406v-1147h-168v1147h-405z" />
    <glyph glyph-name="daggerdbl" unicode="&#x2021;" horiz-adv-x="1118" 
d="M70 934v149h405v381h168v-381h406v-149h-406v-617h406v-149h-406v-381h-168v381h-405v149h405v617h-405z" />
    <glyph glyph-name="bullet" unicode="&#x2022;" horiz-adv-x="624" 
d="M313 424q-100 0 -172 71t-71 171q0 100 71 172q72 72 172 72t171 -72t71 -172t-71 -171t-171 -71z" />
    <glyph glyph-name="ellipsis" unicode="&#x2026;" horiz-adv-x="1259" 
d="M530 0v203h199v-203h-199zM90 0v203h199v-203h-199zM971 0v203h198v-203h-198z" />
    <glyph glyph-name="perthousand" unicode="&#x2030;" horiz-adv-x="2361" 
d="M1985 92q84 0 130 78t46 203t-47 205t-130 80t-130 -78q-46 -78 -46 -204t46 -205t131 -79zM1247 92q84 0 130 78t46 203t-47 205t-130 80t-129 -78t-46 -204t46 -205t130 -79zM381 748q84 0 130 78t46 202q0 125 -47 205t-130 80t-129 -78t-46 -204q0 -127 46 -205
t130 -78zM340 0l805 1403h139l-805 -1403h-139zM1985 -31q-147 0 -240 111q-92 111 -92 295t94 295q93 110 237 110t236 -110t92 -294q0 -185 -90 -296t-237 -111zM1247 -31q-147 0 -239 111t-93 295q1 184 95 295q94 110 237 110t236 -109q92 -110 92 -295
q-1 -185 -91 -296t-237 -111zM381 625q-147 0 -240 110q-92 111 -92 295t94 295q93 111 237 111t236 -110t92 -295t-90 -295t-237 -111z" />
    <glyph glyph-name="uni2032" unicode="&#x2032;" horiz-adv-x="323" 
d="M49 1026l74 438h151l-73 -438h-152z" />
    <glyph glyph-name="uni2033" unicode="&#x2033;" horiz-adv-x="608" 
d="M49 1026l74 438h151l-73 -438h-152zM334 1026l74 438h151l-74 -438h-151z" />
    <glyph glyph-name="guilsinglleft" unicode="&#x2039;" horiz-adv-x="503" 
d="M401 231l-299 236v178l299 236v-162l-213 -160v-4l213 -162v-162z" />
    <glyph glyph-name="guilsinglright" unicode="&#x203a;" horiz-adv-x="503" 
d="M102 231v162l213 160v4l-213 162v162l299 -236v-178z" />
    <glyph glyph-name="fraction" unicode="&#x2044;" horiz-adv-x="346" 
d="M-365 0l928 1464h148l-928 -1464h-148z" />
    <glyph glyph-name="zero.superior" unicode="&#x2070;" horiz-adv-x="808" 
d="M406 725q190 0 190 317q0 146 -48 234t-143 88t-143 -86t-49 -234q1 -148 49 -234q48 -85 144 -85zM406 1483q158 0 250 -118t94 -322q0 -205 -92 -323t-254 -118q-160 0 -252 119t-92 321t94 322q94 119 252 119z" />
    <glyph glyph-name="four.superior" unicode="&#x2074;" horiz-adv-x="792" 
d="M176 928h297v358h-4l-293 -354v-4zM473 623v192h-416v146l418 514h139v-547h134v-113h-134v-192h-141z" />
    <glyph glyph-name="five.superior" unicode="&#x2075;" horiz-adv-x="745" 
d="M374 604q-138 0 -230 71q-91 71 -99 191h145q8 -68 58 -104t125 -37q76 0 123 49t47 128t-48 126t-138 47t-146 -67h-135l86 456h483v-123h-385l-41 -211h4q70 64 186 64q115 0 199 -81t84 -212t-90 -214t-228 -83z" />
    <glyph glyph-name="six.superior" unicode="&#x2076;" horiz-adv-x="761" 
d="M396 719q75 0 123 49t48 125t-48 127t-125 51t-124 -49t-47 -127t49 -127t124 -49zM709 896q-1 -126 -89 -210t-225 -84t-221 88q-113 113 -114 328t81 339t258 124q123 -1 197 -63t86 -161h-143q-18 106 -133 107q-197 0 -197 -268h4q74 94 200 94t211 -84t85 -210z" />
    <glyph glyph-name="seven.superior" unicode="&#x2077;" horiz-adv-x="724" 
d="M508 1337h-457v127h611v-121q-134 -125 -224 -311t-100 -409h-158q10 213 106 404q95 191 222 308v2z" />
    <glyph glyph-name="eight.superior" unicode="&#x2078;" horiz-adv-x="792" 
d="M397 1372q-73 0 -113 -33t-40 -89t40 -89t112 -33q73 0 114 34t41 89t-40 88t-114 33zM209 869q0 -73 50 -111t137 -39q87 0 139 41q51 42 51 112t-49 112t-139 42t-139 -42q-50 -42 -50 -115zM399 604q-141 0 -241 68t-101 192q0 158 162 219v4q-119 55 -119 165t84 170
t214 60t212 -58q82 -60 82 -160q0 -123 -117 -174v-5q72 -25 116 -81t44 -134q1 -130 -97 -198t-239 -68z" />
    <glyph glyph-name="nine.superior" unicode="&#x2079;" horiz-adv-x="765" 
d="M371 1018q80 0 130 48t50 125t-52 126t-128 49t-126 -49t-50 -125t48 -125t128 -49zM374 604q-126 0 -204 62t-90 165h145q23 -113 146 -112q84 1 133 61t53 215h-2q-80 -98 -206 -98t-211 83t-85 209t89 210q90 84 214 84q352 0 351 -432q0 -281 -134 -385
q-73 -62 -199 -62z" />
    <glyph glyph-name="zero.inferior" unicode="&#x2080;" horiz-adv-x="808" 
d="M406 -205q190 0 190 318q0 147 -48 234t-143 87t-143 -86t-49 -234q0 -148 48 -234q49 -85 145 -85zM406 553q158 0 250 -118q92 -117 94 -321q0 -204 -92 -323t-254 -119q-160 0 -252 119t-93 322q1 203 95 321t252 119z" />
    <glyph glyph-name="one.inferior" unicode="&#x2081;" horiz-adv-x="520" 
d="M250 -307v592h-203v100q203 4 225 156h125v-848h-147z" />
    <glyph glyph-name="two.inferior" unicode="&#x2082;" horiz-adv-x="714" 
d="M470 392q-40 38 -110 38t-111 -48q-42 -48 -42 -140h-139q0 150 80 230t218 79q136 0 216 -76t80 -187t-71 -175q-54 -50 -102 -80q-49 -31 -52 -32t-7 -4t-8 -5q-180 -109 -203 -178h440v-121h-612q6 127 74 210t226 184q34 22 45 30t37 26t48 48q33 46 33 104
q0 59 -40 97z" />
    <glyph glyph-name="three.inferior" unicode="&#x2083;" horiz-adv-x="751" 
d="M698 -70q0 -120 -90 -188t-234 -68t-236 81q-91 81 -93 220h139q10 -184 193 -184q80 0 126 39t46 113q0 139 -182 139h-54v113h52q75 1 117 33t42 89t-41 91t-111 34t-114 -45q-43 -45 -47 -123h-139q4 127 86 203t216 76q134 -1 213 -63t79 -168q0 -129 -138 -175v-4
q170 -41 170 -213z" />
    <glyph glyph-name="four.inferior" unicode="&#x2084;" horiz-adv-x="792" 
d="M176 -2h297v358h-4l-293 -354v-4zM473 -307v192h-416v146l418 514h139v-547h134v-113h-134v-192h-141z" />
    <glyph glyph-name="five.inferior" unicode="&#x2085;" horiz-adv-x="745" 
d="M374 -326q-138 0 -230 71q-91 71 -99 192h145q8 -68 58 -105t125 -37q76 0 123 49t47 128t-48 126t-138 47t-146 -67h-135l86 457h483v-123h-385l-41 -211h4q70 63 186 63q115 0 199 -81t84 -212t-90 -214t-228 -83z" />
    <glyph glyph-name="six.inferior" unicode="&#x2086;" horiz-adv-x="761" 
d="M396 -211q75 0 123 49t48 125t-48 127t-125 51t-124 -49t-47 -127t49 -127t124 -49zM709 -34q-1 -126 -89 -210t-225 -84t-221 88q-113 113 -114 328t81 339t258 124q123 -1 197 -63t86 -160h-143q-18 106 -133 106q-197 0 -197 -268h4q74 94 200 94t211 -84t85 -210z
" />
    <glyph glyph-name="seven.inferior" unicode="&#x2087;" horiz-adv-x="724" 
d="M508 408h-457v127h611v-121q-134 -126 -224 -312t-100 -409h-158q10 213 106 404q95 191 222 309v2z" />
    <glyph glyph-name="eight.inferior" unicode="&#x2088;" horiz-adv-x="792" 
d="M244 321q0 -56 40 -89t112 -33q73 -1 114 33t41 90t-40 88t-114 32q-73 0 -113 -32t-40 -89zM396 -211q87 0 139 41q51 41 51 112q0 70 -49 112t-139 42t-139 -42q-50 -42 -50 -114t50 -112q50 -39 137 -39zM399 -326q-141 0 -241 68t-101 192q0 158 162 220v4
q-119 54 -119 164t84 170t214 61q130 0 212 -59t82 -171t-117 -163v-4q72 -25 116 -81t44 -134q1 -129 -97 -198t-239 -69z" />
    <glyph glyph-name="nine.inferior" unicode="&#x2089;" horiz-adv-x="765" 
d="M371 88q80 0 130 48t50 125t-52 126t-128 49t-126 -49t-50 -125t48 -125t128 -49zM374 -326q-126 0 -204 62t-90 166h145q23 -113 146 -113q84 1 133 61t53 216h-2q-80 -98 -206 -98t-211 82q-85 83 -85 209t89 210q90 84 214 84q352 0 351 -432q0 -281 -134 -385
q-73 -62 -199 -62z" />
    <glyph glyph-name="Euro" unicode="&#x20ac;" horiz-adv-x="1251" 
d="M45 770v111h131q40 255 188 405t348 150t326 -115q125 -115 150 -303h-168q-51 270 -301 270q-147 0 -240 -107q-92 -108 -123 -300h410v-111h-420q-2 -25 -2 -72t2 -69h420v-111h-410q31 -193 127 -296q97 -103 241 -103q281 0 318 346h160q-8 -217 -140 -356t-338 -139
t-356 146t-192 402h-131v111h119q-2 23 -2 69t2 72h-119z" />
    <glyph glyph-name="afii61289" unicode="&#x2113;" horiz-adv-x="690" 
d="M305 1217v-562q62 55 107 133q78 137 77 383q0 180 -94 181q-90 0 -90 -135zM139 1217q0 125 69 195t185 69q238 0 238 -312q0 -459 -326 -663v-211q0 -86 33 -124q34 -38 104 -38t156 47h6v-137q-68 -49 -182 -49q-283 0 -283 291v139q-74 -25 -110 -35v123
q71 23 110 41v664z" />
    <glyph glyph-name="trademark" unicode="&#x2122;" horiz-adv-x="1308" 
d="M66 1368v96h483v-96h-184v-489h-115v489h-184zM645 879v585h164l127 -446h2l129 446h166v-585h-107v448h-4q-25 -92 -47 -166l-84 -282h-108l-84 282l-45 166h-4v-448h-105z" />
    <glyph glyph-name="Omega" unicode="&#x2126;" horiz-adv-x="1515" 
d="M1151 154h270v-154h-579v154q203 26 303 194t100 425t-128 411t-359 154t-360 -154q-128 -154 -128 -411t100 -425t304 -194v-154h-580v154h268v4q-281 172 -280 604q0 328 187 532t489 203q302 0 488 -204q187 -204 188 -531q0 -432 -283 -604v-4z" />
    <glyph glyph-name="estimated" unicode="&#x212e;" horiz-adv-x="1271" 
d="M646 1192q-202 0 -318 -127v-358h620v385q-100 100 -302 100zM328 616v-415q121 -125 342 -125q174 0 275 78t153 227h104q-41 -182 -178 -293t-354 -111q-287 1 -449 181t-162 471t168 473t432 182q211 0 355 -121q200 -170 196 -547h-882z" />
    <glyph glyph-name="onethird" unicode="&#x2153;" horiz-adv-x="1712" 
d="M1328 -18q-144 0 -236 80q-90 80 -93 221h140q10 -184 192 -185q80 0 126 39t46 113q0 139 -182 139h-53v113h51q76 0 118 33t42 90t-41 91t-112 34t-114 -45t-47 -123h-139q4 126 86 202t216 76t213 -62t79 -169q0 -129 -137 -174v-4q170 -41 170 -213q0 -121 -90 -189
q-91 -67 -235 -67zM211 0l928 1464h147l-928 -1464h-147zM256 623v591h-203v101q203 4 226 155h124v-847h-147z" />
    <glyph glyph-name="twothirds" unicode="&#x2154;" horiz-adv-x="1814" 
d="M1755 238q0 -120 -90 -188q-91 -68 -235 -68t-235 80t-93 221h139q10 -184 193 -185q80 0 126 39t46 113q0 139 -183 139h-53v113h51q76 0 118 33t42 90t-41 91q-42 34 -112 34t-113 -45t-47 -123h-140q4 126 86 202t216 76t214 -62q79 -62 78 -169q0 -129 -137 -174v-4
q170 -41 170 -213zM383 0l928 1464h147l-928 -1464h-147zM366 1360q-70 0 -111 -48q-42 -48 -42 -141h-139q0 150 81 230t217 80t216 -76t80 -187t-71 -176q-40 -37 -89 -72t-59 -38q-9 -2 -13 -5t-8 -5q-180 -109 -203 -179h441v-120h-613q6 127 75 210t225 184
q34 22 45 30t37 26q26 19 35 31q10 12 28 37t18 83t-40 97t-110 39z" />
    <glyph glyph-name="oneeighth" unicode="&#x215b;" horiz-adv-x="1705" 
d="M1304 506q74 0 114 34t40 89t-40 88t-114 33t-113 -33q-40 -33 -40 -89t40 -89t113 -33zM1493 249q0 71 -49 113t-138 41q-90 0 -140 -42q-50 -43 -50 -115t50 -111t138 -39q87 0 138 41t51 112zM1307 -18q-141 0 -242 67q-100 68 -100 193q0 158 161 219v4
q-118 55 -118 165t84 170t214 60t212 -59t81 -160q0 -123 -116 -174v-4q71 -25 115 -81t44 -134q0 -130 -97 -198t-238 -68zM203 0l927 1464h148l-928 -1464h-147zM256 623v591h-203v101q203 4 226 155h124v-847h-147z" />
    <glyph glyph-name="threeeighths" unicode="&#x215c;" horiz-adv-x="1824" 
d="M1423 750q-73 0 -113 -33t-40 -89t40 -89t112 -33q73 0 114 34t41 89t-40 88t-114 33zM1422 96q87 0 139 41q51 41 51 112t-49 113t-139 41q-90 0 -139 -42q-50 -43 -50 -115t50 -111t137 -39zM1425 -18q-141 0 -241 68t-101 192q0 158 162 219v4q-119 55 -119 165
t84 170t214 60t212 -59t82 -171t-116 -163v-4q72 -25 116 -81t43 -134q0 -129 -97 -198q-98 -68 -239 -68zM354 0l928 1464h148l-928 -1464h-148zM705 860q-1 -120 -91 -188t-234 -68t-236 81q-91 81 -93 220h139q10 -184 193 -184q80 0 126 39t46 112q0 139 -182 140h-54
v112h52q75 0 117 33t42 90t-41 91t-111 34t-114 -45q-43 -45 -47 -123h-139q4 127 86 203t216 76q134 -1 213 -63t79 -169q0 -129 -137 -174v-4q170 -41 170 -213z" />
    <glyph glyph-name="fiveeighths" unicode="&#x215d;" horiz-adv-x="1802" 
d="M1400 506q74 0 114 34t40 89t-40 88t-114 33t-113 -33q-40 -33 -40 -89t40 -89t113 -33zM1400 96q87 0 138 41t51 112t-49 113t-138 41q-89 0 -139 -42q-51 -43 -51 -115t50 -111t138 -39zM1403 -18q-141 0 -242 67q-100 68 -100 193q0 158 162 219v4q-119 55 -119 165
t84 170t214 60t212 -59t82 -171t-117 -163v-4q72 -25 116 -81t44 -134q1 -130 -97 -198t-239 -68zM354 0l928 1464h148l-928 -1464h-148zM380 604q-138 0 -229 71t-100 191h146q8 -68 57 -104t125 -37q76 0 123 49t47 128t-48 126t-137 47t-147 -67h-135l86 456h483v-123
h-385l-41 -211h4q70 64 186 64q115 0 199 -81t84 -212t-90 -214t-228 -83z" />
    <glyph glyph-name="seveneighths" unicode="&#x215e;" horiz-adv-x="1671" 
d="M1269 506q73 0 113 34t41 89q0 55 -40 88q-39 33 -113 33t-114 -33t-40 -89t40 -89t113 -33zM1269 96q87 0 138 41t51 112t-49 113t-138 41q-89 0 -139 -42q-50 -43 -50 -115t50 -111t137 -39zM1272 -18q-141 0 -242 67q-100 68 -100 193q0 158 162 219v4
q-119 55 -119 165t84 170t214 60t212 -59t82 -171t-117 -163v-4q72 -25 116 -81t44 -134q0 -130 -98 -198t-238 -68zM182 0l928 1464h147l-927 -1464h-148zM514 1337h-457v127h611v-121q-134 -125 -224 -311t-100 -409h-158q10 213 106 404q95 191 222 308v2z" />
    <glyph glyph-name="partialdiff" unicode="&#x2202;" horiz-adv-x="1124" 
d="M574 803q-132 0 -224 -111q-90 -111 -90 -265t70 -236t203 -82q134 0 230 122q95 123 95 267t-76 224q-76 81 -208 81zM1034 586q0 -250 -132 -432t-378 -183q-206 0 -320 122t-114 333q0 210 133 362t352 152q181 0 273 -127q-29 229 -160 354t-366 164v148
q400 -46 564 -295q148 -227 148 -598z" />
    <glyph glyph-name="Delta" unicode="&#x2206;" horiz-adv-x="1327" 
d="M590 1096l-371 -946h881l-369 946l-67 207h-5q-36 -125 -69 -207zM39 0v164l520 1300h207l522 -1302v-162h-1249z" />
    <glyph glyph-name="product" unicode="&#x220f;" horiz-adv-x="1439" 
d="M145 1464h1149v-1669h-184v1508h-780v-1508h-185v1669z" />
    <glyph glyph-name="summation" unicode="&#x2211;" horiz-adv-x="1261" 
d="M1184 -205h-1102v187l577 663v4l-577 639v176h1081v-161h-866v-5l559 -604v-82l-573 -643v-4h901v-170z" />
    <glyph glyph-name="minus" unicode="&#x2212;" horiz-adv-x="1146" 
d="M109 602v131h929v-131h-929z" />
    <glyph glyph-name="uni2215" unicode="&#x2215;" horiz-adv-x="346" 
d="M-365 0l928 1464h148l-928 -1464h-148z" />
    <glyph glyph-name="uni2219" unicode="&#x2219;" horiz-adv-x="378" 
d="M96 539v202h199v-202h-199z" />
    <glyph glyph-name="radical" unicode="&#x221a;" horiz-adv-x="1185" 
d="M29 489v152h266l162 -422l84 -248h4q41 145 71 248l377 1245h172l-524 -1669h-188l-273 694h-151z" />
    <glyph glyph-name="infinity" unicode="&#x221e;" horiz-adv-x="1464" 
d="M1069 416q80 0 121 58t41 150t-41 150q-41 57 -116 57t-132 -55t-113 -153q123 -207 240 -207zM393 831q-80 0 -120 -57t-40 -150q0 -92 40 -150t120 -58q129 0 252 207q-121 208 -252 208zM381 268q-147 0 -228 102t-81 254q0 151 82 253t227 102q203 0 356 -240
q154 240 344 240q141 0 227 -97t85 -257q0 -160 -85 -258t-227 -99q-190 0 -344 240q-153 -240 -356 -240z" />
    <glyph glyph-name="integral" unicode="&#x222b;" horiz-adv-x="690" 
d="M240 -70v1307q0 143 75 212q77 69 183 69t168 -19v-147h-7q-51 18 -114 18q-139 0 -139 -143v-1307q0 -143 -76 -212t-201 -68q-82 0 -149 20v147h6q55 -20 114 -20q140 0 140 143z" />
    <glyph glyph-name="approxequal" unicode="&#x2248;" horiz-adv-x="1146" 
d="M297 449q-86 0 -90 -101h-133q2 113 61 174q59 62 155 62t282 -42q187 -42 235 -42q94 0 98 100h133q-8 -235 -221 -235q-86 0 -277 42t-243 42zM828 690q-98 0 -288 42q-191 42 -243 42q-86 0 -90 -100h-133q2 113 61 174t155 61t282 -42q187 -42 235 -42q94 0 98 101
h133q-4 -112 -58 -174t-152 -62z" />
    <glyph glyph-name="notequal" unicode="&#x2260;" horiz-adv-x="1146" 
d="M109 756v131h514l92 196h139l-92 -196h276v-131h-336l-106 -228h442v-131h-501l-105 -225h-139l104 225h-288v131h348l106 228h-454z" />
    <glyph glyph-name="lessequal" unicode="&#x2264;" horiz-adv-x="1046" 
d="M102 0v131h834v-131h-834zM936 219l-834 344v170l834 344v-149l-703 -275v-4l703 -278v-152z" />
    <glyph glyph-name="greaterequal" unicode="&#x2265;" horiz-adv-x="1046" 
d="M944 131v-131h-833v131h833zM944 563l-833 -344v152l702 278v4l-702 275v149l833 -344v-170z" />
    <glyph glyph-name="uni24C5" unicode="&#x24c5;" horiz-adv-x="1662" 
d="M893 1028h-199v-276h195q76 0 115 36t38 101q0 139 -149 139zM547 309v844h362q141 0 211 -75q70 -74 70 -190t-73 -185t-206 -68h-217v-326h-147zM831 45q283 0 469 194q186 195 186 489t-186 489q-188 195 -469 195t-467 -196q-186 -194 -188 -489q0 -295 186 -489
t469 -193zM831 -35q-317 0 -533 217t-216 545t216 546t533 218t533 -218t217 -546q-1 -328 -217 -545t-533 -217z" />
    <glyph glyph-name="lozenge" unicode="&#x25ca;" horiz-adv-x="1118" 
d="M555 1303l-309 -566l313 -575h4l307 563l-311 578h-4zM651 1464l414 -733l-412 -731h-186l-414 733l412 731h186z" />
    <glyph glyph-name="uniF8FF" unicode="&#xf8ff;" horiz-adv-x="1732" 
d="M375 883v-295h344v-346h295v346h344v295h-344v334h-295v-334h-344zM133 0v1466h1466v-1466h-1466z" />
    <glyph glyph-name="commaaccent" 
d="M426 -272v182h174v-182q0 -172 -176 -195v78q41 12 61 37t21 80h-80z" />
    <glyph glyph-name="f_i" horiz-adv-x="972" 
d="M694 1260v204h166v-204h-166zM694 0v1059h166v-1059h-166zM45 924v135h145v170q0 131 72 189t209 59q39 0 84 -4v-142q-29 2 -81 2q-118 0 -118 -112v-162h197v-135h-197v-924h-166v924h-145z" />
    <glyph glyph-name="f_l" horiz-adv-x="985" 
d="M45 924v135h145v170q0 131 72 189t209 59q39 0 84 -4v-142q-29 2 -81 2q-118 0 -118 -112v-162h197v-135h-197v-924h-166v924h-145zM700 0v1464h166v-1464h-166z" />
    <glyph glyph-name="zero.denominator" horiz-adv-x="808" 
d="M406 102q190 0 190 318q0 147 -48 234t-143 87t-143 -86t-49 -234q0 -148 48 -234q49 -85 145 -85zM406 860q158 0 250 -118t94 -322q0 -204 -92 -322t-254 -118q-160 0 -252 118t-93 322q1 204 95 322t252 118z" />
    <glyph glyph-name="one.denominator" horiz-adv-x="520" 
d="M250 0v592h-203v100q203 4 225 156h125v-848h-147z" />
    <glyph glyph-name="two.denominator" horiz-adv-x="714" 
d="M510 592q0 68 -40 106t-110 39q-70 0 -111 -48q-42 -48 -42 -140h-139q0 149 80 229t218 80q136 0 216 -76t80 -186t-71 -176q-48 -45 -100 -78q-51 -33 -54 -34t-7 -4t-8 -5q-180 -109 -203 -178h440v-121h-612q6 127 78 214t222 180q101 65 113 82q38 50 44 72
q6 21 6 44z" />
    <glyph glyph-name="three.denominator" horiz-adv-x="751" 
d="M698 238q0 -120 -90 -188t-234 -68t-236 80q-91 80 -93 221h139q10 -184 193 -185q80 0 126 39t46 113q0 139 -182 139h-54v113h52q75 0 117 33t42 90t-41 91t-111 34t-114 -45q-43 -45 -47 -123h-139q4 126 86 202t216 76t213 -62t79 -169q0 -129 -138 -174v-4
q170 -41 170 -213z" />
    <glyph glyph-name="four.denominator" horiz-adv-x="792" 
d="M176 305h297v359h-4l-293 -355v-4zM473 0v193h-416v145l418 514h139v-547h134v-112h-134v-193h-141z" />
    <glyph glyph-name="five.denominator" horiz-adv-x="745" 
d="M374 -18q-138 0 -230 70q-91 71 -99 192h145q8 -68 58 -105t125 -37q76 0 123 50t47 128q0 79 -48 126t-138 47t-146 -68h-135l86 457h483v-123h-385l-41 -211h4q70 63 186 63q115 0 199 -81q84 -82 84 -212t-90 -213t-228 -83z" />
    <glyph glyph-name="six.denominator" horiz-adv-x="761" 
d="M396 96q75 0 123 49t48 125t-48 127t-125 51t-124 -48q-47 -50 -47 -128t49 -127t124 -49zM395 -20q-137 0 -221 88q-113 113 -114 328q-1 214 81 338t258 124q123 0 197 -62t86 -161h-143q-18 106 -133 106q-197 0 -197 -268h4q74 94 200 94t211 -84t85 -210t-88 -210
q-89 -83 -226 -83z" />
    <glyph glyph-name="seven.denominator" horiz-adv-x="724" 
d="M508 715h-457v127h611v-121q-134 -125 -224 -311t-100 -410h-158q10 213 106 404q95 191 222 309v2z" />
    <glyph glyph-name="eight.denominator" horiz-adv-x="792" 
d="M397 750q-73 0 -113 -33t-40 -89t40 -89t112 -33q73 0 114 34t41 89t-40 88t-114 33zM396 96q87 0 139 41q51 41 51 112t-49 113t-139 41q-90 0 -139 -42q-50 -43 -50 -115t50 -111t137 -39zM399 -18q-141 0 -241 68t-101 192q0 158 162 219v4q-119 55 -119 165t84 170
t214 60t212 -59t82 -171t-117 -163v-4q72 -25 116 -81t44 -134q0 -129 -97 -198q-98 -68 -239 -68z" />
    <glyph glyph-name="nine.denominator" horiz-adv-x="765" 
d="M371 395q80 0 130 48t50 125t-52 126t-128 49t-126 -49t-50 -125t48 -125t128 -49zM356 860q352 0 351 -439q0 -439 -333 -439q-126 0 -204 62t-90 165h145q23 -113 146 -113q84 0 127 56q55 66 59 221h-2q-80 -99 -206 -99t-211 83t-85 209t89 210q90 84 214 84z" />
    <glyph glyph-name="zero.numerator" horiz-adv-x="808" 
d="M406 725q190 0 190 317q0 146 -48 234t-143 88t-143 -86t-49 -234q1 -148 49 -234q48 -85 144 -85zM406 1483q158 0 250 -118t94 -322q0 -205 -92 -323t-254 -118q-160 0 -252 119t-92 321t94 322q94 119 252 119z" />
    <glyph glyph-name="one.numerator" horiz-adv-x="520" 
d="M250 623v591h-203v101q203 4 225 155h125v-847h-147z" />
    <glyph glyph-name="two.numerator" horiz-adv-x="714" 
d="M470 1321q-40 39 -110 39t-111 -48q-42 -48 -42 -141h-139q0 150 80 230q82 80 218 80t216 -76t80 -187t-71 -176q-50 -46 -101 -78q-50 -32 -53 -33t-7 -4t-8 -5q-180 -109 -203 -179h440v-120h-612q6 127 75 210t225 184q34 22 45 30t37 26t48 48q33 46 33 104
q0 57 -40 96z" />
    <glyph glyph-name="three.numerator" horiz-adv-x="751" 
d="M698 860q0 -120 -90 -188t-234 -68t-236 81q-91 81 -93 220h139q10 -184 193 -184q80 0 126 39t46 112q0 139 -182 140h-54v112h52q75 0 117 33t42 90t-41 91t-111 34t-114 -45q-43 -45 -47 -123h-139q4 127 86 203t216 76q134 -1 213 -63t79 -169q0 -129 -138 -174v-4
q170 -41 170 -213z" />
    <glyph glyph-name="four.numerator" horiz-adv-x="792" 
d="M176 928h297v358h-4l-293 -354v-4zM473 623v192h-416v146l418 514h139v-547h134v-113h-134v-192h-141z" />
    <glyph glyph-name="five.numerator" horiz-adv-x="745" 
d="M374 604q-138 0 -230 71q-91 71 -99 191h145q8 -68 58 -104t125 -37q76 0 123 49t47 128t-48 126t-138 47t-146 -67h-135l86 456h483v-123h-385l-41 -211h4q70 64 186 64q115 0 199 -81t84 -212t-90 -214t-228 -83z" />
    <glyph glyph-name="six.numerator" horiz-adv-x="761" 
d="M396 719q75 0 123 49t48 125t-48 127t-125 51t-124 -49t-47 -127t49 -127t124 -49zM709 896q-1 -126 -89 -210t-225 -84t-221 88q-113 113 -114 328t81 339t258 124q123 -1 197 -63t86 -161h-143q-18 106 -133 107q-197 0 -197 -268h4q74 94 200 94t211 -84t85 -210z" />
    <glyph glyph-name="seven.numerator" horiz-adv-x="724" 
d="M508 1337h-457v127h611v-121q-134 -125 -224 -311t-100 -409h-158q10 213 106 404q95 191 222 308v2z" />
    <glyph glyph-name="eight.numerator" horiz-adv-x="792" 
d="M397 1372q-73 0 -113 -33t-40 -89t40 -89t112 -33q73 0 114 34t41 89t-40 88t-114 33zM209 869q0 -73 50 -111t137 -39q87 0 139 41q51 42 51 112t-49 112t-139 42t-139 -42q-50 -42 -50 -115zM399 604q-141 0 -241 68t-101 192q0 158 162 219v4q-119 55 -119 165t84 170
t214 60t212 -58q82 -60 82 -160q0 -123 -117 -174v-5q72 -25 116 -81t44 -134q1 -130 -97 -198t-239 -68z" />
    <glyph glyph-name="nine.numerator" horiz-adv-x="765" 
d="M371 1018q80 0 130 48t50 125t-52 126t-128 49t-126 -49t-50 -125t48 -125t128 -49zM374 604q-126 0 -204 62t-90 165h145q23 -113 146 -112q84 1 133 61t53 215h-2q-80 -98 -206 -98t-211 83t-85 209t89 210q90 84 214 84q352 0 351 -432q0 -281 -134 -385
q-73 -62 -199 -62z" />
    <glyph glyph-name="acute.cap" 
d="M430 1542l105 248h204l-168 -248h-141z" />
    <glyph glyph-name="breve.cap" 
d="M516 1554q-110 0 -184 62t-80 166h123q20 -100 139 -100t139 100h119q-4 -96 -76 -162q-70 -66 -180 -66z" />
    <glyph glyph-name="caron.alt" 
d="M598 1464v-164q0 -166 -174 -188v78q82 25 82 110h-82v164h174z" />
    <glyph glyph-name="caron.cap" 
d="M414 1550l-183 217h179l100 -129h4l104 129h175l-191 -217h-188z" />
    <glyph glyph-name="circumflex.cap" 
d="M231 1550l191 217h188l183 -217h-179l-100 129h-4l-104 -129h-175z" />
    <glyph glyph-name="commaaccent.alt" 
d="M426 -272v182h174v-182q0 -172 -176 -195v78q41 12 61 37t21 80h-80z" />
    <glyph glyph-name="dieresis.cap" 
d="M264 1556v195h160v-195h-160zM600 1556v195h160v-195h-160z" />
    <glyph glyph-name="dotaccent.cap" 
d="M432 1556v195h160v-195h-160z" />
    <glyph glyph-name="grave.cap" 
d="M453 1542l-168 248h204l105 -248h-141z" />
    <glyph glyph-name="hungarumlaut.cap" 
d="M281 1542l63 260h168l-106 -260h-125zM547 1542l63 260h168l-106 -260h-125z" />
    <glyph glyph-name="macron.cap" 
d="M248 1556v138h528v-138h-528z" />
    <glyph glyph-name="ring.cap" horiz-adv-x="1042" 
d="M520 1599q43 0 70 30t26 73q0 43 -26 73q-27 29 -70 29q-44 0 -70 -30t-26 -72q0 -43 26 -73t70 -30zM520 1528q-74 0 -126 51t-52 123t52 123t126 51t126 -51t52 -123t-52 -123t-126 -51z" />
    <glyph glyph-name="tilde.cap" 
d="M641 1556q-55 0 -139 33t-107 33q-43 0 -47 -61h-123q16 188 158 188q59 0 133 -33t107 -33q47 0 55 62h119q-11 -189 -156 -189z" />
    <glyph glyph-name="R.alt" horiz-adv-x="1335" 
d="M322 1305v-541h434q305 0 305 270t-295 271h-444zM322 614v-614h-185v1464h660q229 0 348 -141q98 -115 98 -275t-85 -268t-234 -147l360 -633h-209l-336 614h-417z" />
    <glyph glyph-name="space_uni0326" 
d="M426 -272v182h174v-182q0 -172 -176 -195v78q41 12 61 37t21 80h-80z" />
    <glyph glyph-name="space_uni0326.alt" 
d="M598 1419v-182h-174v182q0 172 176 195v-78q-41 -12 -61 -37t-21 -80h80z" />
    <glyph glyph-name="a.alt" horiz-adv-x="1021" 
d="M446 106q154 0 237 90t83 195v162q-94 -49 -248 -67t-224 -57q-70 -40 -69 -144q0 -179 221 -179zM764 773q0 85 -59 133t-173 48q-254 0 -272 -233h-160q10 158 120 258t310 100q385 0 385 -336v-591q0 -119 39 -146v-6h-161q-31 31 -33 145h-2q-129 -166 -344 -165
q-158 0 -261 78t-104 223q0 204 188 273q105 41 257 55q153 15 212 47q58 32 58 117z" />
    <glyph glyph-name="agrave.alt" horiz-adv-x="1021" 
d="M485 1225l-168 260h205l105 -260h-142zM446 106q154 0 237 90t83 195v162q-94 -49 -248 -67t-224 -57q-70 -40 -69 -144q0 -179 221 -179zM764 773q0 85 -59 133t-173 48q-254 0 -272 -233h-160q10 158 120 258t310 100q385 0 385 -336v-591q0 -119 39 -146v-6h-161
q-31 31 -33 145h-2q-129 -166 -344 -165q-158 0 -261 78t-104 223q0 204 188 273q105 41 257 55q153 15 212 47q58 32 58 117z" />
    <glyph glyph-name="aacute.alt" horiz-adv-x="1021" 
d="M473 1225l105 260h204l-168 -260h-141zM446 106q154 0 237 90t83 195v162q-94 -49 -248 -67t-224 -57q-70 -40 -69 -144q0 -179 221 -179zM764 773q0 85 -59 133t-173 48q-254 0 -272 -233h-160q10 158 120 258t310 100q385 0 385 -336v-591q0 -119 39 -146v-6h-161
q-31 31 -33 145h-2q-129 -166 -344 -165q-158 0 -261 78t-104 223q0 204 188 273q105 41 257 55q153 15 212 47q58 32 58 117z" />
    <glyph glyph-name="acircumflex.alt" horiz-adv-x="1021" 
d="M258 1233l191 217h188l182 -217h-178l-100 129h-4l-105 -129h-174zM446 106q154 0 237 90t83 195v162q-94 -49 -248 -67t-224 -57q-70 -40 -69 -144q0 -179 221 -179zM764 773q0 85 -59 133t-173 48q-254 0 -272 -233h-160q10 158 120 258t310 100q385 0 385 -336v-591
q0 -119 39 -146v-6h-161q-31 31 -33 145h-2q-129 -166 -344 -165q-158 0 -261 78t-104 223q0 204 188 273q105 41 257 55q153 15 212 47q58 32 58 117z" />
    <glyph glyph-name="atilde.alt" horiz-adv-x="1021" 
d="M670 1231q-56 0 -140 33t-106 32q-43 0 -47 -61h-123q16 188 158 188q59 -1 133 -33t106 -32q47 0 56 61h118q-10 -188 -155 -188zM446 106q154 0 237 90t83 195v162q-94 -49 -248 -67t-224 -57q-70 -40 -69 -144q0 -179 221 -179zM764 773q0 85 -59 133t-173 48
q-254 0 -272 -233h-160q10 158 120 258t310 100q385 0 385 -336v-591q0 -119 39 -146v-6h-161q-31 31 -33 145h-2q-129 -166 -344 -165q-158 0 -261 78t-104 223q0 204 188 273q105 41 257 55q153 15 212 47q58 32 58 117z" />
    <glyph glyph-name="adieresis.alt" horiz-adv-x="1021" 
d="M291 1260v194h160v-194h-160zM627 1260v194h159v-194h-159zM446 106q154 0 237 90t83 195v162q-94 -49 -248 -67t-224 -57q-70 -40 -69 -144q0 -179 221 -179zM764 773q0 85 -59 133t-173 48q-254 0 -272 -233h-160q10 158 120 258t310 100q385 0 385 -336v-591
q0 -119 39 -146v-6h-161q-31 31 -33 145h-2q-129 -166 -344 -165q-158 0 -261 78t-104 223q0 204 188 273q105 41 257 55q153 15 212 47q58 32 58 117z" />
    <glyph glyph-name="amacron.alt" horiz-adv-x="1021" 
d="M274 1274v137h529v-137h-529zM446 106q154 0 237 90t83 195v162q-94 -49 -248 -67t-224 -57q-70 -40 -69 -144q0 -179 221 -179zM764 773q0 85 -59 133t-173 48q-254 0 -272 -233h-160q10 158 120 258t310 100q385 0 385 -336v-591q0 -119 39 -146v-6h-161
q-31 31 -33 145h-2q-129 -166 -344 -165q-158 0 -261 78t-104 223q0 204 188 273q105 41 257 55q153 15 212 47q58 32 58 117z" />
    <glyph glyph-name="abreve.alt" horiz-adv-x="1021" 
d="M542 1237q-110 0 -184 62t-79 165h122q19 -100 139 -100t140 100h119q-3 -96 -75 -162t-182 -65zM446 106q154 0 237 90t83 195v162q-94 -49 -248 -67t-224 -57q-70 -40 -69 -144q0 -179 221 -179zM764 773q0 85 -59 133t-173 48q-254 0 -272 -233h-160q10 158 120 258
t310 100q385 0 385 -336v-591q0 -119 39 -146v-6h-161q-31 31 -33 145h-2q-129 -166 -344 -165q-158 0 -261 78t-104 223q0 204 188 273q105 41 257 55q153 15 212 47q58 32 58 117z" />
    <glyph glyph-name="aring.alt" horiz-adv-x="1021" 
d="M539 1217q43 -1 69 29t27 73q0 43 -27 73q-28 30 -70 30t-69 -30t-27 -73t27 -73t70 -29zM539 1145q-74 0 -126 51t-53 123q0 72 52 123t127 51q74 0 126 -51t52 -123t-52 -123t-126 -51zM446 106q154 0 237 90t83 195v162q-94 -49 -248 -67t-224 -57q-70 -40 -69 -144
q0 -179 221 -179zM764 773q0 85 -59 133t-173 48q-254 0 -272 -233h-160q10 158 120 258t310 100q385 0 385 -336v-591q0 -119 39 -146v-6h-161q-31 31 -33 145h-2q-129 -166 -344 -165q-158 0 -261 78t-104 223q0 204 188 273q105 41 257 55q153 15 212 47q58 32 58 117z
" />
    <glyph glyph-name="aogonek.alt" horiz-adv-x="1021" 
d="M446 106q154 0 237 90t83 195v162q-94 -49 -248 -67t-224 -57q-70 -40 -69 -144q0 -179 221 -179zM852 -352q-76 0 -130 44t-54 118q0 111 131 186q-37 31 -39 149h-2q-129 -166 -344 -165q-158 0 -261 78t-104 223q0 204 188 273q105 41 257 55q153 15 212 47
q58 32 58 117t-59 133t-173 48q-254 0 -272 -233h-160q10 158 120 258t310 100q385 0 385 -336v-591q0 -98 33 -146v-6q-125 -92 -125 -163t82 -70q43 0 76 14h6v-115q-59 -18 -135 -18z" />
    <glyph glyph-name="Ccedilla.alt" horiz-adv-x="1452" 
d="M82 731q0 334 187 550t507 216q250 0 404 -129t184 -338h-180q-27 139 -134 223q-108 84 -278 84q-236 0 -369 -169t-133 -437t138 -433t351 -165q211 0 319 115t122 289h182q-2 -109 -50 -223q-144 -343 -578 -343q-295 0 -484 213q-188 213 -188 547zM657 -197v146h181
v-121q0 -92 -46 -129t-137 -41v63q96 4 97 82h-95z" />
    <glyph glyph-name="Scedilla.alt" horiz-adv-x="1282" 
d="M535 -197v146h180v-121q-1 -92 -47 -129t-136 -41v63q96 4 97 82h-94zM670 -29q-295 -1 -454 145t-171 380h180q37 -377 453 -377q158 1 253 71t95 192t-77 189q-60 54 -213 93q-54 14 -158 36q-200 43 -324 119q-147 89 -146 278t137 293t361 103q494 0 555 -457h-174
q-21 156 -117 235t-254 79t-246 -62t-89 -174q0 -137 154 -196q86 -33 208 -57q123 -25 189 -43t145 -52q234 -102 231 -367q0 -201 -148 -315t-390 -113z" />
    <glyph glyph-name="ccedilla.alt" horiz-adv-x="1062" 
d="M545 -197h-94v146h180v-121q0 -92 -46 -129t-136 -41v63q96 4 96 82zM549 -29q-215 0 -355 160q-140 159 -140 397t140 398t371 159q186 0 305 -99t148 -269h-168q-18 109 -92 170t-193 61q-164 0 -253 -119t-89 -301t89 -300t253 -117q127 1 203 69t86 193h164
q-16 -190 -135 -296t-334 -106z" />
    <glyph glyph-name="scedilla.alt" horiz-adv-x="978" 
d="M397 -197v146h181v-121q0 -92 -46 -129t-137 -41v63q96 4 97 82h-95zM500 -31q-202 -1 -323 97q-120 98 -132 278h170q29 -236 303 -235q125 0 185 48q61 48 61 129q0 82 -59 118t-171 60t-150 32q-129 33 -174 66q-84 62 -101 117q-17 56 -17 112q0 135 99 213t282 77
q377 0 416 -331h-170q-11 104 -71 152t-174 48t-166 -42t-52 -114t61 -105q61 -32 191 -58q130 -25 187 -43q160 -50 208 -150q29 -59 29 -147q0 -156 -115 -239t-317 -83z" />
    <glyph glyph-name="hyphen.cap" horiz-adv-x="745" 
d="M78 584v174h590v-174h-590z" />
    <glyph glyph-name="endash.cap" 
d="M0 600v141h1024v-141h-1024z" />
    <glyph glyph-name="emdash.cap" horiz-adv-x="2048" 
d="M205 600v141h1638v-141h-1638z" />
    <glyph glyph-name="questiondown.cap" horiz-adv-x="1032" 
d="M446 1262v202h199v-202h-199zM526 -27q-226 0 -346 112q-119 112 -119 280q1 115 51 193t162 170q112 94 151 164q40 70 42 218h156q-3 -166 -49 -263t-166 -204q-62 -57 -88 -81t-54 -79t-28 -116q0 -104 73 -176q73 -71 215 -71t220 94q78 93 83 257h168
q-5 -223 -125 -361t-346 -137z" />
    <glyph glyph-name="exclamdown.cap" horiz-adv-x="481" 
d="M141 1262v202h199v-202h-199zM150 0v469l45 641h92l45 -641v-469h-182z" />
    <glyph glyph-name="parenleft.cap" horiz-adv-x="622" 
d="M145 748q0 440 299 858h136q-240 -408 -240 -876t240 -910h-136q-141 217 -220 438t-79 490z" />
    <glyph glyph-name="parenright.cap" horiz-adv-x="622" 
d="M285 730q0 470 -240 876h135q299 -418 299 -858q0 -268 -79 -490t-220 -438h-135q240 440 240 910z" />
    <glyph glyph-name="bracketleft.cap" horiz-adv-x="606" 
d="M158 -180v1786h387v-136h-215v-1509h215v-141h-387z" />
    <glyph glyph-name="bracketright.cap" horiz-adv-x="606" 
d="M61 -180v141h215v1509h-215v136h388v-1786h-388z" />
    <glyph glyph-name="braceleft.cap" horiz-adv-x="606" 
d="M508 -180q-160 0 -239 77t-79 253v364q0 70 -30 102t-111 35v137q78 2 110 35t31 103v356q0 176 79 250t239 74h37v-136h-33q-82 0 -116 -40t-34 -150v-367q0 -156 -114 -190v-6q115 -35 114 -191v-374q0 -109 34 -150t116 -41h33v-141h-37z" />
    <glyph glyph-name="braceright.cap" horiz-adv-x="606" 
d="M61 -180v141h33q84 0 117 38t33 146v375q0 156 114 191v6q-115 35 -114 190v367q0 112 -34 154t-116 42h-33v136h37q160 0 239 -77t79 -253v-356q0 -70 30 -103t111 -35v-137q-78 -2 -110 -35t-31 -102v-365q0 -175 -79 -249t-239 -74h-37z" />
    <glyph glyph-name="guillemotleft.cap" horiz-adv-x="868" 
d="M383 324l-281 235v178l281 236v-162l-190 -160v-4l190 -162v-161zM766 324l-281 235v178l281 236v-162l-191 -160v-4l191 -162v-161z" />
    <glyph glyph-name="guillemotright.cap" horiz-adv-x="868" 
d="M102 324v161l191 160v4l-191 162v162l281 -236v-178zM485 324v161l191 160v4l-191 162v162l281 -236v-178z" />
    <glyph glyph-name="guilsinglleft.cap" horiz-adv-x="503" 
d="M401 324l-299 235v178l299 236v-162l-213 -160v-4l213 -162v-161z" />
    <glyph glyph-name="guilsinglright.cap" horiz-adv-x="503" 
d="M102 324v161l213 160v4l-213 162v162l299 -236v-178z" />
    <glyph glyph-name="registered.alt" horiz-adv-x="1662" 
d="M670 1028v-264h211q77 0 115 35t38 96q0 133 -151 133h-213zM526 305v844h389q117 0 191 -66t74 -168q0 -162 -158 -206v-4q110 -32 125 -153q7 -61 10 -91q2 -31 4 -48t3 -27q6 -62 26 -73v-8h-143q-23 12 -33 193q-8 154 -166 153h-178v-346h-144zM831 45
q283 0 469 194q186 195 186 489t-186 489q-188 195 -469 195t-467 -196q-186 -194 -188 -489q0 -295 186 -489t469 -193zM831 -35q-317 0 -533 217t-216 545t216 546t533 218t533 -218t217 -546q-1 -328 -217 -545t-533 -217z" />
    <glyph glyph-name="dollar.cap" horiz-adv-x="1185" 
d="M260 1081q0 -100 66 -152t213 -85v473q-127 -10 -203 -73t-76 -163zM956 412q0 110 -69 159q-70 49 -234 86v-505q129 10 216 80t87 180zM539 -160v174q-248 16 -372 148t-134 325h172q14 -151 93 -235t241 -98v530q-109 24 -178 48q-180 61 -232 176q-31 67 -31 161
q0 170 121 271t320 112v113h114v-113q389 -29 439 -375h-166q-29 209 -273 238v-494q215 -43 333 -114q140 -85 139 -275t-133 -300t-339 -120v-172h-114z" />
    <glyph glyph-name="Euro.cap" horiz-adv-x="1306" 
d="M47 803v117h137q43 266 196 422t364 155q210 0 340 -118t155 -316h-178q-47 281 -311 280q-154 1 -252 -111t-127 -312h428v-117h-441q-2 -25 -2 -74t2 -74h441v-114h-428q31 -201 132 -307t261 -107q283 0 321 358h172q-10 -225 -148 -370t-353 -145t-372 152
q-157 153 -200 419h-137v114h125q-4 25 -4 74t4 74h-125z" />
    <glyph glyph-name="sterling.cap" horiz-adv-x="1167" 
d="M74 643v137h129q-68 182 -68 301q0 182 134 299q133 117 345 117t348 -122t138 -367h-176q-2 176 -86 258t-222 82t-217 -72q-78 -72 -77 -197q0 -87 19 -142q46 -131 52 -157h307v-137h-268q14 -72 14 -125q0 -188 -170 -328l5 -4q104 35 177 35q74 0 186 -44t171 -44
q106 0 221 103l105 -127q-156 -135 -332 -136q-100 -1 -229 57t-189 58t-84 -9q-23 -9 -35 -13t-32 -16t-26 -17q-6 -3 -30 -19q-23 -16 -26 -18l-103 141q113 82 168 156q98 131 27 350h-176z" />
    <glyph glyph-name="yen.cap" horiz-adv-x="1202" 
d="M131 582v114h354l-444 768h199l366 -659h4l361 659h188l-438 -768h358v-114h-385v-148h385v-115h-385v-319h-178v319h-385v115h385v148h-385z" />
    <glyph glyph-name="zero.cap" horiz-adv-x="1312" 
d="M659 129q377 0 377 604q0 287 -95 447t-283 160t-285 -158t-97 -447t96 -447t287 -159zM658 -31q-270 0 -420 205t-150 559t155 559t417 205t413 -204q152 -204 152 -559t-149 -560t-418 -205z" />
    <glyph glyph-name="one.cap" horiz-adv-x="724" 
d="M379 0v1065h-322v121q326 8 363 287h143v-1473h-184z" />
    <glyph glyph-name="two.cap" horiz-adv-x="1171" 
d="M595 1348q-144 0 -229 -92t-85 -293h-191q0 258 139 396t371 138t366 -126t134 -321t-119 -306q-99 -92 -241 -167t-222 -127q-80 -54 -154 -128t-92 -150h797v-172h-1016q7 137 67 271q33 75 150 192q65 65 310 205q16 10 24 14q168 96 238 169t70 201t-87 212
q-86 84 -230 84z" />
    <glyph glyph-name="three.cap" horiz-adv-x="1216" 
d="M1149 408q-1 -203 -149 -321t-388 -118t-405 136q-164 136 -168 378h178q5 -174 111 -268t276 -94t263 77t93 222q1 289 -382 289h-93v141h90q168 0 254 66t86 184t-89 186q-88 68 -236 68t-237 -91t-89 -245h-176q2 219 140 349t364 130q226 1 363 -107
q138 -108 139 -294q0 -227 -242 -308v-6q297 -76 297 -374z" />
    <glyph glyph-name="four.cap" horiz-adv-x="1206" 
d="M223 504h518v682h-4l-514 -676v-6zM741 0v358h-690v164l725 957h146v-975h241v-146h-241v-358h-181z" />
    <glyph glyph-name="five.cap" horiz-adv-x="1181" 
d="M616 987q204 0 352 -138q146 -139 146 -371t-148 -370t-377 -139q-230 0 -381 126t-159 329h182q17 -139 109 -217t247 -78t248 95t93 256t-96 254t-246 93q-219 0 -328 -151h-174l162 788h780v-161h-653l-97 -441h5q131 125 335 125z" />
    <glyph glyph-name="six.cap" horiz-adv-x="1239" 
d="M299 465q1 -156 103 -252t252 -96t238 95q89 95 89 250t-92 252t-243 97t-249 -95t-98 -251zM674 961q205 1 343 -143t140 -350t-139 -352t-362 -147q-221 0 -361 129q-113 102 -160 256t-47 387q0 350 148 553t423 203q207 0 325 -116t136 -289h-178q-10 108 -84 180
t-194 71q-207 -1 -299 -151t-97 -434h4q147 203 402 203z" />
    <glyph glyph-name="seven.cap" horiz-adv-x="1095" 
d="M885 1303h-836v161h1024v-149q-246 -217 -421 -561t-197 -754h-197q25 377 201 736t426 562v5z" />
    <glyph glyph-name="eight.cap" horiz-adv-x="1249" 
d="M625 874q141 0 222 62t81 175q0 112 -81 174q-81 63 -222 63t-223 -62t-80 -175q0 -113 81 -175t222 -62zM626 731q-174 0 -272 -83t-98 -227t98 -222t274 -78q175 0 269 79t94 222t-96 226t-269 83zM250 70q-82 51 -131 141t-49 209q0 281 303 379v8q-106 39 -168 120
q-61 81 -62 191q-1 172 137 276t345 105q207 0 344 -104t137 -277q0 -223 -225 -311v-8q131 -39 214 -139t83 -230q0 -251 -167 -356t-383 -105t-378 101z" />
    <glyph glyph-name="nine.cap" horiz-adv-x="1241" 
d="M606 655q154 1 252 97t98 251t-103 249t-255 94t-244 -92t-92 -248t94 -254q96 -98 250 -97zM605 -31q-216 0 -356 118t-149 310h185q10 -125 92 -199q83 -74 235 -75q152 0 238 94q119 127 131 475h-4q-150 -186 -404 -186q-207 0 -346 143t-141 350t143 353t357 145
q212 0 350 -108q123 -92 173 -251t50 -413q0 -457 -209 -639q-129 -117 -345 -117z" />
    <glyph glyph-name="percent.cap" horiz-adv-x="1665" 
d="M1288 92q84 0 130 78t46 203t-47 205t-130 80t-129 -78t-46 -204t46 -205t130 -79zM381 809q84 0 130 78t46 203q0 124 -47 204t-130 80t-129 -78t-46 -204t46 -204q46 -79 130 -79zM319 0l887 1464h140l-887 -1464h-140zM1288 -31q-147 0 -239 111t-93 295q0 184 94 295
q94 110 238 110q143 0 236 -109q92 -110 92 -295t-90 -296t-238 -111zM381 686q-147 0 -240 111q-92 111 -92 295t94 294q93 110 237 111t236 -109t92 -295t-90 -296t-237 -111z" />
    <glyph glyph-name="perthousand.cap" horiz-adv-x="2361" 
d="M1985 92q84 0 130 78t46 203t-47 205t-130 80t-130 -78q-46 -78 -46 -204t46 -205t131 -79zM1247 92q84 0 130 78t46 203t-47 205t-130 80t-129 -78t-46 -204t46 -205t130 -79zM381 809q84 0 130 78t46 203q0 124 -47 204t-130 80t-129 -78t-46 -204t46 -204
q46 -79 130 -79zM299 0l887 1464h139l-887 -1464h-139zM1985 -31q-147 0 -240 111q-92 111 -92 295t94 295q93 110 237 110t236 -110t92 -294q0 -185 -90 -296t-237 -111zM1247 -31q-147 0 -239 111t-93 295q1 184 95 295q94 110 237 110t236 -109q92 -110 92 -295
q-1 -185 -91 -296t-237 -111zM381 686q-147 0 -240 111q-92 111 -92 295t94 294q93 110 237 111t236 -109t92 -295t-90 -296t-237 -111z" />
    </font>
</defs>
</svg>
