<?xml version="1.0" standalone="no"?>
<!DOCTYPE svg PUBLIC "-//W3C//DTD SVG 1.1//EN" "http://www.w3.org/Graphics/SVG/1.1/DTD/svg11.dtd" >
<svg xmlns="http://www.w3.org/2000/svg">
<metadata>
Created by FontPrep 20130207 at Mon Oct 28 14:47:04 2013
 By Phil DiBello
Copyright (c) 2011 Linotype Corp., www.linotype.com. All rights reserved. This font software may not be reproduced, modified, disclosed or transferred without the express written approval of Linotype Corp. Neue Haas Grotesk is a trademark of Linotype Corp. registered in the U.S. Patent and Trademark Office and may be registered in certain other jurisdictions in the name of Linotype Corp. or its licensee Linotype GmbH. This typeface is original artwork of Christian Schwartz. The design may be protected in certain jurisdictions.
</metadata>
<defs>
<font id="984f30e6396f993e781e0a106488866f" horiz-adv-x='1024' >
  <font-face 
    font-family="NHaasGroteskDSStd-35XLt"
    font-weight="350"
    font-stretch="normal"
    units-per-em="2048"
    panose-1="2 11 3 4 2 2 2 2 2 4"
    ascent="1569"
    descent="-479"
    x-height="1059"
    cap-height="1464"
    bbox="-381 -418 2232 1868"
    underline-thickness="102"
    underline-position="255"
    unicode-range="U+0020-FB04"
  />
<missing-glyph 
 />
    <glyph glyph-name="f_f" unicode="ff" horiz-adv-x="946" 
d="M612 0v975h-329v-975h-101v975h-157v84h157v192q0 213 228 213h63v-88h-57q-74 0 -104 -32t-29 -95v-190h329v201q0 213 228 213h63v-89h-57q-74 0 -104 -32t-29 -95v-198h196v-84h-196v-975h-101z" />
    <glyph glyph-name="fi" unicode="fi" horiz-adv-x="821" 
d="M612 1300v164h101v-164h-101zM612 0v1059h101v-1059h-101zM25 975v84h157v201q0 213 228 213h63v-89h-57q-74 0 -104 -32t-29 -95v-198h196v-84h-196v-975h-101v975h-157z" />
    <glyph glyph-name="fl" unicode="fl" horiz-adv-x="821" 
d="M612 0v1464h101v-1464h-101zM25 975v84h157v201q0 213 228 213h63v-89h-57q-74 0 -104 -32t-29 -95v-198h196v-84h-196v-975h-101v975h-157z" />
    <glyph glyph-name="f_f_i" unicode="ffi" horiz-adv-x="1251" 
d="M1042 1300v164h101v-164h-101zM1042 0v1059h101v-1059h-101zM612 0v975h-329v-975h-101v975h-157v84h157v192q0 213 228 213h63v-88h-57q-74 0 -104 -32t-29 -95v-190h329v201q0 213 228 213h63v-89h-57q-74 0 -104 -32t-29 -95v-198h196v-84h-196v-975h-101z" />
    <glyph glyph-name="f_f_l" unicode="ffl" horiz-adv-x="1251" 
d="M1042 0v1464h101v-1464h-101zM612 0v975h-329v-975h-101v975h-157v84h157v192q0 213 228 213h63v-88h-57q-74 0 -104 -32t-29 -95v-190h329v201q0 213 228 213h63v-89h-57q-74 0 -104 -32t-29 -95v-198h196v-84h-196v-975h-101z" />
    <glyph glyph-name=".notdef" 
 />
    <glyph glyph-name=".null" horiz-adv-x="0" 
 />
    <glyph glyph-name="nonmarkingreturn" horiz-adv-x="681" 
 />
    <glyph glyph-name="space" unicode=" " horiz-adv-x="329" 
 />
    <glyph glyph-name="exclam" unicode="!" horiz-adv-x="403" 
d="M139 0v162h125v-162h-125zM145 1464h113v-469l-20 -641h-72l-21 641v469z" />
    <glyph glyph-name="quotedbl" unicode="&#x22;" horiz-adv-x="536" 
d="M90 1026v438h100v-438h-100zM346 1026v438h100v-438h-100z" />
    <glyph glyph-name="numbersign" unicode="#" horiz-adv-x="1128" 
d="M436 895l-51 -369h307l51 369h-307zM135 895l15 90h204l60 420h94l-59 -420h307l59 420h94l-59 -420h209l-15 -90h-206l-52 -369h205l-14 -90h-203l-59 -436h-94l59 436h-307l-60 -436h-94l60 436h-209l14 90h207l51 369h-207z" />
    <glyph glyph-name="dollar" unicode="$" horiz-adv-x="1103" 
d="M203 1071q1 -115 71 -171t244 -93v534q-147 -7 -231 -81t-84 -189zM934 397q0 133 -73 193t-261 102v-600q145 8 240 90q94 82 94 215zM518 -174v180q-213 16 -335 141t-132 316h101q6 -158 104 -255t262 -114v615q-217 45 -317 121q-101 76 -101 236q0 159 116 258
t302 108v118h82v-120q174 -14 278 -118t119 -263h-100q-14 127 -94 203t-203 87v-548q217 -43 328 -123q110 -80 110 -256t-122 -289t-316 -119v-178h-82z" />
    <glyph glyph-name="percent" unicode="%" horiz-adv-x="1617" 
d="M356 0l811 1403h95l-811 -1403h-95zM372 1352q-90 0 -148 -79t-58 -235t60 -236t148 -81q89 0 147 79q59 78 59 234t-60 237t-148 81zM1246 53q89 0 148 79q58 79 58 235q0 157 -59 237t-149 80t-147 -79q-59 -79 -59 -235t60 -236q60 -81 148 -81zM1245 -27
q-131 -1 -217 105t-86 292t87 289q87 105 216 105t216 -104t87 -289q0 -186 -86 -292t-217 -106zM373 641q-131 0 -217 105q-86 104 -86 290t87 290t216 106q129 0 216 -104t87 -290t-86 -292t-217 -105z" />
    <glyph glyph-name="ampersand" unicode="&#x26;" horiz-adv-x="1169" 
d="M354 1142q0 -102 88 -216l50 -66q129 72 186 136t57 157q0 92 -52 146q-52 55 -134 55q-83 0 -139 -56q-56 -54 -56 -156zM508 66q215 0 334 178l-385 497q-137 -77 -213 -161t-76 -218t92 -216q92 -80 248 -80zM504 -27q-193 1 -320 105t-127 274t88 268t258 191l-32 43
q-68 88 -96 155t-27 146q0 121 86 205t213 84t210 -79t83 -210t-76 -209t-219 -155l348 -451q55 135 61 317h101q0 -227 -94 -405l194 -252h-125l-127 164q-147 -191 -399 -191z" />
    <glyph glyph-name="quotesingle" unicode="'" horiz-adv-x="280" 
d="M90 1026v438h100v-438h-100z" />
    <glyph glyph-name="parenleft" unicode="(" horiz-adv-x="555" 
d="M152 664q0 490 270 880h94q-250 -397 -250 -858q0 -516 250 -928h-94q-270 416 -270 906z" />
    <glyph glyph-name="parenright" unicode=")" horiz-adv-x="555" 
d="M403 638q0 -490 -270 -880h-94q250 397 250 858q0 516 -250 928h94q270 -416 270 -906z" />
    <glyph glyph-name="asterisk" unicode="*" horiz-adv-x="724" 
d="M406 1464v-245l212 75l27 -69l-211 -76l137 -193l-63 -45l-146 207l-145 -207l-63 45l137 193l-211 76l26 69l213 -75v245h87z" />
    <glyph glyph-name="plus" unicode="+" horiz-adv-x="1044" 
d="M115 621v94h356v383h102v-383h357v-94h-357v-390h-102v390h-356z" />
    <glyph glyph-name="comma" unicode="," horiz-adv-x="292" 
d="M137 -12v12h-53v162h125v-168q0 -90 -32 -132t-95 -55v60q55 20 55 121z" />
    <glyph glyph-name="hyphen" unicode="-" horiz-adv-x="643" 
d="M68 532v91h507v-91h-507z" />
    <glyph glyph-name="period" unicode="." horiz-adv-x="292" 
d="M84 0v162h125v-162h-125z" />
    <glyph glyph-name="slash" unicode="/" horiz-adv-x="753" 
d="M33 0l581 1464h107l-582 -1464h-106z" />
    <glyph glyph-name="zero" unicode="0" horiz-adv-x="1142" 
d="M574 66q187 0 289 166q101 167 101 466t-102 471q-104 172 -290 172t-290 -169t-104 -468q0 -298 104 -468t292 -170zM572 1432q232 0 366 -194t135 -535q0 -341 -130 -535t-371 -195q-242 0 -372 195q-130 194 -130 534t135 535t367 195z" />
    <glyph glyph-name="one" unicode="1" horiz-adv-x="645" 
d="M354 0v1077h-286v72q174 10 235 59t80 203h76v-1411h-105z" />
    <glyph glyph-name="two" unicode="2" horiz-adv-x="1015" 
d="M66 0q0 183 68 289q38 59 70 100t115 104t140 97t98 60t80 50t85 65q46 40 54 56t25 42t27 77t10 92q0 148 -81 228t-225 80t-234 -94q-89 -93 -95 -273h-105q2 219 127 339t311 120t299 -114q112 -114 111 -282q0 -106 -24 -154t-37 -76q-12 -28 -46 -61t-48 -49
q-15 -16 -61 -48t-62 -43t-107 -66q-90 -53 -124 -77q-120 -83 -183 -166q-63 -82 -74 -200h754v-96h-868z" />
    <glyph glyph-name="three" unicode="3" horiz-adv-x="1028" 
d="M517 -27q-202 0 -331 122t-129 321h109q8 -166 102 -255t252 -89t245 86t87 230t-87 226t-243 82h-104v92h102q129 0 206 75t77 202t-78 202t-215 75t-220 -98q-83 -97 -83 -247h-107q2 193 115 314t294 121t291 -100t109 -267q0 -229 -196 -311v-6q248 -92 248 -367
q0 -186 -121 -297t-323 -111z" />
    <glyph glyph-name="four" unicode="4" horiz-adv-x="1060" 
d="M158 461h538v770h-4l-534 -764v-6zM696 0v369h-651v102l662 946h94v-956h207v-92h-207v-369h-105z" />
    <glyph glyph-name="five" unicode="5" horiz-adv-x="991" 
d="M492 -27q-194 0 -313 109q-120 109 -122 278h105q37 -289 321 -288q158 0 245 103t87 271t-87 263q-87 96 -230 96q-211 0 -303 -143h-101l103 741h667v-94h-585l-70 -518h4q121 109 297 109t295 -121q119 -120 119 -331t-119 -343t-313 -132z" />
    <glyph glyph-name="six" unicode="6" horiz-adv-x="1062" 
d="M553 63q152 1 243 107t91 271t-89 263q-90 98 -238 99q-148 -1 -248 -105t-99 -268q0 -164 94 -266t246 -101zM561 893q193 0 313 -124t121 -327t-119 -336t-308 -133t-316 115q-182 162 -182 623q0 317 133 519t375 202q164 0 262 -96t114 -251h-106q-10 113 -82 184
t-186 70q-204 0 -306 -187t-98 -509h4q125 250 381 250z" />
    <glyph glyph-name="seven" unicode="7" horiz-adv-x="968" 
d="M813 1309h-766v94h877v-96q-210 -221 -354 -563t-181 -744h-115q33 365 181 720q147 355 358 585v4z" />
    <glyph glyph-name="eight" unicode="8" horiz-adv-x="1069" 
d="M528 801q137 0 220 79q82 80 82 192t-79 191t-217 79t-219 -80q-79 -78 -79 -192t78 -192t214 -77zM174 390q0 -142 96 -233t263 -91q166 0 264 92t98 232t-99 230q-98 90 -266 91q-168 0 -262 -90q-94 -89 -94 -231zM1004 389q0 -193 -134 -305t-334 -111
q-200 0 -335 115t-135 301q0 137 71 231q72 93 195 138v6q-96 41 -150 122q-53 81 -53 187q0 156 115 257q114 102 292 102t289 -104t111 -255q0 -106 -56 -185t-153 -120v-6q121 -37 199 -139t78 -234z" />
    <glyph glyph-name="nine" unicode="9" horiz-adv-x="1058" 
d="M176 962q0 -164 88 -262t238 -98t248 102t98 268q0 165 -93 267t-243 102t-244 -107q-92 -108 -92 -272zM502 -27q-186 1 -290 95q-105 94 -116 251h109q10 -117 86 -185t192 -68q154 0 244 94q164 164 158 600h-4q-55 -120 -155 -184t-224 -64q-193 0 -314 124
q-120 124 -120 326t122 336t308 134q184 0 313 -113q98 -84 138 -238t40 -387q0 -406 -178 -592q-123 -129 -309 -129z" />
    <glyph glyph-name="colon" unicode=":" horiz-adv-x="313" 
d="M94 0v162h125v-162h-125zM94 633v162h125v-162h-125z" />
    <glyph glyph-name="semicolon" unicode=";" horiz-adv-x="313" 
d="M94 633v162h125v-162h-125zM147 -12v12h-53v162h125v-168q0 -90 -32 -132t-95 -55v60q55 20 55 121z" />
    <glyph glyph-name="less" unicode="&#x3c;" horiz-adv-x="1005" 
d="M895 240l-793 340v116l793 340v-100l-702 -297v-4l702 -295v-100z" />
    <glyph glyph-name="equal" unicode="=" horiz-adv-x="1044" 
d="M115 432v94h815v-94h-815zM115 739v95h815v-95h-815z" />
    <glyph glyph-name="greater" unicode="&#x3e;" horiz-adv-x="1005" 
d="M111 1036l792 -340v-116l-792 -340v100l702 297v4l-702 295v100z" />
    <glyph glyph-name="question" unicode="?" horiz-adv-x="1009" 
d="M393 0v162h125v-162h-125zM406 354q0 172 44 260t162 187q63 53 95 83q31 30 63 96t33 144q0 127 -80 200q-79 73 -221 73t-233 -95t-95 -243h-104q2 176 117 304q116 128 333 128q174 0 283 -103t108 -262q0 -84 -14 -122t-21 -60q-17 -52 -89 -121l-47 -47t-58 -45
q-106 -90 -141 -161t-35 -216h-100z" />
    <glyph glyph-name="at" unicode="@" horiz-adv-x="1767" 
d="M1124 694q0 297 -249 297q-131 0 -212 -123q-81 -122 -81 -286q0 -330 227 -330q158 0 237 124t78 318zM811 168q-154 0 -242 105t-88 282q0 233 115 375t297 143q182 0 260 -164h6l23 148h86l-70 -578q-12 -94 20 -152t107 -59q129 0 197 117t67 315q0 322 -186 496
t-489 174q-304 0 -520 -212t-216 -550t182 -532t519 -195q186 0 399 84l31 -78q-207 -92 -432 -92q-367 0 -580 218t-213 585q0 198 72 362q134 307 457 437q148 59 330 59q183 0 353 -84t279 -259t109 -407t-98 -375q-97 -142 -261 -143q-92 0 -145 50t-62 114h-2
q-39 -80 -123 -132t-182 -52z" />
    <glyph glyph-name="A" unicode="A" horiz-adv-x="1277" 
d="M559 1141l-223 -582h604l-301 799h-4q-41 -125 -76 -217zM12 0l566 1464h120l568 -1464h-111l-180 469h-674l-180 -469h-109z" />
    <glyph glyph-name="B" unicode="B" horiz-adv-x="1247" 
d="M233 809h504q133 0 206 78t73 208q0 129 -77 201t-210 72h-496v-559zM233 98h508q170 0 254 84t84 226t-89 225q-89 82 -240 82h-517v-617zM127 0v1464h600q178 0 288 -95t109 -269q0 -125 -51 -203t-164 -121v-4q279 -86 279 -366q0 -184 -105 -289q-121 -117 -333 -117
h-623z" />
    <glyph glyph-name="C" unicode="C" horiz-adv-x="1343" 
d="M704 -27q-292 0 -463 207t-171 549t174 553t471 211q217 0 360 -113t187 -317h-107q-31 154 -146 246q-116 92 -294 92q-259 1 -397 -189t-138 -483t136 -477t393 -184q209 0 335 129t146 333h100q-20 -227 -135 -364q-159 -193 -451 -193z" />
    <glyph glyph-name="D" unicode="D" horiz-adv-x="1318" 
d="M233 94h388q258 0 388 167t130 468t-124 470t-380 169h-402v-1274zM127 0v1464h512q307 0 459 -200t152 -536t-158 -532t-467 -196h-498z" />
    <glyph glyph-name="E" unicode="E" horiz-adv-x="1191" 
d="M127 0v1464h971v-94h-865v-569h795v-92h-795v-611h885v-98h-991z" />
    <glyph glyph-name="F" unicode="F" horiz-adv-x="1110" 
d="M127 0v1464h930v-94h-824v-563h711v-92h-711v-715h-106z" />
    <glyph glyph-name="G" unicode="G" horiz-adv-x="1452" 
d="M729 -27q-317 0 -488 211t-171 548t182 549t502 212q218 0 370 -112t193 -330h-107q-35 172 -159 261q-125 89 -297 89q-281 -1 -427 -189q-147 -188 -147 -479t138 -478t402 -187t391 148q128 148 128 364v63h-491v94h593v-737h-81l-13 262h-8q-154 -289 -510 -289z" />
    <glyph glyph-name="H" unicode="H" horiz-adv-x="1327" 
d="M127 0v1464h106v-641h861v641h106v-1464h-106v733h-861v-733h-106z" />
    <glyph glyph-name="I" unicode="I" horiz-adv-x="376" 
d="M135 0v1464h107v-1464h-107z" />
    <glyph glyph-name="J" unicode="J" horiz-adv-x="942" 
d="M821 336q0 -160 -95 -262q-96 -102 -284 -101t-292 101t-105 303v78h105v-74q0 -166 74 -239q74 -72 214 -72q276 1 277 274v1120h106v-1128z" />
    <glyph glyph-name="K" unicode="K" horiz-adv-x="1255" 
d="M127 0v1464h106v-817l838 819h141l-624 -604l653 -862h-129l-600 788l-279 -272v-516h-106z" />
    <glyph glyph-name="L" unicode="L" horiz-adv-x="1073" 
d="M127 0v1464h106v-1366h789v-98h-895z" />
    <glyph glyph-name="M" unicode="M" horiz-adv-x="1607" 
d="M127 0v1464h154l526 -1319h4l510 1319h160v-1464h-105v1323h-4q-39 -117 -74 -207l-438 -1116h-106l-447 1116l-74 207h-4v-1323h-102z" />
    <glyph glyph-name="N" unicode="N" horiz-adv-x="1329" 
d="M127 0v1464h119l680 -1034l170 -276h4v1310h102v-1464h-112l-672 1012l-185 293h-4v-1305h-102z" />
    <glyph glyph-name="O" unicode="O" horiz-adv-x="1454" 
d="M725 70q258 0 403 189t146 474q0 285 -146 474t-403 189q-258 0 -401 -188q-144 -190 -144 -475t144 -474t401 -189zM725 -27q-295 0 -475 215t-180 545t180 545t475 215t477 -215t182 -545t-182 -545t-477 -215z" />
    <glyph glyph-name="P" unicode="P" horiz-adv-x="1177" 
d="M233 1368v-620h424q358 0 359 313q0 147 -88 227t-256 80h-439zM127 0v1464h553q220 0 332 -108t112 -293q0 -410 -458 -410h-433v-653h-106z" />
    <glyph glyph-name="Q" unicode="Q" horiz-adv-x="1454" 
d="M725 70q160 0 283 77l-166 140l61 75l184 -151q186 182 187 522q0 285 -146 474t-403 189q-258 0 -401 -188q-144 -190 -144 -475t144 -474t401 -189zM725 -27q-295 0 -475 215t-180 545t180 545t475 215t477 -215t182 -545q0 -369 -221 -586l189 -153l-62 -78l-203 168
q-156 -111 -362 -111z" />
    <glyph glyph-name="R" unicode="R" horiz-adv-x="1259" 
d="M233 1370v-598h492q162 0 247 77t85 220q0 301 -309 301h-515zM127 0v1464h633q199 0 302 -101t103 -290q0 -270 -239 -346v-6q110 -37 156 -128t53 -271q10 -276 61 -314v-8h-115q-25 14 -35 76t-18 260t-79 270t-244 72h-472v-678h-106z" />
    <glyph glyph-name="S" unicode="S" horiz-adv-x="1189" 
d="M598 -27q-246 -1 -392 135t-159 355h109q8 -183 132 -289t312 -106t299 88t111 240t-94 215t-344 109t-361 130t-111 256t134 280t352 107q218 0 345 -112q128 -112 144 -296h-106q-15 150 -119 232t-271 82t-269 -81t-101 -210q0 -129 89 -189t316 -102
q311 -57 410 -156q98 -98 96 -258q0 -188 -138 -309t-384 -121z" />
    <glyph glyph-name="T" unicode="T" horiz-adv-x="1175" 
d="M35 1368v96h1106v-96h-500v-1368h-106v1368h-500z" />
    <glyph glyph-name="U" unicode="U" horiz-adv-x="1273" 
d="M632 -23q-245 0 -381 123t-136 361v1003h106v-995q1 -209 105 -303t311 -94q416 0 416 397v995h106v-1003q0 -242 -141 -363t-386 -121z" />
    <glyph glyph-name="V" unicode="V" horiz-adv-x="1216" 
d="M549 0l-537 1464h109l391 -1075l90 -272h4q55 174 96 282l396 1065h106l-542 -1464h-113z" />
    <glyph glyph-name="W" unicode="W" horiz-adv-x="1755" 
d="M418 0l-395 1464h106l270 -1011l76 -316h4q45 190 74 299l272 1028h113l274 -1024l76 -303h4q43 197 74 316l264 1011h103l-390 -1464h-114l-287 1090l-57 247h-4q-31 -147 -58 -247l-286 -1090h-119z" />
    <glyph glyph-name="X" unicode="X" horiz-adv-x="1173" 
d="M23 0l501 748l-479 716h121l424 -639h4l412 639h118l-471 -719l498 -745h-121l-442 668h-4l-443 -668h-118z" />
    <glyph glyph-name="Y" unicode="Y" horiz-adv-x="1185" 
d="M539 0v651l-529 813h117l465 -716h4l465 716h115l-531 -817v-647h-106z" />
    <glyph glyph-name="Z" unicode="Z" horiz-adv-x="1173" 
d="M49 0v104l905 1262v6h-848v92h973v-98l-907 -1266v-6h940v-94h-1063z" />
    <glyph glyph-name="bracketleft" unicode="[" horiz-adv-x="577" 
d="M168 -242v1786h338v-92h-236v-1599h236v-95h-338z" />
    <glyph glyph-name="backslash" unicode="\" horiz-adv-x="753" 
d="M614 0l-581 1464h106l582 -1464h-107z" />
    <glyph glyph-name="bracketright" unicode="]" horiz-adv-x="577" 
d="M410 1544v-1786h-338v95h235v1599h-235v92h338z" />
    <glyph glyph-name="asciicircum" unicode="^" horiz-adv-x="780" 
d="M133 938h-108l307 526h117l307 -526h-109l-256 444h-4z" />
    <glyph glyph-name="underscore" unicode="_" horiz-adv-x="753" 
d="M-4 -340v84h762v-84h-762z" />
    <glyph glyph-name="grave" unicode="`" 
d="M596 1204h-90l-207 260h141z" />
    <glyph glyph-name="a" unicode="a" horiz-adv-x="1007" 
d="M395 57q173 1 275 97t102 223v196q-78 -39 -263 -60t-249 -52q-65 -31 -88 -78t-22 -119q0 -106 67 -156t178 -51zM906 -16q-56 0 -94 36t-38 107v37h-6q-135 -190 -383 -191q-152 0 -245 77t-93 218q0 180 128 250q65 35 131 50q66 16 210 30q146 14 201 37t55 94v37
q0 229 -266 229q-297 0 -320 -237h-102q33 324 422 323q367 0 366 -321v-623q0 -74 68 -74q18 0 49 11h6v-74q-33 -16 -89 -16z" />
    <glyph glyph-name="b" unicode="b" horiz-adv-x="1056" 
d="M558 57q169 0 257 133t88 341t-90 336t-256 128t-265 -132t-99 -343t98 -337t267 -126zM569 -27q-238 0 -362 201h-4v-174h-101v1464h101v-608h4q121 225 371 225q188 0 308 -148q120 -149 120 -399t-118 -406t-319 -155z" />
    <glyph glyph-name="c" unicode="c" horiz-adv-x="966" 
d="M512 -27q-221 0 -341 154q-120 153 -120 401t121 401t342 152q168 0 276 -85t132 -242h-99q-49 242 -309 241q-182 0 -271 -131t-89 -336q0 -206 90 -336t268 -131q135 0 223 82t105 215h94q-20 -176 -131 -280t-291 -105z" />
    <glyph glyph-name="d" unicode="d" horiz-adv-x="1060" 
d="M502 57q170 0 268 127t98 337t-96 342t-263 132t-261 -129t-94 -337t89 -340t259 -132zM498 -27q-207 0 -327 155q-120 154 -120 404t127 400t318 149q250 0 358 -215h4v598h100v-1464h-100v176h-4q-120 -203 -356 -203z" />
    <glyph glyph-name="e" unicode="e" horiz-adv-x="1005" 
d="M852 600q-4 172 -85 284t-245 112t-257 -110q-93 -108 -109 -286h696zM530 61q246 0 322 254h96q-35 -157 -141 -249t-277 -93q-227 0 -353 153q-126 152 -126 400t128 402t343 153q170 0 279 -102q157 -146 153 -461h-800q2 -203 96 -330t280 -127z" />
    <glyph glyph-name="f" unicode="f" horiz-adv-x="516" 
d="M25 975v84h157v201q0 213 228 213h63v-89h-57q-74 0 -104 -32t-29 -95v-198h196v-84h-196v-975h-101v975h-157z" />
    <glyph glyph-name="g" unicode="g" horiz-adv-x="1058" 
d="M503 94q171 0 266 119t95 325t-92 332t-258 125q-166 0 -263 -125q-97 -126 -97 -328t89 -325t260 -123zM530 -383q-198 0 -306 76t-120 190h101q20 -90 102 -135t201 -45q176 0 262 88t86 238v180h-6q-119 -199 -339 -199t-340 146t-120 392q0 247 130 390t325 143
q227 0 344 -204h6v182h100v-1028q0 -180 -104 -291q-124 -123 -322 -123z" />
    <glyph glyph-name="h" unicode="h" horiz-adv-x="1003" 
d="M213 1464v-583h4q123 199 369 198q141 0 232 -85t91 -238v-756h-100v745q0 248 -242 248q-143 0 -249 -89t-105 -220v-684h-100v1464h100z" />
    <glyph glyph-name="i" unicode="i" horiz-adv-x="317" 
d="M109 1300v164h100v-164h-100zM109 0v1059h100v-1059h-100z" />
    <glyph glyph-name="j" unicode="j" horiz-adv-x="317" 
d="M109 1300v164h100v-164h-100zM-31 -340v86h21q61 0 90 32t29 101v1180h100v-1182q0 -115 -52 -166t-161 -51h-27z" />
    <glyph glyph-name="k" unicode="k" horiz-adv-x="956" 
d="M203 0h-101v1464h101v-952l569 547h127l-403 -383l452 -676h-114l-410 608l-221 -213v-395z" />
    <glyph glyph-name="l" unicode="l" horiz-adv-x="317" 
d="M109 0v1464h100v-1464h-100z" />
    <glyph glyph-name="m" unicode="m" horiz-adv-x="1591" 
d="M102 0v1059h101v-166h4q119 186 328 186q102 0 179 -50t107 -144h6q113 195 351 194q137 0 228 -85t91 -238v-756h-100v745q0 248 -242 248q-131 0 -218 -82t-87 -227v-684h-100v745q0 125 -64 187t-180 61q-117 0 -210 -90t-93 -219v-684h-101z" />
    <glyph glyph-name="n" unicode="n" horiz-adv-x="993" 
d="M203 1059v-178h4q123 199 368 198q141 0 233 -85t91 -238v-756h-100v745q0 248 -242 248q-143 0 -249 -89t-105 -220v-684h-101v1059h101z" />
    <glyph glyph-name="o" unicode="o" horiz-adv-x="1052" 
d="M526 59q176 -1 274 133t99 336q0 202 -98 336q-99 133 -275 133t-274 -133t-98 -336t98 -336t274 -133zM526 -27q-219 0 -347 156q-128 155 -128 399t128 399t347 155t347 -154t128 -400t-128 -400t-347 -155z" />
    <glyph glyph-name="p" unicode="p" horiz-adv-x="1056" 
d="M557 61q170 -1 258 133t88 342t-89 333q-89 126 -256 126t-266 -132t-99 -342t97 -335t267 -125zM102 -340v1399h101v-203h4q119 225 371 225q190 0 309 -146q119 -147 119 -397t-118 -406t-319 -155q-240 0 -362 197h-4v-514h-101z" />
    <glyph glyph-name="q" unicode="q" horiz-adv-x="1060" 
d="M499 61q171 0 270 126t99 336t-95 341t-262 131t-262 -129t-95 -337t87 -338t258 -130zM858 -340v516h-4q-121 -199 -358 -199q-207 0 -326 153q-119 152 -119 402t129 400t322 149q238 0 352 -207h4v185h100v-1399h-100z" />
    <glyph glyph-name="r" unicode="r" horiz-adv-x="583" 
d="M203 1059v-209h4q107 215 344 215v-100q-195 5 -293 -152q-55 -88 -55 -201v-612h-101v1059h101z" />
    <glyph glyph-name="s" unicode="s" horiz-adv-x="886" 
d="M838 287q0 -137 -102 -225t-292 -89q-188 -1 -294 99t-115 247h102q10 -127 95 -193q86 -66 220 -67t210 61t76 158t-58 139q-56 44 -240 87t-277 104q-93 60 -93 190t102 207t258 76q334 0 377 -301h-98q-10 100 -84 156t-197 57q-122 0 -190 -53t-68 -139t69 -126
t249 -83q180 -44 264 -106q86 -62 86 -199z" />
    <glyph glyph-name="t" unicode="t" horiz-adv-x="544" 
d="M29 975v84h164v319h100v-319h192v-84h-192v-795q-1 -57 23 -80q24 -22 74 -22t83 18h6v-86q-49 -18 -106 -18q-180 0 -180 180v803h-164z" />
    <glyph glyph-name="u" unicode="u" horiz-adv-x="980" 
d="M195 313q0 -250 258 -252q139 1 232 95t93 233v670h101v-1059h-101v162h-4q-59 -88 -138 -137q-80 -49 -216 -49t-231 86q-95 87 -95 241v756h101v-746z" />
    <glyph glyph-name="v" unicode="v" horiz-adv-x="925" 
d="M395 0l-377 1059h107l233 -672l97 -297h4q61 188 100 297l246 672h102l-387 -1059h-125z" />
    <glyph glyph-name="w" unicode="w" horiz-adv-x="1423" 
d="M330 0l-301 1059h104l180 -656l76 -311h4q47 190 76 297l182 670h113l176 -670l72 -297h4q51 197 84 311l194 656h101l-324 -1059h-121l-184 700l-57 252h-4q-31 -143 -60 -252l-190 -700h-125z" />
    <glyph glyph-name="x" unicode="x" horiz-adv-x="954" 
d="M18 0l396 563l-355 496h119l293 -424h4l285 424h117l-340 -494l399 -565h-119l-340 494h-4l-338 -494h-117z" />
    <glyph glyph-name="y" unicode="y" horiz-adv-x="931" 
d="M197 -350q-35 0 -80 12v90h4q41 -10 84 -10q137 0 190 154l31 88l-406 1075h105l258 -701l92 -264h4q49 158 86 264l246 701h102l-426 -1186q-45 -125 -112 -174t-178 -49z" />
    <glyph glyph-name="z" unicode="z" horiz-adv-x="882" 
d="M49 0v92l639 873v6h-594v88h721v-84l-645 -881v-6h661v-88h-782z" />
    <glyph glyph-name="braceleft" unicode="{" horiz-adv-x="577" 
d="M438 -242q-248 0 -248 254v455q0 75 -32 109t-109 36v95q78 3 110 37t31 108v438q0 254 248 254h37v-92h-33q-80 0 -114 -37t-35 -127v-444q0 -150 -115 -182v-5q115 -33 115 -182v-461q0 -90 35 -126t114 -35h33v-95h-37z" />
    <glyph glyph-name="bar" unicode="|" horiz-adv-x="411" 
d="M158 -242v1786h96v-1786h-96z" />
    <glyph glyph-name="braceright" unicode="}" horiz-adv-x="577" 
d="M139 -242h-37v95h33q80 -1 115 35t35 126v461q0 150 114 182v5q-115 33 -114 182v444q0 90 -35 127t-115 37h-33v92h37q248 0 248 -254v-438q0 -74 32 -109t109 -36v-95q-78 -2 -110 -37t-31 -108v-455q0 -254 -248 -254z" />
    <glyph glyph-name="asciitilde" unicode="~" horiz-adv-x="776" 
d="M530 588q-66 0 -157 54q-90 54 -122 54q-31 0 -55 -28t-26 -78h-92q8 98 55 149q99 107 279 -10q74 -47 108 -47t60 28q25 28 26 76h92q-6 -96 -54 -147t-114 -51z" />
    <glyph glyph-name="uni00A0" unicode="&#xa0;" horiz-adv-x="329" 
 />
    <glyph glyph-name="exclamdown" unicode="&#xa1;" horiz-adv-x="403" 
d="M264 1204v-162h-125v162h125zM258 -260h-113v469l21 641h72l20 -641v-469z" />
    <glyph glyph-name="cent" unicode="&#xa2;" horiz-adv-x="980" 
d="M156 526q0 -192 78 -318q78 -128 237 -145v930q-160 -18 -238 -146q-77 -129 -77 -321zM471 -174v149q-203 16 -311 167t-107 385q0 234 109 385t309 167v131h82v-131q154 -10 251 -93t120 -232h-99q-47 223 -272 239v-930q119 13 196 93t93 202h94q-20 -166 -120 -269
t-263 -114v-149h-82z" />
    <glyph glyph-name="sterling" unicode="&#xa3;" horiz-adv-x="1073" 
d="M76 641v86h141q-76 195 -76 307q0 166 110 282t304 116t312 -117t120 -316h-100q-2 172 -96 257t-238 85q-143 0 -225 -85t-82 -224q0 -88 35 -178q37 -111 45 -127h350v-86h-322q25 -92 25 -162q0 -227 -146 -352l3 -4q76 41 148 41t184 -46q114 -46 180 -46
q102 0 210 100l58 -76q-70 -59 -128 -88q-58 -28 -150 -28t-198 49t-190 49t-217 -88l-59 90q209 152 209 385q0 78 -35 176h-172z" />
    <glyph glyph-name="currency" unicode="&#xa4;" horiz-adv-x="997" 
d="M498 1137q154 0 254 -88l151 161l62 -61l-154 -164q78 -109 78 -267t-80 -274l156 -163l-62 -62l-151 162q-104 -88 -255 -88t-251 88l-152 -162l-61 62l153 165q-78 109 -78 269t78 268l-153 166l61 61l150 -161q100 88 254 88zM209 718q0 -146 77 -242t213 -97
q136 0 212 96q75 97 75 243t-75 243q-76 96 -212 96t-213 -96q-77 -97 -77 -243z" />
    <glyph glyph-name="yen" unicode="&#xa5;" horiz-adv-x="1085" 
d="M119 584v84h348l-442 737h118l398 -678h4l403 678h113l-445 -737h347v-84h-371v-154h371v-84h-371v-346h-103v346h-370v84h370v154h-370z" />
    <glyph glyph-name="brokenbar" unicode="&#xa6;" horiz-adv-x="411" 
d="M158 735v809h96v-809h-96zM254 600v-842h-96v842h96z" />
    <glyph glyph-name="section" unicode="&#xa7;" horiz-adv-x="1122" 
d="M958 376q0 62 -22 106q-38 77 -184 163q-54 31 -194 107t-200 122q-195 -41 -194 -206q0 -102 78 -170t278 -182t246 -146q100 27 146 85q46 59 46 121zM569 -373q-175 0 -287 113t-116 264h108q6 -125 88 -204t218 -79q233 0 233 195q0 78 -56 129t-291 183
q-235 133 -287 190q-93 96 -107 145t-15 99q0 207 230 276q-76 82 -76 204t94 206t256 84t262 -96t111 -251h-109q-8 119 -81 186q-72 67 -188 67t-176 -58q-60 -57 -60 -137t40 -133q41 -53 161 -120q34 -20 120 -66t135 -74q155 -87 210 -156q79 -96 79 -207
q0 -207 -227 -276q84 -84 84 -205t-89 -200t-264 -79z" />
    <glyph glyph-name="dieresis" unicode="&#xa8;" horiz-adv-x="1064" 
d="M637 1300v164h100v-164h-100zM328 1300v164h100v-164h-100z" />
    <glyph glyph-name="copyright" unicode="&#xa9;" horiz-adv-x="1662" 
d="M832 250q-182 0 -298 133t-116 345t113 347q114 135 309 135q145 0 239 -76t117 -208h-102q-16 90 -83 143t-171 53q-152 0 -234 -112t-82 -283q0 -172 82 -281q82 -108 216 -108t206 71t82 185h100q-10 -141 -94 -232q-102 -112 -284 -112zM831 31q287 0 476 197
q188 198 188 499t-188 500q-187 199 -475 199t-476 -200q-188 -198 -188 -499t188 -499t475 -197zM831 -35q-315 0 -530 217t-215 545t215 546t530 218t531 -218t215 -546q1 -328 -215 -545t-531 -217z" />
    <glyph glyph-name="ordfeminine" unicode="&#xaa;" horiz-adv-x="948" 
d="M395 551q145 0 229 81q83 81 83 189v166q-70 -35 -196 -49t-166 -24q-118 -28 -146 -89q-19 -39 -19 -113t60 -118q60 -43 155 -43zM805 1145v-516q0 -72 65 -72q18 0 50 10h6v-73q-33 -16 -89 -16t-94 34q-37 35 -36 104v13h-5q-121 -162 -321 -162q-133 0 -219 70
q-86 71 -86 205t96 192t266 76q170 16 220 38q48 22 49 82v23q0 197 -231 197t-255 -205h-98q16 137 107 212t249 75t242 -72t84 -215z" />
    <glyph glyph-name="guillemotleft" unicode="&#xab;" horiz-adv-x="823" 
d="M377 258l-254 229v138l254 229v-127l-191 -170v-4l191 -168v-127zM700 258l-254 229v138l254 229v-127l-190 -170v-4l190 -168v-127z" />
    <glyph glyph-name="logicalnot" unicode="&#xac;" horiz-adv-x="1044" 
d="M115 666v94h774v-484h-103v390h-671z" />
    <glyph glyph-name="uni00AD" unicode="&#xad;" horiz-adv-x="643" 
d="M68 532v91h507v-91h-507z" />
    <glyph glyph-name="registered" unicode="&#xae;" horiz-adv-x="1081" 
d="M432 1204v-176h141q100 0 101 86q0 90 -99 90h-143zM350 735v537h242q74 0 119 -41t45 -107q0 -102 -99 -129v-2q76 -20 85 -134t20 -120v-4h-80q-16 6 -23 123q-2 104 -108 105h-119v-228h-82zM541 561q180 0 296 123t115 311q0 188 -115 312q-116 123 -296 123
t-296 -123t-116 -311t116 -312q116 -123 296 -123zM541 500q-205 0 -345 141t-141 354q1 213 141 355t345 141q205 0 345 -141q140 -140 140 -354t-140 -355t-345 -141z" />
    <glyph glyph-name="macron" unicode="&#xaf;" 
d="M264 1290v101h496v-101h-496z" />
    <glyph glyph-name="degree" unicode="&#xb0;" horiz-adv-x="651" 
d="M326 1022q68 0 108 46t41 119q0 73 -41 120q-40 47 -108 47t-109 -47t-41 -120t41 -119t109 -46zM327 944q-101 0 -172 71t-71 173t71 173t172 71t171 -71t70 -173t-70 -173t-171 -71z" />
    <glyph glyph-name="plusminus" unicode="&#xb1;" horiz-adv-x="1044" 
d="M115 0v94h815v-94h-815zM115 641v94h356v363h102v-363h357v-94h-357v-369h-102v369h-356z" />
    <glyph glyph-name="twosuperior" unicode="&#xb2;" horiz-adv-x="681" 
d="M352 1401q-78 0 -126 -51t-50 -150h-90q0 135 75 208t193 73t189 -69q69 -69 69 -163t-46 -160q-30 -48 -131 -110t-123 -76q-76 -48 -102 -93q-25 -44 -32 -81h430v-80h-545q4 142 85 222t259 191q60 43 67 54q6 12 24 39t18 93q0 67 -43 110t-121 43z" />
    <glyph glyph-name="threesuperior" unicode="&#xb3;" horiz-adv-x="696" 
d="M346 633q-127 0 -209 74t-80 196h95q2 -92 54 -141t140 -49t136 44t48 123q0 78 -48 120t-136 42h-57v76h55q76 0 118 39t42 106t-43 105t-119 39q-76 0 -121 -51t-47 -133h-90q2 117 73 187t187 71q116 -1 184 -59q70 -58 70 -158q0 -131 -123 -177v-4q154 -47 154 -209
q0 -113 -78 -177t-205 -64z" />
    <glyph glyph-name="acute" unicode="&#xb4;" 
d="M428 1204l156 260h141l-207 -260h-90z" />
    <glyph glyph-name="mu" unicode="&#xb5;" horiz-adv-x="989" 
d="M203 313q0 -250 258 -252q139 1 232 95t93 233v670h101v-1059h-101v162h-4q-59 -88 -138 -137t-202 -50q-158 0 -235 111h-4v-426h-101v1399h101v-746z" />
    <glyph glyph-name="paragraph" unicode="&#xb6;" horiz-adv-x="995" 
d="M504 782h-64q-186 0 -283 90t-97 246t94 252q94 94 272 94h442v-1464h-106v1362h-152v-1362h-106v782z" />
    <glyph glyph-name="periodcentered" unicode="&#xb7;" horiz-adv-x="292" 
d="M84 555v162h125v-162h-125z" />
    <glyph glyph-name="cedilla" unicode="&#xb8;" 
d="M441 -377q-96 0 -175 45l27 51q74 -27 137 -26q117 0 117 76q0 59 -88 59q-33 0 -80 -14l-27 45l146 141h96l-113 -102v-4q72 4 118 -30t46 -100t-54 -103q-54 -38 -150 -38z" />
    <glyph glyph-name="onesuperior" unicode="&#xb9;" horiz-adv-x="528" 
d="M248 649v604h-180v66q92 2 139 36t59 115h76v-821h-94z" />
    <glyph glyph-name="ordmasculine" unicode="&#xba;" horiz-adv-x="940" 
d="M152 950q0 -174 84 -286t234 -113q152 0 234 113q82 112 82 286t-83 288t-233 114t-234 -114t-84 -288zM889 950q-1 -213 -113 -348t-306 -135t-306 135t-113 348q0 213 113 347q112 135 306 135t306 -134t113 -348z" />
    <glyph glyph-name="guillemotright" unicode="&#xbb;" horiz-adv-x="823" 
d="M446 854l254 -229v-138l-254 -229v127l191 170v4l-191 168v127zM123 854l254 -229v-138l-254 -229v127l190 170v4l-190 168v127z" />
    <glyph glyph-name="onequarter" unicode="&#xbc;" horiz-adv-x="1441" 
d="M868 279h295v405h-2l-293 -401v-4zM1163 0v203h-379v92l383 528h88v-544h123v-76h-123v-203h-92zM123 0l1048 1464h109l-1049 -1464h-108zM258 649v604h-180v66q92 2 139 36t59 115h76v-821h-94z" />
    <glyph glyph-name="onehalf" unicode="&#xbd;" horiz-adv-x="1521" 
d="M258 649v604h-180v66q92 2 139 36t59 115h76v-821h-94zM104 0l1049 1464h109l-1049 -1464h-109zM1182 752q-78 0 -126 -52t-50 -149h-91q0 135 75 208t194 73q118 0 188 -70q70 -68 70 -185t-104 -194q-45 -35 -110 -75q-102 -62 -154 -108q-53 -46 -66 -120h430v-80
h-545q4 143 87 224q64 64 156 124t100 65q7 5 34 24t34 31t23 37q16 26 18 93q1 68 -42 111t-121 43z" />
    <glyph glyph-name="threequarters" unicode="&#xbe;" horiz-adv-x="1576" 
d="M1004 279h294v405h-2l-292 -401v-4zM1298 0v203h-378v92l383 528h88v-544h122v-76h-122v-203h-93zM270 0l1049 1464h108l-1048 -1464h-109zM356 633q-127 0 -209 74t-79 196h94q2 -92 54 -141t140 -49t137 44q48 44 48 123q0 78 -48 120t-137 42h-57v76h55q76 0 118 39
t42 106t-43 105t-119 39q-76 0 -121 -51t-47 -133h-90q2 117 73 187t187 71q116 -1 185 -59q70 -58 69 -158q0 -131 -123 -177v-4q154 -47 154 -209q0 -113 -78 -177t-205 -64z" />
    <glyph glyph-name="questiondown" unicode="&#xbf;" horiz-adv-x="1009" 
d="M616 1204v-162h-124v162h124zM604 850q0 -172 -44 -260t-163 -187q-63 -53 -94 -83t-63 -95q-32 -66 -33 -145q0 -127 80 -200q79 -73 221 -73q142 -1 232 95t96 243h104q-2 -176 -118 -304t-333 -128q-175 -1 -283 103t-108 262q0 84 14 122t22 60t26 46q18 26 27 38
t35 37t46 45q21 21 60 47q106 90 141 161t35 216h100z" />
    <glyph glyph-name="Agrave" unicode="&#xc0;" horiz-adv-x="1277" 
d="M702 1542h-90l-206 225h141zM559 1141l-223 -582h604l-301 799h-4q-41 -125 -76 -217zM12 0l566 1464h120l568 -1464h-111l-180 469h-674l-180 -469h-109z" />
    <glyph glyph-name="Aacute" unicode="&#xc1;" horiz-adv-x="1277" 
d="M573 1542l156 225h141l-206 -225h-91zM559 1141l-223 -582h604l-301 799h-4q-41 -125 -76 -217zM12 0l566 1464h120l568 -1464h-111l-180 469h-674l-180 -469h-109z" />
    <glyph glyph-name="Acircumflex" unicode="&#xc2;" horiz-adv-x="1277" 
d="M383 1540l192 207h127l193 -207h-121l-135 146h-4l-137 -146h-115zM559 1141l-223 -582h604l-301 799h-4q-41 -125 -76 -217zM12 0l566 1464h120l568 -1464h-111l-180 469h-674l-180 -469h-109z" />
    <glyph glyph-name="Atilde" unicode="&#xc3;" horiz-adv-x="1277" 
d="M768 1556q-53 0 -137 44t-109 45q-25 0 -44 -23t-21 -61h-86q8 84 48 128t94 44t135 -44t108 -44q27 1 46 23t21 61h86q-6 -81 -47 -127t-94 -46zM559 1141l-223 -582h604l-301 799h-4q-41 -125 -76 -217zM12 0l566 1464h120l568 -1464h-111l-180 469h-674l-180 -469
h-109z" />
    <glyph glyph-name="Adieresis" unicode="&#xc4;" horiz-adv-x="1277" 
d="M743 1546v164h101v-164h-101zM434 1546v164h101v-164h-101zM559 1141l-223 -582h604l-301 799h-4q-41 -125 -76 -217zM12 0l566 1464h120l568 -1464h-111l-180 469h-674l-180 -469h-109z" />
    <glyph glyph-name="Aring" unicode="&#xc5;" horiz-adv-x="1277" 
d="M639 1587q43 0 72 31t28 76q-1 46 -29 76t-71 30t-72 -31t-29 -75t30 -76q28 -31 71 -31zM639 1520q-74 0 -126 51t-52 123t52 123t126 51t126 -51t52 -123t-52 -123t-126 -51zM559 1141l-223 -582h604l-301 799h-4q-41 -125 -76 -217zM12 0l566 1464h120l568 -1464h-111
l-180 469h-674l-180 -469h-109z" />
    <glyph glyph-name="AE" unicode="&#xc6;" horiz-adv-x="1935" 
d="M952 1370h-258l-336 -811h594v811zM1772 709h-713v-611h803v-98h-910v469h-630l-195 -469h-109l609 1464h1214v-94h-782v-569h713v-92z" />
    <glyph glyph-name="Ccedilla" unicode="&#xc7;" horiz-adv-x="1343" 
d="M842 -236q0 -66 -54 -103q-54 -38 -151 -38q-96 0 -174 45l26 51q74 -27 138 -26q117 0 116 76q0 59 -88 59q-33 0 -80 -14l-26 45l119 116q-279 13 -439 219q-159 206 -159 542t174 546q174 211 471 211q217 0 360 -113t187 -317h-107q-31 154 -146 246q-116 92 -294 92
q-259 1 -397 -189t-138 -483t136 -477t393 -184q209 0 335 129t146 333h100q-20 -227 -135 -364q-143 -172 -391 -191l-86 -77v-4q72 4 118 -30t46 -100z" />
    <glyph glyph-name="Egrave" unicode="&#xc8;" horiz-adv-x="1191" 
d="M700 1542h-90l-207 225h142zM127 0v1464h971v-94h-865v-569h795v-92h-795v-611h885v-98h-991z" />
    <glyph glyph-name="Eacute" unicode="&#xc9;" horiz-adv-x="1191" 
d="M571 1542l156 225h141l-206 -225h-91zM127 0v1464h971v-94h-865v-569h795v-92h-795v-611h885v-98h-991z" />
    <glyph glyph-name="Ecircumflex" unicode="&#xca;" horiz-adv-x="1191" 
d="M381 1540l192 207h127l193 -207h-121l-135 146h-4l-137 -146h-115zM127 0v1464h971v-94h-865v-569h795v-92h-795v-611h885v-98h-991z" />
    <glyph glyph-name="Edieresis" unicode="&#xcb;" horiz-adv-x="1191" 
d="M741 1546v164h101v-164h-101zM432 1546v164h100v-164h-100zM127 0v1464h971v-94h-865v-569h795v-92h-795v-611h885v-98h-991z" />
    <glyph glyph-name="Igrave" unicode="&#xcc;" horiz-adv-x="376" 
d="M236 1542h-91l-206 225h141zM135 0v1464h107v-1464h-107z" />
    <glyph glyph-name="Iacute" unicode="&#xcd;" horiz-adv-x="376" 
d="M139 1542l156 225h141l-207 -225h-90zM135 0v1464h107v-1464h-107z" />
    <glyph glyph-name="Icircumflex" unicode="&#xce;" horiz-adv-x="376" 
d="M-68 1540l193 207h127l192 -207h-120l-136 146h-4l-137 -146h-115zM135 0v1464h107v-1464h-107z" />
    <glyph glyph-name="Idieresis" unicode="&#xcf;" horiz-adv-x="376" 
d="M293 1546v164h100v-164h-100zM-16 1546v164h100v-164h-100zM135 0v1464h107v-1464h-107z" />
    <glyph glyph-name="Eth" unicode="&#xd0;" horiz-adv-x="1351" 
d="M254 94h387q258 0 388 167t130 468t-124 470t-380 169h-401v-588h528v-92h-528v-594zM2 688v92h145v684h512q307 0 459 -200t152 -536t-158 -532t-467 -196h-498v688h-145z" />
    <glyph glyph-name="Ntilde" unicode="&#xd1;" horiz-adv-x="1329" 
d="M829 1556q-53 0 -137 44t-108 45q-24 0 -44 -23q-19 -23 -22 -61h-86q8 84 48 128t94 44t136 -44t108 -44q26 1 45 23t22 61h86q-5 -81 -47 -127t-95 -46zM127 0v1464h119l680 -1034l170 -276h4v1310h102v-1464h-112l-672 1012l-185 293h-4v-1305h-102z" />
    <glyph glyph-name="Ograve" unicode="&#xd2;" horiz-adv-x="1454" 
d="M797 1542h-90l-207 225h141zM725 70q258 0 403 189t146 474q0 285 -146 474t-403 189q-258 0 -401 -188q-144 -190 -144 -475t144 -474t401 -189zM725 -27q-295 0 -475 215t-180 545t180 545t475 215t477 -215t182 -545t-182 -545t-477 -215z" />
    <glyph glyph-name="Oacute" unicode="&#xd3;" horiz-adv-x="1454" 
d="M655 1542l156 225h141l-207 -225h-90zM725 70q258 0 403 189t146 474q0 285 -146 474t-403 189q-258 0 -401 -188q-144 -190 -144 -475t144 -474t401 -189zM725 -27q-295 0 -475 215t-180 545t180 545t475 215t477 -215t182 -545t-182 -545t-477 -215z" />
    <glyph glyph-name="Ocircumflex" unicode="&#xd4;" horiz-adv-x="1454" 
d="M471 1540l193 207h127l192 -207h-121l-135 146h-4l-137 -146h-115zM725 70q258 0 403 189t146 474q0 285 -146 474t-403 189q-258 0 -401 -188q-144 -190 -144 -475t144 -474t401 -189zM725 -27q-295 0 -475 215t-180 545t180 545t475 215t477 -215t182 -545t-182 -545
t-477 -215z" />
    <glyph glyph-name="Otilde" unicode="&#xd5;" horiz-adv-x="1454" 
d="M856 1556q-53 0 -137 44t-109 45q-25 0 -44 -23t-21 -61h-86q8 84 48 128t94 44t135 -44t108 -44q27 1 46 23t21 61h86q-6 -81 -47 -127t-94 -46zM725 70q258 0 403 189t146 474q0 285 -146 474t-403 189q-258 0 -401 -188q-144 -190 -144 -475t144 -474t401 -189z
M725 -27q-295 0 -475 215t-180 545t180 545t475 215t477 -215t182 -545t-182 -545t-477 -215z" />
    <glyph glyph-name="Odieresis" unicode="&#xd6;" horiz-adv-x="1454" 
d="M831 1546v164h101v-164h-101zM522 1546v164h101v-164h-101zM725 70q258 0 403 189t146 474q0 285 -146 474t-403 189q-258 0 -401 -188q-144 -190 -144 -475t144 -474t401 -189zM725 -27q-295 0 -475 215t-180 545t180 545t475 215t477 -215t182 -545t-182 -545
t-477 -215z" />
    <glyph glyph-name="multiply" unicode="&#xd7;" horiz-adv-x="1038" 
d="M162 967l65 65l291 -303l293 303l66 -65l-293 -303l293 -304l-66 -65l-293 301l-291 -301l-65 65l293 304z" />
    <glyph glyph-name="Oslash" unicode="&#xd8;" horiz-adv-x="1454" 
d="M738 70q246 0 390 189q146 189 146 455t-113 445l-819 -923q150 -166 396 -166zM714 1397q-248 1 -390 -189q-144 -190 -144 -462t113 -445l819 924q-150 172 -398 172zM714 1493q284 0 466 -193l170 193l59 -55l-176 -199q151 -209 151 -523t-182 -528
q-182 -215 -464 -215t-464 187l-170 -193l-59 56l178 200q-153 209 -153 525t180 530q180 215 464 215z" />
    <glyph glyph-name="Ugrave" unicode="&#xd9;" horiz-adv-x="1273" 
d="M700 1542h-90l-207 225h142zM632 -23q-245 0 -381 123t-136 361v1003h106v-995q1 -209 105 -303t311 -94q416 0 416 397v995h106v-1003q0 -242 -141 -363t-386 -121z" />
    <glyph glyph-name="Uacute" unicode="&#xda;" horiz-adv-x="1273" 
d="M571 1542l156 225h141l-206 -225h-91zM632 -23q-245 0 -381 123t-136 361v1003h106v-995q1 -209 105 -303t311 -94q416 0 416 397v995h106v-1003q0 -242 -141 -363t-386 -121z" />
    <glyph glyph-name="Ucircumflex" unicode="&#xdb;" horiz-adv-x="1273" 
d="M381 1540l192 207h127l193 -207h-121l-135 146h-4l-137 -146h-115zM632 -23q-245 0 -381 123t-136 361v1003h106v-995q1 -209 105 -303t311 -94q416 0 416 397v995h106v-1003q0 -242 -141 -363t-386 -121z" />
    <glyph glyph-name="Udieresis" unicode="&#xdc;" horiz-adv-x="1273" 
d="M741 1546v164h101v-164h-101zM432 1546v164h100v-164h-100zM632 -23q-245 0 -381 123t-136 361v1003h106v-995q1 -209 105 -303t311 -94q416 0 416 397v995h106v-1003q0 -242 -141 -363t-386 -121z" />
    <glyph glyph-name="Yacute" unicode="&#xdd;" horiz-adv-x="1185" 
d="M526 1542l156 225h141l-207 -225h-90zM539 0v651l-529 813h117l465 -716h4l465 716h115l-531 -817v-647h-106z" />
    <glyph glyph-name="Thorn" unicode="&#xde;" horiz-adv-x="1183" 
d="M672 1085h-439v-620h424q358 0 359 313q0 147 -88 227t-256 80zM233 0h-106v1464h106v-282h447q220 0 332 -110t112 -292q0 -410 -458 -409h-433v-371z" />
    <glyph glyph-name="germandbls" unicode="&#xdf;" horiz-adv-x="960" 
d="M489 -10q-61 0 -118 14v86h4q49 -12 102 -12q154 0 241 88t87 252t-86 261t-246 97h-88v84h94q121 0 186 78t65 196t-72 190q-70 72 -190 73q-120 0 -193 -76t-72 -211v-1110h-101v1114q0 170 100 268t265 98q164 0 263 -98q99 -100 99 -245q0 -231 -198 -308v-4
q131 -43 205 -144t73 -257q0 -211 -114 -323q-116 -111 -306 -111z" />
    <glyph glyph-name="agrave" unicode="&#xe0;" horiz-adv-x="1007" 
d="M588 1204h-90l-207 260h141zM395 57q173 1 275 97t102 223v196q-78 -39 -263 -60t-249 -52q-65 -31 -88 -78t-22 -119q0 -106 67 -156t178 -51zM906 -16q-56 0 -94 36t-38 107v37h-6q-135 -190 -383 -191q-152 0 -245 77t-93 218q0 180 128 250q65 35 131 50
q66 16 210 30q146 14 201 37t55 94v37q0 229 -266 229q-297 0 -320 -237h-102q33 324 422 323q367 0 366 -321v-623q0 -74 68 -74q18 0 49 11h6v-74q-33 -16 -89 -16z" />
    <glyph glyph-name="aacute" unicode="&#xe1;" horiz-adv-x="1007" 
d="M430 1204l156 260h141l-207 -260h-90zM395 57q173 1 275 97t102 223v196q-78 -39 -263 -60t-249 -52q-65 -31 -88 -78t-22 -119q0 -106 67 -156t178 -51zM906 -16q-56 0 -94 36t-38 107v37h-6q-135 -190 -383 -191q-152 0 -245 77t-93 218q0 180 128 250q65 35 131 50
q66 16 210 30q146 14 201 37t55 94v37q0 229 -266 229q-297 0 -320 -237h-102q33 324 422 323q367 0 366 -321v-623q0 -74 68 -74q18 0 49 11h6v-74q-33 -16 -89 -16z" />
    <glyph glyph-name="acircumflex" unicode="&#xe2;" horiz-adv-x="1007" 
d="M285 1212l164 218h126l164 -218h-116l-111 156h-4l-113 -156h-110zM395 57q173 1 275 97t102 223v196q-78 -39 -263 -60t-249 -52q-65 -31 -88 -78t-22 -119q0 -106 67 -156t178 -51zM906 -16q-56 0 -94 36t-38 107v37h-6q-135 -190 -383 -191q-152 0 -245 77t-93 218
q0 180 128 250q65 35 131 50q66 16 210 30q146 14 201 37t55 94v37q0 229 -266 229q-297 0 -320 -237h-102q33 324 422 323q367 0 366 -321v-623q0 -74 68 -74q18 0 49 11h6v-74q-33 -16 -89 -16z" />
    <glyph glyph-name="atilde" unicode="&#xe3;" horiz-adv-x="1007" 
d="M641 1229q-53 0 -137 44t-109 44t-44 -23t-21 -61h-86q8 84 48 128t94 44t135 -44t108 -44q27 1 46 23t21 61h86q-6 -82 -47 -127t-94 -45zM395 57q173 1 275 97t102 223v196q-78 -39 -263 -60t-249 -52q-65 -31 -88 -78t-22 -119q0 -106 67 -156t178 -51zM906 -16
q-56 0 -94 36t-38 107v37h-6q-135 -190 -383 -191q-152 0 -245 77t-93 218q0 180 128 250q65 35 131 50q66 16 210 30q146 14 201 37t55 94v37q0 229 -266 229q-297 0 -320 -237h-102q33 324 422 323q367 0 366 -321v-623q0 -74 68 -74q18 0 49 11h6v-74q-33 -16 -89 -16z
" />
    <glyph glyph-name="adieresis" unicode="&#xe4;" horiz-adv-x="1007" 
d="M616 1300v164h101v-164h-101zM307 1300v164h101v-164h-101zM395 57q173 1 275 97t102 223v196q-78 -39 -263 -60t-249 -52q-65 -31 -88 -78t-22 -119q0 -106 67 -156t178 -51zM906 -16q-56 0 -94 36t-38 107v37h-6q-135 -190 -383 -191q-152 0 -245 77t-93 218
q0 180 128 250q65 35 131 50q66 16 210 30q146 14 201 37t55 94v37q0 229 -266 229q-297 0 -320 -237h-102q33 324 422 323q367 0 366 -321v-623q0 -74 68 -74q18 0 49 11h6v-74q-33 -16 -89 -16z" />
    <glyph glyph-name="aring" unicode="&#xe5;" horiz-adv-x="1007" 
d="M512 1247q43 0 72 31t28 76q0 45 -28 76q-29 30 -72 30t-72 -30q-28 -30 -28 -76q0 -45 28 -76t72 -31zM512 1180q-74 0 -126 51t-52 123t52 123t126 51t126 -51t52 -123t-52 -123t-126 -51zM395 57q173 1 275 97t102 223v196q-78 -39 -263 -60t-249 -52q-65 -31 -88 -78
t-22 -119q0 -106 67 -156t178 -51zM906 -16q-56 0 -94 36t-38 107v37h-6q-135 -190 -383 -191q-152 0 -245 77t-93 218q0 180 128 250q65 35 131 50q66 16 210 30q146 14 201 37t55 94v37q0 229 -266 229q-297 0 -320 -237h-102q33 324 422 323q367 0 366 -321v-623
q0 -74 68 -74q18 0 49 11h6v-74q-33 -16 -89 -16z" />
    <glyph glyph-name="ae" unicode="&#xe6;" horiz-adv-x="1724" 
d="M1571 600q-4 172 -85 284t-245 112t-257 -110q-93 -108 -110 -286h697zM418 59q162 -1 258 95t96 223v198q-78 -39 -295 -63q-86 -10 -132 -19t-98 -34q-99 -48 -97 -191q0 -106 74 -158t194 -51zM1249 61q246 0 322 254h96q-35 -157 -141 -249t-277 -93q-295 0 -415 250
h-3q-121 -250 -419 -250q-162 0 -264 79q-101 79 -101 220q0 201 177 271q81 32 241 51q197 18 252 41t55 94v29q0 238 -270 238t-301 -238h-101q20 156 124 240t286 83q291 0 344 -229q121 229 387 229q170 0 279 -102q157 -146 153 -461h-801q2 -203 96 -330t281 -127z
" />
    <glyph glyph-name="ccedilla" unicode="&#xe7;" horiz-adv-x="966" 
d="M629 -236q-1 -66 -55 -103q-54 -38 -150 -38t-174 45l26 51q74 -27 138 -26q117 0 116 76q0 59 -88 59q-33 0 -80 -14l-26 45l121 118q-197 18 -301 168q-104 151 -104 391t120 393q121 153 342 152q168 0 276 -85t132 -242h-99q-49 242 -309 241q-182 0 -271 -131
t-89 -336q0 -206 90 -336t268 -131q135 0 223 82t105 215h94q-20 -166 -120 -269t-265 -114l-84 -77v-4q72 4 118 -30t46 -100z" />
    <glyph glyph-name="egrave" unicode="&#xe8;" horiz-adv-x="1005" 
d="M592 1204h-90l-207 260h141zM852 600q-4 172 -85 284t-245 112t-257 -110q-93 -108 -109 -286h696zM530 61q246 0 322 254h96q-35 -157 -141 -249t-277 -93q-227 0 -353 153q-126 152 -126 400t128 402t343 153q170 0 279 -102q157 -146 153 -461h-800q2 -203 96 -330
t280 -127z" />
    <glyph glyph-name="eacute" unicode="&#xe9;" horiz-adv-x="1005" 
d="M434 1204l156 260h141l-207 -260h-90zM852 600q-4 172 -85 284t-245 112t-257 -110q-93 -108 -109 -286h696zM530 61q246 0 322 254h96q-35 -157 -141 -249t-277 -93q-227 0 -353 153q-126 152 -126 400t128 402t343 153q170 0 279 -102q157 -146 153 -461h-800
q2 -203 96 -330t280 -127z" />
    <glyph glyph-name="ecircumflex" unicode="&#xea;" horiz-adv-x="1005" 
d="M289 1212l164 218h127l163 -218h-116l-111 156h-4l-113 -156h-110zM852 600q-4 172 -85 284t-245 112t-257 -110q-93 -108 -109 -286h696zM530 61q246 0 322 254h96q-35 -157 -141 -249t-277 -93q-227 0 -353 153q-126 152 -126 400t128 402t343 153q170 0 279 -102
q157 -146 153 -461h-800q2 -203 96 -330t280 -127z" />
    <glyph glyph-name="edieresis" unicode="&#xeb;" horiz-adv-x="1005" 
d="M621 1300v164h100v-164h-100zM311 1300v164h101v-164h-101zM852 600q-4 172 -85 284t-245 112t-257 -110q-93 -108 -109 -286h696zM530 61q246 0 322 254h96q-35 -157 -141 -249t-277 -93q-227 0 -353 153q-126 152 -126 400t128 402t343 153q170 0 279 -102
q157 -146 153 -461h-800q2 -203 96 -330t280 -127z" />
    <glyph glyph-name="igrave" unicode="&#xec;" horiz-adv-x="317" 
d="M205 1204h-88l-164 260h133zM109 0v1059h100v-1059h-100z" />
    <glyph glyph-name="iacute" unicode="&#xed;" horiz-adv-x="317" 
d="M117 1204l119 260h133l-164 -260h-88zM109 0v1059h100v-1059h-100z" />
    <glyph glyph-name="icircumflex" unicode="&#xee;" horiz-adv-x="317" 
d="M-37 1212l131 218h127l131 -218h-106l-88 154h-4l-91 -154h-100zM109 0v1059h100v-1059h-100z" />
    <glyph glyph-name="idieresis" unicode="&#xef;" horiz-adv-x="317" 
d="M213 1300v164h100v-164h-100zM4 1300v164h100v-164h-100zM109 0v1059h100v-1059h-100z" />
    <glyph glyph-name="eth" unicode="&#xf0;" horiz-adv-x="1052" 
d="M526 59q176 -1 274 133t99 338q0 204 -98 336q-99 131 -275 131t-274 -133t-98 -336t98 -336t274 -133zM527 -27q-220 0 -348 156q-128 157 -128 399t130 398t333 156t330 -156h2q-72 186 -215 340l-275 -111l-28 64l250 100q-66 59 -177 145h131q80 -55 138 -108l207 84
l26 -64l-180 -73q279 -291 278 -752q0 -262 -127 -420t-347 -158z" />
    <glyph glyph-name="ntilde" unicode="&#xf1;" horiz-adv-x="993" 
d="M637 1229q-53 0 -137 44t-109 44t-44 -23t-21 -61h-86q8 84 48 128t94 44t135 -44t108 -44q27 1 46 23t21 61h86q-6 -82 -47 -127t-94 -45zM203 1059v-178h4q123 199 368 198q141 0 233 -85t91 -238v-756h-100v745q0 248 -242 248q-143 0 -249 -89t-105 -220v-684h-101
v1059h101z" />
    <glyph glyph-name="ograve" unicode="&#xf2;" horiz-adv-x="1052" 
d="M602 1204h-90l-207 260h141zM526 59q176 -1 274 133t99 336q0 202 -98 336q-99 133 -275 133t-274 -133t-98 -336t98 -336t274 -133zM526 -27q-219 0 -347 156q-128 155 -128 399t128 399t347 155t347 -154t128 -400t-128 -400t-347 -155z" />
    <glyph glyph-name="oacute" unicode="&#xf3;" horiz-adv-x="1052" 
d="M444 1204l156 260h141l-206 -260h-91zM526 59q176 -1 274 133t99 336q0 202 -98 336q-99 133 -275 133t-274 -133t-98 -336t98 -336t274 -133zM526 -27q-219 0 -347 156q-128 155 -128 399t128 399t347 155t347 -154t128 -400t-128 -400t-347 -155z" />
    <glyph glyph-name="ocircumflex" unicode="&#xf4;" horiz-adv-x="1052" 
d="M299 1212l164 218h127l164 -218h-117l-111 156h-4l-112 -156h-111zM526 59q176 -1 274 133t99 336q0 202 -98 336q-99 133 -275 133t-274 -133t-98 -336t98 -336t274 -133zM526 -27q-219 0 -347 156q-128 155 -128 399t128 399t347 155t347 -154t128 -400t-128 -400
t-347 -155z" />
    <glyph glyph-name="otilde" unicode="&#xf5;" horiz-adv-x="1052" 
d="M655 1229q-53 0 -137 44t-108 44t-44 -23q-19 -23 -22 -61h-86q8 84 48 128t94 44t136 -44t108 -44q26 1 45 23t22 61h86q-5 -82 -47 -127t-95 -45zM526 59q176 -1 274 133t99 336q0 202 -98 336q-99 133 -275 133t-274 -133t-98 -336t98 -336t274 -133zM526 -27
q-219 0 -347 156q-128 155 -128 399t128 399t347 155t347 -154t128 -400t-128 -400t-347 -155z" />
    <glyph glyph-name="odieresis" unicode="&#xf6;" horiz-adv-x="1052" 
d="M631 1300v164h100v-164h-100zM322 1300v164h100v-164h-100zM526 59q176 -1 274 133t99 336q0 202 -98 336q-99 133 -275 133t-274 -133t-98 -336t98 -336t274 -133zM526 -27q-219 0 -347 156q-128 155 -128 399t128 399t347 155t347 -154t128 -400t-128 -400t-347 -155z
" />
    <glyph glyph-name="divide" unicode="&#xf7;" horiz-adv-x="1044" 
d="M459 930v153h125v-153h-125zM459 252v154h125v-154h-125zM115 621v94h815v-94h-815z" />
    <glyph glyph-name="oslash" unicode="&#xf8;" horiz-adv-x="1052" 
d="M533 59q169 -1 267 133t99 321q0 187 -70 306l-565 -643q100 -117 269 -117zM154 542q0 -188 69 -306l565 643q-102 119 -270 119t-266 -134t-98 -322zM1001 514q0 -232 -128 -386t-338 -155q-210 0 -334 129l-117 -133l-53 47l125 142q-104 146 -104 380t127 389
q128 155 338 155t335 -130l117 133l53 -47l-125 -143q104 -149 104 -381z" />
    <glyph glyph-name="ugrave" unicode="&#xf9;" horiz-adv-x="980" 
d="M567 1204h-90l-207 260h142zM195 313q0 -250 258 -252q139 1 232 95t93 233v670h101v-1059h-101v162h-4q-59 -88 -138 -137q-80 -49 -216 -49t-231 86q-95 87 -95 241v756h101v-746z" />
    <glyph glyph-name="uacute" unicode="&#xfa;" horiz-adv-x="980" 
d="M410 1204l155 260h142l-207 -260h-90zM195 313q0 -250 258 -252q139 1 232 95t93 233v670h101v-1059h-101v162h-4q-59 -88 -138 -137q-80 -49 -216 -49t-231 86q-95 87 -95 241v756h101v-746z" />
    <glyph glyph-name="ucircumflex" unicode="&#xfb;" horiz-adv-x="980" 
d="M264 1212l164 218h127l164 -218h-117l-110 156h-5l-112 -156h-111zM195 313q0 -250 258 -252q139 1 232 95t93 233v670h101v-1059h-101v162h-4q-59 -88 -138 -137q-80 -49 -216 -49t-231 86q-95 87 -95 241v756h101v-746z" />
    <glyph glyph-name="udieresis" unicode="&#xfc;" horiz-adv-x="980" 
d="M596 1300v164h100v-164h-100zM287 1300v164h100v-164h-100zM195 313q0 -250 258 -252q139 1 232 95t93 233v670h101v-1059h-101v162h-4q-59 -88 -138 -137q-80 -49 -216 -49t-231 86q-95 87 -95 241v756h101v-746z" />
    <glyph glyph-name="yacute" unicode="&#xfd;" horiz-adv-x="931" 
d="M391 1204l156 260h141l-207 -260h-90zM197 -350q-35 0 -80 12v90h4q41 -10 84 -10q137 0 190 154l31 88l-406 1075h105l258 -701l92 -264h4q49 158 86 264l246 701h102l-426 -1186q-45 -125 -112 -174t-178 -49z" />
    <glyph glyph-name="thorn" unicode="&#xfe;" horiz-adv-x="1056" 
d="M557 61q170 -1 258 133t88 342t-89 333q-89 126 -256 126t-266 -132t-99 -342t97 -335t267 -125zM102 -340v1804h101v-608h4q119 225 371 225q190 0 309 -146q119 -147 119 -397t-118 -406t-319 -155q-240 0 -362 197h-4v-514h-101z" />
    <glyph glyph-name="ydieresis" unicode="&#xff;" horiz-adv-x="931" 
d="M578 1300v164h100v-164h-100zM268 1300v164h101v-164h-101zM197 -350q-35 0 -80 12v90h4q41 -10 84 -10q137 0 190 154l31 88l-406 1075h105l258 -701l92 -264h4q49 158 86 264l246 701h102l-426 -1186q-45 -125 -112 -174t-178 -49z" />
    <glyph glyph-name="dotlessi" unicode="&#x131;" horiz-adv-x="317" 
d="M109 0v1059h100v-1059h-100z" />
    <glyph glyph-name="IJ" unicode="&#x132;" horiz-adv-x="1292" 
d="M1171 336q0 -160 -95 -262q-96 -102 -284 -101t-292 101t-105 303v78h105v-74q0 -166 74 -239q74 -72 214 -72q276 1 277 274v1120h106v-1128zM135 0v1464h107v-1464h-107z" />
    <glyph glyph-name="ij" unicode="&#x133;" horiz-adv-x="634" 
d="M426 1300v164h100v-164h-100zM287 -340v86h20q61 0 90 32t29 101v1180h100v-1182q0 -115 -52 -166t-161 -51h-26zM109 1300v164h100v-164h-100zM109 0v1059h100v-1059h-100z" />
    <glyph glyph-name="Lslash" unicode="&#x141;" horiz-adv-x="1114" 
d="M168 1464h106v-798l555 295v-99l-555 -295v-469h789v-98h-895v510l-178 -94v98l178 94v856z" />
    <glyph glyph-name="lslash" unicode="&#x142;" horiz-adv-x="399" 
d="M150 1464h100v-555l153 131v-108l-153 -131v-801h-100v715l-140 -119v109l140 118v641z" />
    <glyph glyph-name="napostrophe" unicode="&#x149;" horiz-adv-x="993" 
d="M203 1059v-178h4q123 199 368 198q141 0 233 -85t91 -238v-756h-100v745q0 248 -242 248q-143 0 -249 -89t-105 -220v-684h-101v1059h101zM51 1307v6h-53v151h121v-149q0 -152 -125 -172v59q57 27 57 105z" />
    <glyph glyph-name="OE" unicode="&#x152;" horiz-adv-x="2244" 
d="M725 70q211 0 353 139t143 354v367q-9 201 -149 334t-347 133q-258 1 -401 -189q-144 -190 -144 -475t144 -474t401 -189zM727 -27q-295 0 -476 215t-181 545t181 545t476 215q338 0 494 -283v254h929v-94h-823v-569h774v-92h-774v-611h844v-98h-950v252
q-164 -279 -494 -279z" />
    <glyph glyph-name="oe" unicode="&#x153;" horiz-adv-x="1853" 
d="M1700 600q-4 172 -85 284t-245 112t-257 -110q-93 -108 -109 -286h696zM526 59q176 -1 274 133t99 336q0 202 -98 336q-99 133 -275 133t-274 -133t-98 -336t98 -336t274 -133zM526 -27q-219 0 -347 156q-128 155 -128 399t128 399t347 154q156 0 265 -81t159 -222
q51 143 160 223q110 80 270 80t269 -102q158 -145 153 -461h-801q3 -203 97 -330t280 -127q246 0 322 254h96q-35 -157 -141 -249q-107 -92 -273 -92t-274 79q-108 80 -158 221q-52 -141 -160 -221t-264 -80z" />
    <glyph glyph-name="Scaron" unicode="&#x160;" horiz-adv-x="1189" 
d="M840 1747l-193 -207h-127l-192 207h121l135 -145h4l137 145h115zM598 -27q-246 -1 -392 135t-159 355h109q8 -183 132 -289t312 -106t299 88t111 240t-94 215t-344 109t-361 130t-111 256t134 280t352 107q218 0 345 -112q128 -112 144 -296h-106q-15 150 -119 232
t-271 82t-269 -81t-101 -210q0 -129 89 -189t316 -102q311 -57 410 -156q98 -98 96 -258q0 -188 -138 -309t-384 -121z" />
    <glyph glyph-name="scaron" unicode="&#x161;" horiz-adv-x="886" 
d="M674 1430l-164 -218h-127l-164 218h117l110 -156h5l112 156h111zM838 287q0 -137 -102 -225t-292 -89q-188 -1 -294 99t-115 247h102q10 -127 95 -193q86 -66 220 -67t210 61t76 158t-58 139q-56 44 -240 87t-277 104q-93 60 -93 190t102 207t258 76q334 0 377 -301h-98
q-10 100 -84 156t-197 57q-122 0 -190 -53t-68 -139t69 -126t249 -83q180 -44 264 -106q86 -62 86 -199z" />
    <glyph glyph-name="Ydieresis" unicode="&#x178;" horiz-adv-x="1185" 
d="M696 1546v164h101v-164h-101zM387 1546v164h100v-164h-100zM539 0v651l-529 813h117l465 -716h4l465 716h115l-531 -817v-647h-106z" />
    <glyph glyph-name="Zcaron" unicode="&#x17d;" horiz-adv-x="1173" 
d="M858 1747l-192 -207h-127l-193 207h121l135 -145h4l137 145h115zM49 0v104l905 1262v6h-848v92h973v-98l-907 -1266v-6h940v-94h-1063z" />
    <glyph glyph-name="zcaron" unicode="&#x17e;" horiz-adv-x="882" 
d="M692 1430l-164 -218h-127l-163 218h116l111 -156h4l113 156h110zM49 0v92l639 873v6h-594v88h721v-84l-645 -881v-6h661v-88h-782z" />
    <glyph glyph-name="florin" unicode="&#x192;" horiz-adv-x="673" 
d="M90 727v84h180l54 373q31 219 235 219h78v-88h-78q-69 0 -97 -34t-38 -105l-51 -365h202v-84h-215l-116 -825q-14 -109 -74 -157t-172 -48h-31v88h31q127 0 145 125l115 817h-168z" />
    <glyph glyph-name="circumflex" unicode="&#x2c6;" 
d="M285 1212l164 218h126l164 -218h-116l-111 156h-4l-113 -156h-110z" />
    <glyph glyph-name="caron" unicode="&#x2c7;" 
d="M739 1430l-164 -218h-126l-164 218h116l111 -156h4l113 156h110z" />
    <glyph glyph-name="uni02C9" unicode="&#x2c9;" 
d="M264 1290v101h496v-101h-496z" />
    <glyph glyph-name="breve" unicode="&#x2d8;" 
d="M551 1206q-102 0 -169 62t-73 155h94q11 -55 49 -88t99 -33t99 34q38 32 48 87h95q-6 -93 -73 -155t-169 -62z" />
    <glyph glyph-name="dotaccent" unicode="&#x2d9;" horiz-adv-x="1064" 
d="M481 1300v164h101v-164h-101z" />
    <glyph glyph-name="ring" unicode="&#x2da;" horiz-adv-x="1042" 
d="M520 1247q43 0 72 31t29 76t-29 76q-29 30 -72 30q-44 0 -72 -30t-28 -76q0 -45 28 -76t72 -31zM520 1180q-74 0 -126 51t-52 123t52 123t126 51t126 -51t52 -123t-52 -123t-126 -51z" />
    <glyph glyph-name="ogonek" unicode="&#x2db;" 
d="M590 -256v-72q-49 -30 -128 -30t-123 39t-44 103t49 122t119 94h104q-170 -117 -170 -209q0 -70 84 -70q48 0 103 23h6z" />
    <glyph glyph-name="tilde" unicode="&#x2dc;" 
d="M639 1229q-53 0 -137 44t-109 44t-44 -23t-21 -61h-86q8 84 48 128t94 44t135 -44t108 -44q27 1 46 23t21 61h86q-6 -82 -47 -127t-94 -45z" />
    <glyph glyph-name="hungarumlaut" unicode="&#x2dd;" 
d="M580 1204l82 260h122l-116 -260h-88zM315 1204l82 260h123l-117 -260h-88z" />
    <glyph glyph-name="uni0394" unicode="&#x394;" horiz-adv-x="1277" 
d="M559 1141l-403 -1051h964l-401 1051l-80 217h-4q-41 -125 -76 -217zM45 0v84l533 1380h120l535 -1380v-84h-1188z" />
    <glyph glyph-name="uni03A9" unicode="&#x3a9;" horiz-adv-x="1413" 
d="M180 760q0 -224 110 -406t302 -256v-98h-514v94h352v4q-166 86 -263 261t-97 401q0 326 175 530t460 203q285 0 461 -204t177 -529q0 -224 -97 -400t-263 -262v-4h352v-94h-514v98q199 72 305 252t106 436t-138 433q-139 178 -389 178q-249 0 -387 -177t-138 -460z" />
    <glyph glyph-name="uni03BC" unicode="&#x3bc;" horiz-adv-x="989" 
d="M203 313q0 -250 258 -252q139 1 232 95t93 233v670h101v-1059h-101v162h-4q-59 -88 -138 -137t-202 -50q-158 0 -235 111h-4v-426h-101v1399h101v-746z" />
    <glyph glyph-name="pi" unicode="&#x3c0;" horiz-adv-x="1144" 
d="M1075 1059v-84h-166v-795q0 -57 24 -80q24 -22 74 -22t83 18h6v-86q-49 -18 -107 -18q-180 0 -180 180v803h-504v-975h-100v975h-168v84h1038z" />
    <glyph glyph-name="uni2009" unicode="&#x2009;" horiz-adv-x="112" 
 />
    <glyph glyph-name="endash" unicode="&#x2013;" 
d="M0 477v88h1024v-88h-1024z" />
    <glyph glyph-name="emdash" unicode="&#x2014;" horiz-adv-x="2048" 
d="M205 477v88h1638v-88h-1638z" />
    <glyph glyph-name="quoteleft" unicode="&#x2018;" horiz-adv-x="292" 
d="M86 1118v174q0 156 125 176v-59q-57 -27 -57 -109v-26h53v-156h-121z" />
    <glyph glyph-name="quoteright" unicode="&#x2019;" horiz-adv-x="292" 
d="M139 1282v27h-53v155h121v-174q0 -156 -125 -176v60q57 27 57 108z" />
    <glyph glyph-name="quotesinglbase" unicode="&#x201a;" horiz-adv-x="292" 
d="M139 -27v27h-53v156h121v-174q0 -157 -125 -177v60q57 27 57 108z" />
    <glyph glyph-name="quotedblleft" unicode="&#x201c;" horiz-adv-x="524" 
d="M317 1118v174q0 156 125 176v-59q-57 -27 -57 -109v-26h53v-156h-121zM86 1118v174q0 156 125 176v-59q-57 -27 -57 -109v-26h53v-156h-121z" />
    <glyph glyph-name="quotedblright" unicode="&#x201d;" horiz-adv-x="524" 
d="M139 1282v27h-53v155h121v-174q0 -156 -125 -176v60q57 27 57 108zM371 1309h-54v155h121v-174q0 -156 -125 -176v60q57 27 58 108v27z" />
    <glyph glyph-name="quotedblbase" unicode="&#x201e;" horiz-adv-x="524" 
d="M139 -27v27h-53v156h121v-174q0 -157 -125 -177v60q57 27 57 108zM371 0h-54v156h121v-174q0 -157 -125 -177v60q57 27 58 108v27z" />
    <glyph glyph-name="dagger" unicode="&#x2020;" horiz-adv-x="1015" 
d="M80 965v88h377v411h102v-411h377v-88h-377v-1178h-102v1178h-377z" />
    <glyph glyph-name="daggerdbl" unicode="&#x2021;" horiz-adv-x="1015" 
d="M559 1464v-411h377v-88h-377v-678h377v-88h-377v-412h-102v412h-377v88h377v678h-377v88h377v411h102z" />
    <glyph glyph-name="bullet" unicode="&#x2022;" horiz-adv-x="567" 
d="M489 666q0 -84 -60 -144t-145 -61q-85 0 -146 60q-60 61 -60 145t60 145t146 61t145 -61q60 -61 60 -145z" />
    <glyph glyph-name="ellipsis" unicode="&#x2026;" horiz-adv-x="1042" 
d="M459 0v162h125v-162h-125zM834 0v162h124v-162h-124zM84 0v162h125v-162h-125z" />
    <glyph glyph-name="perthousand" unicode="&#x2030;" horiz-adv-x="2301" 
d="M336 0l811 1403h94l-811 -1403h-94zM372 1352q-90 0 -148 -79t-58 -235t60 -236t148 -81q89 0 147 79q59 78 59 234t-60 237t-148 81zM1930 53q89 0 148 79q58 79 58 235q0 157 -59 237t-149 80t-147 -79q-59 -79 -59 -235t60 -236q60 -81 148 -81zM1205 53q89 0 148 79
q58 79 58 235q0 157 -59 237q-58 80 -148 80t-148 -79t-58 -235t58 -236q60 -81 149 -81zM1929 -27q-131 -1 -217 105t-86 292t87 289q87 105 216 105t216 -104t87 -289q0 -186 -86 -292t-217 -106zM1204 -27q-131 -1 -217 105t-86 292t87 289q87 105 216 105t216 -104
t87 -289q0 -186 -86 -292t-217 -106zM373 641q-131 0 -217 105q-86 104 -86 290t87 290t216 106q129 0 216 -104t87 -290t-86 -292t-217 -105z" />
    <glyph glyph-name="uni2032" unicode="&#x2032;" horiz-adv-x="350" 
d="M80 1026l90 438h100l-90 -438h-100z" />
    <glyph glyph-name="uni2033" unicode="&#x2033;" horiz-adv-x="606" 
d="M80 1026l90 438h100l-90 -438h-100zM336 1026l90 438h100l-90 -438h-100z" />
    <glyph glyph-name="guilsinglleft" unicode="&#x2039;" horiz-adv-x="520" 
d="M397 258l-274 229v138l274 229v-127l-211 -170v-4l211 -168v-127z" />
    <glyph glyph-name="guilsinglright" unicode="&#x203a;" horiz-adv-x="520" 
d="M123 854l274 -229v-138l-274 -229v127l211 170v4l-211 168v127z" />
    <glyph glyph-name="fraction" unicode="&#x2044;" horiz-adv-x="395" 
d="M-381 0l1049 1464h108l-1048 -1464h-109z" />
    <glyph glyph-name="zero.superior" unicode="&#x2070;" horiz-adv-x="770" 
d="M387 715q215 0 215 342q0 164 -55 254t-161 90t-162 -89t-56 -254t56 -254t163 -89zM385 633q-151 -1 -233 113t-82 311t86 311t230 113q144 0 229 -113q85 -112 85 -310t-82 -312t-233 -113z" />
    <glyph glyph-name="four.superior" unicode="&#x2074;" horiz-adv-x="692" 
d="M129 928h295v405h-2l-293 -401v-4zM424 649v203h-379v92l383 529h88v-545h123v-76h-123v-203h-92z" />
    <glyph glyph-name="five.superior" unicode="&#x2075;" horiz-adv-x="679" 
d="M339 633q-120 1 -197 65t-85 170h95q20 -154 182 -153q86 0 134 54t48 143q0 88 -49 140t-127 52q-119 0 -170 -76h-88l70 436h421v-82h-354l-41 -260h2q72 62 178 62t180 -73t74 -198t-76 -203t-197 -77z" />
    <glyph glyph-name="six.superior" unicode="&#x2076;" horiz-adv-x="729" 
d="M382 713q85 0 137 53t52 139q0 85 -54 141t-138 56t-142 -54q-59 -54 -59 -140t60 -140q60 -55 144 -55zM383 633q-121 0 -199 72q-115 104 -114 356q0 193 81 307t232 113q115 0 181 -65t77 -161h-94q-6 61 -50 105t-110 43q-219 0 -225 -336h6q78 115 225 115
q115 0 191 -80t76 -194t-78 -194t-199 -81z" />
    <glyph glyph-name="seven.superior" unicode="&#x2077;" horiz-adv-x="636" 
d="M494 1382h-447v82h545v-80q-125 -126 -210 -318t-103 -417h-97q10 205 100 404q89 199 212 327v2z" />
    <glyph glyph-name="eight.superior" unicode="&#x2078;" horiz-adv-x="722" 
d="M199 1270q-1 -62 41 -102t119 -40t121 40t44 102t-43 101q-43 40 -120 40t-119 -40t-43 -101zM360 713q92 0 147 48q54 48 54 124t-53 124q-52 48 -146 48t-147 -48t-53 -125t53 -124t145 -47zM657 885q0 -119 -84 -183t-210 -65q-125 -1 -211 65t-86 181q0 156 155 213
v4q-117 51 -117 174q0 94 73 152t185 58t184 -58q71 -58 70 -150q0 -123 -118 -174v-4q72 -23 116 -80t43 -133z" />
    <glyph glyph-name="nine.superior" unicode="&#x2079;" horiz-adv-x="731" 
d="M355 1012q87 0 142 53q54 53 55 139t-58 144q-58 58 -142 57q-84 0 -138 -55q-54 -54 -54 -142t54 -142t141 -54zM662 1063q0 -430 -304 -430q-120 0 -196 63t-86 174h96q6 -70 55 -114t134 -43q85 0 135 55q68 74 73 266h-4q-78 -102 -208 -102t-209 79q-80 79 -80 193
t80 196q81 81 201 81t192 -60q69 -53 95 -138t26 -220z" />
    <glyph glyph-name="zero.inferior" unicode="&#x2080;" horiz-adv-x="770" 
d="M387 -242q215 0 215 342q0 164 -55 254t-161 90t-162 -89t-56 -254t56 -254t163 -89zM385 -324q-151 0 -233 114t-82 310t86 311q86 113 230 113t229 -112t85 -311q0 -197 -82 -311t-233 -114z" />
    <glyph glyph-name="one.inferior" unicode="&#x2081;" horiz-adv-x="528" 
d="M248 -307v604h-180v65q92 2 139 36t59 116h76v-821h-94z" />
    <glyph glyph-name="two.inferior" unicode="&#x2082;" horiz-adv-x="681" 
d="M352 444q-78 0 -126 -51t-50 -149h-90q0 135 75 208q75 72 193 72t189 -68q69 -68 69 -185q0 -116 -103 -195q-45 -35 -110 -75q-105 -65 -156 -109t-65 -119h430v-80h-545q4 142 88 224q87 89 255 189q54 32 65 49q9 17 27 44t18 93q0 68 -43 110t-121 42z" />
    <glyph glyph-name="three.inferior" unicode="&#x2083;" horiz-adv-x="696" 
d="M629 -82q0 -114 -78 -178t-205 -64t-209 74t-80 197h95q2 -91 54 -141t140 -50t136 44t48 123t-48 121t-136 42h-57v76h55q76 0 118 39t42 105t-43 106q-43 39 -119 39q-76 1 -121 -51t-47 -134h-90q2 117 73 188q71 70 187 70t184 -58q70 -58 70 -159q0 -131 -123 -176
v-4q154 -45 154 -209z" />
    <glyph glyph-name="four.inferior" unicode="&#x2084;" horiz-adv-x="692" 
d="M129 -29h295v406h-2l-293 -402v-4zM424 -307v203h-379v92l383 528h88v-545h123v-75h-123v-203h-92z" />
    <glyph glyph-name="five.inferior" unicode="&#x2085;" horiz-adv-x="679" 
d="M339 -324q-120 0 -197 65t-85 171h95q20 -154 182 -154q86 0 134 54t48 144q0 89 -49 140t-127 51q-119 0 -170 -75h-88l70 436h421v-82h-354l-41 -260h2q72 61 178 61t181 -72q73 -73 73 -198t-76 -203t-197 -78z" />
    <glyph glyph-name="six.inferior" unicode="&#x2086;" horiz-adv-x="729" 
d="M382 -244q85 0 137 54t52 139q0 86 -54 141t-138 55t-142 -54q-59 -54 -59 -139q0 -84 60 -140t144 -56zM383 -324q-121 0 -199 72q-115 104 -114 356q0 193 81 307t232 113q115 0 181 -64t77 -161h-94q-6 61 -50 104t-110 43q-219 0 -225 -335h6q78 115 225 114
q115 0 191 -80q76 -79 76 -193t-78 -195t-199 -81z" />
    <glyph glyph-name="seven.inferior" unicode="&#x2087;" horiz-adv-x="636" 
d="M494 426h-447v82h545v-80q-125 -126 -210 -318t-103 -417h-97q10 205 100 403t212 328v2z" />
    <glyph glyph-name="eight.inferior" unicode="&#x2088;" horiz-adv-x="722" 
d="M524 313q0 61 -43 101t-120 41q-77 0 -119 -40q-42 -39 -43 -101t41 -102t119 -40t121 40t44 101zM360 -244q92 0 147 48q54 48 54 124t-53 124q-52 48 -146 48t-147 -48t-53 -125t53 -124t145 -47zM363 -319q-125 -1 -211 65t-86 180q0 156 155 213v4q-117 51 -117 174
q0 95 73 153t185 58t184 -58q71 -58 70 -151q0 -123 -118 -174v-4q72 -23 116 -80t43 -133q0 -119 -84 -183t-210 -64z" />
    <glyph glyph-name="nine.inferior" unicode="&#x2089;" horiz-adv-x="731" 
d="M160 251q0 -87 54 -141t141 -55t141 53t56 140q1 86 -58 143q-58 57 -142 57t-138 -54q-54 -56 -54 -143zM662 106q0 -430 -307 -430q-117 0 -193 64t-86 174h96q6 -70 55 -114t134 -44q200 0 208 322h-4q-78 -102 -208 -102t-209 78q-80 79 -80 195q0 115 80 195t201 80
q120 0 192 -59q69 -53 95 -138t26 -221z" />
    <glyph glyph-name="Euro" unicode="&#x20ac;" horiz-adv-x="1228" 
d="M45 782v84h141q33 260 165 413t341 153q174 0 290 -108t148 -304h-102q-59 322 -336 321q-176 0 -274 -127t-125 -348h442v-84h-448q-2 -27 -2 -84t2 -84h448v-84h-440q27 -215 125 -340q98 -124 266 -124t261 122t112 322h100q-16 -246 -141 -391t-332 -145t-337 149
q-130 150 -163 407h-141v84h133q-2 27 -2 84t2 84h-133z" />
    <glyph glyph-name="afii61289" unicode="&#x2113;" horiz-adv-x="620" 
d="M457 1204q0 109 -26 153t-75 44q-106 0 -106 -170v-711q207 181 207 684zM549 1204q0 -580 -299 -780v-193q0 -81 26 -117t100 -36q73 0 116 33h6v-86q-58 -33 -150 -33t-145 54t-53 175v148q-57 -25 -111 -35v82q70 20 111 39v776q0 115 52 183t154 67q193 -1 193 -277z
" />
    <glyph glyph-name="trademark" unicode="&#x2122;" horiz-adv-x="1298" 
d="M70 1391v73h462v-73h-190v-512h-82v512h-190zM631 879v585h121l161 -483h2l158 483h123v-585h-78v485h-4q-35 -113 -63 -199l-97 -286h-82l-96 286l-63 199h-4v-485h-78z" />
    <glyph glyph-name="Omega" unicode="&#x2126;" horiz-adv-x="1413" 
d="M180 760q0 -224 110 -406t302 -256v-98h-514v94h352v4q-166 86 -263 261t-97 401q0 326 175 530t460 203q285 0 461 -204t177 -529q0 -224 -97 -400t-263 -262v-4h352v-94h-514v98q199 72 305 252t106 436t-138 433q-139 178 -389 178q-249 0 -387 -177t-138 -460z" />
    <glyph glyph-name="estimated" unicode="&#x212e;" horiz-adv-x="1271" 
d="M646 1212q-200 0 -318 -125v-401h620v428q-102 98 -302 98zM328 616v-440q121 -121 342 -121q346 0 446 326h86q-41 -182 -178 -293t-354 -111q-287 1 -449 181t-162 471t168 473t432 182q211 0 355 -121q200 -170 196 -547h-882z" />
    <glyph glyph-name="onethird" unicode="&#x2153;" horiz-adv-x="1603" 
d="M1243 -16q-127 0 -209 74t-80 196h95q2 -92 54 -141t140 -49t136 44t48 122t-48 121q-48 42 -136 42h-57v76h55q76 0 118 39q42 40 42 106t-43 105t-119 39t-121 -51t-47 -134h-90q2 117 73 188q70 71 186 71t186 -59q70 -58 69 -159q0 -131 -123 -176v-4
q154 -45 154 -209q0 -113 -78 -177t-205 -64zM123 0l1048 1464h109l-1049 -1464h-108zM258 649v604h-180v66q92 2 139 36t59 115h76v-821h-94z" />
    <glyph glyph-name="twothirds" unicode="&#x2154;" horiz-adv-x="1697" 
d="M285 0l1048 1464h109l-1049 -1464h-108zM362 1401q-78 0 -125 -51q-48 -51 -51 -150h-90q0 135 75 208t194 73t189 -69t69 -185q0 -116 -104 -195q-45 -35 -110 -75t-87 -54q-78 -51 -102 -94q-25 -43 -32 -80h430v-80h-544q4 143 83 221t216 163q37 24 44 29t34 24
q27 18 33 30t24 39t18 93q0 67 -43 110t-121 43zM1337 -16q-127 0 -209 74t-79 196h94q2 -92 54 -141t140 -49q89 0 137 44t48 122t-48 121q-48 42 -137 42h-57v76h55q76 0 118 39q42 40 42 106t-43 105t-119 39t-121 -51t-47 -134h-90q2 117 73 188q70 71 186 71t186 -59
q70 -58 69 -159q0 -131 -123 -176v-4q154 -45 154 -209q0 -113 -78 -177t-205 -64z" />
    <glyph glyph-name="oneeighth" unicode="&#x215b;" horiz-adv-x="1556" 
d="M1022 621q0 -61 42 -101t119 -41q77 0 121 40q44 39 44 101t-43 102t-120 40t-120 -40t-43 -101zM985 234q-1 -77 53 -124t146 -47q92 1 146 49t54 124t-53 123q-53 49 -146 49t-147 -48t-53 -126zM1481 236q0 -120 -84 -184t-210 -64t-212 66t-86 179q0 156 155 213v5
q-117 51 -116 174q0 94 72 152q73 59 186 59q114 0 184 -58t70 -151q0 -123 -119 -174v-4q72 -23 116 -80t44 -133zM102 0l1049 1464h109l-1049 -1464h-109zM258 649v604h-180v66q92 2 139 36t59 115h76v-821h-94z" />
    <glyph glyph-name="threeeighths" unicode="&#x215c;" horiz-adv-x="1705" 
d="M1171 621q0 -61 42 -101t119 -41q77 0 121 40q44 39 44 101t-43 102t-120 40t-120 -40t-43 -101zM1135 234q0 -77 53 -124t145 -47q93 1 147 49t54 124t-53 123q-53 49 -147 49t-146 -48q-53 -48 -53 -126zM1630 236q0 -120 -84 -184t-210 -64t-212 66t-86 179
q0 156 156 213v5q-117 51 -117 174q0 94 73 152q74 59 186 59t183 -58t70 -151q0 -123 -119 -174v-4q72 -23 116 -80t44 -133zM262 0l1049 1464h108l-1048 -1464h-109zM356 633q-127 0 -209 74t-79 196h94q2 -92 54 -141t140 -49t137 44q48 44 48 123q0 78 -48 120t-137 42
h-57v76h55q76 0 118 39t42 106t-43 105t-119 39q-76 0 -121 -51t-47 -133h-90q2 117 73 187t187 71q116 -1 185 -59q70 -58 69 -158q0 -131 -123 -177v-4q154 -47 154 -209q0 -113 -78 -177t-205 -64z" />
    <glyph glyph-name="fiveeighths" unicode="&#x215d;" horiz-adv-x="1679" 
d="M1145 621q0 -61 42 -101t119 -41q76 0 120 40q44 39 44 101t-43 102t-119 40t-120 -40q-43 -40 -43 -101zM1108 234q0 -77 54 -124t145 -47q92 1 146 49t54 124t-53 123q-53 49 -146 49q-92 0 -146 -48t-54 -126zM1604 236q0 -120 -84 -184t-210 -64t-212 66t-86 179
q0 156 155 213v5q-117 51 -116 174q0 94 72 152q73 59 186 59t183 -58t71 -151q0 -123 -119 -174v-4q72 -23 116 -80t44 -133zM250 0l1048 1464h109l-1049 -1464h-108zM623 913q0 -125 -77 -203t-197 -77q-121 1 -197 65t-84 170h94q20 -154 182 -153q86 0 134 54t48 143
q0 88 -49 140t-127 52q-119 0 -170 -76h-88l70 436h422v-82h-355l-41 -260h2q72 62 178 62t181 -73q74 -73 74 -198z" />
    <glyph glyph-name="seveneighths" unicode="&#x215e;" horiz-adv-x="1585" 
d="M1051 621q-1 -61 41 -101t119 -41q77 0 121 40q44 39 44 101t-43 102t-120 40t-119 -40t-43 -101zM1014 234q0 -77 53 -124t145 -47q92 1 146 49t55 124q0 76 -53 123q-52 49 -146 49t-147 -48t-53 -126zM504 1382h-447v82h545v-80q-125 -126 -210 -318t-103 -417h-96
q10 205 99 404t212 327v2zM104 0l1049 1464h109l-1049 -1464h-109zM1509 236q0 -120 -84 -184t-210 -64q-125 0 -211 66t-86 179q0 156 155 213v5q-117 51 -117 174q0 94 73 152q73 59 185 59t184 -58q71 -58 70 -151q0 -123 -118 -174v-4q72 -23 116 -80t43 -133z" />
    <glyph glyph-name="partialdiff" unicode="&#x2202;" horiz-adv-x="1013" 
d="M172 440q0 -154 77 -266t237 -113t258 139t98 320t-84 279q-84 100 -241 100t-251 -127t-94 -332zM952 629q0 -299 -122 -476t-349 -178q-193 0 -307 129q-114 128 -113 352q0 224 130 379q131 155 341 155t310 -179q-96 518 -590 575v89q160 -17 285 -75t201 -142
q214 -234 214 -629z" />
    <glyph glyph-name="Delta" unicode="&#x2206;" horiz-adv-x="1277" 
d="M559 1141l-403 -1051h964l-401 1051l-80 217h-4q-41 -125 -76 -217zM45 0v84l533 1380h120l535 -1380v-84h-1188z" />
    <glyph glyph-name="product" unicode="&#x220f;" horiz-adv-x="1302" 
d="M1059 1368h-815v-1573h-107v1669h1028v-1669h-106v1573z" />
    <glyph glyph-name="summation" unicode="&#x2211;" horiz-adv-x="1175" 
d="M1102 -205h-1016v82l645 793v4l-645 684v106h1016v-94h-887v-4l621 -659v-64l-621 -752v-4h887v-92z" />
    <glyph glyph-name="minus" unicode="&#x2212;" horiz-adv-x="1044" 
d="M115 621v94h815v-94h-815z" />
    <glyph glyph-name="uni2215" unicode="&#x2215;" horiz-adv-x="395" 
d="M-381 0l1049 1464h108l-1048 -1464h-109z" />
    <glyph glyph-name="uni2219" unicode="&#x2219;" horiz-adv-x="292" 
d="M84 555v162h125v-162h-125z" />
    <glyph glyph-name="radical" unicode="&#x221a;" horiz-adv-x="1134" 
d="M25 532v91h235l174 -445l94 -268h4q41 164 78 278l400 1276h102l-524 -1669h-113l-297 737h-153z" />
    <glyph glyph-name="infinity" unicode="&#x221e;" horiz-adv-x="1464" 
d="M1077 360q100 0 154 74q53 74 53 190t-53 190t-150 75q-97 0 -162 -78q-66 -78 -128 -188q53 -87 83 -133t86 -88t117 -42zM385 889q-101 0 -153 -75q-52 -74 -52 -190t52 -190t148 -74t163 67q66 67 143 196q-119 203 -209 245q-43 21 -92 21zM385 274q-151 0 -229 100
t-78 250q0 152 79 250t211 98t213 -68q81 -69 156 -191q76 125 153 193q78 68 204 67q126 0 210 -95t82 -253q0 -158 -82 -254q-82 -97 -210 -97t-204 68t-153 193q-77 -123 -157 -192t-195 -69z" />
    <glyph glyph-name="integral" unicode="&#x222b;" horiz-adv-x="755" 
d="M428 1274v-1389q0 -115 -63 -181t-164 -64q-66 0 -119 22v88h6q41 -22 103 -22t100 39q37 39 37 116v1389q0 114 63 180t164 66q66 0 119 -23v-88h-6q-42 23 -104 23t-99 -39t-37 -117z" />
    <glyph glyph-name="approxequal" unicode="&#x2248;" horiz-adv-x="1044" 
d="M721 383q-78 0 -218 53t-190 53q-104 0 -114 -114h-95q8 102 64 155q56 54 132 54t214 -54t205 -53q119 0 129 115h92q-16 -209 -219 -209zM721 680q-78 0 -218 53t-190 53q-104 0 -114 -114h-95q8 102 64 155t132 53t214 -52q138 -54 205 -54q119 0 129 115h92
q-16 -209 -219 -209z" />
    <glyph glyph-name="notequal" unicode="&#x2260;" horiz-adv-x="1044" 
d="M115 739v95h454l115 241h98l-114 -241h262v-95h-307l-101 -213h408v-94h-451l-119 -252h-98l119 252h-266v94h309l100 213h-409z" />
    <glyph glyph-name="lessequal" unicode="&#x2264;" horiz-adv-x="1005" 
d="M102 0v94h793v-94h-793zM895 240l-793 340v116l793 340v-100l-702 -297v-4l702 -295v-100z" />
    <glyph glyph-name="greaterequal" unicode="&#x2265;" horiz-adv-x="1005" 
d="M111 0v94h792v-94h-792zM111 1036l792 -340v-116l-792 -340v100l702 297v4l-702 295v100z" />
    <glyph glyph-name="uni24C5" unicode="&#x24c5;" horiz-adv-x="1662" 
d="M659 1071v-340h234q195 0 194 172q0 82 -49 125t-139 43h-240zM561 279v878h348q139 0 208 -71q69 -70 69 -188t-73 -184t-208 -65h-246v-370h-98zM831 31q287 0 476 197q188 198 188 499t-188 500q-187 199 -475 199t-476 -200q-188 -198 -188 -499t188 -499t475 -197z
M831 -35q-315 0 -530 217t-215 545t215 546t530 218t531 -218t215 -546q1 -328 -215 -545t-531 -217z" />
    <glyph glyph-name="lozenge" unicode="&#x25ca;" horiz-adv-x="1064" 
d="M532 106h5l344 621l-349 631h-4l-344 -625zM993 729l-409 -729h-101l-411 731l409 733h101z" />
    <glyph glyph-name="uniF8FF" unicode="&#xf8ff;" horiz-adv-x="1732" 
d="M375 883v-295h344v-346h295v346h344v295h-344v334h-295v-334h-344zM133 0v1466h1466v-1466h-1466z" />
    <glyph glyph-name="commaaccent" 
d="M506 -250v6h-53v146h120v-144q1 -156 -124 -176v60q57 27 57 108z" />
    <glyph glyph-name="f_i" horiz-adv-x="821" 
d="M612 1300v164h101v-164h-101zM612 0v1059h101v-1059h-101zM25 975v84h157v201q0 213 228 213h63v-89h-57q-74 0 -104 -32t-29 -95v-198h196v-84h-196v-975h-101v975h-157z" />
    <glyph glyph-name="f_l" horiz-adv-x="821" 
d="M612 0v1464h101v-1464h-101zM25 975v84h157v201q0 213 228 213h63v-89h-57q-74 0 -104 -32t-29 -95v-198h196v-84h-196v-975h-101v975h-157z" />
    <glyph glyph-name="zero.denominator" horiz-adv-x="770" 
d="M387 66q215 0 215 342q0 164 -55 254t-161 90t-162 -89t-56 -254t56 -254t163 -89zM385 -16q-151 0 -233 114t-82 310t86 310t230 114t229 -114q85 -112 85 -310t-82 -310q-82 -114 -233 -114z" />
    <glyph glyph-name="one.denominator" horiz-adv-x="528" 
d="M248 0v604h-180v66q92 2 139 36t59 115h76v-821h-94z" />
    <glyph glyph-name="two.denominator" horiz-adv-x="681" 
d="M352 752q-78 0 -126 -52t-50 -149h-90q0 135 75 208t193 73t189 -70q69 -68 69 -184t-103 -195q-45 -35 -110 -75q-105 -65 -156 -109t-65 -119h430v-80h-545q4 142 85 222t259 191q60 43 67 54q6 12 24 39t18 93q0 67 -43 110t-121 43z" />
    <glyph glyph-name="three.denominator" horiz-adv-x="696" 
d="M346 -16q-127 0 -209 74t-80 196h95q2 -92 54 -141t140 -49t136 44t48 122t-48 121q-48 42 -136 42h-57v76h55q76 0 118 39q42 40 42 106t-43 105t-119 39t-121 -51t-47 -134h-90q2 117 73 188t187 71t184 -59q70 -58 70 -159q0 -131 -123 -176v-4q154 -45 154 -209
q0 -113 -78 -177t-205 -64z" />
    <glyph glyph-name="four.denominator" horiz-adv-x="692" 
d="M129 279h295v405h-2l-293 -401v-4zM424 0v203h-379v92l383 528h88v-544h123v-76h-123v-203h-92z" />
    <glyph glyph-name="five.denominator" horiz-adv-x="679" 
d="M339 -16q-120 0 -197 64t-85 171h95q20 -154 182 -153q86 0 134 54t48 143t-49 140t-127 52q-119 0 -170 -76h-88l70 436h421v-82h-354l-41 -260h2q72 61 178 61t180 -72q74 -73 74 -198t-76 -203q-77 -77 -197 -77z" />
    <glyph glyph-name="six.denominator" horiz-adv-x="729" 
d="M382 63q85 -1 137 53t52 140t-54 141t-138 55t-142 -54q-59 -54 -59 -139t60 -141t144 -55zM383 -16q-121 0 -199 71q-115 104 -114 357q0 192 81 306t232 113q115 -1 181 -65t77 -160h-94q-6 60 -50 104t-110 44q-219 0 -225 -336h6q78 115 225 114q115 0 191 -80
t76 -193q0 -115 -78 -195t-199 -80z" />
    <glyph glyph-name="seven.denominator" horiz-adv-x="636" 
d="M494 733h-447v82h545v-80q-125 -127 -210 -319t-103 -416h-97q10 206 100 404t212 327v2z" />
    <glyph glyph-name="eight.denominator" horiz-adv-x="722" 
d="M199 621q-1 -61 41 -101t119 -41q77 0 121 40q44 39 44 101t-43 102t-120 40t-119 -40t-43 -101zM162 234q0 -77 53 -124t145 -47q92 1 146 49t55 124q0 76 -53 123q-52 49 -146 49t-147 -48t-53 -126zM657 236q0 -120 -84 -184t-210 -64q-125 0 -211 66t-86 179
q0 156 155 213v5q-117 51 -117 174q0 94 73 152q73 59 185 59t184 -58q71 -58 70 -151q0 -123 -118 -174v-4q72 -23 116 -80t43 -133z" />
    <glyph glyph-name="nine.denominator" horiz-adv-x="731" 
d="M160 558q0 -88 54 -142t141 -54t141 54t56 139q1 86 -58 143q-58 58 -142 58t-138 -56t-54 -142zM662 414q0 -430 -304 -430q-120 0 -196 63t-86 174h96q6 -69 55 -113t134 -44q200 -1 208 321h-4q-78 -102 -208 -102q-130 1 -209 79q-80 78 -80 194t80 196q81 80 201 80
t192 -60q69 -53 95 -138t26 -220z" />
    <glyph glyph-name="zero.numerator" horiz-adv-x="770" 
d="M387 715q215 0 215 342q0 164 -55 254t-161 90t-162 -89t-56 -254t56 -254t163 -89zM385 633q-151 -1 -233 113t-82 311t86 311t230 113q144 0 229 -113q85 -112 85 -310t-82 -312t-233 -113z" />
    <glyph glyph-name="one.numerator" horiz-adv-x="528" 
d="M248 649v604h-180v66q92 2 139 36t59 115h76v-821h-94z" />
    <glyph glyph-name="two.numerator" horiz-adv-x="681" 
d="M352 1401q-78 0 -126 -51t-50 -150h-90q0 135 75 208t193 73t189 -69q69 -69 69 -163t-46 -160q-30 -48 -131 -110t-123 -76q-76 -48 -102 -93q-25 -44 -32 -81h430v-80h-545q4 142 85 222t259 191q60 43 67 54q6 12 24 39t18 93q0 67 -43 110t-121 43z" />
    <glyph glyph-name="three.numerator" horiz-adv-x="696" 
d="M346 633q-127 0 -209 74t-80 196h95q2 -92 54 -141t140 -49t136 44t48 123q0 78 -48 120t-136 42h-57v76h55q76 0 118 39t42 106t-43 105t-119 39q-76 0 -121 -51t-47 -133h-90q2 117 73 187t187 71q116 -1 184 -59q70 -58 70 -158q0 -131 -123 -177v-4q154 -47 154 -209
q0 -113 -78 -177t-205 -64z" />
    <glyph glyph-name="four.numerator" horiz-adv-x="692" 
d="M129 928h295v405h-2l-293 -401v-4zM424 649v203h-379v92l383 529h88v-545h123v-76h-123v-203h-92z" />
    <glyph glyph-name="five.numerator" horiz-adv-x="679" 
d="M339 633q-120 1 -197 65t-85 170h95q20 -154 182 -153q86 0 134 54t48 143q0 88 -49 140t-127 52q-119 0 -170 -76h-88l70 436h421v-82h-354l-41 -260h2q72 62 178 62t180 -73t74 -198t-76 -203t-197 -77z" />
    <glyph glyph-name="six.numerator" horiz-adv-x="729" 
d="M382 713q85 0 137 53t52 139q0 85 -54 141t-138 56t-142 -54q-59 -54 -59 -140t60 -140q60 -55 144 -55zM383 633q-121 0 -199 72q-115 104 -114 356q0 193 81 307t232 113q115 0 181 -65t77 -161h-94q-6 61 -50 105t-110 43q-219 0 -225 -336h6q78 115 225 115
q115 0 191 -80t76 -194t-78 -194t-199 -81z" />
    <glyph glyph-name="seven.numerator" horiz-adv-x="636" 
d="M494 1382h-447v82h545v-80q-125 -126 -210 -318t-103 -417h-97q10 205 100 404q89 199 212 327v2z" />
    <glyph glyph-name="eight.numerator" horiz-adv-x="722" 
d="M199 1270q-1 -62 41 -102t119 -40t121 40t44 102t-43 101q-43 40 -120 40t-119 -40t-43 -101zM360 713q92 0 147 48q54 48 54 124t-53 124q-52 48 -146 48t-147 -48t-53 -125t53 -124t145 -47zM657 885q0 -119 -84 -183t-210 -65q-125 -1 -211 65t-86 181q0 156 155 213
v4q-117 51 -117 174q0 94 73 152t185 58t184 -58q71 -58 70 -150q0 -123 -118 -174v-4q72 -23 116 -80t43 -133z" />
    <glyph glyph-name="nine.numerator" horiz-adv-x="731" 
d="M355 1012q87 0 142 53q54 53 55 139t-58 144q-58 58 -142 57q-84 0 -138 -55q-54 -54 -54 -142t54 -142t141 -54zM662 1063q0 -430 -304 -430q-120 0 -196 63t-86 174h96q6 -70 55 -114t134 -43q85 0 135 55q68 74 73 266h-4q-78 -102 -208 -102t-209 79q-80 79 -80 193
t80 196q81 81 201 81t192 -60q69 -53 95 -138t26 -220z" />
    <glyph glyph-name="acute.cap" 
d="M428 1542l156 225h141l-207 -225h-90z" />
    <glyph glyph-name="breve.cap" 
d="M551 1542q-104 0 -170 58t-72 151h94q19 -115 147 -115t148 115h95q-6 -93 -72 -151t-170 -58z" />
    <glyph glyph-name="caron.alt" 
d="M506 1307v6h-53v151h120v-149q1 -152 -124 -172v59q57 27 57 105z" />
    <glyph glyph-name="caron.cap" 
d="M768 1747l-193 -207h-126l-193 207h121l135 -145h4l137 145h115z" />
    <glyph glyph-name="circumflex.cap" 
d="M256 1540l193 207h126l193 -207h-121l-135 146h-4l-137 -146h-115z" />
    <glyph glyph-name="commaaccent.alt" 
d="M506 -250v6h-53v146h120v-144q1 -156 -124 -176v60q57 27 57 108z" />
    <glyph glyph-name="dieresis.cap" horiz-adv-x="1064" 
d="M637 1546v164h100v-164h-100zM328 1546v164h100v-164h-100z" />
    <glyph glyph-name="dotaccent.cap" horiz-adv-x="1064" 
d="M481 1546v164h101v-164h-101z" />
    <glyph glyph-name="grave.cap" 
d="M596 1542h-90l-207 225h141z" />
    <glyph glyph-name="hungarumlaut.cap" 
d="M580 1542l82 225h122l-116 -225h-88zM315 1542l82 225h123l-117 -225h-88z" />
    <glyph glyph-name="macron.cap" 
d="M264 1561v100h496v-100h-496z" />
    <glyph glyph-name="ring.cap" horiz-adv-x="1042" 
d="M520 1587q43 0 72 31t29 76q0 46 -29 76t-72 30q-44 0 -72 -31t-28 -75t28 -76q28 -31 72 -31zM520 1520q-74 0 -126 51t-52 123t52 123t126 51t126 -51t52 -123t-52 -123t-126 -51z" />
    <glyph glyph-name="tilde.cap" 
d="M639 1556q-53 0 -137 44t-109 45q-25 0 -44 -23t-21 -61h-86q8 84 48 128t94 44t135 -44t108 -44q27 1 46 23t21 61h86q-6 -81 -47 -127t-94 -46z" />
    <glyph glyph-name="R.alt" horiz-adv-x="1218" 
d="M233 1370v-616h435q348 0 348 307q0 147 -88 228t-256 81h-439zM674 657h-441v-657h-106v1464h553q220 0 332 -108t112 -293q0 -309 -274 -385l340 -678h-115l-330 659q-23 -2 -71 -2z" />
    <glyph glyph-name="space_uni0326" 
d="M506 -250v6h-53v146h120v-144q1 -156 -124 -176v60q57 27 57 108z" />
    <glyph glyph-name="space_uni0326.alt" 
d="M518 1376v-6h53v-145h-120v143q-1 156 124 176v-59q-57 -27 -57 -109z" />
    <glyph glyph-name="a.alt" horiz-adv-x="974" 
d="M403 59q169 1 269 95t100 223v198q-78 -39 -295 -63q-86 -10 -132 -19t-98 -34q-99 -48 -97 -191q0 -106 71 -158t182 -51zM774 139v25h-6q-135 -190 -375 -191q-152 0 -249 79t-97 220q0 201 177 271q81 32 241 51q197 18 252 41t55 94v29q0 238 -270 238t-301 -238
h-101q20 156 124 240t282 83q178 0 272 -84t94 -245v-600q0 -121 33 -146v-6h-106q-25 35 -25 139z" />
    <glyph glyph-name="agrave.alt" horiz-adv-x="974" 
d="M573 1204h-90l-207 260h142zM403 59q169 1 269 95t100 223v198q-78 -39 -295 -63q-86 -10 -132 -19t-98 -34q-99 -48 -97 -191q0 -106 71 -158t182 -51zM774 139v25h-6q-135 -190 -375 -191q-152 0 -249 79t-97 220q0 201 177 271q81 32 241 51q197 18 252 41t55 94v29
q0 238 -270 238t-301 -238h-101q20 156 124 240t282 83q178 0 272 -84t94 -245v-600q0 -121 33 -146v-6h-106q-25 35 -25 139z" />
    <glyph glyph-name="aacute.alt" horiz-adv-x="974" 
d="M416 1204l155 260h142l-207 -260h-90zM403 59q169 1 269 95t100 223v198q-78 -39 -295 -63q-86 -10 -132 -19t-98 -34q-99 -48 -97 -191q0 -106 71 -158t182 -51zM774 139v25h-6q-135 -190 -375 -191q-152 0 -249 79t-97 220q0 201 177 271q81 32 241 51q197 18 252 41
t55 94v29q0 238 -270 238t-301 -238h-101q20 156 124 240t282 83q178 0 272 -84t94 -245v-600q0 -121 33 -146v-6h-106q-25 35 -25 139z" />
    <glyph glyph-name="acircumflex.alt" horiz-adv-x="974" 
d="M270 1212l164 218h127l164 -218h-117l-110 156h-4l-113 -156h-111zM403 59q169 1 269 95t100 223v198q-78 -39 -295 -63q-86 -10 -132 -19t-98 -34q-99 -48 -97 -191q0 -106 71 -158t182 -51zM774 139v25h-6q-135 -190 -375 -191q-152 0 -249 79t-97 220q0 201 177 271
q81 32 241 51q197 18 252 41t55 94v29q0 238 -270 238t-301 -238h-101q20 156 124 240t282 83q178 0 272 -84t94 -245v-600q0 -121 33 -146v-6h-106q-25 35 -25 139z" />
    <glyph glyph-name="atilde.alt" horiz-adv-x="974" 
d="M626 1229q-53 0 -137 44q-85 44 -109 44t-43 -23t-22 -61h-86q9 84 49 128t94 44t135 -44t107 -44q26 1 46 23q19 22 22 61h86q-6 -82 -48 -127t-94 -45zM403 59q169 1 269 95t100 223v198q-78 -39 -295 -63q-86 -10 -132 -19t-98 -34q-99 -48 -97 -191q0 -106 71 -158
t182 -51zM774 139v25h-6q-135 -190 -375 -191q-152 0 -249 79t-97 220q0 201 177 271q81 32 241 51q197 18 252 41t55 94v29q0 238 -270 238t-301 -238h-101q20 156 124 240t282 83q178 0 272 -84t94 -245v-600q0 -121 33 -146v-6h-106q-25 35 -25 139z" />
    <glyph glyph-name="adieresis.alt" horiz-adv-x="974" 
d="M602 1300v164h100v-164h-100zM293 1300v164h100v-164h-100zM403 59q169 1 269 95t100 223v198q-78 -39 -295 -63q-86 -10 -132 -19t-98 -34q-99 -48 -97 -191q0 -106 71 -158t182 -51zM774 139v25h-6q-135 -190 -375 -191q-152 0 -249 79t-97 220q0 201 177 271
q81 32 241 51q197 18 252 41t55 94v29q0 238 -270 238t-301 -238h-101q20 156 124 240t282 83q178 0 272 -84t94 -245v-600q0 -121 33 -146v-6h-106q-25 35 -25 139z" />
    <glyph glyph-name="amacron.alt" horiz-adv-x="974" 
d="M250 1290v101h495v-101h-495zM403 59q169 1 269 95t100 223v198q-78 -39 -295 -63q-86 -10 -132 -19t-98 -34q-99 -48 -97 -191q0 -106 71 -158t182 -51zM774 139v25h-6q-135 -190 -375 -191q-152 0 -249 79t-97 220q0 201 177 271q81 32 241 51q197 18 252 41t55 94v29
q0 238 -270 238t-301 -238h-101q20 156 124 240t282 83q178 0 272 -84t94 -245v-600q0 -121 33 -146v-6h-106q-25 35 -25 139z" />
    <glyph glyph-name="abreve.alt" horiz-adv-x="974" 
d="M498 1206q-102 0 -169 62t-73 155h94q10 -55 48 -88t100 -33t99 34q38 32 48 87h94q-7 -93 -73 -155t-168 -62zM403 59q169 1 269 95t100 223v198q-78 -39 -295 -63q-86 -10 -132 -19t-98 -34q-99 -48 -97 -191q0 -106 71 -158t182 -51zM774 139v25h-6
q-135 -190 -375 -191q-152 0 -249 79t-97 220q0 201 177 271q81 32 241 51q197 18 252 41t55 94v29q0 238 -270 238t-301 -238h-101q20 156 124 240t282 83q178 0 272 -84t94 -245v-600q0 -121 33 -146v-6h-106q-25 35 -25 139z" />
    <glyph glyph-name="aring.alt" horiz-adv-x="974" 
d="M498 1247q44 0 72 31t28 76t-29 76q-29 30 -71 30t-72 -30q-29 -30 -29 -76q0 -45 29 -76t72 -31zM498 1180q-74 0 -126 51t-53 123q1 72 53 123t126 51t126 -51t52 -123t-52 -123t-126 -51zM403 59q169 1 269 95t100 223v198q-78 -39 -295 -63q-86 -10 -132 -19t-98 -34
q-99 -48 -97 -191q0 -106 71 -158t182 -51zM774 139v25h-6q-135 -190 -375 -191q-152 0 -249 79t-97 220q0 201 177 271q81 32 241 51q197 18 252 41t55 94v29q0 238 -270 238t-301 -238h-101q20 156 124 240t282 83q178 0 272 -84t94 -245v-600q0 -121 33 -146v-6h-106
q-25 35 -25 139z" />
    <glyph glyph-name="aogonek.alt" horiz-adv-x="974" 
d="M403 59q169 1 269 95t100 223v198q-78 -39 -295 -63q-86 -10 -132 -19t-98 -34q-99 -48 -97 -191q0 -106 71 -158t182 -51zM774 164h-6q-135 -190 -375 -191q-152 0 -249 79t-97 220q0 201 177 271q81 32 241 51q197 18 252 41t55 94v29q0 238 -270 238t-301 -238h-101
q20 156 124 240t282 83q178 0 272 -84t94 -245v-600q0 -106 27 -146v-6q-80 -41 -130 -97t-50 -112q0 -72 84 -72q47 0 102 23h6v-72q-47 -28 -127 -28t-124 39t-44 104q1 125 179 227q-20 45 -21 127v25z" />
    <glyph glyph-name="Ccedilla.alt" horiz-adv-x="1343" 
d="M649 -197v131h121v-116q0 -156 -125 -162v59q55 14 57 88h-53zM704 -27q-292 0 -463 207t-171 549t174 553t471 211q217 0 360 -113t187 -317h-107q-31 154 -146 246q-116 92 -294 92q-259 1 -397 -189t-138 -483t136 -477t393 -184q209 0 335 129t146 333h100
q-20 -227 -135 -364q-159 -193 -451 -193z" />
    <glyph glyph-name="Scedilla.alt" horiz-adv-x="1189" 
d="M598 -27q-246 -1 -392 135t-159 355h109q8 -183 132 -289t312 -106t299 88t111 240t-94 215t-344 109t-361 130t-111 256t134 280t352 107q218 0 345 -112q128 -112 144 -296h-106q-15 150 -119 232t-271 82t-269 -81t-101 -210q0 -129 89 -189t316 -102
q311 -57 410 -156q98 -98 96 -258q0 -188 -138 -309t-384 -121zM526 -197v131h121v-116q0 -156 -125 -162v59q55 14 58 88h-54z" />
    <glyph glyph-name="ccedilla.alt" horiz-adv-x="966" 
d="M512 -27q-221 0 -341 154q-120 153 -120 401t121 401t342 152q168 0 276 -85t132 -242h-99q-49 242 -309 241q-182 0 -271 -131t-89 -336q0 -206 90 -336t268 -131q135 0 223 82t105 215h94q-20 -176 -131 -280t-291 -105zM438 -197v131h121v-116q0 -156 -125 -162v59
q55 14 58 88h-54z" />
    <glyph glyph-name="scedilla.alt" horiz-adv-x="886" 
d="M838 287q0 -137 -102 -225t-292 -89q-188 -1 -294 99t-115 247h102q10 -127 95 -193q86 -66 220 -67t210 61t76 158t-58 139q-56 44 -240 87t-277 104q-93 60 -93 190t102 207t258 76q334 0 377 -301h-98q-10 100 -84 156t-197 57q-122 0 -190 -53t-68 -139t69 -126
t249 -83q180 -44 264 -106q86 -62 86 -199zM389 -197v131h121v-116q0 -156 -125 -162v59q55 14 57 88h-53z" />
    <glyph glyph-name="hyphen.cap" horiz-adv-x="671" 
d="M68 625v92h536v-92h-536z" />
    <glyph glyph-name="endash.cap" 
d="M0 627v88h1024v-88h-1024z" />
    <glyph glyph-name="emdash.cap" horiz-adv-x="2048" 
d="M205 627v88h1638v-88h-1638z" />
    <glyph glyph-name="questiondown.cap" horiz-adv-x="1009" 
d="M616 1464v-161h-124v161h124zM604 1110q0 -172 -44 -260t-163 -186q-63 -53 -94 -83t-63 -96t-33 -145q0 -127 80 -200q79 -72 221 -72t232 95t96 243h104q-2 -176 -118 -304t-333 -129q-175 -1 -283 103t-108 262q0 86 14 123t22 59t26 46q18 26 27 38t35 37t33 32
t37 32t36 28q106 90 141 161t35 216h100z" />
    <glyph glyph-name="exclamdown.cap" horiz-adv-x="403" 
d="M264 1464v-161h-125v161h125zM258 0h-113v469l21 641h72l20 -641v-469z" />
    <glyph glyph-name="parenleft.cap" horiz-adv-x="555" 
d="M152 726q0 490 270 880h94q-250 -397 -250 -858q0 -516 250 -928h-94q-270 416 -270 906z" />
    <glyph glyph-name="parenright.cap" horiz-adv-x="555" 
d="M403 700q0 -490 -270 -880h-94q250 397 250 858q0 516 -250 928h94q270 -416 270 -906z" />
    <glyph glyph-name="bracketleft.cap" horiz-adv-x="577" 
d="M168 -180v1786h338v-93h-236v-1599h236v-94h-338z" />
    <glyph glyph-name="bracketright.cap" horiz-adv-x="577" 
d="M410 1606v-1786h-338v94h235v1599h-235v93h338z" />
    <glyph glyph-name="braceleft.cap" horiz-adv-x="577" 
d="M438 -180q-248 0 -248 254v454q0 74 -31 109q-32 35 -110 37v94q78 2 110 37t31 108v439q0 254 248 254h37v-93h-33q-80 -1 -114 -37t-35 -126v-445q0 -150 -115 -182v-4q115 -33 115 -182v-461q0 -90 35 -126t114 -36h33v-94h-37z" />
    <glyph glyph-name="braceright.cap" horiz-adv-x="577" 
d="M139 -180h-37v94h33q80 0 115 36t35 126v461q0 150 114 182v4q-115 33 -114 182v445q0 90 -35 127t-115 36h-33v93h37q248 0 248 -254v-439q0 -75 32 -109t109 -36v-94q-78 -2 -110 -37t-31 -109v-454q0 -254 -248 -254z" />
    <glyph glyph-name="guillemotleft.cap" horiz-adv-x="823" 
d="M377 350l-254 230v137l254 229v-127l-191 -170v-4l191 -168v-127zM700 350l-254 230v137l254 229v-127l-190 -170v-4l190 -168v-127z" />
    <glyph glyph-name="guillemotright.cap" horiz-adv-x="823" 
d="M446 946l254 -229v-137l-254 -230v127l191 170v4l-191 168v127zM123 946l254 -229v-137l-254 -230v127l190 170v4l-190 168v127z" />
    <glyph glyph-name="guilsinglleft.cap" horiz-adv-x="520" 
d="M397 350l-274 230v137l274 229v-127l-211 -170v-4l211 -168v-127z" />
    <glyph glyph-name="guilsinglright.cap" horiz-adv-x="520" 
d="M123 946l274 -229v-137l-274 -230v127l211 170v4l-211 168v127z" />
    <glyph glyph-name="registered.alt" horiz-adv-x="1662" 
d="M631 1075v-317h258q88 0 134 41t46 116q0 160 -170 160h-268zM532 297v864h383q119 0 187 -63t67 -172q0 -162 -151 -207v-4q66 -19 94 -69t35 -148q8 -180 37 -195v-6h-101q-25 12 -32 195q-4 102 -46 143t-137 41h-237v-379h-99zM831 31q287 0 476 197q188 198 188 499
t-188 500q-187 199 -475 199t-476 -200q-188 -198 -188 -499t188 -499t475 -197zM831 -35q-315 0 -530 217t-215 545t215 546t530 218t531 -218t215 -546q1 -328 -215 -545t-531 -217z" />
    <glyph glyph-name="dollar.cap" horiz-adv-x="1126" 
d="M205 1110q0 -117 74 -176t249 -96v551q-150 -8 -236 -85t-87 -194zM954 421q0 136 -73 197q-74 61 -269 105v-617q150 8 246 94t96 221zM528 -164v184q-219 18 -343 146t-134 321h103q6 -162 107 -262t267 -116v630q-221 45 -323 124q-103 79 -103 241t119 265t307 110
v120h84v-122q178 -13 284 -119t122 -271h-103q-12 131 -94 209t-209 90v-565q109 -23 180 -47q182 -60 236 -177q33 -69 33 -165q0 -176 -125 -292t-324 -122v-182h-84z" />
    <glyph glyph-name="Euro.cap" horiz-adv-x="1275" 
d="M45 819v86h148q35 270 173 429t355 159q182 0 301 -112t154 -316h-105q-61 334 -350 334q-183 0 -289 -132t-133 -362h467v-86h-473q-2 -29 -2 -89t2 -89h473v-86h-465q29 -223 133 -354t280 -131t273 127q96 127 117 335h102q-18 -258 -147 -408t-344 -151
q-215 0 -351 156t-171 426h-148v86h139q-2 29 -2 89t2 89h-139z" />
    <glyph glyph-name="sterling.cap" horiz-adv-x="1120" 
d="M254 1077q0 -93 84 -317h360v-88h-329q25 -94 24 -172q0 -242 -149 -371l2 -4q82 43 154 43t192 -48q119 -48 188 -48q104 0 221 104l60 -76q-74 -63 -134 -92q-61 -28 -157 -28t-207 51t-199 51t-225 -92l-61 90q217 160 217 405q0 90 -37 187h-178v88h147
q-80 203 -80 319q0 174 115 294t318 120q204 0 326 -122t124 -329h-102q-2 180 -100 270t-250 89q-150 0 -237 -89t-87 -235z" />
    <glyph glyph-name="yen.cap" horiz-adv-x="1077" 
d="M102 612v84h357l-434 768h122l390 -704h4l393 704h119l-439 -768h357v-84h-381v-163h381v-87h-381v-362h-107v362h-381v87h381v163h-381z" />
    <glyph glyph-name="zero.cap" horiz-adv-x="1216" 
d="M609 1397q-205 0 -317 -169t-112 -493q0 -325 114 -495t318 -170q205 0 315 168q109 168 109 492t-111 496q-112 171 -316 171zM608 -27q-256 0 -397 203t-141 557t146 557t394 203t392 -202t144 -557t-140 -558q-142 -203 -398 -203z" />
    <glyph glyph-name="one.cap" horiz-adv-x="673" 
d="M371 0v1128h-301v70q193 10 256 60t77 215h74v-1473h-106z" />
    <glyph glyph-name="two.cap" horiz-adv-x="1050" 
d="M66 0q0 106 30 196t65 148q36 57 110 122q75 65 121 96t146 92q99 61 111 70t52 36t52 40q11 13 39 41q28 27 36 49t26 61t18 130q0 156 -82 237q-83 81 -236 81t-247 -95t-102 -288h-105q2 227 133 352t328 125t309 -116t111 -292q-1 -110 -25 -162q-24 -51 -38 -81
t-46 -61q-32 -32 -60 -61q-27 -29 -81 -61q-53 -32 -103 -63t-109 -66t-137 -97q-79 -62 -110 -103q-79 -104 -90 -234h787v-96h-903z" />
    <glyph glyph-name="three.cap" horiz-adv-x="1067" 
d="M999 397q-1 -195 -125 -309t-334 -115q-210 0 -345 127t-136 334h109q8 -172 110 -267t266 -95q165 0 255 89t90 243t-90 240q-90 85 -254 85h-109v94h107q137 0 216 77t79 214t-81 212t-225 75q-144 -1 -231 -101q-88 -100 -90 -260h-107q2 201 119 327t307 126
t304 -103q113 -103 112 -278q0 -240 -207 -326v-6q260 -94 260 -383z" />
    <glyph glyph-name="four.cap" horiz-adv-x="1107" 
d="M158 481h569v809h-4l-565 -803v-6zM727 0v389h-680v103l690 987h94v-998h222v-92h-222v-389h-104z" />
    <glyph glyph-name="five.cap" horiz-adv-x="1030" 
d="M527 936q185 0 311 -123t125 -344q0 -221 -125 -359t-329 -137q-204 0 -326 113t-126 291h105q39 -307 340 -307q166 0 258 110t92 285q0 174 -92 275t-242 102q-225 0 -321 -152h-101l107 774h698v-94h-616l-74 -547h6q125 113 310 113z" />
    <glyph glyph-name="six.cap" horiz-adv-x="1095" 
d="M571 66q158 0 253 112q96 112 96 284q0 171 -94 274q-94 104 -248 104q-156 0 -260 -110t-105 -280q0 -170 100 -278q100 -106 258 -106zM580 932q204 0 326 -129t122 -341t-122 -350t-318 -139q-196 0 -330 121q-188 168 -188 647q0 332 137 542t389 210q172 0 275 -98
t120 -262h-106q-12 125 -88 195t-199 71q-213 1 -318 -191t-102 -538h4q131 262 398 262z" />
    <glyph glyph-name="seven.cap" horiz-adv-x="1003" 
d="M846 1370h-799v94h911v-96q-220 -228 -370 -588t-189 -780h-114q33 381 187 755q155 374 374 611v4z" />
    <glyph glyph-name="eight.cap" horiz-adv-x="1112" 
d="M549 834q145 0 232 82t87 202q0 119 -84 202t-230 83t-230 -84t-84 -203q0 -118 82 -200t227 -82zM554 66q175 0 280 97q104 97 104 243t-105 242q-105 95 -281 95t-278 -95q-100 -95 -100 -242t102 -244q103 -96 278 -96zM1047 406q-1 -199 -141 -316t-349 -117
t-350 119t-141 314q0 143 76 241q77 98 208 144v6q-102 41 -160 127q-57 86 -57 196q0 162 119 268q118 106 306 105q188 0 302 -108t115 -265q1 -112 -59 -194t-164 -125v-6q127 -37 211 -145t84 -244z" />
    <glyph glyph-name="nine.cap" horiz-adv-x="1097" 
d="M178 1006q0 -172 93 -274t251 -103t260 107t102 280t-98 278t-255 106t-255 -111t-98 -283zM504 -27q-174 1 -285 99t-121 262h111q12 -123 91 -195t202 -71q430 0 420 727h-4q-56 -123 -160 -191t-236 -67q-202 0 -328 129t-126 339t128 349t322 139t324 -117
q102 -88 144 -248t42 -403q0 -422 -186 -616q-125 -136 -338 -136z" />
    <glyph glyph-name="percent.cap" horiz-adv-x="1617" 
d="M356 0l811 1464h95l-811 -1464h-95zM372 1413q-90 0 -148 -79q-58 -78 -58 -234t60 -237t148 -81q89 0 147 79q59 79 59 235t-60 236t-148 81zM1246 53q89 0 148 79q58 79 58 235q0 157 -59 237t-149 80t-147 -79q-59 -79 -59 -235t60 -236q60 -81 148 -81zM1245 -27
q-131 -1 -217 105t-86 292t87 289q87 105 216 105t216 -104t87 -289q0 -186 -86 -292t-217 -106zM373 702q-131 0 -217 106t-86 290q0 186 87 290t216 105q129 0 216 -103q87 -104 87 -290t-86 -292t-217 -106z" />
    <glyph glyph-name="perthousand.cap" horiz-adv-x="2301" 
d="M336 0l811 1464h94l-811 -1464h-94zM372 1413q-90 0 -148 -79q-58 -78 -58 -234t60 -237t148 -81q89 0 147 79q59 79 59 235t-60 236t-148 81zM1930 53q89 0 148 79q58 79 58 235q0 157 -59 237t-149 80t-147 -79q-59 -79 -59 -235t60 -236q60 -81 148 -81zM1205 53
q89 0 148 79q58 79 58 235q0 157 -59 237q-58 80 -148 80t-148 -79t-58 -235t58 -236q60 -81 149 -81zM1929 -27q-131 -1 -217 105t-86 292t87 289q87 105 216 105t216 -104t87 -289q0 -186 -86 -292t-217 -106zM1204 -27q-131 -1 -217 105t-86 292t87 289q87 105 216 105
t216 -104t87 -289q0 -186 -86 -292t-217 -106zM373 702q-131 0 -217 106t-86 290q0 186 87 290t216 105q129 0 216 -103q87 -104 87 -290t-86 -292t-217 -106z" />
    </font>
</defs>
</svg>
